<?xml version="1.0" encoding="utf-8"?>
<!-- Generator: Adobe Illustrator 21.0.2, SVG Export Plug-In . SVG Version: 6.00 Build 0)  -->
<svg version="1.1" id="Layer_1" xmlns="http://www.w3.org/2000/svg" xmlns:xlink="http://www.w3.org/1999/xlink" x="0px" y="0px"
	 viewBox="0 0 512 512" style="enable-background:new 0 0 512 512;" xml:space="preserve">
<style type="text/css">
	.st0{fill:#FFFFFF;}
</style>
<g>
	<g>
		<path class="st0" d="M386.7,0c-0.6,0-1.1,0-1.7,0H58.3C29.1,0,5.4,23.6,5.2,52.7c0,0.1,0,0.1,0,0.2v421.6
			C5.2,495.2,22,512,42.6,512h272c20.7,0,37.5-16.8,37.5-37.5V162.1h61.5c13.6,0,24.8-11.1,24.8-24.8V54C438.4,25,415.2,0.8,386.7,0
			z M332.1,52.7c0,0.1,0,0.1,0,0.2v421.6c0,9.6-7.8,17.5-17.5,17.5h-272c-9.6,0-17.5-7.8-17.5-17.5V53.1C25.2,34.9,40,20,58.3,20
			h285.4C336.3,29.3,332.2,40.7,332.1,52.7z M418.4,137.3c0,2.6-2.1,4.8-4.8,4.8h-61.5v-89c0-9,3.6-17.5,10-23.8
			c6.2-6.1,14.4-9.4,23-9.4h0.1c0.3,0,0.6,0,0.9,0c17.8,0.5,32.2,15.8,32.2,34L418.4,137.3L418.4,137.3z"/>
	</g>
</g>
<g>
	<g>
		<path class="st0" d="M137.7,58.6c-43.6,0-79.1,35.5-79.1,79.1s35.5,79.1,79.1,79.1s79.1-35.5,79.1-79.1
			C216.8,94.1,181.3,58.6,137.7,58.6z M137.7,196.7c-32.6,0-59.1-26.5-59.1-59.1s26.5-59.1,59.1-59.1s59.1,26.5,59.1,59.1
			S170.3,196.7,137.7,196.7z"/>
	</g>
</g>
<g>
	<g>
		<path class="st0" d="M137.7,151.6c-7.7,0-13.9-6.2-13.9-13.9s6.2-13.9,13.9-13.9c5.5,0,10-4.5,10-10s-4.5-10-10-10
			c-18.7,0-33.9,15.2-33.9,33.9s15.2,33.9,33.9,33.9c5.5,0,10-4.5,10-10C147.7,156,143.2,151.6,137.7,151.6z"/>
	</g>
</g>
<g>
	<g>
		<path class="st0" d="M280.5,255.6H68.6c-5.5,0-10,4.5-10,10s4.5,10,10,10h211.9c5.5,0,10-4.5,10-10S286,255.6,280.5,255.6z"/>
	</g>
</g>
<g>
	<g>
		<path class="st0" d="M280.5,298H68.6c-5.5,0-10,4.5-10,10s4.5,10,10,10h211.9c5.5,0,10-4.5,10-10S286,298,280.5,298z"/>
	</g>
</g>
<g>
	<g>
		<path class="st0" d="M178.6,342.8h-110c-5.5,0-10,4.5-10,10s4.5,10,10,10h110c5.5,0,10-4.5,10-10S184.2,342.8,178.6,342.8z"/>
	</g>
</g>
<g>
	<g>
		<path class="st0" d="M478.8,366v-30l16.9-33c1.4-2.8,1.5-6.2,0-9l-44-88.1c-1.7-3.4-5.2-5.5-8.9-5.5l0,0c-3.8,0-7.3,2.2-8.9,5.6
			l-44,88.9c-1.4,2.9-1.4,6.2,0.1,9.1l16.9,32.3v30c-16,3.5-28.1,17.8-28.1,34.9c0,0.3,0,0.7,0,1l10,100.8c0.5,5.1,4.8,9,10,9h88
			c5.1,0,9.4-3.9,10-9l10.1-101.1c0-0.3,0-0.7,0-1C506.8,383.9,494.8,369.6,478.8,366z M432.8,253v41.8c0,5.5,4.5,10,10,10
			s10-4.5,10-10v-42.1l22.8,45.6l-12.9,25.3h-39.8L410,299L432.8,253z M458.8,343.6v21.6h-32v-21.6H458.8z M477.7,492h-69.9
			l-9.1-91.5c0.2-8.5,7.2-15.3,15.7-15.3h2.3h52h2.3c8.5,0,15.5,6.8,15.7,15.3L477.7,492z"/>
	</g>
</g>
<g>
	<g>
		<path class="st0" d="M180.5,442.3c-2.7-4.8-8.7-6.6-13.6-4c-2.2,1.2-4.9,0.9-6.8-0.7c-7.1-6.2-17.1-8.1-26-4.9l-16.9,6.1
			c-1.2,0.3-2.3-0.1-3.3-1.1l-2.2-2.4c-6.2-6.7-15.5-9.3-24.1-6.6l-19.7,6.1c-5.3,1.6-8.2,7.2-6.6,12.5c1.6,5.3,7.2,8.2,12.5,6.6
			l19.7-6.1c1.2-0.4,2.5,0,3.5,1.1l2.2,2.4c6.2,6.7,15.3,9.2,23.9,6.6c0.2-0.1,0.4-0.1,0.5-0.2l17.3-6.3c2-0.7,4.3-0.3,6,1.1
			c4.8,4.2,11,6.4,17.1,6.4c4.3,0,8.6-1,12.5-3.2C181.4,453.2,183.1,447.2,180.5,442.3z"/>
	</g>
</g>
<g>
	<g>
		<circle class="st0" cx="200.2" cy="445.6" r="10"/>
	</g>
</g>
</svg>
