<?xml version="1.0" encoding="utf-8"?>
<!-- Generator: Adobe Illustrator 21.0.2, SVG Export Plug-In . SVG Version: 6.00 Build 0)  -->
<svg version="1.1" id="Layer_1" xmlns="http://www.w3.org/2000/svg" xmlns:xlink="http://www.w3.org/1999/xlink" x="0px" y="0px"
	 viewBox="0 0 512 512" style="enable-background:new 0 0 512 512;" xml:space="preserve">
<style type="text/css">
	.st0{fill:#FFFFFF;}
</style>
<g>
	<g>
		<path class="st0" d="M344.1,386.8l-66-18l-10.4-15.6c-2.5-3.8-6.5-6.4-11-7.1c-0.4-0.1-0.8-0.1-1.2-0.1v-20.5l4.4-3.6
			c7.8-6.5,13-15.7,14.7-25.8l2.4-14.8h4.8c13.9,0,25.1-11.3,25.1-25.1v-17.1c0-11.8-8.2-21.8-19.2-24.4l1.6-9.9
			c4.8-29.8-3.7-60-23.3-82.9c-19.6-22.9-48.1-36.1-78.2-36.1s-58.7,13.2-78.2,36.1s-28.1,53.2-23.3,82.9l1.6,9.9
			c-11,2.7-19.2,12.6-19.2,24.4V256c0,13.9,11.3,25.1,25.1,25.1h4.8l2.4,14.8c1.6,10.1,6.8,19.2,14.7,25.8l4.4,3.6v20.5
			c-0.4,0-0.8,0.1-1.2,0.1c-4.5,0.8-8.5,3.4-11,7.1l-10.4,15.6l-66,18C12.8,391.7,0,408.5,0,427.5v59.4C0,500.7,11.3,512,25.1,512
			H350c13.9,0,25.1-11.3,25.1-25.1v-59.4C375.2,408.5,362.4,391.7,344.1,386.8z M285,230.4c3.4,1.3,5.8,4.6,5.8,8.5V256
			c0,5-4.1,9.1-9.1,9.1h-2.2L285,230.4z M93.5,265.1c-5,0-9.1-4.1-9.1-9.1v-17.1c0-3.8,2.4-7.1,5.8-8.5l5.5,34.6h-2.2V265.1z
			 M116.5,293.4L101.9,202c-4-25.1,3.1-50.7,19.7-70c16.5-19.4,40.6-30.5,66-30.5s49.5,11.1,66,30.5s23.7,44.9,19.7,70l-14.6,91.3
			c-1,6.3-4.2,11.9-9.1,16l-34.3,28.6c-3.2,2.6-7.2,4.1-11.3,4.1h-32.7c-4.1,0-8.1-1.5-11.3-4.1l-34.3-28.6
			C120.8,305.3,117.5,299.6,116.5,293.4z M239.4,338.7v13.8l-51.8,38.9l-51.8-38.9v-13.8l13.9,11.6c6,5,13.7,7.8,21.6,7.8H204
			c7.9,0,15.5-2.8,21.6-7.8L239.4,338.7z M59.9,496H25.1c-5,0-9.1-4.1-9.1-9.1v-59.4c0-4.7,1.3-9.2,3.6-13.2l33.9,28.2
			c4,3.4,6.3,8.3,6.3,13.5v40H59.9z M163.4,496H75.9v-39.8c0-10-4.4-19.5-12.1-25.9l-32.1-26.7c1.2-0.5,2.4-1,3.6-1.3L98.8,385
			l34.3,48c2.6,3.7,6.7,6.2,11.2,6.8c0.8,0.1,1.5,0.2,2.3,0.2c3.7,0,7.4-1.3,10.4-3.6l6.2-4.9c1.1,4.1,3.7,7.6,7.2,9.8L163.4,496z
			 M146.9,423.7c0,0-0.2,0.1-0.4,0.1s-0.3-0.2-0.4-0.2l-34.3-48l9-13.5c0-0.1,0.1-0.2,0.4-0.2c0.2,0,0.4,0.1,0.4,0.1l52.9,39.7
			L146.9,423.7z M179.6,496l6.5-52.4h2.9l6.5,52.4H179.6z M196.7,427c0,0.3-0.2,0.5-0.5,0.5H179c-0.3,0-0.5-0.2-0.5-0.5v-8.1
			l9.1-7.3l9.1,7.3L196.7,427L196.7,427z M253.6,361.9c0.1,0,0.2-0.1,0.4-0.1s0.3,0.2,0.4,0.2l9,13.5l-34.3,48
			c0,0.1-0.1,0.2-0.4,0.2c-0.2,0-0.4-0.1-0.4-0.1l-27.6-22.1L253.6,361.9z M299.3,456.1V496h-87.5l-6.9-54.9
			c3.5-2.2,6.1-5.7,7.2-9.8l6.1,4.9c2.9,2.4,6.6,3.6,10.4,3.6c0.8,0,1.5-0.1,2.3-0.2c4.5-0.6,8.6-3.1,11.2-6.8l34.3-48l63.5,17.3
			c1.3,0.3,2.5,0.8,3.6,1.3l-32.1,26.7C303.7,436.7,299.3,446.1,299.3,456.1z M359.1,486.9c0,5-4.1,9.1-9.1,9.1h-34.7v-39.8
			c0-5.2,2.3-10.2,6.3-13.5l33.9-28.2c2.3,3.9,3.6,8.4,3.6,13.2L359.1,486.9L359.1,486.9z"/>
	</g>
</g>
<g>
	<g>
		<path class="st0" d="M401.4,34.2c-42.1,0-76.4,34.3-76.4,76.4s34.3,76.4,76.4,76.4s76.4-34.3,76.4-76.4S443.5,34.2,401.4,34.2z
			 M401.4,171c-33.3,0-60.4-27.1-60.4-60.4s27.1-60.4,60.4-60.4s60.4,27.1,60.4,60.4S434.7,171,401.4,171z"/>
	</g>
</g>
<g>
	<g>
		<path class="st0" d="M403.5,102.9c-16.5-4.6-19.8-7.7-19.8-11.5c0-2.1,6.7-6.9,17.6-6.9c9.7,0,16.4,3.8,17.5,6.5
			c1.7,4.1,6.4,6,10.5,4.3s6-6.4,4.3-10.5c-3.3-8-12.7-13.8-24.3-15.7v-1.2c0-4.4-3.6-8-8-8s-8,3.6-8,8V69
			c-15.1,2.3-25.7,11.2-25.7,22.4c0,18.2,19,23.5,31.5,27c16.5,4.6,19.8,7.7,19.8,11.5c0,2.1-6.7,6.9-17.6,6.9
			c-9.7,0-16.4-3.8-17.5-6.5c-1.7-4.1-6.4-6-10.5-4.3s-6,6.4-4.3,10.5c3.3,8,12.7,13.8,24.3,15.7v1.2c0,4.4,3.6,8,8,8s8-3.6,8-8
			v-1.1c15.1-2.3,25.7-11.2,25.7-22.4C435,111.7,416.1,106.4,403.5,102.9z"/>
	</g>
</g>
<g>
	<g>
		<path class="st0" d="M475.2,28.2c-23.4-21-54.9-31-86.4-27.5c-51,5.6-91.9,46.7-97.4,97.7c-4.6,43.1,15.8,84.2,52.2,106.6
			l-9.9,40.6c-0.6,2.7,0.1,5.5,2,7.4c1.5,1.6,3.6,2.5,5.8,2.5c0.5,0,1-0.1,1.6-0.2c36.4-7.3,55.6-26.2,62.3-34.1
			c59.2-2.1,106.7-50.9,106.7-110.6C512,79.2,498.6,49.2,475.2,28.2z M401.4,205.2c-2.7,0-5.2,1.3-6.7,3.6
			c-0.1,0.2-12.3,18.1-42.2,27.6l8.2-33.4c0.9-3.5-0.8-7.2-4-9c-34.1-18.3-53.5-55.2-49.3-93.8c4.7-43.6,39.7-78.7,83.2-83.5
			c27.4-3,53.6,5.3,73.9,23.5c20,17.9,31.5,43.6,31.5,70.5C496,162.8,453.5,205.2,401.4,205.2z"/>
	</g>
</g>
</svg>
