<?xml version="1.0" encoding="utf-8"?>
<!-- Generator: Adobe Illustrator 21.0.2, SVG Export Plug-In . SVG Version: 6.00 Build 0)  -->
<svg version="1.1" id="Layer_1" xmlns="http://www.w3.org/2000/svg" xmlns:xlink="http://www.w3.org/1999/xlink" x="0px" y="0px"
	 viewBox="0 0 17.2 30" style="enable-background:new 0 0 17.2 30;" xml:space="preserve">
<style type="text/css">
	.st0{fill:#FFFFFF;}
</style>
<path id="Path_5682" class="st0" d="M17.2,0.3C17.1,0.1,16.9,0,16.7,0H5.5C5.3,0,5.1,0.1,5,0.4L0.2,14.6c-0.1,0.2,0,0.3,0.1,0.5
	c0.1,0.1,0.3,0.2,0.4,0.2h4.5L0,29.3c-0.1,0.3,0,0.6,0.3,0.7c0.1,0,0.1,0,0.2,0c0.2,0,0.3-0.1,0.4-0.2l14.5-17.4
	c0.1-0.2,0.2-0.4,0.1-0.6c-0.1-0.2-0.3-0.3-0.5-0.3h-4.2l6.3-10.7C17.3,0.6,17.2,0.4,17.2,0.3z M9.5,11.8c-0.1,0.2-0.1,0.4,0,0.5
	c0.1,0.2,0.3,0.3,0.5,0.3h4L2.2,26.7l4.4-11.8c0.1-0.2,0-0.4-0.1-0.5c-0.1-0.1-0.3-0.2-0.4-0.2H1.5L5.9,1.1h9.8L9.5,11.8z"/>
</svg>
