<?xml version="1.0" encoding="utf-8"?>
<!-- Generator: Adobe Illustrator 21.0.2, SVG Export Plug-In . SVG Version: 6.00 Build 0)  -->
<svg version="1.1" id="Layer_1" xmlns="http://www.w3.org/2000/svg" xmlns:xlink="http://www.w3.org/1999/xlink" x="0px" y="0px"
	 viewBox="0 0 512 512" style="enable-background:new 0 0 512 512;" xml:space="preserve">
<style type="text/css">
	.st0{fill:#FFFFFF;}
</style>
<g>
	<g>
		<path class="st0" d="M227.7,208.7h-7.1v-22.8h17.9c4.5,0,8.2-3.6,8.2-8.2c0-4.5-3.6-8.2-8.2-8.2h-17.9v-9.2c0-4.5-3.7-8.2-8.2-8.2
			s-8.2,3.6-8.2,8.2v9.2h-7.1c-10.5,0-19,8.5-19,19V206c0,10.5,8.5,19,19,19h7.1v22.8h-17.9c-4.5,0-8.2,3.7-8.2,8.2s3.7,8.2,8.2,8.2
			h17.9v9.2c0,4.5,3.7,8.2,8.2,8.2s8.2-3.7,8.2-8.2v-9.2h7.1c10.5,0,19-8.5,19-19v-17.4C246.8,217.2,238.2,208.7,227.7,208.7z
			 M204.4,208.7h-7.1c-1.5,0-2.7-1.2-2.7-2.7v-17.4c0-1.5,1.2-2.7,2.7-2.7h7.1V208.7L204.4,208.7z M230.5,245.1
			c0,1.5-1.2,2.7-2.7,2.7h-7.1V225h7.1c1.5,0,2.7,1.2,2.7,2.7V245.1z"/>
	</g>
</g>
<g>
	<g>
		<path class="st0" d="M509.6,216.6l-36.9-36.9c-3.2-3.2-8.3-3.2-11.5,0L425,215.8V8.2c0-4.5-3.7-8.2-8.2-8.2H8.2C3.7,0,0,3.7,0,8.2
			v395.7c0,4.5,3.7,8.2,8.2,8.2s8.2-3.6,8.2-8.2V16.3h392.4v215.8l-59.2,59.2h-20.2V142.4H356c4.5,0,8.2-3.6,8.2-8.2v-26.1
			c0-4.5-3.6-8.2-8.2-8.2h-32.4L216.9,31.7c-2.7-1.7-6.1-1.7-8.8,0L101.4,100H69c-4.5,0-8.2,3.6-8.2,8.2v26.1c0,4.5,3.7,8.2,8.2,8.2
			h26.6v148.9H69c-4.5,0-8.2,3.6-8.2,8.2v26.1c0,4.5,3.7,8.2,8.2,8.2h238.1l-60.9,60.9c0,0,0,0-0.1,0.1c-1,0.9-1.7,2-2.2,3.4
			l-18.4,55.3c-2.1,6.2,4.1,12.4,10.3,10.3l55.3-18.4c1.3-0.4,2.5-1.2,3.4-2.2l0.1-0.1l49.9-50.9c3.2-3.2,3.1-8.4-0.1-11.5
			c-3.2-3.2-8.4-3.1-11.5,0.1l-44.1,45l-25.3-25.3L436,228l25.4,25.4l-92.5,92.5c-3.2,3.2-3.2,8.3,0,11.5s8.3,3.2,11.5,0l28.4-28.4
			v88.4h-70.1c-4.5,0-8.2,3.6-8.2,8.2v70.1H16.3v-48.4c0-4.5-3.6-8.2-8.2-8.2S0,442.8,0,447.3v56.5c0,4.5,3.7,8.2,8.2,8.2h330.5
			c2.1,0,4.3-0.9,5.8-2.4l78.3-78.3c1.5-1.5,2.4-3.6,2.4-5.8V312.7l53.6-53.6l31-31C512.8,224.9,512.8,219.8,509.6,216.6z
			 M273.9,433.9l-27.7,9.2l9.2-27.7L273.9,433.9z M212.5,48.3l80.8,51.7H131.7L212.5,48.3z M77.2,126.1v-9.8h270.7v9.8H77.2z
			 M313.1,142.4v148.9h-27.2V142.4H313.1z M269.6,142.4v148.9H155.4V142.4H269.6z M139.1,142.4v148.9H112V142.4H139.1z M323.5,317.4
			H77.2v-9.8h256.1L323.5,317.4z M346.8,484.2v-50.4h50.4L346.8,484.2z M472.8,241.8l-25.4-25.4L467,197l25.4,25.4L472.8,241.8z"/>
	</g>
</g>
<g>
	<g>
		<path class="st0" d="M208.2,404.4H103.8c-4.5,0-8.2,3.7-8.2,8.2s3.6,8.2,8.2,8.2h104.4c4.5,0,8.2-3.6,8.2-8.2
			S212.7,404.4,208.2,404.4z"/>
	</g>
</g>
<g>
	<g>
		<path class="st0" d="M216.9,447.9H103.8c-4.5,0-8.2,3.6-8.2,8.2s3.6,8.2,8.2,8.2h113.1c4.5,0,8.2-3.7,8.2-8.2
			S221.4,447.9,216.9,447.9z"/>
	</g>
</g>
<g>
	<g>
		<path class="st0" d="M208.2,360.9H103.8c-4.5,0-8.2,3.6-8.2,8.2c0,4.5,3.6,8.2,8.2,8.2h104.4c4.5,0,8.2-3.6,8.2-8.2
			C216.3,364.5,212.7,360.9,208.2,360.9z"/>
	</g>
</g>
</svg>
