<?xml version="1.0" encoding="utf-8"?>
<!-- Generator: Adobe Illustrator 21.0.2, SVG Export Plug-In . SVG Version: 6.00 Build 0)  -->
<svg version="1.1" id="Layer_1" xmlns="http://www.w3.org/2000/svg" xmlns:xlink="http://www.w3.org/1999/xlink" x="0px" y="0px"
	 viewBox="0 0 30 36" style="enable-background:new 0 0 30 36;" xml:space="preserve">
<style type="text/css">
	.st0{fill:#FFFFFF;}
</style>
<g id="Group_1051" transform="translate(2839.231 -1094)">
	<path id="Path_5736" class="st0" d="M-2812.2,1094h-21.6c-1.4,0-2.7,1-2.9,2.5c-1.4,0.3-2.5,1.5-2.5,2.9v27.6c0,1.7,1.3,3,3,3h21.6
		c1.4,0,2.7-1,2.9-2.5c1.4-0.3,2.5-1.5,2.5-2.9V1097C-2809.2,1095.3-2810.6,1094-2812.2,1094z M-2812.8,1127c0,1-0.8,1.8-1.8,1.8
		l0,0h-21.6c-1,0-1.8-0.8-1.8-1.8v-27.6c0-1,0.8-1.8,1.8-1.8h18v4.8c0,0.3,0.3,0.6,0.6,0.6h4.8V1127z M-2817,1101.8v-3.4l3.4,3.4
		H-2817z M-2810.4,1124.6c0,0.8-0.5,1.4-1.2,1.7v-23.9c0-0.2-0.1-0.3-0.2-0.4l-5.4-5.4c-0.1-0.1-0.3-0.2-0.4-0.2h-17.9
		c0.3-0.7,0.9-1.2,1.7-1.2h21.6c1,0,1.8,0.8,1.8,1.8c0,0,0,0,0,0V1124.6z"/>
	<path id="Path_5737" class="st0" d="M-2825.4,1103c-4.6,0-8.4,3.8-8.4,8.4s3.8,8.4,8.4,8.4s8.4-3.8,8.4-8.4l0,0
		C-2817,1106.8-2820.8,1103-2825.4,1103z M-2825.4,1118.6c-4,0-7.2-3.2-7.2-7.2s3.2-7.2,7.2-7.2c4,0,7.2,3.2,7.2,7.2l0,0
		C-2818.2,1115.4-2821.5,1118.6-2825.4,1118.6z"/>
	
		<rect id="Rectangle_945" x="-2829.8" y="1110.8" transform="matrix(0.5547 -0.8321 0.8321 0.5547 -2183.0105 -1856.0168)" class="st0" width="8.7" height="1.2"/>
	<path id="Path_5738" class="st0" d="M-2822.4,1111.4c-1,0-1.8,0.8-1.8,1.8c0,1,0.8,1.8,1.8,1.8s1.8-0.8,1.8-1.8
		C-2820.6,1112.2-2821.4,1111.4-2822.4,1111.4L-2822.4,1111.4z M-2822.4,1113.8c-0.3,0-0.6-0.3-0.6-0.6c0-0.3,0.3-0.6,0.6-0.6
		s0.6,0.3,0.6,0.6C-2821.8,1113.5-2822.1,1113.8-2822.4,1113.8L-2822.4,1113.8z"/>
	<path id="Path_5739" class="st0" d="M-2828.4,1107.8c-1,0-1.8,0.8-1.8,1.8c0,1,0.8,1.8,1.8,1.8s1.8-0.8,1.8-1.8
		C-2826.6,1108.6-2827.4,1107.8-2828.4,1107.8L-2828.4,1107.8z M-2828.4,1110.2c-0.3,0-0.6-0.3-0.6-0.6c0-0.3,0.3-0.6,0.6-0.6
		c0.3,0,0.6,0.3,0.6,0.6C-2827.8,1109.9-2828.1,1110.2-2828.4,1110.2L-2828.4,1110.2z"/>
	<path id="Path_5740" class="st0" d="M-2822.3,1120.6l-3.2,3.2l-1.4-1.4l-0.8,0.8l1.8,1.8c0.2,0.2,0.6,0.2,0.8,0l3.6-3.6
		L-2822.3,1120.6z"/>
</g>
</svg>
