<?xml version="1.0" encoding="utf-8"?>
<!-- Generator: Adobe Illustrator 21.0.2, SVG Export Plug-In . SVG Version: 6.00 Build 0)  -->
<svg version="1.1" id="Capa_1" xmlns="http://www.w3.org/2000/svg" xmlns:xlink="http://www.w3.org/1999/xlink" x="0px" y="0px"
	 viewBox="0 0 356.9 356.9" style="enable-background:new 0 0 356.9 356.9;" xml:space="preserve">
<style type="text/css">
	.st0{fill:#FFFFFF;}
</style>
<g>
	<path class="st0" d="M264.9,58c-51.6,0-92,21.4-92,48.7v8.4c-11.2,0.7-21.9,3.4-31.8,7.7c-14.1-4.7-31-7.3-49.2-7.3
		c-51.6,0-92,21.4-92,48.7v28.5v29v28.5c0,27.3,40.4,48.7,92,48.7c18.5,0,35.6-2.8,49.9-7.6c11.2,4.9,23.6,7.6,36.5,7.6
		s25.3-2.7,36.5-7.6c14.3,4.8,31.4,7.6,49.9,7.6c51.6,0,92-21.4,92-48.7v-28.5v-29v-28.5v-29v-28.5C356.9,79.4,316.5,58,264.9,58z
		 M206.2,81.1c15.6-7.8,36.4-12.1,58.7-12.1s43.1,4.3,58.7,12.1c14.2,7.1,22.3,16.4,22.3,25.7c0,9.2-8.1,18.6-22.3,25.6
		c-15.6,7.8-36.4,12.1-58.7,12.1c-6.9,0-13.6-0.4-20.1-1.2c-15.1-15.7-35.6-26.1-58.6-28c-1.5-2.8-2.3-5.7-2.3-8.5
		C183.9,97.5,192.1,88.2,206.2,81.1z M178.4,287.9c-7.5,0-14.7-1-21.5-2.9c-5-1.4-9.9-3.3-14.5-5.6c-6.5-3.2-12.4-7.3-17.8-12
		c-3.3-2.9-6.4-6.2-9.2-9.6c-4.1-5.1-7.7-10.8-10.5-16.8c-1.6-3.5-3-7.1-4.1-10.8c-1.7-5.5-2.8-11.3-3.2-17.3c-0.1-2-0.2-4-0.2-6
		c0-1.7,0.1-3.4,0.2-5.1c1.8-29.3,19.3-54.5,44.2-67.1c4.6-2.3,9.4-4.2,14.4-5.7c5.4-1.5,11-2.5,16.7-2.9c1.8-0.1,3.7-0.2,5.5-0.2
		c0.6,0,1.1,0,1.7,0c1.3,0,2.6,0.1,3.8,0.2c5.5,0.4,10.8,1.3,16,2.7c7.8,2.1,15.1,5.4,21.8,9.6c6.6,4.2,12.6,9.3,17.7,15.2
		c4.9,5.6,9.1,11.9,12.3,18.8c1.7,3.6,3.2,7.4,4.3,11.3c1.7,5.8,2.8,11.9,3.2,18.1c0.1,1.7,0.2,3.4,0.2,5.1c0,2-0.1,4-0.2,6
		c-0.4,6-1.5,11.8-3.2,17.3c-1.1,3.7-2.5,7.3-4.1,10.8c-2.8,6-6.3,11.7-10.5,16.8c-2.8,3.4-5.9,6.7-9.2,9.6
		c-5.3,4.8-11.3,8.8-17.8,12c-4.6,2.3-9.5,4.2-14.5,5.6C193.1,286.9,185.9,287.9,178.4,287.9z M33.3,138.6
		c15.6-7.8,36.4-12.1,58.7-12.1c12.5,0,24.6,1.4,35.5,3.9c-23.4,15.6-39.2,41.7-40.8,71.5c-20.2-0.6-39-4.8-53.3-12
		C19.1,182.8,11,173.4,11,164.2S19.1,145.6,33.3,138.6z M86.7,212.9c0.4,6,1.4,11.9,2.8,17.5c-21.3-0.3-41.2-4.6-56.2-12.1
		C19.1,211.2,11,201.9,11,192.7v-5C25.6,202.1,53.6,211.9,86.7,212.9z M92,241.4c0.4,0,0.8,0,1.2,0c2.5,6.3,5.8,12.2,9.5,17.7
		c-3.5,0.2-7.1,0.3-10.8,0.3c-22.3,0-43.1-4.3-58.7-12.1C19.1,240.2,11,230.9,11,221.7v-5.5C26.4,231.3,56.6,241.4,92,241.4z
		 M92,287.9c-22.3,0-43.1-4.3-58.7-12.1C19.1,268.7,11,259.4,11,250.1v-5c15.4,15.2,45.6,25.3,81,25.3c6.6,0,12.9-0.3,19.1-1
		c5.1,5.5,10.8,10.3,17,14.4C117,286.5,104.7,287.9,92,287.9z M345.9,250.1c0,9.2-8.1,18.6-22.3,25.6c-15.6,7.8-36.4,12.1-58.7,12.1
		c-12.7,0-25-1.4-36.1-4.1c6.2-4.1,12-8.9,17-14.4c6.1,0.7,12.5,1,19.1,1c35.4,0,65.5-10.1,81-25.3V250.1z M345.9,221.7
		c0,9.2-8.1,18.6-22.3,25.6c-15.6,7.8-36.4,12.1-58.7,12.1c-3.6,0-7.2-0.1-10.8-0.3c3.8-5.5,7-11.4,9.5-17.7c0.4,0,0.8,0,1.2,0
		c35.4,0,65.5-10.1,81-25.3v5.6H345.9z M345.9,192.7c0,9.2-8.1,18.6-22.3,25.6c-15,7.5-34.9,11.8-56.2,12.1
		c1.5-5.6,2.5-11.5,2.8-17.5c33.1-1,61-10.8,75.7-25.2L345.9,192.7L345.9,192.7z M345.9,164.2c0,9.2-8.1,18.6-22.3,25.6
		c-14.3,7.2-33.1,11.4-53.3,12c-0.3-6.2-1.3-12.2-2.8-17.9c34.3-0.5,63.3-10.4,78.4-25.2L345.9,164.2L345.9,164.2z M345.9,135.2
		c0,9.2-8.1,18.6-22.3,25.6c-15.6,7.8-36.4,12.1-58.7,12.1c-0.3,0-0.7,0-1,0c-2.5-6.3-5.7-12.2-9.5-17.7c3.4,0.2,6.9,0.3,10.5,0.3
		c35.4,0,65.5-10.1,81-25.3V135.2z"/>
	<path class="st0" d="M214.8,231.6c0-3.6-0.8-7.1-2.2-10.4c-4.2-9.4-13.9-16.6-25.8-19c-0.9-0.2-1.9-0.3-2.8-0.5v-9.1v-5v-23.5v-0.7
		c11.3,1.9,19.8,9.6,19.8,18.7c0,3,2.5,5.5,5.5,5.5s5.5-2.5,5.5-5.5c0-2.1-0.3-4.2-0.8-6.2c-3.1-12.2-15.1-21.7-30.1-23.6v-7.2
		c0-3-2.5-5.5-5.5-5.5c-1.8,0-3.4,0.9-4.4,2.2c-0.1,0.1-0.2,0.2-0.2,0.3c-0.6,0.9-0.9,1.9-0.9,3v7.2c-1.3,0.2-2.6,0.4-3.9,0.7
		c-15.5,3.4-27,15.2-27,29.1c0,3.7,0.8,7.2,2.3,10.5c1.5,3.4,3.8,6.5,6.6,9.2c3.5,3.3,7.8,6,12.7,7.9c2.9,1.1,6,1.9,9.3,2.3v4.1v5.5
		v23.5v4.1v0.9v0.1l0,0c-1.6-0.3-3.1-0.6-4.5-1.1c-4.1-1.3-7.6-3.5-10.3-6.1c-3.2-3.2-5-7.2-5-11.4c0-0.7-0.1-1.4-0.4-2
		c-0.8-2-2.8-3.5-5.1-3.5c-3,0-5.5,2.5-5.5,5.5c0,0.7,0,1.4,0.1,2.2c0.5,5.4,2.7,10.5,6.1,14.7c2.5,3,5.6,5.6,9.2,7.8
		c3.6,2.1,7.6,3.7,11.9,4.6c1.2,0.2,2.3,0.4,3.5,0.6v7.2c0,1.4,0.5,2.7,1.4,3.6c1,1.1,2.5,1.9,4.1,1.9s3.1-0.7,4.1-1.9
		c0.9-1,1.4-2.2,1.4-3.6v-7.2c1.2-0.2,2.4-0.4,3.5-0.6c4.3-0.9,8.3-2.5,11.9-4.6c3.6-2.1,6.7-4.7,9.2-7.8c3.5-4.3,5.7-9.3,6.1-14.7
		C214.7,233,214.8,232.3,214.8,231.6z M171,200.5c-3.6-0.8-6.8-2.2-9.5-4.1c-3.3-2.3-5.9-5.2-7.2-8.5c-0.7-1.8-1.1-3.7-1.1-5.7
		c0-9.1,8.5-16.8,19.8-18.7l0,0v0.7v23.5v5v8.3C172.3,200.8,171.6,200.7,171,200.5z M203.8,231.6c0,4.3-1.9,8.2-5,11.4
		c-2.6,2.7-6.2,4.8-10.3,6.1c-1.4,0.5-3,0.8-4.5,1.1l0,0v-0.1v-0.9v-4.1v-23.5v-5.5v-3.3c10.4,1.7,18.4,8.3,19.6,16.4
		C203.7,230,203.8,230.8,203.8,231.6z"/>
</g>
</svg>
