<?xml version="1.0" encoding="utf-8"?>
<!-- Generator: Adobe Illustrator 21.0.2, SVG Export Plug-In . SVG Version: 6.00 Build 0)  -->
<svg version="1.1" id="Capa_1" xmlns="http://www.w3.org/2000/svg" xmlns:xlink="http://www.w3.org/1999/xlink" x="0px" y="0px"
	 viewBox="0 0 480 480" style="enable-background:new 0 0 480 480;" xml:space="preserve">
<style type="text/css">
	.st0{fill:#FFFFFF;}
</style>
<g>
	<g>
		<path class="st0" d="M288,257.2h-16c-8.8,0-16-7.2-16-16s7.2-16,16-16h16c8.8,0,16,7.2,16,16h16c0-17.6-14.4-32-32-32v-8h-16v8
			c-17.6,0-32,14.4-32,32s14.4,32,32,32h16c8.8,0,16,7.2,16,16s-7.2,16-16,16h-16c-8.8,0-16-7.2-16-16h-16c0,17.6,14.4,32,32,32v8
			h16v-8c17.6,0,32-14.4,32-32S305.6,257.2,288,257.2z"/>
	</g>
</g>
<g>
	<g>
		<rect x="344" y="417.2" class="st0" width="16" height="16"/>
	</g>
</g>
<g>
	<g>
		<rect x="376" y="417.2" class="st0" width="16" height="16"/>
	</g>
</g>
<g>
	<g>
		<rect x="408" y="417.2" class="st0" width="16" height="16"/>
	</g>
</g>
<g>
	<g>
		<rect x="440" y="417.2" class="st0" width="16" height="16"/>
	</g>
</g>
<g>
	<g>
		<rect x="440" y="385.2" class="st0" width="16" height="16"/>
	</g>
</g>
<g>
	<g>
		<rect x="440" y="353.2" class="st0" width="16" height="16"/>
	</g>
</g>
<g>
	<g>
		<rect x="440" y="321.2" class="st0" width="16" height="16"/>
	</g>
</g>
<g>
	<g>
		<rect x="440" y="289.2" class="st0" width="16" height="16"/>
	</g>
</g>
<g>
	<g>
		<rect x="440" y="257.2" class="st0" width="16" height="16"/>
	</g>
</g>
<g>
	<g>
		<rect x="440" y="225.2" class="st0" width="16" height="16"/>
	</g>
</g>
<g>
	<g>
		<rect x="440" y="193.2" class="st0" width="16" height="16"/>
	</g>
</g>
<g>
	<g>
		<rect x="32" y="273.2" class="st0" width="16" height="16"/>
	</g>
</g>
<g>
	<g>
		<rect x="32" y="241.2" class="st0" width="16" height="16"/>
	</g>
</g>
<g>
	<g>
		<rect x="32" y="209.2" class="st0" width="16" height="16"/>
	</g>
</g>
<g>
	<g>
		<rect x="32" y="177.2" class="st0" width="16" height="16"/>
	</g>
</g>
<g>
	<g>
		<rect x="32" y="145.2" class="st0" width="16" height="16"/>
	</g>
</g>
<g>
	<g>
		<rect x="32" y="113.2" class="st0" width="16" height="16"/>
	</g>
</g>
<g>
	<g>
		<rect x="32" y="81.2" class="st0" width="16" height="16"/>
	</g>
</g>
<g>
	<g>
		<rect x="32" y="49.2" class="st0" width="16" height="16"/>
	</g>
</g>
<g>
	<g>
		<rect x="64" y="49.2" class="st0" width="16" height="16"/>
	</g>
</g>
<g>
	<g>
		<rect x="96" y="49.2" class="st0" width="16" height="16"/>
	</g>
</g>
<g>
	<g>
		<rect x="128" y="49.2" class="st0" width="16" height="16"/>
	</g>
</g>
<g>
	<g>
		<rect x="160" y="49.2" class="st0" width="16" height="16"/>
	</g>
</g>
<g>
	<g>
		<rect x="40" y="401.2" class="st0" width="16" height="16"/>
	</g>
</g>
<g>
	<g>
		<path class="st0" d="M472,49.2h-56h-32h-16v-8c0-22.1-17.9-40-40-40H224c-4.4,0-8,3.6-8,8c0,8.6,2.3,16.8,6.6,24H216
			c-13.2,0-24,10.8-24,24c0,6.2,2.4,11.7,6.2,16c-3.8,4.3-6.2,9.8-6.2,16s2.4,11.7,6.2,16c-3.8,4.3-6.2,9.8-6.2,16s2.4,11.7,6.2,16
			c-3.8,4.3-6.2,9.8-6.2,16c0,13.2,10.8,24,24,24h13.7l-83.6,90.6c-1.4,1.5-2.1,3.4-2.1,5.4v32H80H8c-4.4,0-8,3.6-8,8v128
			c0,4.4,3.6,8,8,8h72c4.4,0,8-3.6,8-8v-8h22.1l85.5,42.8c3.7,1.8,7.7,2.8,11.7,2.8c4.6,0,9.1-1.2,13.2-3.6L395,373.4
			c8-4.7,13-13.3,13-22.6c0-5.1-1.6-9.9-4.2-14l9.9-9.9c1.5-1.5,2.3-3.5,2.3-5.7v-48c0-2-0.8-3.9-2.1-5.4l-83.6-90.6H384h32h56
			c4.4,0,8-3.6,8-8v-112C480,52.8,476.4,49.2,472,49.2z M72,433.2H16v-112h56V433.2z M216,49.2h24.2H264c1,0,1.9,0.2,2.7,0.6
			c0.3,0.1,0.5,0.2,0.7,0.3c0.6,0.3,1.2,0.7,1.7,1.1c0.4,0.3,0.7,0.7,1.1,1.2c1.1,1.4,1.8,3,1.8,4.8c0,4.4-3.6,8-8,8h-48
			c-4.4,0-8-3.6-8-8S211.6,49.2,216,49.2z M216,81.2h48c4.4,0,8,3.6,8,8s-3.6,8-8,8h-48c-4.4,0-8-3.6-8-8S211.6,81.2,216,81.2z
			 M216,113.2h48c4.4,0,8,3.6,8,8s-3.6,8-8,8h-48c-4.4,0-8-3.6-8-8S211.6,113.2,216,113.2z M216,161.2c-4.4,0-8-3.6-8-8s3.6-8,8-8
			h48c4.4,0,8,3.6,8,8s-3.6,8-8,8H216z M387,359.6L212.4,461.4c-3,1.7-6.6,1.8-9.6,0.3l-87.2-43.6c-1.1-0.6-2.3-0.8-3.6-0.8H88v-96
			h76.7l63,63c2.7,2.7,4.3,6.5,4.3,10.3c0,8.1-6.6,14.6-14.6,14.6c-3.8,0-7.6-1.6-10.3-4.3l-41.4-41.4l-11.3,11.3l41.4,41.4
			c5.8,5.8,13.5,9,21.7,9c16.9,0,30.6-13.7,30.6-30.6c0-8.2-3.2-15.9-9-21.7l-6.5-6.5l147.6-25.7c3-0.5,6,0.3,8.3,2.2
			c2.3,1.9,3.6,4.8,3.6,7.8C392,354.4,390.1,357.8,387,359.6z M400,276.4V318l-8.7,8.7c-4.4-1.7-9.2-2.4-14-1.6l-158.6,27.6
			l-45.1-45.1c-1.5-1.5-3.5-2.3-5.7-2.3h-8v-28.9l91.5-99.1H264c13.2,0,24-10.8,24-24c0-6.2-2.4-11.7-6.2-16c3.8-4.3,6.2-9.8,6.2-16
			s-2.4-11.7-6.2-16c3.8-4.3,6.2-9.8,6.2-16s-2.4-11.7-6.2-16c0.9-1,1.7-1.9,2.4-3c4.1,10.1,11,18.7,19.9,24.9v74.1
			c0,2,0.8,3.9,2.1,5.4L400,276.4z M376,161.2h-56v-58.4c5.1,1.5,10.4,2.4,16,2.4v-16c-22.1,0-40-17.9-40-40c0-4.4-3.6-8-8-8h-6.2
			c-0.1-0.1-0.1-0.1-0.2-0.2c-1-1.1-2-2-3.2-2.9c-0.2-0.1-0.3-0.3-0.4-0.4c-1.2-0.9-2.6-1.7-4-2.3c-0.1,0-0.2-0.1-0.3-0.2
			c-1.4-0.6-2.9-1.1-4.4-1.5c-0.1,0-0.2-0.1-0.3-0.1c-1.6-0.3-3.3-0.5-5-0.5h-21c-5-4.3-8.4-9.8-10-16h95c13.2,0,24,10.8,24,24v16
			c0,4.4,3.6,8,8,8h16V161.2z M408,161.2h-16v-96h16V161.2z M464,161.2h-40v-96h40V161.2z"/>
	</g>
</g>
</svg>
