<?xml version="1.0" encoding="utf-8"?>
<!-- Generator: Adobe Illustrator 19.2.1, SVG Export Plug-In . SVG Version: 6.00 Build 0)  -->
<svg version="1.1" id="Layer_1" xmlns="http://www.w3.org/2000/svg" xmlns:xlink="http://www.w3.org/1999/xlink" x="0px" y="0px"
	 viewBox="0 0 395.8 395.8" style="enable-background:new 0 0 395.8 395.8;" xml:space="preserve">
<style type="text/css">
	.st0{fill:#47708E;}
</style>
<g>
	<g>
		<g>
			<path class="st0" d="M245.4,142.9h11.2c4.4,0,8-3.6,8-8c0-4.4-3.6-8-8-8h-11.2c-4.4,0-8,3.6-8,8
				C237.4,139.3,241,142.9,245.4,142.9z"/>
			<path class="st0" d="M394.2,338.5l-10-24.4c-3.2-7.2-10.4-12-18.4-12H357V142.9h17.2c7.6,0,14-5.2,15.6-12.4s-2-14.8-8.8-18
				L214.6,33.7c-10.4-5.2-22.8-5.2-34,0L13.4,112.5c-6.8,3.2-10.4,10.4-8.8,18c1.6,7.6,8,12.8,15.6,12.8H37v159.2h-7.2
				c-8,0-15.2,4.8-18.4,12l-10,24c-2.4,6.4-1.6,13.2,2,18.8c3.6,5.6,10,8.8,16.4,8.8h356c6.4,0,12.8-3.2,16.4-8.8
				C396.2,352.1,397,344.9,394.2,338.5z M20.6,126.9l166.8-78.8c6.8-3.2,14-3.2,20.4,0l166.8,78.8H349c-4.4,0-8,3.6-8,8
				c0,0.8,0,1.2,0.4,1.6c0,0.4-0.4,1.2-0.4,1.6v164h-32V190.9c0-17.6-14.4-32-32-32c-17.6,0-32,14.4-32,32v111.6h-16V190.9
				c0-17.6-14.4-32-32-32s-32,14.4-32,32v111.6h-16V190.9c0-17.6-14.4-32-32-32s-32,14.4-32,32v111.6H53V142.9h156.4
				c4.4,0,8-3.6,8-8c0-4.4-3.6-8-8-8H20.6z M293,190.9v111.6h-32V190.9c0-8.8,7.2-16,16-16C285.8,174.9,293,182.1,293,190.9z
				 M213,190.9v111.6h-32V190.9c0-8.8,7.2-16,16-16S213,182.1,213,190.9z M133,190.9v111.6h-32V190.9c0-8.8,7.2-16,16-16
				S133,182.1,133,190.9z M379,348.5c-0.4,0.4-1.6,2-3.2,2h-356c-2,0-2.8-1.2-3.2-2c-0.4-0.4-1.2-2-0.4-4l10-23.6
				c0.8-1.6,2.4-2.4,4-2.4h336c1.6,0,3.2,0.8,4,2.4l10,24C380.2,346.5,379.4,348.1,379,348.5z"/>
		</g>
	</g>
</g>
</svg>
