<?xml version="1.0" encoding="utf-8"?>
<!-- Generator: Adobe Illustrator 19.2.1, SVG Export Plug-In . SVG Version: 6.00 Build 0)  -->
<svg version="1.1" id="Capa_1" xmlns="http://www.w3.org/2000/svg" xmlns:xlink="http://www.w3.org/1999/xlink" x="0px" y="0px"
	 viewBox="0 0 445.8 445.8" style="enable-background:new 0 0 445.8 445.8;" xml:space="preserve">
<style type="text/css">
	.st0{fill:#47708E;}
</style>
<g>
	<path class="st0" d="M428.3,422.5H17.5C7.9,422.5,0,414.6,0,405V40.8c0-9.6,7.9-17.5,17.5-17.5S35,31.2,35,40.8v346.8h393.4
		c9.6,0,17.5,7.9,17.5,17.5S438,422.5,428.3,422.5z M206.6,139.9c-7-5.5-17.2-4.7-23.3,1.7L73.4,257.3c-6.7,7-6.4,18.1,0.6,24.8
		c3.5,3.2,7.6,4.7,11.9,4.7c4.7,0,9.3-1.7,12.8-5.5l99.1-104.3l62.9,48.4c7,5.5,17.2,4.7,23.3-2L407.9,91.8V169
		c0,9.6,7.9,17.5,17.5,17.5s17.5-7.9,17.5-17.5V49.5c0-9.6-7.9-17.5-17.5-17.5H308.9c-9.6,0-17.5,7.9-17.5,17.5S299.3,67,308.9,67
		h74.3L269.5,188.2L206.6,139.9z"/>
</g>
</svg>
