<?xml version="1.0" encoding="utf-8"?>
<!-- Generator: Adobe Illustrator 21.0.2, SVG Export Plug-In . SVG Version: 6.00 Build 0)  -->
<svg version="1.1" id="Layer_1" xmlns="http://www.w3.org/2000/svg" xmlns:xlink="http://www.w3.org/1999/xlink" x="0px" y="0px"
	 viewBox="0 0 30 30" style="enable-background:new 0 0 30 30;" xml:space="preserve">
<style type="text/css">
	.st0{fill:#FFA12E;}
</style>
<g id="Group_1063" transform="translate(2872 861)">
	<path id="Path_5746" class="st0" d="M-2843.4-861h-10.9c-0.8,0-1.3,0.6-1.3,1.4c0,0.7,0.6,1.3,1.3,1.3h7.6l-14,14
		c-0.5,0.5-0.6,1.4-0.1,1.9c0.5,0.5,1.4,0.6,1.9,0.1c0,0,0,0,0.1-0.1l14-14v7.6c0,0.8,0.6,1.3,1.4,1.3c0.7,0,1.3-0.6,1.3-1.3v-10.9
		C-2842-860.4-2842.6-861-2843.4-861C-2843.4-861-2843.4-861-2843.4-861z"/>
	<path id="Path_5747" class="st0" d="M-2848.8-847.4c-0.8,0-1.4,0.6-1.4,1.4v12.3h-19.1v-19.1h12.3c0.8,0,1.4-0.6,1.4-1.3
		c0-0.8-0.6-1.4-1.3-1.4c0,0,0,0-0.1,0h-13.6c-0.8,0-1.4,0.6-1.4,1.4v21.8c0,0.8,0.6,1.4,1.4,1.4h21.8c0.8,0,1.4-0.6,1.4-1.4V-846
		C-2847.5-846.8-2848.1-847.4-2848.8-847.4z"/>
</g>
</svg>
