<svg xmlns="http://www.w3.org/2000/svg" viewBox="2956 2257 30 30">
  <defs>
    <style>
      .cls-1 {
        fill: #47708e;
      }
    </style>
  </defs>
  <g id="Group_1063" data-name="Group 1063" transform="translate(2872 861)">
    <path id="Path_5746" data-name="Path 5746" class="cls-1" d="M203.909,0H193a1.364,1.364,0,0,0,0,2.727h7.617L186.582,16.763a1.364,1.364,0,1,0,1.928,1.928L202.546,4.656v7.617a1.364,1.364,0,0,0,2.727,0V1.364A1.364,1.364,0,0,0,203.909,0Z" transform="translate(-91.273 1396)"/>
    <path id="Path_5747" data-name="Path 5747" class="cls-1" d="M23.182,101.273a1.364,1.364,0,0,0-1.364,1.364v12.273H2.727V95.818H15a1.364,1.364,0,1,0,0-2.727H1.364A1.364,1.364,0,0,0,0,94.455v21.818a1.364,1.364,0,0,0,1.364,1.364H23.182a1.364,1.364,0,0,0,1.364-1.364V102.636A1.364,1.364,0,0,0,23.182,101.273Z" transform="translate(84 1308.364)"/>
  </g>
</svg>
