<?xml version="1.0" encoding="utf-8"?>
<!-- Generator: Adobe Illustrator 19.2.1, SVG Export Plug-In . SVG Version: 6.00 Build 0)  -->
<svg version="1.1" id="Capa_1" xmlns="http://www.w3.org/2000/svg" xmlns:xlink="http://www.w3.org/1999/xlink" x="0px" y="0px"
	 viewBox="0 0 512 512" style="enable-background:new 0 0 512 512;" xml:space="preserve">
<style type="text/css">
	.st0{fill:#83C8E6;}
	.st1{fill:#41A7D3;}
</style>
<g>
	<g>
		<path class="st0" d="M256,0c-33.1,0-60,27.9-60,61s26.9,60,60,60s60-26.9,60-60S289.1,0,256,0z"/>
	</g>
</g>
<g>
	<g>
		<path class="st0" d="M256,121c-57.9,0-105,47.1-105,105c0,8.3,6.7,15,15,15h180c8.3,0,15-6.7,15-15C361,168.1,313.9,121,256,121z"
			/>
	</g>
</g>
<g>
	<g>
		<path class="st0" d="M406,271c-33.1,0-60,26.9-60,60s26.9,60,60,60s60-26.9,60-60S439.1,271,406,271z"/>
	</g>
</g>
<g>
	<g>
		<path class="st0" d="M406,391c-57.9,0-105,48.1-105,106c0,8.3,6.7,15,15,15h181c8.3,0,15-6.7,15-15C512,439.1,463.9,391,406,391z"
			/>
	</g>
</g>
<g>
	<g>
		<path class="st0" d="M106,271c-33.1,0-60,26.9-60,60s26.9,60,60,60s60-26.9,60-60S139.1,271,106,271z"/>
	</g>
</g>
<g>
	<g>
		<path class="st0" d="M106,391C48.1,391,0,439.1,0,497c0,8.3,6.7,15,15,15h181c8.3,0,15-6.7,15-15C211,439.1,163.9,391,106,391z"/>
	</g>
</g>
<g>
	<g>
		<path class="st1" d="M322.7,362.6L271,336.7V286c0-8.3-6.7-15-15-15s-15,6.7-15,15v50.7l-51.7,25.9c-7.4,3.7-10.4,12.7-6.7,20.1
			c3.7,7.4,12.6,10.4,20.1,6.7l53.3-26.6l53.3,26.6c7.5,3.7,16.4,0.6,20.1-6.7C333.1,375.3,330.1,366.3,322.7,362.6z"/>
	</g>
</g>
</svg>
