<?xml version="1.0" encoding="utf-8"?>
<!-- Generator: Adobe Illustrator 19.2.1, SVG Export Plug-In . SVG Version: 6.00 Build 0)  -->
<svg version="1.1" id="Layer_1" xmlns="http://www.w3.org/2000/svg" xmlns:xlink="http://www.w3.org/1999/xlink" x="0px" y="0px"
	 viewBox="0 0 512 512" style="enable-background:new 0 0 512 512;" xml:space="preserve">
<style type="text/css">
	.st0{fill:#41A7D3;}
	.st1{fill:#83C8E6;}
</style>
<g>
	<g>
		<path class="st0" d="M413.8,299.9v-85.7c0-42.1-16.4-81.7-46.2-111.5c-0.4-0.4-0.8-0.7-1.1-1.1V44.2c0-8.8-7.1-15.9-15.9-15.9
			s-15.9,7.1-15.9,15.9v33.1c-49.9-29.1-110.4-26.8-157.3,0.2V44.2c0-8.8-7.1-15.9-15.9-15.9s-15.9,7.1-15.9,15.9v57
			c-30,28.9-47.4,68.8-47.4,113v85.7c-24.2,15.8-38.9,42.6-38.9,72.1v25.6c0,47.5,38.6,86.1,86.1,86.1h221.1
			c47.5,0,86.1-38.6,86.1-86.1v-25.6C452.7,342.5,438,315.7,413.8,299.9z M226.9,403.8c0,8.8-7.1,15.9-15.9,15.9
			s-15.9-7.1-15.9-15.9v-38c0-8.8,7.1-15.9,15.9-15.9s15.9,7.1,15.9,15.9V403.8z M316.8,403.8c0,8.8-7.1,15.9-15.9,15.9
			c-8.8,0-15.9-7.1-15.9-15.9v-38c0-8.8,7.1-15.9,15.9-15.9c8.8,0,15.9,7.1,15.9,15.9V403.8z M382,287.2c-21.8-3.9-246.4-1-252,0
			v-72.9c0-0.5,0-0.9,0-1.4c76.1,7.6,145.3-45.7,157.8-120.8c21.1,5.5,40.8,16.6,57.3,33.1c23.8,23.8,36.9,55.4,36.9,89.1L382,287.2
			L382,287.2z"/>
	</g>
</g>
<g>
	<g>
		<path class="st1" d="M82.6,137.8H15.9c-8.8,0-15.9,7.1-15.9,15.9c0,37.9,29.3,69,66.5,71.9C66.5,210.4,64.9,177.7,82.6,137.8z"/>
	</g>
</g>
<g>
	<g>
		<path class="st1" d="M496.1,137.8h-66.6c16.3,37.1,16,66.7,16,87.8c37.1-2.9,66.5-34,66.5-71.9C512,144.9,504.9,137.8,496.1,137.8
			z"/>
	</g>
</g>
<g>
	<g>
		<circle class="st1" cx="179.6" cy="240.4" r="21"/>
	</g>
</g>
<g>
	<g>
		<circle class="st1" cx="332.4" cy="240.4" r="21"/>
	</g>
</g>
</svg>
