<?xml version="1.0" encoding="utf-8"?>
<!-- Generator: Adobe Illustrator 19.2.1, SVG Export Plug-In . SVG Version: 6.00 Build 0)  -->
<svg version="1.1" id="Layer_1" xmlns="http://www.w3.org/2000/svg" xmlns:xlink="http://www.w3.org/1999/xlink" x="0px" y="0px"
	 viewBox="0 0 512 512" style="enable-background:new 0 0 512 512;" xml:space="preserve">
<style type="text/css">
	.st0{fill:#41A7D3;}
	.st1{fill:#83C8E6;}
</style>
<g>
	<path class="st0" d="M468.5,132c-28.6,11.2-31.6,55.1-162.3,15.8c-68.7-20.6-121.4-23.1-156.1-20.8c16.4,9.1,32.4,21.8,46.7,37.7
		c28.8,32.1,63.7,78.3,77.8,150.9c11.4,58.6-5.8,116.4-40.7,155c66.3-27.2,134.1-86.6,175.5-175.3c24.3-52.1,57.2-47,80.7-76.6
		C511.2,191.9,497,120.8,468.5,132z"/>
	<path class="st1" d="M242.4,321.9c-12.4-63.8-43-105.2-70.1-135.3c-22-24.5-51.4-42.3-75.6-42.3c-7.6,0-14.7,1.8-21,5.7
		c-11.9,7.5-18.8,20.6-20.5,36.2c-3.4,31-13.4,60.3-29.4,87.1C8.5,302.4,2.1,340.1,11,378.4c14.7,62.8,66,106,120.6,106
		c7.8,0,15.7-0.9,23.6-2.7C218,467,256.5,394.3,242.4,321.9z M132.3,415.1c-17.9,3.2-35.8-13.3-40-36.8
		c-4.2-23.5,6.9-45.2,24.8-48.4c17.9-3.2,35.8,13.3,40,36.8C161.3,390.2,150.2,411.9,132.3,415.1z"/>
</g>
</svg>
