<?xml version="1.0" encoding="utf-8"?>
<!-- Generator: Adobe Illustrator 19.2.1, SVG Export Plug-In . SVG Version: 6.00 Build 0)  -->
<svg version="1.1" id="Layer_1" xmlns="http://www.w3.org/2000/svg" xmlns:xlink="http://www.w3.org/1999/xlink" x="0px" y="0px"
	 viewBox="0 0 512 512" style="enable-background:new 0 0 512 512;" xml:space="preserve">
<style type="text/css">
	.st0{fill:#41A7D3;}
	.st1{fill:#83C8E6;}
</style>
<rect x="100.2" y="205.9" class="st0" width="211.5" height="66.8"/>
<path class="st1" d="M461.9,105.7H100.2V71l396.5-32.1c9.2-0.7,16-8.8,15.3-18c-0.7-9.2-8.9-16-18-15.3L82.1,39
	c-8.7,0.7-15.3,7.9-15.3,16.6v50.1H50.1C22.5,105.7,0,128.2,0,155.8v300.5c0,27.6,22.5,50.1,50.1,50.1h411.8
	c27.6,0,50.1-22.5,50.1-50.1V155.8C512,128.2,489.5,105.7,461.9,105.7z M66.8,189.2c0-9.2,7.5-16.7,16.7-16.7c159.9,0,188.7,0,345,0
	c9.2,0,16.7,7.5,16.7,16.7v100.2h0c0,9.2-7.5,16.7-16.7,16.7c-109.6,0-244.3,0-345,0c-9.2,0-16.7-7.5-16.7-16.7V189.2z M295,439.6
	H83.5c-9.2,0-16.7-7.5-16.7-16.7s7.5-16.7,16.7-16.7H295c9.2,0,16.7,7.5,16.7,16.7C311.7,432.2,304.2,439.6,295,439.6z M295,372.9
	H83.5c-9.2,0-16.7-7.5-16.7-16.7s7.5-16.7,16.7-16.7H295c9.2,0,16.7,7.5,16.7,16.7C311.7,365.4,304.2,372.9,295,372.9z M395.1,439.6
	c-27.6,0-50.1-22.5-50.1-50.1s22.5-50.1,50.1-50.1s50.1,22.5,50.1,50.1S422.7,439.6,395.1,439.6z"/>
<rect x="345" y="205.9" class="st0" width="66.8" height="66.8"/>
<path class="st0" d="M395.1,372.9c-9.2,0-16.7,7.5-16.7,16.7c0,9.2,7.5,16.7,16.7,16.7s16.7-7.5,16.7-16.7S404.3,372.9,395.1,372.9z
	"/>
</svg>
