<?xml version="1.0" encoding="utf-8"?>
<!-- Generator: Adobe Illustrator 19.2.1, SVG Export Plug-In . SVG Version: 6.00 Build 0)  -->
<svg version="1.1" id="Layer_1" xmlns="http://www.w3.org/2000/svg" xmlns:xlink="http://www.w3.org/1999/xlink" x="0px" y="0px"
	 viewBox="0 0 472.6 472.6" style="enable-background:new 0 0 472.6 472.6;" xml:space="preserve">
<style type="text/css">
	.st0{fill:#83C8E6;}
	.st1{fill:#41A7D3;}
</style>
<g>
	<g>
		<path class="st0" d="M428.7,252.7c-18.8,0-35.8-7.7-48.1-20.1c-12.3,12.4-29.3,20.1-48.1,20.1c-18.8,0-35.8-7.7-48.1-20.1
			c-12.3,12.4-29.3,20.1-48.1,20.1c-18.8,0-35.8-7.7-48.1-20.1c-12.3,12.4-29.3,20.1-48.1,20.1s-35.8-7.7-48.1-20.1
			c-12.3,12.4-29.3,20.1-48.1,20.1c-2.4,0-4.8-0.2-7.2-0.4v220.3h59.7V320.4h113.7v152.2h225.8V252.3
			C433.5,252.6,431.1,252.7,428.7,252.7z M379.3,398.9H264.8v-78.5h114.5L379.3,398.9L379.3,398.9z"/>
	</g>
</g>
<g>
	<g>
		<path class="st1" d="M467.1,166.3L396.6,42.9h-76.1V0H152.1v42.9H76L5.5,166.3c-14.3,27.5,2,62.8,32.8,66.4
			c1.8,0.2,3.7,0.3,5.6,0.3c26.6,0,48.1-21.5,48.1-48.1c0,26.6,21.5,48.1,48.1,48.1c26.6,0,48.1-21.5,48.1-48.1
			c0,26.6,21.5,48.1,48.1,48.1s48.1-21.5,48.1-48.1c0,26.6,21.5,48.1,48.1,48.1c26.6,0,48.1-21.5,48.1-48.1
			c0,26.6,21.5,48.1,48.1,48.1c1.9,0,3.8-0.1,5.6-0.3C465.1,229.2,481.4,193.9,467.1,166.3z"/>
	</g>
</g>
</svg>
