<?xml version="1.0" encoding="utf-8"?>
<!-- Generator: Adobe Illustrator 19.2.1, SVG Export Plug-In . SVG Version: 6.00 Build 0)  -->
<svg version="1.1" id="Capa_1" xmlns="http://www.w3.org/2000/svg" xmlns:xlink="http://www.w3.org/1999/xlink" x="0px" y="0px"
	 viewBox="0 0 934.1 934.1" style="enable-background:new 0 0 934.1 934.1;" xml:space="preserve">
<style type="text/css">
	.st0{fill:#41A7D3;}
	.st1{fill:#83C8E6;}
</style>
<g>
	<g>
		<path class="st0" d="M228.1,632.2l36.9,24l-6.2,9.5l98.1,63.9l60.1-92.3c3.6-5.6,2-13-3.5-16.6l-54.4-35.4l17.5-26.8
			c4.5-6.9,2.6-16.2-4.4-20.8l-13.9-9.1l-53.6-34.8l-14.7-9.6c-2.5-1.6-5.4-2.4-8.2-2.4c-4.9,0-9.7,2.4-12.6,6.8l-17.5,26.8
			l-54.8-35.7c-5.6-3.6-13-2-16.6,3.5l-60.1,92.3l101.7,66.2L228.1,632.2z M286.2,517.6l57.1,37.2l-9.3,14.3l-10.5-6.8l-36.1-23.5
			l-10.5-6.8L286.2,517.6z"/>
		<path class="st0" d="M81.3,657.5L208,740l89.8,58.5c5.6,3.6,13,2,16.6-3.5l28.9-44.3l-98.1-63.9l-6.2,9.5l-15.6-10.2l-21.3-13.9
			l6.2-9.5l-101.7-66.2l-28.9,44.3C74.1,646.4,75.7,653.8,81.3,657.5z"/>
		<path class="st1" d="M731.3,191c-8.7-4.7-27.8-18.2-27.8-46c0-36,9-145-95.5-145s-95.5,109-95.5,145c0,27.8-19.1,41.3-27.8,46
			c-2.6,1.4-3.8,4.4-2.9,7.1c5.8,18.6,20.4,24.3,36.1,24.3c24.1,0,50.6-13.4,50.6-13.4c-12.5-7.3-18.9-21.8-22-36.4
			c13.1,21.7,35.8,36,61.5,36c25.7,0,48.4-14.3,61.5-36c-3.1,14.7-9.5,29.1-22,36.4c0,0,26.5,13.4,50.6,13.4
			c15.6,0,30.3-5.6,36.1-24.3C735.1,195.4,733.9,192.4,731.3,191z"/>
		<path class="st1" d="M852.3,517.9L700.9,290.4c-11.3-21.1-29.6-38-51.8-47.4c-3.9-1.6-8.1-0.4-10.5,2.6
			c-2.3,14.9-15.2,26.4-30.7,26.4c-15.6,0-28.5-11.5-30.7-26.4c-2.4-3-6.7-4.2-10.5-2.6c-16.1,6.9-30.2,17.6-41,31.1
			c-1.8,1.8-3.5,3.8-4.9,6L437,409.5l-114.6,58.4c-2.3,1.2-4.4,2.6-6.3,4.1l66.9,43.6l94.2-48c5.5-2.8,10.1-7,13.5-12.2l11.8-18.3
			v24l-82.8,235c-3.4,9.8,3.8,20,14.1,20h68.6v170.2c0,25.8,20.4,47.4,46.2,47.8c26.3,0.4,47.8-20.8,47.8-47v-171h22.7v170.2
			c0,25.8,20.4,47.4,46.2,47.8c26.3,0.4,47.8-20.8,47.8-47v-171h68.6c10.3,0,17.6-10.2,14.1-20l-82.8-235v-25.8l81.2,121.9
			c6.7,10.1,17.8,15.6,29.2,15.6c6.7,0,13.4-1.9,19.4-5.9C859,556.3,863,533.9,852.3,517.9z M607.9,363.1l-24.1-82.6
			c7.3,3.9,15.5,6,24.1,6c8.5,0,16.8-2.1,24.1-6L607.9,363.1z"/>
	</g>
</g>
</svg>
