<?xml version="1.0" encoding="utf-8"?>
<!-- Generator: Adobe Illustrator 19.2.1, SVG Export Plug-In . SVG Version: 6.00 Build 0)  -->
<svg version="1.1" id="Capa_1" xmlns="http://www.w3.org/2000/svg" xmlns:xlink="http://www.w3.org/1999/xlink" x="0px" y="0px"
	 viewBox="0 0 489.3 489.3" style="enable-background:new 0 0 489.3 489.3;" xml:space="preserve">
<style type="text/css">
	.st0{fill:#83C8E6;}
	.st1{fill:#41A7D3;}
</style>
<g>
	<g>
		<path class="st0" d="M486.8,371.3L465,344.6c-3.5-4.3-5.4-9.7-5.4-15.3v-25.2V288v-46.6l0,0V112.3c0-23.6-19.2-42.8-42.8-42.8
			H256.7l0,0H72.9c-23.6,0-42.8,19.2-42.8,42.8V288v9.4v31.5c0,5.6-1.9,10.9-5.4,15.2L2.6,371.2c-1.7,2-2.6,4.6-2.6,7.2v12.4
			c0,16,13,29,29,29h431.3c16,0,29-13,29-29v-12.4C489.4,375.9,488.5,373.3,486.8,371.3z M291.2,377.6c0,8.1-6.6,14.8-14.8,14.8
			h-63.2c-8.1,0-14.8-6.6-14.8-14.8v-3.2h92.7L291.2,377.6L291.2,377.6z M416.9,304.2v27.5H72.7v-32.4V288V112.2l0.1-0.1H276l0,0
			h140.7c0.1,0,0.1,0.1,0.1,0.1V288v11.3v2.9l0,0L416.9,304.2L416.9,304.2z"/>
		<path class="st1" d="M305.6,168.7H197.8c-3.1,0-6,0.9-8.6,2.4l-5.5-19.3c-0.9-3.1-3.8-5.3-7-5.3l0,0h-8.4h-16
			c-3.1,0-5.5,2.5-5.5,5.5v0.6c0,3.1,2.5,5.5,5.5,5.5h21l10.7,37.8l14.7,52.2c-8.4,2.1-14.6,9.7-14.6,18.7c0,10.2,8,18.6,18,19.2
			c-0.8,2.4-1.2,5-1,7.8c0.7,9.2,8.2,16.6,17.5,17.3c11,0.8,20.2-8,20.2-18.8c0-2.2-0.4-4.3-1.1-6.2h22c-0.9,2.6-1.3,5.4-0.9,8.4
			c1,8.9,8.4,16,17.4,16.6c11,0.8,20.2-7.9,20.2-18.8c0-10.5-8.7-18.9-19.2-18.9h-73.7c-3.6,0-6.6-2.8-6.8-6.4
			c-0.1-3.8,2.9-6.9,6.6-6.9h11.1h59.9h16.9c7.5,0,14-5.1,15.8-12.4l14.6-59c1.2-5,0.1-10.2-3.2-14.2
			C315.4,170.8,310.6,168.7,305.6,168.7z M277.5,286.1c3.4,0,6.2,2.8,6.2,6.2c0,3.4-2.8,6.2-6.2,6.2c-3.4,0-6.2-2.8-6.2-6.2
			S274.1,286.1,277.5,286.1z M219.9,286.1c3.4,0,6.2,2.8,6.2,6.2c0,3.4-2.8,6.2-6.2,6.2s-6.2-2.8-6.2-6.2S216.4,286.1,219.9,286.1z
			 M197.1,196l-2.8-10c-0.4-1.5,0.2-2.7,0.6-3.2s1.3-1.5,2.9-1.5h11.8l3.2,14.6L197.1,196L197.1,196z M200.6,208.6h14.9l3,13.6
			h-14.1L200.6,208.6z M214.4,247.6c-1.6,0-3.1-1.1-3.5-2.7l-2.9-10.2h13.3l2.8,12.8L214.4,247.6L214.4,247.6L214.4,247.6z
			 M246,247.6h-8.9l-2.8-12.8H246V247.6z M246,222.2h-14.5l-3-13.6H246V222.2z M246,196h-20.2l-3.2-14.6h23.5V196H246z M268.6,247.6
			h-10v-12.8h12.7L268.6,247.6z M274,222.2h-15.3v-13.6h18.2L274,222.2z M258.6,196v-14.6h24l-3.1,14.6H258.6z M294.8,244.8
			c-0.4,1.6-1.9,2.8-3.6,2.8h-9.7l2.7-12.8h13.1L294.8,244.8z M300.4,222.2h-13.5l2.9-13.6h14L300.4,222.2z M309.4,185.9l-2.5,10.1
			h-14.5l3.1-14.6h10.4c1.6,0,2.5,0.9,2.9,1.4C309.2,183.2,309.8,184.4,309.4,185.9z"/>
	</g>
</g>
</svg>
