<?xml version="1.0" encoding="utf-8"?>
<!-- Generator: Adobe Illustrator 19.2.1, SVG Export Plug-In . SVG Version: 6.00 Build 0)  -->
<svg version="1.1" id="Layer_1" xmlns="http://www.w3.org/2000/svg" xmlns:xlink="http://www.w3.org/1999/xlink" x="0px" y="0px"
	 viewBox="0 0 512 512" style="enable-background:new 0 0 512 512;" xml:space="preserve">
<style type="text/css">
	.st0{fill:#83C8E6;}
	.st1{fill:#41A7D3;}
</style>
<path class="st0" d="M437,271c-8.3,0-15-6.7-15-15c0-8.3-6.7-15-15-15H287c-45.9,0-81.5-41.1-74-87.5c5.8-35.6,39-62.5,77.2-62.5
	H317c36.7,0,67.3,26.4,73.7,61.3c34.8,6.5,61.3,37.1,61.3,73.7v30C452,264.3,445.3,271,437,271z"/>
<g>
	<path class="st0" d="M128,301H45c-24.8,0-45,20.2-45,45v15v15c0,24.8,20.2,45,45,45h83V301z"/>
	<polygon class="st0" points="150,301 150,421 181,391 181,361 181,331 	"/>
</g>
<g>
	<polygon class="st0" points="362,301 150,301 150,361 150,421 362,421 	"/>
</g>
<path class="st1" d="M467,301h-23v120h23c24.8,0,45-20.2,45-45v-15v-15C512,321.2,491.8,301,467,301z"/>
<g>
	<rect x="384" y="301" class="st1" width="38" height="120"/>
</g>
</svg>
