<svg xmlns="http://www.w3.org/2000/svg" viewBox="1642 1388.281 35.3 49.438">
  <defs>
    <style>
      .cls-1 {
        fill: #41a7d3;
      }
    </style>
  </defs>
  <g id="Group_1863" data-name="Group 1863" transform="translate(1436)">
    <path id="Path_5801" data-name="Path 5801" class="cls-1" d="M225.417,77.788a2.4,2.4,0,0,1,1.2.993.694.694,0,0,0,.952.2.711.711,0,0,0,.2-.2,2.416,2.416,0,0,1,3.32-.827,2.268,2.268,0,0,1,.4.3l1-1.2V71.727a3.531,3.531,0,0,0-3.527-3.527h-3.537a3.531,3.531,0,0,0-3.527,3.527v.083A6.987,6.987,0,0,1,225.417,77.788Z" transform="translate(7.051 1327.135)"/>
    <path id="Path_5802" data-name="Path 5802" class="cls-1" d="M251.906,1.769h.879V.889a.878.878,0,0,0-.879-.879L248.379,0a.878.878,0,0,0-.879.879h0v.879h4.406Z" transform="translate(-15.902 1388.281)"/>
    <path id="Path_5803" data-name="Path 5803" class="cls-1" d="M88.268,48.208a.66.66,0,0,0,.672.279,6.913,6.913,0,0,1,1.665-5.8V36.748a2.653,2.653,0,0,0-5.306,0V47.215a2.386,2.386,0,0,1,2.968.993Zm-1.82-8.553.879-.879a.885.885,0,0,1,1.251,1.251l-.879.879a.885.885,0,0,1-1.251-1.251Zm0,3.537.879-.879a.885.885,0,0,1,1.251,1.251l-.879.879a.885.885,0,0,1-1.251-1.251Z" transform="translate(129.522 1357.708)"/>
    <path id="Path_5804" data-name="Path 5804" class="cls-1" d="M266.358,35.958v-.879a.878.878,0,0,0-.879-.879h0a.878.878,0,0,0-.879.879v.879Z" transform="translate(-31.233 1357.618)"/>
    <path id="Path_5805" data-name="Path 5805" class="cls-1" d="M33.169,162.655a2.07,2.07,0,0,0-.228.2c-.01,0-.021,0-.021.01a.658.658,0,0,1-.186.062.691.691,0,0,1-.621-.052,1.236,1.236,0,0,1-.165-.083.032.032,0,0,0-.021-.01,2.07,2.07,0,0,0-.2-.228l-.269-.455a.659.659,0,0,0-.91-.217.575.575,0,0,0-.217.228,2.425,2.425,0,0,1-3.33.827,2.348,2.348,0,0,1-.827-.827.694.694,0,0,0-.952-.2.711.711,0,0,0-.2.2,2.427,2.427,0,0,1-4.158,0,.694.694,0,0,0-.952-.2.711.711,0,0,0-.2.2,2.427,2.427,0,0,1-4.158,0,.694.694,0,0,0-.952-.2.711.711,0,0,0-.2.2,2.427,2.427,0,0,1-4.158,0,.694.694,0,0,0-.952-.2.711.711,0,0,0-.2.2,2.213,2.213,0,0,1-.548.61.919.919,0,0,1-.228.165,2.4,2.4,0,0,1-3.32-.683l-.062-.093a.694.694,0,0,0-.952-.2.711.711,0,0,0-.2.2l-.269.455a1.029,1.029,0,0,1-.1.114,1.1,1.1,0,0,1-.093.114.032.032,0,0,1-.021.01.825.825,0,0,1-.165.083.945.945,0,0,1-.145.072.783.783,0,0,1-.155.01,1.125,1.125,0,0,1-.186.01.762.762,0,0,1-.145-.041.657.657,0,0,1-.186-.062c-.01,0-.021,0-.021-.01a.542.542,0,0,1-.114-.1,1.1,1.1,0,0,1-.114-.093L0,160.1v27.181a2.665,2.665,0,0,0,.61,1.7l2.007,2.41a4.425,4.425,0,0,0,3.392,1.593H29.291a4.391,4.391,0,0,0,3.392-1.593l2.006-2.41a2.665,2.665,0,0,0,.61-1.7V160.1Z" transform="translate(206 1244.74)"/>
    <path id="Path_5806" data-name="Path 5806" class="cls-1" d="M139.737,117.256a.694.694,0,0,0,.952.2.711.711,0,0,0,.2-.2,2.427,2.427,0,0,1,4.158,0,.694.694,0,0,0,.952.2.711.711,0,0,0,.2-.2,2.413,2.413,0,0,1,1.189-.983,5.229,5.229,0,0,0-3.02-4.665,5.372,5.372,0,0,0-6.051,1.076,5.259,5.259,0,0,0-1.51,3.579,2.354,2.354,0,0,1,2.937.993Z" transform="translate(83.349 1288.659)"/>
    <path id="Path_5807" data-name="Path 5807" class="cls-1" d="M19.748,16.455a2.417,2.417,0,0,1,2.079,1.179.672.672,0,0,0,.569.31V2.648a2.648,2.648,0,0,0-5.3,0v13.27l1,1.2A2.35,2.35,0,0,1,19.748,16.455Zm-1.51-10.9.879-.879a.885.885,0,0,1,1.251,1.251l-.879.879a.885.885,0,0,1-1.251-1.251Zm0,3.527.879-.879a.885.885,0,0,1,1.251,1.251l-.879.879a.885.885,0,0,1-1.251-1.251Zm0,3.537.879-.879a.885.885,0,0,1,1.251,1.251l-.879.879a.885.885,0,0,1-1.251-1.251Z" transform="translate(190.669 1388.281)"/>
  </g>
</svg>
