<svg version="1.1" viewBox="0 0 224.726 224.726" xmlns="http://www.w3.org/2000/svg" xmlns:xlink="http://www.w3.org/1999/xlink" id="Capa_1" overflow="hidden"><style>
.MsftOfcThm_Text1_Fill {
 fill:#000000; 
}
</style>
<path d=" M 223.612 109.586 L 190.5 35.752 C 190.499 35.75 190.498 35.748 190.497 35.746 L 190.454 35.65 C 190.343 35.403 190.211 35.171 190.065 34.95 C 190.026 34.89 189.979 34.836 189.938 34.779 C 189.807 34.597 189.666 34.426 189.514 34.265 C 189.454 34.202 189.393 34.14 189.33 34.08 C 189.162 33.921 188.985 33.774 188.797 33.64 C 188.748 33.604 188.703 33.564 188.652 33.53 C 188.416 33.374 188.166 33.24 187.906 33.125 C 187.832 33.092 187.755 33.068 187.679 33.039 C 187.475 32.961 187.268 32.896 187.054 32.845 C 186.966 32.824 186.879 32.803 186.79 32.787 C 186.497 32.733 186.199 32.697 185.894 32.697 L 127.466 32.697 C 126.466 29.586 124.523 26.903 121.981 24.96 L 121.981 17.698 C 121.981 14.937 119.742 12.698 116.981 12.698 L 107.647 12.698 C 104.886 12.698 102.647 14.937 102.647 17.698 L 102.647 25.079 C 100.182 27.012 98.3 29.651 97.321 32.698 L 38.734 32.698 C 38.429 32.698 38.132 32.735 37.838 32.788 C 37.748 32.804 37.662 32.825 37.574 32.846 C 37.36 32.897 37.152 32.962 36.949 33.04 C 36.873 33.069 36.796 33.093 36.722 33.126 C 36.462 33.241 36.212 33.374 35.976 33.531 C 35.925 33.565 35.88 33.605 35.831 33.641 C 35.643 33.775 35.466 33.921 35.298 34.081 C 35.234 34.141 35.174 34.203 35.113 34.266 C 34.96 34.427 34.82 34.599 34.689 34.78 C 34.647 34.838 34.601 34.892 34.562 34.951 C 34.416 35.172 34.284 35.404 34.173 35.651 L 34.13 35.747 C 34.129 35.749 34.128 35.751 34.127 35.753 L 0.897 109.848 C 0.335 110.657 0 111.636 0 112.696 C 0 134.054 17.376 151.43 38.734 151.43 C 60.092 151.43 77.468 134.054 77.468 112.696 C 77.468 111.636 77.134 110.658 76.571 109.849 L 46.456 42.696 L 97.442 42.696 C 98.449 45.601 100.273 48.12 102.646 49.982 L 102.646 175.363 L 58.308 175.363 C 56.437 175.363 54.722 176.408 53.864 178.071 L 40.11 204.738 C 39.311 206.288 39.377 208.143 40.284 209.632 C 41.192 211.121 42.809 212.03 44.554 212.03 L 180.073 212.03 C 180.079 212.029 180.085 212.03 180.093 212.03 C 182.854 212.03 185.093 209.791 185.093 207.03 C 185.093 206.05 184.811 205.136 184.324 204.365 L 170.761 178.071 C 169.903 176.408 168.188 175.363 166.317 175.363 L 121.98 175.363 L 121.98 50.101 C 124.429 48.228 126.314 45.665 127.343 42.696 L 178.171 42.696 L 147.696 110.65 C 147.688 110.668 147.684 110.686 147.676 110.704 C 147.653 110.758 147.636 110.814 147.614 110.869 C 147.524 111.098 147.452 111.332 147.397 111.568 C 147.383 111.63 147.365 111.69 147.353 111.752 C 147.298 112.039 147.27 112.328 147.266 112.618 C 147.266 112.645 147.258 112.669 147.258 112.696 C 147.258 134.054 164.634 151.43 185.992 151.43 C 207.35 151.43 224.726 134.054 224.726 112.696 C 224.726 111.514 224.298 110.442 223.612 109.586 Z M 64.646 107.696 L 12.822 107.696 L 38.734 49.915 L 64.646 107.696 Z M 118.226 37.53 C 118.226 40.747 115.609 43.363 112.393 43.363 C 109.176 43.363 106.559 40.746 106.559 37.53 C 106.559 34.313 109.176 31.697 112.393 31.697 C 115.609 31.696 118.226 34.313 118.226 37.53 Z M 159.98 107.696 L 185.893 49.915 L 211.805 107.696 L 159.98 107.696 Z" stroke="none" stroke-width="1" stroke-linecap="butt" stroke-dasharray="" stroke-dashoffset="1" fill="#41a7d3" fill-opacity="1"/><g></g><g></g><g></g><g></g><g></g><g></g><g></g><g></g><g></g><g></g><g></g><g></g><g></g><g></g><g></g></svg>