<svg version="1.1" viewBox="0 0 485.055 485.055" xmlns="http://www.w3.org/2000/svg" xmlns:xlink="http://www.w3.org/1999/xlink" id="Capa_1" overflow="hidden"><g><g><path d=" M 191.795 285.659 C 187.988 289.266 183.333 291.429 178.689 291.749 C 174.584 292.03 171.003 290.794 168.607 288.264 C 165.757 285.256 161.01 285.13 158.004 287.98 C 154.997 290.829 154.87 295.576 157.72 298.583 C 162.778 303.92 169.739 306.791 177.507 306.791 C 178.236 306.791 178.974 306.766 179.716 306.714 C 187.829 306.157 195.783 302.547 202.113 296.547 C 205.12 293.698 205.247 288.951 202.397 285.944 C 199.549 282.935 194.801 282.809 191.795 285.659 Z" stroke="none" stroke-width="1" stroke-linecap="butt" fill="#41A7D3" fill-opacity="1"/><path d=" M 317.014 288.264 C 314.617 290.793 311.034 292.022 306.93 291.749 C 302.285 291.43 297.63 289.267 293.824 285.659 C 290.819 282.81 286.071 282.936 283.222 285.943 C 280.372 288.949 280.499 293.696 283.506 296.546 C 289.836 302.546 297.79 306.156 305.904 306.713 C 306.647 306.765 307.384 306.79 308.114 306.79 C 315.882 306.79 322.845 303.918 327.902 298.582 C 330.752 295.575 330.625 290.828 327.618 287.979 C 324.612 285.13 319.863 285.257 317.014 288.264 Z" stroke="none" stroke-width="1" stroke-linecap="butt" fill="#41A7D3" fill-opacity="1"/><path d=" M 167.661 99.976 C 162.743 94.385 158.357 88.826 154.703 83.386 C 140.217 92.968 126.571 104.664 114.531 118.103 C 82.074 154.33 66.011 198.285 70.461 238.697 C 72.231 254.778 75.132 259.686 76.13 260.94 C 77.044 260.756 79.228 260.04 83.326 257.313 C 83.47 248.912 85.943 225.783 128.532 158.063 C 144.191 133.165 160.005 110.663 167.661 99.976 Z" stroke="none" stroke-width="1" stroke-linecap="butt" fill="#41A7D3" fill-opacity="1"/><path d=" M 371.596 120.241 C 336.091 80.183 285.399 54.301 242.45 54.301 C 220.679 54.301 197.572 60.386 175.502 71.368 C 205.749 115.442 294.232 172.383 297.687 174.152 C 326.167 189.044 351.702 213.138 371.622 232.054 C 381.108 241.063 389.301 248.842 396.416 254.375 C 403.751 260.079 407.178 261.142 408.293 261.336 C 409.269 260.223 412.414 255.441 414.455 238.567 C 419.255 198.862 404.035 156.84 371.596 120.241 Z" stroke="none" stroke-width="1" stroke-linecap="butt" fill="#41A7D3" fill-opacity="1"/><path d=" M 235.76 160.186 C 219.117 147.725 200.636 132.859 184.585 117.5 C 161.354 149.974 131.88 195.501 116.939 227.873 C 147.39 199.308 187.705 163.302 235.76 160.186 Z" stroke="none" stroke-width="1" stroke-linecap="butt" fill="#41A7D3" fill-opacity="1"/><path d=" M 360.783 76.828 C 359.098 34.208 306.078 0 240.917 0 C 174.841 0 121.254 35.176 121.015 78.628 C 157.469 48.308 201.793 30.301 242.45 30.301 C 281.664 30.301 324.589 47.563 360.783 76.828 Z" stroke="none" stroke-width="1" stroke-linecap="butt" fill="#41A7D3" fill-opacity="1"/><path d=" M 355.094 249.459 C 324.366 220.278 286.122 183.962 242.45 183.962 C 198.624 183.962 160.065 220.243 129.084 249.397 C 118.865 259.012 109.966 267.384 101.798 273.591 C 100.922 280.41 100.459 287.618 100.459 295.252 C 100.459 385.833 164.192 485.055 242.81 485.055 C 321.429 485.055 385.162 385.833 385.162 295.251 C 385.162 288.18 384.773 281.465 384.019 275.093 C 375.389 268.728 365.992 259.808 355.094 249.459 Z M 139.655 281.843 C 139.655 257.346 159.515 244.364 184.011 244.364 C 208.507 244.364 228.366 257.346 228.366 281.843 C 228.366 306.339 208.507 326.199 184.011 326.199 C 159.515 326.199 139.655 306.34 139.655 281.843 Z M 242.808 452.022 C 223.938 452.022 207.117 438.079 206.503 427.034 C 206.903 419.587 214.422 405.251 228.457 403.018 C 233.786 402.169 237.978 405.282 241.039 407.556 C 241.43 407.847 241.913 408.205 242.372 408.53 C 242.866 408.185 243.393 407.802 243.817 407.493 C 247.083 405.104 251.149 402.128 256.284 402.885 C 269.912 404.88 278.713 418.41 279.114 427.037 C 278.499 438.081 261.678 452.022 242.808 452.022 Z M 301.608 326.198 C 277.11 326.198 257.252 306.339 257.252 281.843 C 257.252 257.346 277.11 244.364 301.608 244.364 C 326.104 244.364 345.963 257.346 345.963 281.843 C 345.963 306.339 326.104 326.198 301.608 326.198 Z" stroke="none" stroke-width="1" stroke-linecap="butt" fill="#41A7D3" fill-opacity="1"/></g></g><g></g><g></g><g></g><g></g><g></g><g></g><g></g><g></g><g></g><g></g><g></g><g></g><g></g><g></g><g></g></svg>