<svg xmlns="http://www.w3.org/2000/svg" viewBox="1639 665 42.382 38.753">
  <defs>
    <style>
      .cls-1 {
        fill: #41a7d3;
      }
    </style>
  </defs>
  <g id="Group_1802" data-name="Group 1802" transform="translate(-8949.9 -402.3)">
    <path id="Path_838" data-name="Path 838" class="cls-1" d="M100.375,82.759a3.181,3.181,0,0,0,3.175-3.175L104.717,67.4H99.663L97.2,79.583A3.181,3.181,0,0,0,100.375,82.759Z" transform="translate(10500.644 999.965)"/>
    <path id="Path_839" data-name="Path 839" class="cls-1" d="M114.24,82.759a3.181,3.181,0,0,0,3.175-3.175L116.768,67.4h-5.12L111,79.583A3.28,3.28,0,0,0,114.24,82.759Z" transform="translate(10495.786 999.965)"/>
    <path id="Path_840" data-name="Path 840" class="cls-1" d="M127.507,82.759a3.181,3.181,0,0,0,3.175-3.175L128.22,67.4H123.1l1.166,12.183A3.28,3.28,0,0,0,127.507,82.759Z" transform="translate(10491.527 999.965)"/>
    <path id="Path_841" data-name="Path 841" class="cls-1" d="M121.505,67.365h-5.12l2.981,12.183a3.265,3.265,0,0,0,2.4,3.111V103.4h-4.8V91.343H106.276V103.4H87.353v-20.8a3.207,3.207,0,0,0,2.4-3.111L92.732,67.3h-5.12L83.4,79.483a3.284,3.284,0,0,0,1.3,2.592v23.978h39.79V82.075a3.19,3.19,0,0,0,1.3-2.592Z" transform="translate(10505.5 1000)"/>
    <rect id="Rectangle_1150" data-name="Rectangle 1150" class="cls-1" width="8.295" height="8.295" transform="translate(10597.13 1087.973)"/>
  </g>
</svg>
