<svg version="1.1" viewBox="0 0 525.152 525.152" xmlns="http://www.w3.org/2000/svg" xmlns:xlink="http://www.w3.org/1999/xlink" id="Capa_1" overflow="hidden"><g><path d=" M 380.856 99.341 C 400.462 99.341 416.326 83.477 416.326 63.871 C 416.326 40.195 380.856 -0.001 380.856 -0.001 C 380.856 -0.001 345.343 40.195 345.343 63.871 C 345.342 83.477 361.206 99.341 380.856 99.341 Z M 262.565 99.341 C 282.193 99.341 298.035 83.477 298.035 63.871 C 298.035 40.195 262.565 -0.001 262.565 -0.001 C 262.565 -0.001 227.095 40.195 227.095 63.871 C 227.096 83.477 242.938 99.341 262.565 99.341 Z M 144.275 99.341 C 163.924 99.341 179.788 83.477 179.788 63.871 C 179.788 40.196 144.275 0 144.275 0 C 144.275 0 108.805 40.196 108.805 63.872 C 108.805 83.477 124.647 99.341 144.275 99.341 Z M 426.26 170.543 C 421.534 156.561 408.295 146.649 392.672 146.649 L 132.459 146.649 C 116.836 146.649 103.816 156.561 98.871 170.543 L 49.682 312.269 L 49.682 501.499 C 49.682 514.518 60.316 525.153 73.314 525.153 L 96.968 525.153 C 109.987 525.153 120.622 514.519 120.622 501.499 L 120.622 477.845 L 404.533 477.845 L 404.533 501.499 C 404.533 514.518 415.167 525.153 428.187 525.153 L 451.841 525.153 C 464.839 525.153 475.473 514.519 475.473 501.499 L 475.473 312.269 L 426.26 170.543 Z M 132.459 406.862 C 112.831 406.862 96.967 391.02 96.967 371.392 C 96.967 351.764 112.831 335.9 132.459 335.9 C 152.108 335.9 167.929 351.764 167.929 371.392 C 167.929 391.02 152.108 406.862 132.459 406.862 Z M 392.672 406.862 C 373.023 406.862 357.202 391.02 357.202 371.392 C 357.202 351.764 373.022 335.9 392.672 335.9 C 412.3 335.9 428.164 351.764 428.164 371.392 C 428.164 391.02 412.321 406.862 392.672 406.862 Z M 96.967 288.593 L 132.459 182.118 L 392.694 182.118 L 428.186 288.593 L 96.967 288.593 Z" stroke="#5CA1BF" stroke-width="1" stroke-linecap="butt" stroke-dasharray="" stroke-dashoffset="1" stroke-opacity="1" fill="#5CA1BF" fill-opacity="1"/></g><g></g><g></g><g></g><g></g><g></g><g></g><g></g><g></g><g></g><g></g><g></g><g></g><g></g><g></g><g></g></svg>