<svg xmlns="http://www.w3.org/2000/svg" viewBox="-9930.917 -3247.063 32.234 33.027">
  <defs>
    <style>
      .cls-1 {
        fill: #fff;
      }
    </style>
  </defs>
  <g id="Group_1916" data-name="Group 1916" transform="translate(-10440 -6432)">
    <path id="Path_5798" data-name="Path 5798" class="cls-1" d="M22.6,19.987a12.21,12.21,0,0,0,3.476-8.533,9.955,9.955,0,1,0-19.909,0,12.617,12.617,0,0,0,.79,4.108,9.969,9.969,0,0,0,6.636,5.688,3.3,3.3,0,0,1,2.528-1.264,3.318,3.318,0,0,1,0,6.636,3.541,3.541,0,0,1-3-1.9,13.643,13.643,0,0,1-6.636-3.634C2.528,22.831,0,25.517,0,28.52c0,5.056,32.234,5.056,32.234,0,0-3.792-3.95-7.11-9.639-8.533Zm0,0" transform="translate(509.083 3185.653)"/>
    <path id="Path_5799" data-name="Path 5799" class="cls-1" d="M12.671,24.593a2.187,2.187,0,0,0,2.054,1.738,2.054,2.054,0,0,0,0-4.108,2.041,2.041,0,0,0-1.9,1.422A11.351,11.351,0,0,1,3.506,12.584a11.219,11.219,0,1,1,22.437,0H27.05A12.509,12.509,0,0,0,14.567.1,12.108,12.108,0,0,0,2.4,12.426,12.383,12.383,0,0,0,12.671,24.593Zm0,0" transform="translate(510.476 3184.839)"/>
  </g>
</svg>
