<?xml version="1.0" encoding="utf-8"?>
<!-- Generator: Adobe Illustrator 21.0.2, SVG Export Plug-In . SVG Version: 6.00 Build 0)  -->
<svg version="1.1" id="Layer_1" xmlns="http://www.w3.org/2000/svg" xmlns:xlink="http://www.w3.org/1999/xlink" x="0px" y="0px"
	 viewBox="0 0 500 500" style="enable-background:new 0 0 500 500;" xml:space="preserve">
<style type="text/css">
	.st0{fill:#83C8E6;}
	.st1{fill:#41A7D3;}
</style>
<g>
	<path class="st0" d="M142.3,125.6c15.3,0.7,30.8,0.5,45.9,2.5c31.4,4.1,55.1,27.1,58.2,58.5c2.4,24,1.2,48.3,1.5,72.5
		c0.1,7.2-4.5,7.3-10.1,6.8c-24.7-2.2-49.5-5.6-74.3-5.7c-24.3-0.1-48.7,3.2-73,5.3c-7.5,0.6-14.9,2-22.3,3.3
		c-5.2,0.9-7.4-1.2-7.3-6.2c0-6.5-0.1-13.1,0-19.6c0.2-13.2-5.8-22.8-17.4-28.3c-5.6-2.6-6.7-6.1-6.8-11.4
		c-1-45.3,27.5-75.4,73.1-76.8c10.8-0.3,21.6,0,32.4,0C142.3,126.1,142.3,125.9,142.3,125.6z"/>
	<path class="st0" d="M361.2,125.5c16.3,0.9,32.7,0.9,48.8,3c31.5,4.2,59.8,33.4,56.9,76.3c-0.2,2.7-3.4,6.4-6,7.4
		c-21,8.1-26.5,15.4-26.6,36.6c-0.1,21.8-0.3,22.5-21.4,16.3c-35.7-10.4-71.6-8.8-107.8-4c-13.6,1.8-27.3,2.6-41,4.2
		c-5.6,0.7-8-1.4-7.9-6.9c0.3-24.2-0.7-48.5,1-72.5c2.4-33.6,33.2-58.4,71.5-59.6c10.8-0.3,21.6-0.1,32.4-0.1
		C361.2,126.1,361.2,125.8,361.2,125.5z"/>
	<path class="st1" d="M250.1,345.6c-69,0-138,0-207,0c-17.8,0-25.4-9.4-21.6-26.3c1.8-8,6.6-12.6,14.7-13.5c3.2-0.4,6.5-0.3,9.8-0.3
		c135.7,0,271.4,0,407.2,0c3.6,0,7.7-0.8,10.7,0.6c4,1.9,9.4,5.1,10.3,8.7c1.6,6.7,1.2,14.3,0.1,21.3c-1.1,6.5-6.4,9.5-13.1,9.5
		c-9.2,0-18.3,0.1-27.5,0.1C372.4,345.6,311.2,345.6,250.1,345.6z"/>
	<path class="st1" d="M247.3,297.5c-70,0-140-0.1-210,0.2c-6.7,0-8.9-2.2-8.6-8.3c0.2-3.6-0.3-7.2,0.1-10.8
		c0.9-9.6-0.3-16.5-11.9-19.8c-10-2.8-12.9-18-6.9-26.7c6.1-9.1,18.7-13.8,28.4-10.8c9.3,2.9,14.4,10.9,14.5,23
		c0.1,8.5,0.3,17-0.1,25.5c-0.4,7.5,2.5,9.9,9.9,8.6c17.1-3,34.1-6,51.3-8.1c14.2-1.7,28.7-3.3,42.9-2.7c27.1,1.2,54.1,5.3,81.2,5.8
		c22.4,0.4,44.9-2.4,67.4-4.1c16-1.2,32-4.9,47.8-4.2c19.1,0.8,38.1,4.9,57,7.9c7.7,1.2,15.4,3.1,23,5.1c7.2,1.9,9.5-1,9.3-7.9
		c-0.2-10.1-0.5-20.3,0.5-30.4c1.4-13,13.2-21.3,26-19.3c11.5,1.8,20.2,13,17.3,25.2c-1.3,5.4-6.3,11.3-11.2,14.1
		c-5.3,2.9-7.9,5.3-8.1,11.5c-0.6,26-0.7,26-26.5,26c-64.4,0-128.9,0-193.3,0C247.3,297.4,247.3,297.5,247.3,297.5z"/>
	<path class="st1" d="M431.4,355.2c7.9,0,13,0,20.2,0c-3,6.3-5.4,11.3-9.1,18.9C438.4,367.1,435.7,362.4,431.4,355.2z"/>
	<path class="st1" d="M62,370.8c-2.2-4.5-4.4-9-8-16.5c7.4,0.7,12.5,1.1,17.5,1.5c-1.7,5.3-3.5,10.6-5.2,15.9
		C64.8,371.4,63.4,371.1,62,370.8z"/>
</g>
</svg>
