<svg version="1.1" viewBox="0 0 512 512" xmlns="http://www.w3.org/2000/svg" xmlns:xlink="http://www.w3.org/1999/xlink" id="Layer_1" overflow="hidden"><style>
.MsftOfcThm_Text1_Fill {
 fill:#41a7d3; 
}
</style>
<g><g><path d=" M 415.413 8.815 C 412.511 3.391 406.847 0 400.696 0 L 322.783 0 C 313.566 0 306.087 7.479 306.087 16.696 C 306.087 44.315 283.619 66.783 256 66.783 C 228.381 66.783 205.913 44.315 205.913 16.696 C 205.913 7.479 198.435 0 189.217 0 L 111.304 0 C 105.152 0 99.489 3.391 96.586 8.815 C 93.674 14.25 94 20.837 97.412 25.956 C 132.482 78.551 133.925 156.647 101.922 211.478 L 410.076 211.478 C 378.073 156.647 379.516 78.552 414.586 25.956 C 418 20.837 418.326 14.25 415.413 8.815 Z" stroke="none" stroke-width="1" stroke-linecap="butt" stroke-dasharray="" stroke-dashoffset="1" fill="#41a7d3" fill-opacity="1"/></g></g><g><g><path d=" M 427.022 244.87 L 350.608 244.87 L 350.608 294.957 C 350.608 304.174 343.129 311.653 333.912 311.653 C 324.695 311.653 317.216 304.174 317.216 294.957 L 317.216 244.87 L 272.694 244.87 L 272.694 294.957 C 272.694 304.174 265.215 311.653 255.998 311.653 C 246.781 311.653 239.302 304.174 239.302 294.957 L 239.302 244.87 L 194.78 244.87 L 194.78 294.957 C 194.78 304.174 187.301 311.653 178.084 311.653 C 168.867 311.653 161.388 304.174 161.388 294.957 L 161.388 244.87 L 84.978 244.87 C 45.748 330.061 27.827 408.377 27.827 495.305 C 27.827 504.522 35.306 512.001 44.523 512.001 L 467.48 512.001 C 476.697 512.001 484.176 504.522 484.176 495.305 C 484.174 408.377 466.253 330.061 427.022 244.87 Z" stroke="none" stroke-width="1" stroke-linecap="butt" stroke-dasharray="" stroke-dashoffset="1" fill="#41a7d3" fill-opacity="1"/></g></g><g></g><g></g><g></g><g></g><g></g><g></g><g></g><g></g><g></g><g></g><g></g><g></g><g></g><g></g><g></g></svg>