<?xml version="1.0" encoding="utf-8"?>
<!-- Generator: Adobe Illustrator 21.0.2, SVG Export Plug-In . SVG Version: 6.00 Build 0)  -->
<svg version="1.1" id="Layer_1" xmlns="http://www.w3.org/2000/svg" xmlns:xlink="http://www.w3.org/1999/xlink" x="0px" y="0px"
	 viewBox="0 0 500 500" style="enable-background:new 0 0 500 500;" xml:space="preserve">
<style type="text/css">
	.st0{fill:#FFFFFF;}
	.st1{fill:#5CA1BF;}
</style>
<g>
	<path class="st0" d="M90.1,417.4c8.1,5.9,12.6,9,16.9,12.3c59.6,45.5,125.9,61,199.4,44.6c128.3-28.7,208.3-163.4,171.7-290.4
		c-2.2-7.5-9.6-13.4-14.6-20.1c-0.5,8.2-3.3,17-1.2,24.5c25.3,89.2-10.8,186.7-89.2,239c-77.7,51.8-183.9,47.7-254.7-9.9
		c-4.3-3.5-7.8-8-13.9-14.3c9.2-1.8,14.7-2.3,19.6-4.2c2.9-1.1,6.6-4.5,6.8-7c0.2-2.6-3.5-7.8-5.6-7.8c-15.8-0.4-31.7-0.2-47.4,1
		c-2.8,0.2-7.1,5.9-7.3,9.2c-0.8,14.1-0.7,28.2,0.2,42.3c0.2,3,5.1,5.7,7.8,8.6c2.7-2.8,6.5-5.1,7.9-8.4
		C88.5,431.9,88.6,426.4,90.1,417.4z M412.1,72.2c-5.3-3.6-10.3-6.9-15-10.4C335.9,16.4,268.7,1,193.9,19.6
		C82.4,47.3,4.4,160.2,19.4,274.2c2,15.1,6.6,29.9,11.2,44.5c1.3,4.1,7.1,6.8,10.8,10.1c1.5-5.2,3.8-10.3,4.3-15.6
		c0.3-3.4-2.2-6.9-3.1-10.5c-9.8-37.6-10.9-75.6-0.1-112.8C78.6,65.8,200.5,1.3,323.7,41c28.5,9.2,54.6,23.3,76.7,47.9
		c-6.1,1.7-9.7,2.1-12.8,3.6c-5,2.4-9.6,5.5-14.4,8.4c5.2,3.1,10.2,8.5,15.6,9c44.3,3.6,48.1,0.5,46.3-39.1
		c-0.4-7.9-5.7-15.5-8.7-23.2c-3.6,7-7.1,14-10.7,21C415.4,69,414.8,69.4,412.1,72.2z"/>
	<path class="st1" d="M393.5,245.9c0.1,78.9-62.6,141.5-141.5,141.3c-77.5-0.1-140.4-63.1-140.6-140.8
		c-0.2-78.1,63.4-141.3,142-141.2C331.2,105.4,393.4,167.9,393.5,245.9z M244.7,247.7c-0.6-40.5,5.7-39.5-29-40.6
		c-16.9-0.5-23.6,5.9-23,22c0.4,12.2,0.6,24.5,0.4,36.7c-0.2,15.1,7.1,19.7,21.7,19.4c29.9-0.6,29.9,0.1,30-30.2
		C244.7,252.6,244.7,250.2,244.7,247.7z M268,245.7c0.5,40.5-4.9,38.3,27.7,39.6c17.9,0.7,24.5-6.3,23.9-23.1
		c-0.5-13.4,0.4-26.9-0.9-40.2c-0.5-4.9-4.9-11.9-9.1-13.4c-28.1-9.9-41.5,0.2-41.5,29.8C268,240.9,268,243.3,268,245.7z
		 M169.4,282.5c0-20.6-1-40.3,0.4-59.7c0.9-13.4-4.9-15.3-15.9-15.4c-11.8-0.1-19,3.6-19.7,16.1c-0.7,11.6-2.4,23.3-1.5,34.8
		C134.9,285.8,139.3,288.4,169.4,282.5z M342.6,246.2c0.3,0,0.7,0,1,0c-0.4,8-2,16.1-0.7,23.9c0.8,5.3,6.3,14.3,8.5,14
		c6.6-1,17.7-5.3,18.1-9.2c2-18.7,2.1-37.8,0.2-56.5c-0.4-4.1-11.2-8.5-17.8-9.7c-2.2-0.4-7.8,8.5-8.9,13.7
		C341.4,230,342.6,238.2,342.6,246.2z M244.5,129.5c-24.6,13.1-34.5,29.9-41.2,53c11.2,0.5,20.2,2.1,28.7,0.8
		c4.6-0.7,11.5-6,11.9-9.9C245.4,160.5,244.5,147.3,244.5,129.5z M306.5,181.3c-3.2-24.6-18.6-43.8-36.4-46.5
		C261.4,180.7,268.1,189.6,306.5,181.3z M235.1,360.1c3.4-1.2,6.8-2.5,10.2-3.7c-1.3-15,0.2-31.4-5.5-44.4c-2.2-5-21.4-2.5-32.8-3.3
		c-1.3,2.3-2.7,4.6-4,6.9C213.7,330.4,224.4,345.3,235.1,360.1z M268.7,357.9c21.4-7.3,35.6-27.3,36.1-49.3c-7.2,0-14.5-1-21.4,0.3
		c-5.2,0.9-13.6,4.3-14,7.4C267.8,329.7,268.7,343.3,268.7,357.9z M147.7,311.5c15.6,15.1,28.1,27.1,44.1,42.6
		C185.8,314.5,178.2,306.7,147.7,311.5z M189.3,148.1c-1.3-1.4-2.6-2.9-4-4.3c-11.4,11.6-22.8,23.2-36.7,37.3
		C177.3,185.6,180.5,182.5,189.3,148.1z M323.4,337.7c1.5,1.5,2.9,2.9,4.4,4.4c8.9-9.7,17.8-19.3,28.5-31
		C326.6,304,331.5,327.3,323.4,337.7z M348.9,183.3c2.4-2.6,4.7-5.2,7.1-7.8c-9.4-8.1-18.9-16.1-28.3-24.2c-1.4,1.3-2.8,2.6-4.2,3.9
		C332.7,163.9,326.8,186.1,348.9,183.3z"/>
	<path class="st1" d="M90.1,417.4c-1.5,9-1.5,14.5-3.4,19.3c-1.3,3.3-5.2,5.7-7.9,8.4c-2.7-2.9-7.6-5.6-7.8-8.6
		c-0.9-14.1-1-28.2-0.2-42.3c0.2-3.3,4.5-9,7.3-9.2c15.8-1.2,31.6-1.4,47.4-1c2.1,0,5.8,5.2,5.6,7.8c-0.2,2.6-3.9,5.9-6.8,7
		c-4.9,1.9-10.4,2.3-19.6,4.2c6,6.3,9.5,10.8,13.9,14.3c70.8,57.6,177,61.7,254.7,9.9c78.4-52.3,114.5-149.8,89.2-239
		c-2.1-7.4,0.7-16.3,1.2-24.5c5,6.7,12.4,12.6,14.6,20.1c36.5,127-43.4,261.7-171.7,290.4c-73.5,16.4-139.8,1-199.4-44.6
		C102.6,426.4,98.2,423.3,90.1,417.4z"/>
	<path class="st1" d="M412.1,72.2c2.7-2.8,3.3-3.1,3.5-3.7c3.6-7,7.2-14,10.7-21c3,7.7,8.4,15.4,8.7,23.2
		c1.8,39.5-2.1,42.7-46.3,39.1c-5.4-0.4-10.4-5.8-15.6-9c4.8-2.8,9.4-5.9,14.4-8.4c3.1-1.5,6.7-2,12.8-3.6
		c-22.1-24.6-48.2-38.7-76.7-47.9C200.5,1.3,78.6,65.8,42.6,189.9c-10.8,37.2-9.7,75.2,0.1,112.8c0.9,3.6,3.4,7.1,3.1,10.5
		c-0.5,5.3-2.8,10.4-4.3,15.6c-3.7-3.3-9.5-6-10.8-10.1c-4.6-14.6-9.2-29.4-11.2-44.5c-15-114,63-226.9,174.5-254.6
		C268.7,1,335.9,16.4,397.1,61.8C401.8,65.3,406.8,68.5,412.1,72.2z"/>
	<path class="st0" d="M244.7,247.7c0,2.4,0,4.9,0,7.3c0,30.4,0,29.7-30,30.2c-14.7,0.3-21.9-4.4-21.7-19.4c0.2-12.2,0-24.5-0.4-36.7
		c-0.5-16.1,6.1-22.6,23-22C250.4,208.3,244.1,207.2,244.7,247.7z"/>
	<path class="st0" d="M268,245.7c0-2.4,0-4.9,0-7.3c0-29.6,13.4-39.7,41.5-29.8c4.2,1.5,8.6,8.5,9.1,13.4
		c1.4,13.3,0.5,26.8,0.9,40.2c0.6,16.8-6,23.9-23.9,23.1C263.1,284.1,268.5,286.2,268,245.7z"/>
	<path class="st0" d="M169.4,282.5c-30.1,6-34.5,3.4-36.8-24.3c-1-11.5,0.8-23.2,1.5-34.8c0.7-12.5,8-16.2,19.7-16.1
		c11.1,0.1,16.9,2.1,15.9,15.4C168.4,242.2,169.4,261.8,169.4,282.5z"/>
	<path class="st0" d="M342.6,246.2c0-8-1.2-16.2,0.4-23.9c1.1-5.2,6.7-14.1,8.9-13.7c6.6,1.2,17.4,5.7,17.8,9.7
		c1.8,18.7,1.8,37.8-0.2,56.5c-0.4,3.9-11.5,8.2-18.1,9.2c-2.2,0.3-7.6-8.7-8.5-14c-1.2-7.7,0.3-15.9,0.7-23.9
		C343.3,246.2,342.9,246.2,342.6,246.2z"/>
	<path class="st0" d="M244.5,129.5c0,17.8,0.9,31-0.6,43.9c-0.4,3.9-7.4,9.2-11.9,9.9c-8.6,1.3-17.6-0.3-28.7-0.8
		C209.9,159.4,219.8,142.7,244.5,129.5z"/>
	<path class="st0" d="M306.5,181.3c-38.4,8.3-45.1-0.6-36.4-46.5C287.9,137.5,303.3,156.7,306.5,181.3z"/>
	<path class="st0" d="M235.1,360.1c-10.7-14.9-21.4-29.7-32.1-44.6c1.3-2.3,2.7-4.6,4-6.9c11.4,0.9,30.6-1.6,32.8,3.3
		c5.8,13.1,4.2,29.4,5.5,44.4C241.9,357.7,238.5,358.9,235.1,360.1z"/>
	<path class="st0" d="M268.7,357.9c0-14.6-0.9-28.2,0.7-41.6c0.4-3.1,8.8-6.4,14-7.4c6.9-1.3,14.2-0.3,21.4-0.3
		C304.3,330.6,290.1,350.6,268.7,357.9z"/>
	<path class="st0" d="M147.7,311.5c30.6-4.9,38.2,3,44.1,42.6C175.7,338.7,163.3,326.6,147.7,311.5z"/>
	<path class="st0" d="M189.3,148.1c-8.8,34.4-12,37.5-40.7,33c13.9-14.1,25.3-25.7,36.7-37.3C186.6,145.3,187.9,146.7,189.3,148.1z"
		/>
	<path class="st0" d="M323.4,337.7c8.1-10.4,3.2-33.7,32.9-26.6c-10.7,11.7-19.6,21.3-28.5,31C326.3,340.6,324.9,339.1,323.4,337.7z
		"/>
	<path class="st0" d="M348.9,183.3c-22.1,2.9-16.2-19.3-25.4-28c1.4-1.3,2.8-2.6,4.2-3.9c9.4,8.1,18.9,16.1,28.3,24.2
		C353.6,178.1,351.3,180.7,348.9,183.3z"/>
</g>
</svg>
