<svg version="1.1" viewBox="0 0 398.97 398.97" xmlns="http://www.w3.org/2000/svg" xmlns:xlink="http://www.w3.org/1999/xlink" id="Capa_1" overflow="hidden"><style>
.MsftOfcThm_Text1_Fill {
 fill:#41a7d3; 
}
</style>
<g><g id="Layer_5_59_"><g><path d=" M 225.092 276.586 C 217.991 280.941 208.897 283.34 199.485 283.34 C 190.073 283.34 180.979 280.942 173.878 276.586 L 57.946 205.484 C 57.946 205.484 47.482 199.07 47.482 213.6 C 47.482 230.1 47.482 279.6 47.482 279.6 C 47.482 280.26 47.482 283.573 47.482 284.6 C 47.482 322.002 115.535 362.323 199.482 362.323 C 283.429 362.323 351.482 322.003 351.482 284.6 C 351.482 283.573 351.482 280.26 351.482 279.6 C 351.482 279.6 351.482 227.098 351.482 209.597 C 351.482 197.934 344.043 203.633 344.043 203.633 L 225.092 276.586 Z" stroke="none" stroke-width="1" stroke-linecap="butt" stroke-dasharray="" stroke-dashoffset="1" fill="#41a7d3" fill-opacity="1"/><path d=" M 392.289 148.927 C 401.197 143.464 401.197 134.524 392.289 129.06 L 215.681 40.745 C 206.773 35.282 192.196 35.282 183.288 40.745 L 6.681 129.06 C -2.227 134.523 -2.227 143.463 6.681 148.927 L 183.288 257.242 C 192.196 262.705 206.773 262.705 215.681 257.242" stroke="none" stroke-width="1" stroke-linecap="butt" stroke-dasharray="" stroke-dashoffset="1" fill="#41a7d3" fill-opacity="1"/><path d=" M 384.985 309.475 C 384.985 279.569 384.985 189.85 384.985 189.85 C 384.985 189.85 385.068 184.184 381.706 186.055 C 379.009 187.556 372.398 191.241 370.069 193.267 C 367.38 195.604 367.986 200.85 367.986 200.85 C 367.986 200.85 367.986 282.319 367.986 309.475 C 367.986 311.017 366.661 311.753 366.029 312.125 C 359.924 315.714 355.819 322.339 355.819 329.934 C 355.819 341.348 365.071 350.601 376.486 350.601 C 387.9 350.601 397.152 341.348 397.152 329.934 C 397.152 322.31 393.017 315.664 386.873 312.084 C 386.262 311.728 384.985 311.016 384.985 309.475 Z" stroke="none" stroke-width="1" stroke-linecap="butt" stroke-dasharray="" stroke-dashoffset="1" fill="#41a7d3" fill-opacity="1"/></g></g></g><g></g><g></g><g></g><g></g><g></g><g></g><g></g><g></g><g></g><g></g><g></g><g></g><g></g><g></g><g></g></svg>