<svg version="1.1" viewBox="0 0 459.085 459.085" xmlns="http://www.w3.org/2000/svg" xmlns:xlink="http://www.w3.org/1999/xlink" id="Layer_1" overflow="hidden"><g><g><g><path d=" M 385.975 330.594 L 275.859 330.594 L 275.859 316.529 L 210.574 316.529 C 204.53 316.529 198.575 315.044 193.24 312.319 L 193.24 330.594 L 83.124 330.594 C 72.226 330.594 63.39 339.429 63.39 350.327 C 63.39 361.225 72.225 370.06 83.124 370.06 L 114.584 370.06 C 114.099 371.726 113.826 373.482 113.826 375.304 C 113.826 385.65 122.213 394.037 132.559 394.037 C 142.905 394.037 151.292 385.65 151.292 375.304 C 151.292 373.482 151.019 371.725 150.534 370.06 L 318.567 370.06 C 318.082 371.726 317.809 373.482 317.809 375.304 C 317.809 385.65 326.196 394.037 336.542 394.037 C 346.888 394.037 355.275 385.65 355.275 375.304 C 355.275 373.482 355.002 371.725 354.517 370.06 L 385.977 370.06 C 396.875 370.06 405.711 361.225 405.711 350.327 C 405.711 339.429 396.874 330.594 385.975 330.594 Z" stroke="none" stroke-width="1" stroke-linecap="butt" fill="#41A7D3" fill-opacity="1"/><path d=" M 425.221 223.281 C 425.221 212.963 416.857 204.598 406.539 204.598 L 402.64 204.598 L 402.64 241.963 L 406.539 241.963 C 416.857 241.963 425.221 233.599 425.221 223.281 Z" stroke="none" stroke-width="1" stroke-linecap="butt" fill="#41A7D3" fill-opacity="1"/><path d=" M 106.184 179.69 L 173.09 223.879 L 173.537 181.586 L 137.423 164.58 C 201.512 175.993 197.293 175.347 199.256 175.347 C 203.468 175.347 207.547 173.635 210.511 170.535 L 253.486 125.568 C 259.427 119.352 259.203 109.497 252.987 103.556 C 246.772 97.614 236.917 97.839 230.975 104.054 L 193.767 142.987 L 142.882 133.925 L 182.637 130.431 L 157.535 110.862 C 147.424 102.98 132.838 104.786 124.956 114.897 L 100.671 146.048 C 92.355 156.713 94.887 172.229 106.184 179.69 Z" stroke="none" stroke-width="1" stroke-linecap="butt" fill="#41A7D3" fill-opacity="1"/><circle cx="71.391" cy="99.41" r="34.363" stroke="none" stroke-width="1" stroke-linecap="butt" fill="#41A7D3" fill-opacity="1"/><path d=" M 442.908 271.446 L 402.64 271.446 L 402.64 278.469 C 402.64 288.188 398.973 297.064 392.957 303.797 L 442.909 303.797 C 451.843 303.797 459.085 296.555 459.085 287.621 C 459.085 278.687 451.841 271.446 442.908 271.446 Z" stroke="none" stroke-width="1" stroke-linecap="butt" fill="#41A7D3" fill-opacity="1"/><path d=" M 172.912 240.624 L 25.066 143.388 C 17.603 138.479 7.572 140.55 2.663 148.015 C -2.246 155.479 -0.175 165.509 7.289 170.418 L 172.532 279.096 C 172.508 277.745 172.47 282.455 172.912 240.624 Z" stroke="none" stroke-width="1" stroke-linecap="butt" fill="#41A7D3" fill-opacity="1"/><path d=" M 192.221 190.385 L 191.292 278.265 C 191.178 288.993 199.852 297.752 210.574 297.752 L 364.579 297.752 C 375.229 297.752 383.862 289.118 383.862 278.469 L 383.862 200.117 C 383.862 182.299 372.132 166.607 355.043 161.563 L 266.435 135.41 C 265.506 136.5 268.811 133.005 222.235 181.739 C 217.698 186.488 209.082 198.324 192.221 190.385 Z" stroke="none" stroke-width="1" stroke-linecap="butt" fill="#41A7D3" fill-opacity="1"/></g></g></g><g></g><g></g><g></g><g></g><g></g><g></g><g></g><g></g><g></g><g></g><g></g><g></g><g></g><g></g><g></g></svg>