<svg version="1.1" viewBox="0 0 488.636 488.636" xmlns="http://www.w3.org/2000/svg" xmlns:xlink="http://www.w3.org/1999/xlink" id="Capa_1" overflow="hidden"><style>
.MsftOfcThm_Text1_Fill {
 fill:#41a7d3; 
}
</style>
<g><g><path d=" M 384.936 125.936 C 392.036 125.936 394.036 116.336 387.636 113.436 L 137.736 2.636 C 122.536 -4.164 104.636 2.636 97.836 17.936 L 10.336 214.136 C 3.536 229.336 10.336 247.236 25.636 254.036 L 76.036 275.836 C 82.336 278.636 89.536 274.036 89.536 267.136 L 89.536 183.836 C 89.536 151.936 115.436 126.036 147.336 126.036 L 384.936 126.036 L 384.936 125.936 Z" stroke="none" stroke-width="1" stroke-linecap="butt" stroke-dasharray="" stroke-dashoffset="1" fill="#41a7d3" fill-opacity="1"/><path d=" M 450.336 153.136 L 147.236 153.136 C 130.336 153.136 116.636 166.836 116.636 183.736 L 116.636 397.836 C 116.636 414.736 130.336 428.436 147.236 428.436 L 187.936 428.436 C 186.936 422.436 186.436 416.336 186.436 410.136 C 186.436 403.136 187.136 396.336 188.336 389.636 L 155.536 389.636 L 155.536 287.136 L 442.136 287.136 L 442.136 389.536 L 409.236 389.536 C 410.436 396.236 411.136 403.036 411.136 410.036 C 411.136 416.236 410.636 422.336 409.636 428.336 L 450.336 428.336 C 467.236 428.336 480.936 414.636 480.936 397.736 L 480.936 183.736 C 480.936 166.836 467.236 153.136 450.336 153.136 Z M 442.136 224.036 L 155.536 224.036 L 155.536 191.936 L 442.136 191.936 L 442.136 224.036 Z" stroke="none" stroke-width="1" stroke-linecap="butt" stroke-dasharray="" stroke-dashoffset="1" fill="#41a7d3" fill-opacity="1"/><path d=" M 298.836 331.436 C 255.436 331.436 220.236 366.636 220.236 410.036 C 220.236 453.436 255.436 488.636 298.836 488.636 C 342.236 488.636 377.436 453.436 377.436 410.036 C 377.436 366.636 342.236 331.436 298.836 331.436 Z M 321.436 441.036 C 318.036 445.236 313.536 448.036 308.336 449.436 C 306.036 450.036 305.036 451.236 305.136 453.636 C 305.236 455.936 305.136 458.236 305.136 460.636 C 305.136 462.736 304.036 463.836 302.036 463.836 C 299.536 463.936 297.036 463.936 294.536 463.836 C 292.336 463.836 291.336 462.536 291.336 460.436 C 291.336 458.736 291.336 457.036 291.336 455.336 C 291.336 451.636 291.136 451.436 287.536 450.836 C 282.936 450.136 278.436 449.036 274.236 447.036 C 270.936 445.436 270.536 444.636 271.536 441.136 C 272.236 438.536 272.936 435.936 273.736 433.436 C 274.636 430.436 275.436 430.136 278.236 431.536 C 282.936 433.936 287.836 435.336 293.036 435.936 C 296.336 436.336 299.636 436.036 302.736 434.636 C 308.536 432.136 309.436 425.436 304.536 421.436 C 302.836 420.036 301.036 419.036 299.036 418.236 C 293.936 416.036 288.636 414.336 283.936 411.436 C 276.136 406.836 271.236 400.436 271.836 390.936 C 272.436 380.236 278.536 373.636 288.336 370.036 C 292.336 368.536 292.436 368.636 292.436 364.436 C 292.436 363.036 292.436 361.536 292.436 360.136 C 292.536 356.936 293.036 356.436 296.236 356.336 C 297.236 356.336 298.236 356.336 299.136 356.336 C 305.936 356.336 305.936 356.336 305.936 363.136 C 305.936 367.936 305.936 367.936 310.736 368.636 C 314.336 369.236 317.836 370.236 321.236 371.736 C 323.136 372.536 323.836 373.836 323.236 375.836 C 322.436 378.736 321.636 381.736 320.636 384.536 C 319.736 387.236 318.836 387.636 316.236 386.436 C 310.936 383.836 305.436 382.836 299.636 383.136 C 298.136 383.236 296.636 383.436 295.236 384.036 C 290.236 386.236 289.336 391.836 293.636 395.236 C 295.836 396.936 298.236 398.236 300.836 399.336 C 305.336 401.136 309.736 402.936 314.036 405.336 C 327.236 412.636 330.936 429.536 321.436 441.036 Z" stroke="none" stroke-width="1" stroke-linecap="butt" stroke-dasharray="" stroke-dashoffset="1" fill="#41a7d3" fill-opacity="1"/></g></g><g></g><g></g><g></g><g></g><g></g><g></g><g></g><g></g><g></g><g></g><g></g><g></g><g></g><g></g><g></g></svg>