<svg xmlns="http://www.w3.org/2000/svg" viewBox="-10321.999 -3247 30.951 35.61">
  <defs>
    <style>
      .cls-1 {
        fill: #fafafa;
      }
    </style>
  </defs>
  <g id="Group_1915" data-name="Group 1915" transform="translate(-10440 -6432)">
    <path id="Path_1125" data-name="Path 1125" class="cls-1" d="M-1725.4-939.058h11.944a7.664,7.664,0,0,1,.658-1.432h-12.6Z" transform="translate(1849.168 4151.318)"/>
    <rect id="Rectangle_1648" data-name="Rectangle 1648" class="cls-1" width="14.97" height="1.43" transform="translate(123.768 3205.026)"/>
    <rect id="Rectangle_1649" data-name="Rectangle 1649" class="cls-1" width="14.97" height="1.43" transform="translate(123.768 3199.224)"/>
    <rect id="Rectangle_1650" data-name="Rectangle 1650" class="cls-1" width="7.056" height="1.43" transform="translate(131.682 3193.424)"/>
    <path id="Path_1126" data-name="Path 1126" class="cls-1" d="M-1749.251-1029.118a1.334,1.334,0,0,1-.945-.391,1.333,1.333,0,0,1-.391-.945v-18.973h8.167a1.638,1.638,0,0,0,1.634-1.64v-8.18h11.94a1.338,1.338,0,0,1,1.336,1.336v18.917h.345a7.629,7.629,0,0,1,1.37.122V-1057.9a3.055,3.055,0,0,0-3.051-3.051h-12.38a3.339,3.339,0,0,0-2.373.982l-7.719,7.718a3.339,3.339,0,0,0-.982,2.373v19.433a3.051,3.051,0,0,0,3.051,3.051h15.2a7.786,7.786,0,0,1-.688-1.715Zm6.94-29.723v6.861c0,.74-.287,1.027-1.031,1.027h-6.861Z" transform="translate(1870.301 4245.95)"/>
    <path id="Path_1127" data-name="Path 1127" class="cls-1" d="M-1656.393-949.16a5.819,5.819,0,0,0-5.817,5.823,5.819,5.819,0,0,0,5.819,5.819,5.819,5.819,0,0,0,5.817-5.819A5.819,5.819,0,0,0-1656.393-949.16Zm3.758,3.919-3.1,3.767a1.147,1.147,0,0,1-.8.429,1.145,1.145,0,0,1-.858-.289l-1.887-1.7a.716.716,0,0,1-.238-.5.718.718,0,0,1,.184-.519l.253-.281a.717.717,0,0,1,.5-.234.719.719,0,0,1,.519.189l1.576,1.449,3.2-2.955a.461.461,0,0,1,.622.013.461.461,0,0,1,.03.624Z" transform="translate(1799.526 4158.128)"/>
  </g>
</svg>
