<?xml version="1.0" encoding="utf-8"?>
<!-- Generator: Adobe Illustrator 21.0.2, SVG Export Plug-In . SVG Version: 6.00 Build 0)  -->
<svg version="1.1" id="Layer_1" xmlns="http://www.w3.org/2000/svg" xmlns:xlink="http://www.w3.org/1999/xlink" x="0px" y="0px"
	 viewBox="0 0 500 500" style="enable-background:new 0 0 500 500;" xml:space="preserve">
<style type="text/css">
	.st0{fill:#5CA1BF;}
</style>
<g>
	<path class="st0" d="M360.4,201.9c-36.8,73.8-71.3,142.9-105.8,212.1c-2.4,0.6-4.7,1.1-7.1,1.7C212.8,346,178,276.2,141,201.9
		C215.6,201.9,284.7,201.9,360.4,201.9z"/>
	<path class="st0" d="M197.2,382.8c-64.3-60.7-125-117.9-185.7-175.2c0.8-2.1,1.6-4.2,2.3-6.3c31.7,0,63.4-0.4,95,0.5
		c3.6,0.1,8.1,6.7,10.4,11.1c26.2,52.3,52,104.7,77.8,157.1C197.9,371.9,197.2,374.3,197.2,382.8z"/>
	<path class="st0" d="M489.4,207.2c-60.3,57-120.6,114-181,170.9c-1.8-1-3.6-2.1-5.5-3.1c2.4-6.2,4.4-12.7,7.4-18.6
		c23-46.2,46.7-92.1,69.2-138.5c6.5-13.3,14.7-19.6,29.9-19.1c25.5,0.9,51.1,0.2,76.7,0.2C487.2,201.8,488.3,204.5,489.4,207.2z"/>
	<path class="st0" d="M338.5,173.2c-58.8,0-117.6,0-181.4,0c5.9-8.5,8.9-14.3,13.1-18.7c22.2-23,44.4-46,67.5-68.1
		c4.3-4.2,16.1-7.9,18.5-5.6c29.5,28,57.9,57.1,86.6,85.9C341.3,168.9,339.9,171,338.5,173.2z"/>
	<path class="st0" d="M288.2,67.4c38.5,0,74.7-0.4,110.8,0.7c3.2,0.1,10,11.4,8.7,15.4c-8.6,25.8-19,51-27.9,74.1
		C349.8,128.2,320.8,99.6,288.2,67.4z"/>
	<path class="st0" d="M122.7,155.1c-7.6-22.8-16.6-48.4-24.3-74.4c-0.9-3.2,5.3-12.3,8.4-12.4c34.6-0.9,69.2-0.6,106.1-0.6
		C181.1,98.6,152.4,126.4,122.7,155.1z"/>
	<path class="st0" d="M73.2,82.3c8.1,25.2,17,50.3,23.7,75.9c1.1,4.2-7,15.4-11.2,15.7c-26.4,1.5-53,0.7-79.5,0.7
		c-1.6-2-3.2-4-4.9-6c21.5-29.7,42.9-59.5,64.4-89.2C68.2,80.3,70.7,81.3,73.2,82.3z"/>
	<path class="st0" d="M495.4,174.4c-27,0-54.1,0.4-81.1-0.6c-3.3-0.1-9.8-9-8.9-11.8c8.2-25,17.8-49.5,29.8-81.5
		c24.3,32.9,44,59.6,63.8,86.4C497.8,169.4,496.6,171.9,495.4,174.4z"/>
</g>
</svg>
