<?xml version="1.0" encoding="utf-8"?>
<!-- Generator: Adobe Illustrator 21.0.2, SVG Export Plug-In . SVG Version: 6.00 Build 0)  -->
<svg version="1.1" id="Layer_1" xmlns="http://www.w3.org/2000/svg" xmlns:xlink="http://www.w3.org/1999/xlink" x="0px" y="0px"
	 viewBox="0 0 500 500" style="enable-background:new 0 0 500 500;" xml:space="preserve">
<style type="text/css">
	.st0{fill:#83C9E5;}
	.st1{fill:#5CA3BF;}
</style>
<g id="Group_1322" transform="translate(-1259 7185)">
	<path id="Path_593" class="st0" d="M1343.7-6824.6c32.1-71.8,83.5-130.2,133.1-193.3c15.8,33.9,38,60.7,76.5,73
		c-45.5,35.6-88.7,70.1-132.5,103.9c-7.4,6.6-17,9.9-26.9,9.3c-14-1.8-18.7,8.2-22.8,17.5c-1.5,5.8,1.2,11.8,6.4,14.6
		c11.1,7.6,17.5-1.8,25.1-7.6c26.9-22.2,47.9-22.2,66-1.8c17.5,19.3,14,42-9.3,66c-7.6,7.6-14.6,15.2-21.6,22.8h-5.8
		c-24.5-12.8-13.4-26.9-1.2-41.5c4.1-5.3,11.1-11.7,6.4-17.5c-7-8.8-14,0-19.3,4.7c-19.3,15.2-38.5,16.3-59,3.5
		C1337.9-6784.3,1339-6804.2,1343.7-6824.6z"/>
	<circle id="Ellipse_241" class="st1" cx="1589.5" cy="-7052.3" r="87.6"/>
</g>
</svg>
