<svg version="1.1" viewBox="0 0 297 297" xmlns="http://www.w3.org/2000/svg" xmlns:xlink="http://www.w3.org/1999/xlink" overflow="hidden"><style>
.MsftOfcThm_Text1_Fill {
 fill:#41a7d3; 
}
</style>
<g><path d=" M 239.032 27.029 L 239.032 103.279 L 256.921 27.029 Z" stroke="none" stroke-width="1" stroke-linecap="butt" stroke-dasharray="" stroke-dashoffset="1" fill="#41a7d3" fill-opacity="1"/><path d=" M 227.166 27.029 L 208.852 27.029 L 227.166 105.092 Z" stroke="none" stroke-width="1" stroke-linecap="butt" stroke-dasharray="" stroke-dashoffset="1" fill="#41a7d3" fill-opacity="1"/><path d=" M 256.431 123.285 L 208.422 123.285 L 200.277 247.617 C 199.701 256.412 202.643 264.736 208.56 271.053 C 214.476 277.369 222.588 280.848 231.403 280.848 L 233.381 280.848 C 242.195 280.848 250.309 277.369 256.225 271.053 C 262.142 264.737 265.083 256.412 264.507 247.617 L 256.431 123.285 Z" stroke="none" stroke-width="1" stroke-linecap="butt" stroke-dasharray="" stroke-dashoffset="1" fill="#41a7d3" fill-opacity="1"/><path d=" M 256.483 123.285 L 256.43 123.285 C 256.446 123.254 256.468 123.316 256.483 123.285 Z" stroke="none" stroke-width="1" stroke-linecap="butt" stroke-dasharray="" stroke-dashoffset="1" fill="#41a7d3" fill-opacity="1"/><path d=" M 216.461 111.418 L 196.663 27.029 L 178.991 27.029 C 175.598 27.029 172.442 28.769 170.631 31.638 C 168.818 34.507 168.605 38.107 170.064 41.171 L 203.516 111.417 L 216.461 111.417 Z" stroke="none" stroke-width="1" stroke-linecap="butt" stroke-dasharray="" stroke-dashoffset="1" fill="#41a7d3" fill-opacity="1"/><path d=" M 295.473 31.639 C 293.66 28.77 290.505 27.03 287.112 27.03 L 269.11 27.03 L 249.313 111.419 L 262.588 111.419 L 296.039 41.173 C 297.498 38.107 297.285 34.508 295.473 31.639 Z" stroke="none" stroke-width="1" stroke-linecap="butt" stroke-dasharray="" stroke-dashoffset="1" fill="#41a7d3" fill-opacity="1"/><path d=" M 84.387 152.621 C 64.211 152.621 47.797 169.035 47.797 189.211 C 47.797 209.387 64.211 225.801 84.387 225.801 C 104.563 225.801 120.977 209.387 120.977 189.211 C 120.977 169.035 104.563 152.621 84.387 152.621 Z" stroke="none" stroke-width="1" stroke-linecap="butt" stroke-dasharray="" stroke-dashoffset="1" fill="#41a7d3" fill-opacity="1"/><path d=" M 84.387 16.152 C 37.855 16.152 0 54.008 0 100.539 C 0 117.322 4.866 133.365 14.093 147.211 C 28.419 123.322 54.564 107.297 84.387 107.297 C 114.21 107.297 140.355 123.322 154.681 147.211 C 163.908 133.365 168.774 117.322 168.774 100.539 C 168.773 54.008 130.918 16.152 84.387 16.152 Z" stroke="none" stroke-width="1" stroke-linecap="butt" stroke-dasharray="" stroke-dashoffset="1" fill="#41a7d3" fill-opacity="1"/><path d=" M 84.387 122.129 C 47.399 122.129 17.306 152.223 17.306 189.211 C 17.306 226.199 47.399 256.291 84.387 256.291 C 121.375 256.291 151.468 226.199 151.468 189.211 C 151.468 152.223 121.375 122.129 84.387 122.129 Z M 84.387 240.635 C 56.032 240.635 32.963 217.567 32.963 189.211 C 32.963 160.856 56.031 137.787 84.387 137.787 C 112.742 137.787 135.811 160.855 135.811 189.211 C 135.811 217.566 112.742 240.635 84.387 240.635 Z" stroke="none" stroke-width="1" stroke-linecap="butt" stroke-dasharray="" stroke-dashoffset="1" fill="#41a7d3" fill-opacity="1"/></g></svg>