<?xml version="1.0" encoding="utf-8"?>
<!-- Generator: Adobe Illustrator 21.0.2, SVG Export Plug-In . SVG Version: 6.00 Build 0)  -->
<svg version="1.1" id="Layer_1" xmlns="http://www.w3.org/2000/svg" xmlns:xlink="http://www.w3.org/1999/xlink" x="0px" y="0px"
	 viewBox="0 0 500 500" style="enable-background:new 0 0 500 500;" xml:space="preserve">
<style type="text/css">
	.st0{fill:#83C8E6;}
	.st1{fill:#41A7D3;}
</style>
<g>
	<path class="st0" d="M192.7,126.1c0,0.5,0,0.9,0,1.4c-10.9,0-22.1-1.4-32.7,0.5c-6.5,1.1-15,5.9-17.6,11.4
		c-10.8,22.3-20.2,45.3-29.2,68.4c-5,12.9-0.8,21,12.1,26.1c23.9,9.4,47.9,18.5,71.9,27.4c12,4.5,21.7,0.9,25.4-8.7
		c3.8-10-0.6-19.3-12.2-24c-15.6-6.4-31.5-11.9-46.9-18.5c-3.7-1.6-8.9-6.9-8.3-9.6c1.5-7.4,7.4-5.7,13-3.5
		c11,4.4,20.4,2.5,27.9-7.5c9.1-12,21.6-16.7,36.4-16.6c13.2,0.1,20.1-7.3,19.9-20.4c-0.2-11.4-10.4-23.1-23-24.6
		C217.1,126.6,204.9,126.7,192.7,126.1z M162.1,263.8c-0.8,1.2-1.6,2.3-2.4,3.5c7.1,19.1,20.7,31.5,40.9,36.2
		c29.4,6.8,50.5-10.2,51.9-40.3c0.2-4.6,3.3-10.2,6.8-13.3c9.5-8.3,13.8-17.8,11.1-30.2c-3.6-16.3,7.6-34.4,24.2-39.6
		c15.5-4.9,23-29.7,14.2-39.9c-7.9-9.2-17.9-5.6-24-2.7c-7.2,3.4-14.2,12.4-16.2,20.3c-4.1,16.5-19,30.1-36.3,29.6
		c-5.3-0.1-12,0.2-15.7,3.2c-5.4,4.3-12.9,12.3-11.8,16.9c2,8.7,11.4,5.8,19.2,5.2c6.5-0.5,16.1,1.9,19.3,6.5
		c3.2,4.6,0.7,13.6-0.3,20.5c-0.6,3.9-4.1,7.3-5.2,11.2c-6,22.2-22.6,31.3-44.2,24C183.1,271.4,172.6,267.5,162.1,263.8z
		 M143.8,278.4c-0.2,2.3-0.6,5.2-0.6,8.1c0,49.6-0.1,99.3,0,148.9c0,16.2,8.1,26,21,26.2c13,0.2,21.7-9.5,21.8-25.6
		c0.3-37,0.2-74,0-111.1c0-3.9-0.8-9.1-3.3-11.5C170.2,301.5,157.1,290.3,143.8,278.4z M242.8,313.4c-11.2,2.2-20.2,5.2-29.2,5.3
		c-9.9,0.1-12.3,4.1-12,12.9c0.4,16,0.1,32,0.1,48c0,20.6-0.1,41.3,0.3,61.9c0.2,10.5,6.5,17.3,16.5,19.7
		c9.8,2.3,17.8-1.9,22.2-10.5c2.5-5,3.1-11.4,3.1-17.1c0.3-35.8,0.2-71.6,0.1-107.4C243.9,322.2,243.2,318.2,242.8,313.4z M194.1,36
		c-22.4-0.3-41.1,17.8-41.6,40.4c-0.5,23,18,42.6,40.6,42.9c22.5,0.3,41.9-19,41.8-41.9C234.8,55,216.4,36.3,194.1,36z M422.5,70.6
		c0.7-31.7,0.8-31.2-29.9-24.7c-13,2.7-18.5,8.2-17.5,22c0.8,11,4.2,23.5-8.1,32.3c-1.5,1.1,1.8,9,3,13.8c4.5-1.8,9.8-2.7,13.2-5.8
		c2.1-1.9,1.6-7.1,1.8-10.8c0.3-8-1-16.2,0.7-23.9c0.9-4,5.9-8.6,10.1-10.2c5-1.8,12.4-2.7,16.1-0.2c2.6,1.8,1.6,10,0.9,15.2
		c-0.3,2.4-4.3,4.1-5.3,6.6c-1.6,3.9-3.4,8.5-2.6,12.3c0.5,2.3,6.6,5.7,8.6,4.8c3.6-1.5,8-5.5,8.7-9
		C423.4,85.9,422.5,78.1,422.5,70.6z M281.9,210.2c0.8,1,1.6,2,2.3,3c1.6,0.2,3.7,1.1,4.6,0.4c17-13.7,34.5-26.8,50.4-41.7
		c8.2-7.7,3.5-19.7-8.5-25.1c-1,2.7-2.7,5.3-2.7,7.8c0.3,21.9-12,33.9-30.9,42C291.1,199.2,286.9,205.6,281.9,210.2z"/>
	<path class="st0" d="M192.7,126.1c12.2,0.6,24.4,0.5,36.5,1.9c12.5,1.4,22.8,13.1,23,24.6c0.2,13.1-6.7,20.5-19.9,20.4
		c-14.8-0.1-27.4,4.5-36.4,16.6c-7.5,9.9-16.9,11.8-27.9,7.5c-5.6-2.2-11.6-3.9-13,3.5c-0.5,2.6,4.7,8,8.3,9.6
		c15.4,6.7,31.4,12.2,46.9,18.5c11.6,4.7,16,14,12.2,24c-3.7,9.7-13.3,13.2-25.4,8.7c-24-9-48-18.1-71.9-27.4
		c-12.9-5-17.1-13.2-12.1-26.1c9-23.1,18.3-46.1,29.2-68.4c2.7-5.5,11.1-10.2,17.6-11.4c10.6-1.9,21.8-0.5,32.7-0.5
		C192.7,127,192.7,126.6,192.7,126.1z"/>
	<path class="st1" d="M162.1,263.8c10.5,3.8,21,7.7,31.6,11.3c21.6,7.3,38.1-1.9,44.2-24c1.1-3.9,4.6-7.3,5.2-11.2
		c1.1-6.9,3.5-15.9,0.3-20.5c-3.2-4.6-12.8-7-19.3-6.5c-7.8,0.5-17.1,3.5-19.2-5.2c-1.1-4.6,6.5-12.6,11.8-16.9
		c3.7-3,10.4-3.4,15.7-3.2c17.2,0.4,32.1-13.2,36.3-29.6c2-7.9,9-16.9,16.2-20.3c6.1-2.9,16-6.5,24,2.7c8.8,10.2,1.3,35.1-14.2,39.9
		c-16.6,5.2-27.9,23.3-24.2,39.6c2.8,12.3-1.6,21.9-11.1,30.2c-3.5,3.1-6.6,8.7-6.8,13.3c-1.5,30.1-22.6,47-51.9,40.3
		c-20.2-4.7-33.8-17.1-40.9-36.2C160.5,266.1,161.3,264.9,162.1,263.8z"/>
	<path class="st0" d="M143.8,278.4c13.3,11.8,26.4,23.1,38.8,35c2.5,2.4,3.3,7.6,3.3,11.5c0.2,37,0.3,74,0,111.1
		c-0.1,16.1-8.8,25.8-21.8,25.6c-12.8-0.2-20.9-10-21-26.2c-0.1-49.6-0.1-99.3,0-148.9C143.2,283.6,143.6,280.7,143.8,278.4z"/>
	<path class="st0" d="M242.8,313.4c0.4,4.8,1.1,8.8,1.1,12.8c0.1,35.8,0.2,71.6-0.1,107.4c0,5.8-0.6,12.1-3.1,17.1
		c-4.3,8.6-12.4,12.8-22.2,10.5c-10-2.4-16.3-9.2-16.5-19.7c-0.5-20.6-0.3-41.3-0.3-61.9c0-16,0.3-32-0.1-48
		c-0.2-8.8,2.2-12.8,12-12.9C222.6,318.6,231.6,315.6,242.8,313.4z"/>
	<path class="st0" d="M194.1,36c22.3,0.2,40.8,19,40.8,41.4c0,22.9-19.3,42.2-41.8,41.9c-22.6-0.3-41.1-20-40.6-42.9
		C153,53.8,171.6,35.8,194.1,36z"/>
	<path class="st1" d="M422.5,70.6c0,7.6,0.9,15.3-0.4,22.6c-0.6,3.6-5,7.5-8.7,9c-2,0.8-8.2-2.6-8.6-4.8c-0.8-3.8,1-8.4,2.6-12.3
		c1.1-2.5,5-4.2,5.3-6.6c0.6-5.2,1.7-13.5-0.9-15.2c-3.8-2.5-11.2-1.7-16.1,0.2c-4.2,1.6-9.2,6.1-10.1,10.2
		c-1.6,7.7-0.4,15.9-0.7,23.9c-0.1,3.7,0.4,8.9-1.8,10.8c-3.4,3.1-8.7,4-13.2,5.8c-1.1-4.8-4.5-12.7-3-13.8
		c12.3-8.8,8.8-21.3,8.1-32.3c-1-13.8,4.5-19.3,17.5-22C423.3,39.4,423.2,38.9,422.5,70.6z"/>
	<path class="st0" d="M281.9,210.2c5-4.6,9.3-11.1,15.2-13.6c18.9-8.1,31.2-20,30.9-42c0-2.6,1.7-5.2,2.7-7.8
		c12,5.5,16.7,17.4,8.5,25.1c-15.8,14.9-33.4,28-50.4,41.7c-0.9,0.7-3-0.2-4.6-0.4C283.4,212.2,282.6,211.2,281.9,210.2z"/>
</g>
</svg>
