<svg version="1.1" viewBox="0 0 297 297" xmlns="http://www.w3.org/2000/svg" xmlns:xlink="http://www.w3.org/1999/xlink" overflow="hidden"><style>
.MsftOfcThm_Text1_Fill {
 fill:#41a7d3; 
}
</style>
<g><path d=" M 118.134 15.459 L 84.25 15.459 L 76.26 48.657 L 115.471 48.657 Z" stroke="none" stroke-width="1" stroke-linecap="butt" stroke-dasharray="" stroke-dashoffset="1" fill="#41a7d3" fill-opacity="1"/><path d=" M 165.537 15.459 L 131.466 15.459 L 128.804 48.657 L 168.2 48.657 Z" stroke="none" stroke-width="1" stroke-linecap="butt" stroke-dasharray="" stroke-dashoffset="1" fill="#41a7d3" fill-opacity="1"/><path d=" M 111.504 98.094 L 114.362 62.458 L 72.939 62.458 L 64.362 98.094 Z" stroke="none" stroke-width="1" stroke-linecap="butt" stroke-dasharray="" stroke-dashoffset="1" fill="#41a7d3" fill-opacity="1"/><path d=" M 186.603 111.897 L 190.292 157.869 L 247.028 157.869 L 235.963 111.897 Z" stroke="none" stroke-width="1" stroke-linecap="butt" stroke-dasharray="" stroke-dashoffset="1" fill="#41a7d3" fill-opacity="1"/><path d=" M 49.976 157.869 L 106.708 157.869 L 110.396 111.897 L 61.04 111.897 Z" stroke="none" stroke-width="1" stroke-linecap="butt" stroke-dasharray="" stroke-dashoffset="1" fill="#41a7d3" fill-opacity="1"/><path d=" M 59.243 62.458 L 31.629 62.458 L 18.266 98.094 L 50.665 98.094 Z" stroke="none" stroke-width="1" stroke-linecap="butt" stroke-dasharray="" stroke-dashoffset="1" fill="#41a7d3" fill-opacity="1"/><path d=" M 220.741 48.657 L 212.751 15.459 L 178.864 15.459 L 181.528 48.657 Z" stroke="none" stroke-width="1" stroke-linecap="butt" stroke-dasharray="" stroke-dashoffset="1" fill="#41a7d3" fill-opacity="1"/><path d=" M 169.307 62.458 L 127.696 62.458 L 124.839 98.094 L 172.164 98.094 Z" stroke="none" stroke-width="1" stroke-linecap="butt" stroke-dasharray="" stroke-dashoffset="1" fill="#41a7d3" fill-opacity="1"/><path d=" M 260.196 48.657 L 250.026 21.538 C 248.655 17.882 245.159 15.459 241.253 15.459 L 226.446 15.459 L 234.435 48.657 L 260.196 48.657 Z" stroke="none" stroke-width="1" stroke-linecap="butt" stroke-dasharray="" stroke-dashoffset="1" fill="#41a7d3" fill-opacity="1"/><path d=" M 70.555 15.459 L 55.746 15.459 C 51.841 15.459 48.345 17.882 46.974 21.538 L 36.804 48.657 L 62.565 48.657 L 70.555 15.459 Z" stroke="none" stroke-width="1" stroke-linecap="butt" stroke-dasharray="" stroke-dashoffset="1" fill="#41a7d3" fill-opacity="1"/><path d=" M 173.272 111.897 L 123.731 111.897 L 120.044 157.869 L 176.958 157.869 Z" stroke="none" stroke-width="1" stroke-linecap="butt" stroke-dasharray="" stroke-dashoffset="1" fill="#41a7d3" fill-opacity="1"/><path d=" M 246.334 98.094 L 278.734 98.094 L 265.371 62.458 L 237.758 62.458 Z" stroke="none" stroke-width="1" stroke-linecap="butt" stroke-dasharray="" stroke-dashoffset="1" fill="#41a7d3" fill-opacity="1"/><path d=" M 185.496 98.094 L 232.641 98.094 L 224.063 62.458 L 182.636 62.458 Z" stroke="none" stroke-width="1" stroke-linecap="butt" stroke-dasharray="" stroke-dashoffset="1" fill="#41a7d3" fill-opacity="1"/><path d=" M 287.631 157.869 C 290.704 157.869 293.582 156.362 295.332 153.837 C 297.082 151.311 297.482 148.087 296.403 145.21 L 283.911 111.897 L 249.656 111.897 L 260.719 157.87 L 287.631 157.87 Z" stroke="none" stroke-width="1" stroke-linecap="butt" stroke-dasharray="" stroke-dashoffset="1" fill="#41a7d3" fill-opacity="1"/><path d=" M 36.278 157.869 L 47.344 111.896 L 13.089 111.896 L 0.597 145.21 C -0.482 148.087 -0.082 151.31 1.668 153.837 C 3.418 156.362 6.296 157.869 9.369 157.869 L 36.278 157.869 Z" stroke="none" stroke-width="1" stroke-linecap="butt" stroke-dasharray="" stroke-dashoffset="1" fill="#41a7d3" fill-opacity="1"/><path d=" M 30.918 272.172 C 30.918 277.346 35.113 281.541 40.287 281.541 L 256.713 281.541 C 261.887 281.541 266.082 277.346 266.082 272.172 L 266.082 170.985 L 30.918 170.985 L 30.918 272.172 Z M 133.041 232.822 C 129.251 232.822 125.835 230.539 124.385 227.038 C 122.936 223.537 123.738 219.508 126.416 216.827 L 157.334 185.909 C 160.993 182.252 166.925 182.252 170.584 185.909 C 174.243 189.568 174.243 195.501 170.584 199.16 L 155.66 214.084 L 163.959 214.084 C 167.749 214.084 171.165 216.366 172.615 219.867 C 174.064 223.368 173.263 227.398 170.584 230.078 L 139.666 260.996 C 137.836 262.824 135.44 263.74 133.041 263.74 C 130.643 263.74 128.246 262.824 126.416 260.996 C 122.757 257.337 122.757 251.404 126.416 247.745 L 141.34 232.822 L 133.041 232.822 Z" stroke="none" stroke-width="1" stroke-linecap="butt" stroke-dasharray="" stroke-dashoffset="1" fill="#41a7d3" fill-opacity="1"/></g></svg>