<svg xmlns="http://www.w3.org/2000/svg" viewBox="-11782 -5271 50 50">
  <defs>
    <style>
      .cls-1 {
        fill: #5ca1bf;
      }
    </style>
  </defs>
  <g id="Group_1777" data-name="Group 1777" transform="translate(-11888 -6261)">
    <g id="Group_1418" data-name="Group 1418" transform="translate(106 990)">
      <path id="Path_5762" data-name="Path 5762" class="cls-1" d="M49.924,9.757a1.06,1.06,0,0,0-.037-.27l-.122.035a.02.02,0,0,0-.005-.007l.124-.037A12.862,12.862,0,0,0,39.167.117V0H12.5A12.883,12.883,0,0,0,.118,9.468a1.076,1.076,0,0,0-.038.282A.963.963,0,0,0,0,10.133V50H50V10.133A.973.973,0,0,0,49.924,9.757ZM38.275,1.7a11.2,11.2,0,0,1,9.77,7.467H37.33a11.977,11.977,0,0,0-5.551-7.5h5.7Zm-2.442,9.967a5,5,0,1,1-10,0v-.833h10Zm-21.667-.833h10v.833a5,5,0,0,1-10,0ZM25.833,1.667a10.325,10.325,0,0,1,9.785,7.5H25.833Zm-1.667,7.5H14.382a10.325,10.325,0,0,1,9.785-7.5Zm-11.648-7.5h5.7a11.977,11.977,0,0,0-5.551,7.5H1.957A11.228,11.228,0,0,1,12.519,1.667ZM1.667,10.833H12.5v.833a5.005,5.005,0,0,1-5,5H6.667a5.005,5.005,0,0,1-5-5ZM45,36.667H34.167v-8.75a5.417,5.417,0,0,1,10.833,0ZM34.167,48.333v-10H45v10ZM48.333,16.072V48.333H46.667V27.917a7.083,7.083,0,1,0-14.167,0V45a.833.833,0,1,0,0,1.667V47.5h-.833a.833.833,0,0,0-.833.833H30a.833.833,0,0,0-.833-.833h-.833a.833.833,0,0,0-.833.833h-.833a.833.833,0,0,0-.833-.833H25a.833.833,0,0,0-.833.833h-.833A.833.833,0,0,0,22.5,47.5h-.833a.833.833,0,0,0-.833.833H20a.833.833,0,0,0-.833-.833h-.833a.833.833,0,0,0-.833.833h-.833a.833.833,0,0,0-.833-.833H15a.833.833,0,0,0-.833.833h-.833A.833.833,0,0,0,12.5,47.5h-.833a.833.833,0,0,0-.833.833H10a.833.833,0,0,0-.833-.833H8.333a.833.833,0,0,0-.833.833H6.667a.833.833,0,0,0-.833-.833H5a.833.833,0,0,0-.833.833H3.333A.833.833,0,0,0,2.5,47.5H1.667V16.072c.042.048.09.09.133.136.085.091.172.181.262.267.072.069.146.135.221.2q.14.123.286.237c.078.062.158.121.239.179.1.073.205.141.31.208.084.053.168.106.255.155.11.063.223.121.336.177.088.044.175.088.265.128.119.052.241.1.363.145.09.034.179.069.271.1.131.042.264.077.4.111.088.023.175.049.265.068.151.032.3.054.458.076.077.011.152.027.229.035a6.9,6.9,0,0,0,.71.038H7.5a6.652,6.652,0,0,0,.83-.057c.078-.01.156-.023.233-.036.206-.033.408-.076.607-.128.069-.017.138-.033.207-.053a6.591,6.591,0,0,0,.748-.267c.038-.016.072-.036.108-.052a6.7,6.7,0,0,0,.6-.31c.068-.039.133-.079.2-.121.177-.111.347-.229.512-.356.046-.035.094-.067.139-.1a6.607,6.607,0,0,0,.577-.524c.041-.042.078-.087.118-.13q.211-.227.4-.472c.048-.062.094-.123.139-.187a6.6,6.6,0,0,0,.364-.566c.016-.028.036-.052.052-.08.016.028.036.052.052.08.112.195.234.383.364.566.045.063.092.125.139.187q.19.246.4.472c.04.043.077.088.118.13a6.608,6.608,0,0,0,.577.524c.045.037.093.069.139.1.165.127.335.245.512.356.066.041.131.082.2.121a6.7,6.7,0,0,0,.6.31c.037.017.072.037.108.052a6.534,6.534,0,0,0,.748.267c.068.02.138.035.207.053.2.052.4.094.607.128.077.012.155.026.233.036a6.007,6.007,0,0,0,1.658,0c.078-.01.156-.023.233-.036.206-.033.408-.076.607-.128.069-.017.138-.033.207-.053a6.591,6.591,0,0,0,.748-.267c.038-.016.072-.036.108-.052a6.7,6.7,0,0,0,.6-.31c.067-.039.133-.079.2-.121.177-.111.347-.229.512-.356.046-.035.094-.067.139-.1a6.607,6.607,0,0,0,.577-.524c.041-.042.078-.087.118-.13q.211-.227.4-.472c.047-.062.094-.123.139-.187a6.6,6.6,0,0,0,.364-.566c.016-.028.036-.052.052-.08.016.028.036.052.052.08.112.195.234.383.364.566.045.063.092.125.139.187q.19.246.4.472c.04.043.077.088.118.13a6.607,6.607,0,0,0,.577.524c.045.037.093.069.139.1.165.127.335.245.512.356.066.041.131.082.2.121a6.7,6.7,0,0,0,.6.31c.037.017.072.037.108.052a6.534,6.534,0,0,0,.748.267c.068.02.138.035.207.053.2.052.4.094.607.128.077.012.155.026.233.036a6.007,6.007,0,0,0,1.658,0c.078-.01.156-.023.233-.036.206-.033.407-.076.607-.128.069-.017.138-.033.207-.053a6.591,6.591,0,0,0,.748-.267c.037-.016.072-.036.108-.052a6.705,6.705,0,0,0,.6-.31c.068-.039.132-.079.2-.121.177-.111.347-.229.512-.356.046-.035.094-.067.139-.1a6.608,6.608,0,0,0,.577-.524c.041-.042.078-.087.118-.13q.211-.227.4-.472c.048-.062.094-.123.139-.187a6.6,6.6,0,0,0,.364-.566c.016-.028.036-.052.052-.08.016.028.036.052.052.08.112.195.234.383.364.566.045.063.092.125.139.187q.19.246.4.472c.04.043.077.088.118.13a6.607,6.607,0,0,0,.577.524c.045.037.093.069.139.1.165.127.335.245.512.356.066.041.131.082.2.121a6.7,6.7,0,0,0,.6.31c.037.017.072.037.108.052a6.534,6.534,0,0,0,.748.267c.068.02.138.035.207.053.2.052.4.094.607.128.077.012.155.026.233.036a6.6,6.6,0,0,0,.828.057h.833a6.643,6.643,0,0,0,.709-.039c.077-.008.153-.024.23-.035.154-.022.307-.044.458-.076.09-.019.177-.046.265-.068.133-.034.267-.068.4-.111.092-.03.181-.066.271-.1.123-.046.244-.092.363-.145.09-.04.177-.084.265-.128.113-.057.226-.114.336-.177.087-.049.171-.1.255-.155.1-.067.208-.135.309-.208q.122-.088.24-.18c.1-.077.192-.155.285-.237.075-.066.149-.132.221-.2.09-.087.176-.176.262-.267C48.243,16.162,48.292,16.119,48.333,16.072Zm-5,.6H42.5a5.005,5.005,0,0,1-5-5v-.833H48.333v.833A5.005,5.005,0,0,1,43.333,16.667Z"/>
    </g>
    <path id="Path_5763" data-name="Path 5763" class="cls-1" d="M4,48.333H31.5V25H4ZM5.667,26.667H29.833v20H5.667Z" transform="translate(105.333 985.833)"/>
    <path id="Path_5764" data-name="Path 5764" class="cls-1" d="M14.833,37a.831.831,0,0,0,.589-.244l3.333-3.333a.833.833,0,0,0-1.178-1.178l-3.333,3.333A.833.833,0,0,0,14.833,37Z" transform="translate(103.667 984.667)"/>
    <path id="Path_5765" data-name="Path 5765" class="cls-1" d="M14.833,42.333a.831.831,0,0,0,.589-.244l1.667-1.667a.833.833,0,1,0-1.178-1.178l-1.667,1.667a.833.833,0,0,0,.589,1.423Z" transform="translate(103.667 983.5)"/>
    <path id="Path_5766" data-name="Path 5766" class="cls-1" d="M18.242,37.244a.833.833,0,1,0,1.183,0A.871.871,0,0,0,18.242,37.244Z" transform="translate(103 983.831)"/>
    <path id="Path_5767" data-name="Path 5767" class="cls-1" d="M20.244,35.922a.833.833,0,0,0,1.178,0l2.5-2.5a.833.833,0,0,0-1.178-1.178l-2.5,2.5A.832.832,0,0,0,20.244,35.922Z" transform="translate(102.667 984.667)"/>
    <path id="Path_5768" data-name="Path 5768" class="cls-1" d="M21.744,37.244l-7.5,7.5a.833.833,0,1,0,1.178,1.178l7.5-7.5a.833.833,0,1,0-1.178-1.178Z" transform="translate(103.667 983.833)"/>
    <path id="Path_5769" data-name="Path 5769" class="cls-1" d="M25.242,35.244a.833.833,0,0,0,.592,1.425.826.826,0,0,0,.583-.242.847.847,0,0,0,.25-.592.858.858,0,0,0-.242-.592A.873.873,0,0,0,25.242,35.244Z" transform="translate(101.833 984.165)"/>
    <path id="Path_5770" data-name="Path 5770" class="cls-1" d="M7.667,54H6.833a.833.833,0,1,0,0,1.667h.833a.833.833,0,1,0,0-1.667Z" transform="translate(105 981)"/>
    <path id="Path_5771" data-name="Path 5771" class="cls-1" d="M2.833,55.667h.833a.833.833,0,1,0,0-1.667H2.833a.833.833,0,1,0,0,1.667Z" transform="translate(105.667 981)"/>
    <path id="Path_5772" data-name="Path 5772" class="cls-1" d="M15.667,54h-.833a.833.833,0,1,0,0,1.667h.833a.833.833,0,1,0,0-1.667Z" transform="translate(103.667 981)"/>
    <path id="Path_5773" data-name="Path 5773" class="cls-1" d="M11.667,54h-.833a.833.833,0,1,0,0,1.667h.833a.833.833,0,1,0,0-1.667Z" transform="translate(104.333 981)"/>
    <path id="Path_5774" data-name="Path 5774" class="cls-1" d="M23.667,54h-.833a.833.833,0,1,0,0,1.667h.833a.833.833,0,1,0,0-1.667Z" transform="translate(102.333 981)"/>
    <path id="Path_5775" data-name="Path 5775" class="cls-1" d="M19.667,54h-.833a.833.833,0,1,0,0,1.667h.833a.833.833,0,1,0,0-1.667Z" transform="translate(103 981)"/>
    <path id="Path_5776" data-name="Path 5776" class="cls-1" d="M31.667,54h-.833a.833.833,0,1,0,0,1.667h.833a.833.833,0,1,0,0-1.667Z" transform="translate(101 981)"/>
    <path id="Path_5777" data-name="Path 5777" class="cls-1" d="M27.667,54h-.833a.833.833,0,1,0,0,1.667h.833a.833.833,0,1,0,0-1.667Z" transform="translate(101.667 981)"/>
    <path id="Path_5778" data-name="Path 5778" class="cls-1" d="M35.667,54h-.833a.833.833,0,0,0,0,1.667h.833a.833.833,0,0,0,0-1.667Z" transform="translate(100.333 981)"/>
  </g>
</svg>
