<svg xmlns="http://www.w3.org/2000/svg" viewBox="-9531.49 -3245 84.879 30.7">
  <defs>
    <style>
      .cls-1, .cls-2 {
        fill: #fafafa;
      }

      .cls-2 {
        font-size: 13px;
        font-family: Helvetica-Bold, Helvetica;
        font-weight: 700;
        letter-spacing: 0.03em;
      }
    </style>
  </defs>
  <g id="Group_1917" data-name="Group 1917" transform="translate(-10455 -6332)">
    <g id="Group_1861" data-name="Group 1861" transform="translate(0 10)">
      <path id="Path_5789" data-name="Path 5789" class="cls-1" d="M34.793,35.557l3.618-1.786L28.6,30.2l3.618,9.684,1.809-3.571,3.758,3.709a.516.516,0,0,0,.418.137,1,1,0,0,0,.417-.137.534.534,0,0,0,0-.755Zm-4.314-3.5,5.149,1.854-2.157,1.1-1.113,2.129Zm0,0" transform="translate(914.81 3067.542)"/>
      <path id="Path_5794" data-name="Path 5794" class="cls-1" d="M21.357,10.7h10.02a.549.549,0,1,0,0-1.1H21.357a.549.549,0,1,0,0,1.1Zm0,0" transform="translate(917.183 3073.993)"/>
      <path id="Path_5791" data-name="Path 5791" class="cls-1" d="M21.357,21.9h10.02a.549.549,0,1,0,0-1.1H21.357a.549.549,0,1,0,0,1.1Zm0,0" transform="translate(917.183 3070.485)"/>
      <path id="Path_5795" data-name="Path 5795" class="cls-1" d="M13.312,5.743a.556.556,0,0,0-.765.069L9.067,9.8,6.91,8.216a.548.548,0,0,0-.765.137.539.539,0,0,0,.07.755l2.575,1.854a.535.535,0,0,0,.348.137.6.6,0,0,0,.418-.206l3.827-4.4a.618.618,0,0,0-.07-.755Zm0,0" transform="translate(921.679 3075.24)"/>
      <path id="Path_5792" data-name="Path 5792" class="cls-1" d="M13.314,16.943a.556.556,0,0,0-.765.069L9.069,21l-2.157-1.58a.5.5,0,0,0-.765.137.484.484,0,0,0,.139.755l2.575,1.854a.535.535,0,0,0,.348.137.6.6,0,0,0,.418-.206l3.827-4.4a.768.768,0,0,0-.139-.755Zm0,0" transform="translate(921.677 3071.732)"/>
      <path id="Path_5793" data-name="Path 5793" class="cls-1" d="M12.449,29,8.969,32.985l-2.157-1.58a.5.5,0,0,0-.765.137.484.484,0,0,0,.139.755l2.575,1.854a.535.535,0,0,0,.348.137.6.6,0,0,0,.418-.206l3.827-4.4a.539.539,0,0,0-.07-.755.573.573,0,0,0-.835.069Zm0,0" transform="translate(921.707 3067.984)"/>
      <path id="Path_5790" data-name="Path 5790" class="cls-1" d="M23.311,0H6.75A6.757,6.757,0,0,0,0,6.662V22.939A6.713,6.713,0,0,0,6.75,29.6H17.813a.549.549,0,1,0,0-1.1H6.75a5.621,5.621,0,0,1-5.636-5.563V6.662A5.577,5.577,0,0,1,6.75,1.1H23.241a5.577,5.577,0,0,1,5.636,5.563V20.329a.557.557,0,0,0,1.113,0V6.662A6.652,6.652,0,0,0,23.311,0Zm0,0" transform="translate(923.51 3077)"/>
    </g>
    <text id="SMART_QUIZ" data-name="SMART
QUIZ" class="cls-2" transform="translate(960.389 3098)"><tspan x="0" y="0">SMART</tspan><tspan x="0" y="16">QUIZ</tspan></text>
  </g>
</svg>
