<svg xmlns="http://www.w3.org/2000/svg" viewBox="1704.178 1272 84.401 30.7">
  <defs>
    <style>
      .cls-1, .cls-2 {
        fill: #5ca1bf;
      }

      .cls-2 {
        font-size: 13px;
        font-family: Helvetica-Bold, Helvetica;
        font-weight: 700;
        letter-spacing: 0.03em;
      }

      .cls-3 {
        fill: #282828;
      }
    </style>
  </defs>
  <g id="Group_1868" data-name="Group 1868" transform="translate(1376 -300)">
    <path id="Path_5782" data-name="Path 5782" class="cls-1" d="M34.713,35.557l3.571-1.786L28.6,30.2l3.571,9.684,1.786-3.571,3.709,3.709a.5.5,0,0,0,.412.137.976.976,0,0,0,.412-.137.539.539,0,0,0,0-.755Zm-4.258-3.5,5.082,1.854-2.129,1.1-1.1,2.129Zm0,0" transform="translate(319.221 1562.541)"/>
    <path id="Path_5783" data-name="Path 5783" class="cls-1" d="M21.349,10.7h9.89a.549.549,0,0,0,0-1.1h-9.89a.549.549,0,0,0,0,1.1Zm0,0" transform="translate(321.664 1568.993)"/>
    <path id="Path_5784" data-name="Path 5784" class="cls-1" d="M21.349,21.9h9.89a.549.549,0,0,0,0-1.1h-9.89a.549.549,0,0,0,0,1.1Zm0,0" transform="translate(321.664 1565.485)"/>
    <path id="Path_5785" data-name="Path 5785" class="cls-1" d="M13.217,5.743a.544.544,0,0,0-.755.069L9.028,9.8,6.9,8.216c-.275-.137-.618-.137-.755.137a.544.544,0,0,0,.069.755l2.541,1.854A.525.525,0,0,0,9.1,11.1a.594.594,0,0,0,.412-.206l3.777-4.4a.625.625,0,0,0-.069-.755Zm0,0" transform="translate(326.293 1570.24)"/>
    <path id="Path_5786" data-name="Path 5786" class="cls-1" d="M13.219,16.943a.544.544,0,0,0-.755.069L9.03,21,6.9,19.416a.488.488,0,0,0-.755.137.488.488,0,0,0,.137.755l2.541,1.854a.525.525,0,0,0,.343.137.594.594,0,0,0,.412-.206l3.777-4.4a.776.776,0,0,0-.137-.755Zm0,0" transform="translate(326.291 1566.732)"/>
    <path id="Path_5787" data-name="Path 5787" class="cls-1" d="M12.364,29,8.93,32.985,6.8,31.406a.488.488,0,0,0-.755.137.488.488,0,0,0,.137.755l2.541,1.854a.525.525,0,0,0,.343.137.594.594,0,0,0,.412-.206l3.777-4.4a.544.544,0,0,0-.069-.755.561.561,0,0,0-.824.069Zm0,0" transform="translate(326.322 1562.984)"/>
    <path id="Path_5788" data-name="Path 5788" class="cls-1" d="M23.008,0H6.662A6.713,6.713,0,0,0,0,6.662V22.939A6.668,6.668,0,0,0,6.662,29.6h10.92a.549.549,0,0,0,0-1.1H6.662A5.584,5.584,0,0,1,1.1,22.939V6.662A5.54,5.54,0,0,1,6.662,1.1H22.939A5.54,5.54,0,0,1,28.5,6.662V20.329a.549.549,0,1,0,1.1,0V6.662A6.61,6.61,0,0,0,23.008,0Zm0,0" transform="translate(328.178 1572)"/>
    <text id="SMART_QUIZ" data-name="SMART
QUIZ" class="cls-2" transform="translate(364.579 1582)"><tspan x="0" y="0">SMART</tspan><tspan class="cls-3"><tspan x="0" y="16">QUIZ</tspan></tspan></text>
  </g>
</svg>
