<svg version="1.1" viewBox="0 0 512 512" xmlns="http://www.w3.org/2000/svg" xmlns:xlink="http://www.w3.org/1999/xlink" id="Layer_1" overflow="hidden"><style>
.MsftOfcThm_Text1_Fill {
 fill:#000000; 
}
</style>
<g><g><path d=" M 495.304 61.217 L 16.696 61.217 C 7.475 61.217 0 68.693 0 77.913 L 0 161.033 L 512 161.033 L 512 77.913 C 512 68.693 504.525 61.217 495.304 61.217 Z M 322.284 133.386 C 310.009 133.386 300.023 123.4 300.023 111.125 C 300.023 98.85 310.009 88.864 322.284 88.864 C 334.559 88.864 344.545 98.85 344.545 111.125 C 344.545 123.4 334.559 133.386 322.284 133.386 Z M 382.926 133.386 C 370.651 133.386 360.665 123.4 360.665 111.125 C 360.665 98.85 370.651 88.864 382.926 88.864 C 395.201 88.864 405.187 98.85 405.187 111.125 C 405.187 123.4 395.201 133.386 382.926 133.386 Z M 443.568 133.386 C 431.293 133.386 421.307 123.4 421.307 111.125 C 421.307 98.85 431.293 88.864 443.568 88.864 C 455.843 88.864 465.829 98.85 465.829 111.125 C 465.829 123.4 455.843 133.386 443.568 133.386 Z" stroke="none" stroke-width="1" stroke-linecap="butt" stroke-dasharray="" stroke-dashoffset="1" fill="#000000" fill-opacity="1"/></g></g><g><g><path d=" M 0 194.424 L 0 434.087 C 0 443.307 7.475 450.783 16.696 450.783 L 495.305 450.783 C 504.525 450.783 512.001 443.308 512.001 434.087 L 512.001 194.424 L 0 194.424 Z M 235.45 335.319 L 180.797 381.823 C 173.775 387.799 163.238 386.95 157.262 379.927 C 151.286 372.905 152.135 362.368 159.158 356.392 L 198.867 322.603 L 159.158 288.814 C 152.135 282.838 151.287 272.302 157.262 265.279 C 163.237 258.255 173.775 257.408 180.797 263.383 L 235.45 309.887 C 243.28 316.55 243.28 328.657 235.45 335.319 Z M 342.022 385.803 L 276.068 385.803 C 266.848 385.803 259.372 378.328 259.372 369.107 C 259.372 359.886 266.847 352.411 276.068 352.411 L 342.022 352.411 C 351.242 352.411 358.718 359.886 358.718 369.107 C 358.718 378.328 351.242 385.803 342.022 385.803 Z" stroke="none" stroke-width="1" stroke-linecap="butt" stroke-dasharray="" stroke-dashoffset="1" fill="#000000" fill-opacity="1"/></g></g><g></g><g></g><g></g><g></g><g></g><g></g><g></g><g></g><g></g><g></g><g></g><g></g><g></g><g></g><g></g></svg>