<svg version="1.1" width="580.125" height="580.125" viewBox="0 0 580.125 580.125" xmlns="http://www.w3.org/2000/svg" xmlns:xlink="http://www.w3.org/1999/xlink" id="Capa_1" overflow="hidden"><style>
.MsftOfcThm_Text1_Fill {
 fill:#000000; 
}
</style>
<g><g id="Layer_1_3_"><path d=" M 420.715 130.05 L 354.415 130.05 L 354.415 51 C 365.89 48.45 373.54 38.25 373.54 25.5 C 373.54 11.475 362.065 0 348.04 0 L 232.015 0 C 217.99 0 206.515 11.475 206.515 25.5 C 206.515 38.25 215.44 48.45 226.915 51 L 226.915 131.325 L 160.615 131.325 C 138.94 131.325 122.365 149.175 122.365 169.575 L 122.365 488.325 C 122.365 510 138.94 526.575 160.615 526.575 L 181.015 526.575 L 181.015 541.875 C 181.015 563.55 198.865 580.125 219.265 580.125 C 240.94 580.125 257.515 562.274 257.515 541.875 L 257.515 526.575 L 322.54 526.575 L 322.54 541.875 C 322.54 563.55 340.39 580.125 360.79 580.125 C 382.465 580.125 399.04 562.274 399.04 541.875 L 399.04 526.575 L 419.44 526.575 C 441.115 526.575 457.69 508.724 457.69 488.325 L 457.69 169.575 C 458.965 147.9 442.39 130.05 420.715 130.05 Z M 353.14 233.325 C 369.715 233.325 383.741 247.35 383.741 263.925 C 383.741 280.5 369.716 294.525 353.14 294.525 C 336.566 294.525 322.54 280.501 322.54 263.925 C 321.265 246.075 335.29 233.325 353.14 233.325 Z M 263.89 51 L 316.165 51 L 316.165 130.05 L 263.89 130.05 L 263.89 51 Z M 210.34 464.1 C 188.665 464.1 170.815 446.25 170.815 424.576 C 170.815 402.9 188.665 385.051 210.34 385.051 C 232.015 385.051 249.865 402.901 249.865 424.576 C 249.865 446.25 232.015 464.1 210.34 464.1 Z M 210.34 313.649 L 178.465 218.024 L 262.615 189.974 L 294.49 285.6 L 210.34 313.649 Z M 390.115 429.675 C 387.565 441.15 381.19 451.35 370.99 457.725 C 360.79 464.1 349.315 466.65 337.84 464.1 C 313.615 459 298.316 436.05 303.415 411.826 L 314.89 355.725 L 401.59 374.85 L 390.115 429.675 Z" stroke="none" stroke-width="1" stroke-linecap="butt" stroke-dasharray="" stroke-dashoffset="1" fill="#41a7d3" fill-opacity="1"/></g></g><g></g><g></g><g></g><g></g><g></g><g></g><g></g><g></g><g></g><g></g><g></g><g></g><g></g><g></g><g></g></svg>