<svg version="1.1" width="612" height="612" viewBox="0 0 612 612" xmlns="http://www.w3.org/2000/svg" xmlns:xlink="http://www.w3.org/1999/xlink" id="Capa_1" overflow="hidden"><style>
.MsftOfcThm_Text1_Fill {
 fill:#41a7d3; 
}
</style>
<g><path d=" M 61.246 411.197 C 29.87 411.197 4.435 436.631 4.435 468.006 C 4.435 499.383 29.871 524.817 61.246 524.817 C 92.621 524.817 118.056 499.383 118.056 468.006 C 118.056 436.631 92.621 411.197 61.246 411.197 Z M 61.246 496.412 C 45.558 496.412 32.841 483.695 32.841 468.008 C 32.841 452.321 45.559 439.602 61.246 439.602 C 76.933 439.602 89.651 452.321 89.651 468.008 C 89.651 483.695 76.934 496.412 61.246 496.412 Z M 498.347 356.172 L 421.07 404.02 C 419.641 400.709 418.835 397.069 418.835 393.235 L 418.835 317.975 C 418.835 314.489 419.55 311.184 420.742 308.12 L 498.347 356.172 Z M 430.615 295.559 C 435.019 292.508 440.347 290.698 446.11 290.698 L 584.724 290.698 C 589.634 290.698 594.178 292.099 598.159 294.371 L 513.428 346.834 L 430.615 295.559 Z M 528.508 356.172 L 609.225 306.193 C 610.95 309.773 612 313.736 612 317.976 L 612 393.234 C 612 397.818 610.762 402.072 608.764 405.865 L 528.508 356.172 Z M 404.942 434.277 L 549.565 434.277 L 549.565 463.201 L 410.945 463.201 C 409.325 439.111 395.72 418.305 376.018 406.664 L 376.018 406.613 C 376.134 406.681 376.264 406.73 376.379 406.799 L 376.018 406.086 L 376.018 116.107 L 404.942 116.107 L 404.942 434.277 Z M 597.182 417.367 C 593.432 419.308 589.239 420.51 584.724 420.51 L 446.109 420.51 C 440.734 420.51 435.755 418.903 431.531 416.217 L 513.427 365.508 L 597.182 417.367 Z M 498.347 210.854 L 421.07 258.703 C 419.641 255.392 418.835 251.751 418.835 247.917 L 418.835 172.658 C 418.835 169.172 419.55 165.867 420.742 162.803 L 498.347 210.854 Z M 430.615 150.242 C 435.019 147.191 440.347 145.382 446.11 145.382 L 584.724 145.382 C 589.634 145.382 594.178 146.782 598.159 149.054 L 513.428 201.517 L 430.615 150.242 Z M 528.508 210.854 L 609.225 160.876 C 610.95 164.456 612 168.418 612 172.658 L 612 247.917 C 612 252.501 610.762 256.755 608.764 260.546 L 528.508 210.854 Z M 597.182 272.05 C 593.432 273.991 589.239 275.193 584.724 275.193 L 446.109 275.193 C 440.734 275.193 435.755 273.584 431.531 270.899 L 513.427 220.191 L 597.182 272.05 Z M 226.38 110.95 C 218.988 96.371 204.03 87.184 187.683 87.184 L 94.005 87.184 C 78.03 87.184 65.08 100.134 65.08 116.109 L 65.08 267.963 L 36.155 267.963 C 16.188 267.961 0 284.148 0 304.116 L 0 431.601 C 12.438 410.703 35.216 396.746 61.248 396.746 C 98.922 396.746 129.872 426.105 132.402 463.201 L 268.78 463.201 C 271.311 426.105 302.188 396.746 339.934 396.746 C 353.094 396.746 365.463 400.377 376.018 406.613 L 376.018 406.084 L 226.38 110.95 Z M 281.146 326.1 L 117.578 326.1 C 113.528 326.1 110.348 322.846 110.348 318.87 L 110.348 139.103 C 110.348 135.126 113.53 131.873 117.578 131.873 L 188.804 131.873 C 191.552 131.873 194.011 133.392 195.24 135.777 L 287.582 315.544 C 290.04 320.387 286.569 326.1 281.146 326.1 Z M 339.915 411.197 C 308.539 411.197 283.104 436.631 283.104 468.006 C 283.104 499.383 308.54 524.817 339.915 524.817 C 371.29 524.817 396.726 499.383 396.726 468.006 C 396.726 436.631 371.29 411.197 339.915 411.197 Z M 339.915 496.412 C 324.227 496.412 311.51 483.695 311.51 468.008 C 311.51 452.321 324.228 439.602 339.915 439.602 C 355.602 439.602 368.32 452.321 368.32 468.008 C 368.32 483.695 355.603 496.412 339.915 496.412 Z" stroke="none" stroke-width="1" stroke-linecap="butt" stroke-dasharray="" stroke-dashoffset="1" fill="#41a7d3" fill-opacity="1"/></g><g></g><g></g><g></g><g></g><g></g><g></g><g></g><g></g><g></g><g></g><g></g><g></g><g></g><g></g><g></g></svg>