<svg version="1.1" viewBox="0 0 463 463" xmlns="http://www.w3.org/2000/svg" xmlns:xlink="http://www.w3.org/1999/xlink" id="Capa_1" overflow="hidden"><style>
.MsftOfcThm_Text1_Fill {
 fill:#000000; 
}
</style>
<g><path d=" M 423.5 316 L 423 316 L 423 291.5 C 423 287.357 419.642 284 415.5 284 L 407 284 L 407 229.604 C 407 215.615 397.605 203.16 384.153 199.315 L 359 192.129 L 359 180.598 C 364.054 176.168 367 169.767 367 162.938 L 367 139 L 375.5 139 C 379.642 139 383 135.643 383 131.5 C 383 127.357 379.642 124 375.5 124 L 375 124 L 375 123.5 C 375 99.861 357.64 80.205 335 76.598 L 335 75.5 C 335 71.357 331.642 68 327.5 68 C 323.358 68 320 71.357 320 75.5 L 320 76.598 C 297.36 80.205 280 99.861 280 123.5 L 280 124 L 279.5 124 C 275.358 124 272 127.357 272 131.5 C 272 135.643 275.358 139 279.5 139 L 288 139 L 288 162.937 C 288 169.766 290.945 176.167 296 180.596 L 296 192.128 L 270.845 199.315 C 257.395 203.159 248 215.614 248 229.604 L 248 316 L 239 316 L 239 275.5 C 239 271.357 235.642 268 231.5 268 L 215 268 L 215 229.604 C 215 215.615 205.605 203.16 192.153 199.315 L 167 192.129 L 167 180.598 C 172.054 176.168 175 169.767 175 162.938 L 175 139 L 183.5 139 C 187.642 139 191 135.643 191 131.5 C 191 127.357 187.642 124 183.5 124 L 183 124 L 183 123.5 C 183 99.861 165.64 80.205 143 76.598 L 143 75.5 C 143 71.357 139.642 68 135.5 68 C 131.358 68 128 71.357 128 75.5 L 128 76.598 C 105.36 80.205 88 99.861 88 123.5 L 88 124 L 87.5 124 C 83.358 124 80 127.357 80 131.5 C 80 135.643 83.358 139 87.5 139 L 96 139 L 96 162.937 C 96 169.766 98.945 176.167 104 180.596 L 104 192.128 L 78.845 199.315 C 65.395 203.159 56 215.614 56 229.604 L 56 316 L 39.5 316 C 17.72 316 0 333.72 0 355.5 C 0 377.28 17.72 395 39.5 395 L 423.5 395 C 445.28 395 463 377.28 463 355.5 C 463 333.72 445.28 316 423.5 316 Z M 408 316 L 327 316 L 327 299 L 408 299 L 408 316 Z M 295 316 L 295 243.5 C 295 243.225 295.224 243 295.5 243 L 359.5 243 C 359.776 243 360 243.225 360 243.5 L 360 284 L 319.5 284 C 315.358 284 312 287.357 312 291.5 L 312 316 L 295 316 Z M 311.312 191.055 C 315.185 193.636 319.692 195 324.347 195 L 330.659 195 C 335.313 195 339.821 193.635 343.696 191.053 L 344.002 190.849 L 344.002 197.804 C 344.002 197.876 344 197.949 344.002 198.02 L 344.002 200.003 C 342.578 201.292 337.04 204 327.502 204 C 317.964 204 312.426 201.292 311.002 200.003 L 311.002 190.847 L 311.312 191.055 Z M 303 228 L 303 212.785 C 308.588 216.683 317.175 219 327.5 219 C 337.825 219 346.412 216.683 352 212.785 L 352 228 L 303 228 Z M 392 229.604 L 392 284 L 375 284 L 375 243.5 C 375 237.673 371.765 232.592 367 229.945 L 367 210.014 L 380.033 213.737 C 387.079 215.751 392 222.275 392 229.604 Z M 360 123.5 L 360 124 L 359.5 124 L 335 124 L 335 91.883 C 349.315 95.279 360 108.161 360 123.5 Z M 295 123.5 C 295 108.161 305.685 95.279 320 91.883 L 320 124 L 295.5 124 L 295 124 L 295 123.5 Z M 352 139 L 352 162.938 C 352 165.786 350.585 168.43 348.215 170.01 L 335.374 178.572 C 333.972 179.507 332.341 180.001 330.658 180.001 L 324.346 180.001 C 322.662 180.001 321.032 179.508 319.631 178.574 L 306.785 170.011 C 304.414 168.431 302.999 165.786 302.999 162.938 L 302.999 139 L 352 139 Z M 263 229.604 C 263 222.276 267.921 215.751 274.967 213.738 L 288 210.013 L 288 229.945 C 283.235 232.592 280 237.673 280 243.5 L 280 316 L 263 316 L 263 229.604 Z M 224 316 L 143 316 L 143 283 L 224 283 L 224 316 Z M 103 316 L 103 243.5 C 103 243.225 103.224 243 103.5 243 L 167.5 243 C 167.776 243 168 243.225 168 243.5 L 168 268 L 135.5 268 C 131.358 268 128 271.357 128 275.5 L 128 316 L 103 316 Z M 119.312 191.055 C 123.185 193.636 127.692 195 132.347 195 L 138.659 195 C 143.313 195 147.821 193.635 151.696 191.053 L 152.002 190.849 L 152.002 197.804 C 152.002 197.876 152 197.949 152.002 198.02 L 152.002 200.003 C 150.578 201.292 145.04 204 135.502 204 C 125.964 204 120.426 201.292 119.002 200.003 L 119.002 190.847 L 119.312 191.055 Z M 111 228 L 111 212.785 C 116.588 216.683 125.175 219 135.5 219 C 145.825 219 154.412 216.683 160 212.785 L 160 228 L 111 228 Z M 200 229.604 L 200 268 L 183 268 L 183 243.5 C 183 237.673 179.765 232.592 175 229.945 L 175 210.014 L 188.033 213.737 C 195.079 215.751 200 222.275 200 229.604 Z M 168 123.5 L 168 124 L 167.5 124 L 143 124 L 143 91.883 C 157.315 95.279 168 108.161 168 123.5 Z M 103 123.5 C 103 108.161 113.685 95.279 128 91.883 L 128 124 L 103.5 124 L 103 124 L 103 123.5 Z M 160 139 L 160 162.938 C 160 165.786 158.585 168.43 156.215 170.01 L 143.374 178.572 C 141.972 179.507 140.341 180.001 138.658 180.001 L 132.346 180.001 C 130.662 180.001 129.032 179.508 127.631 178.574 L 114.785 170.011 C 112.414 168.431 110.999 165.786 110.999 162.938 L 110.999 139 L 160 139 Z M 71 229.604 C 71 222.276 75.921 215.751 82.967 213.738 L 96 210.013 L 96 229.945 C 91.235 232.592 88 237.673 88 243.5 L 88 316 L 71 316 L 71 229.604 Z M 423.5 380 L 39.5 380 C 25.991 380 15 369.01 15 355.5 C 15 341.99 25.991 331 39.5 331 L 423.5 331 C 437.009 331 448 341.99 448 355.5 C 448 369.01 437.009 380 423.5 380 Z" stroke="none" stroke-width="1" stroke-linecap="butt" stroke-dasharray="" stroke-dashoffset="1" fill="#000000" fill-opacity="1"/><path d=" M 231.5 341 C 223.505 341 217 347.505 217 355.5 C 217 363.495 223.505 370 231.5 370 C 239.495 370 246 363.495 246 355.5 C 246 347.505 239.495 341 231.5 341 Z" stroke="none" stroke-width="1" stroke-linecap="butt" stroke-dasharray="" stroke-dashoffset="1" fill="#000000" fill-opacity="1"/><path d=" M 183.5 341 C 175.505 341 169 347.505 169 355.5 C 169 363.495 175.505 370 183.5 370 C 191.495 370 198 363.495 198 355.5 C 198 347.505 191.495 341 183.5 341 Z" stroke="none" stroke-width="1" stroke-linecap="butt" stroke-dasharray="" stroke-dashoffset="1" fill="#000000" fill-opacity="1"/><path d=" M 135.5 341 C 127.505 341 121 347.505 121 355.5 C 121 363.495 127.505 370 135.5 370 C 143.495 370 150 363.495 150 355.5 C 150 347.505 143.495 341 135.5 341 Z" stroke="none" stroke-width="1" stroke-linecap="butt" stroke-dasharray="" stroke-dashoffset="1" fill="#000000" fill-opacity="1"/><path d=" M 39.5 341 C 31.505 341 25 347.505 25 355.5 C 25 363.495 31.505 370 39.5 370 C 47.495 370 54 363.495 54 355.5 C 54 347.505 47.495 341 39.5 341 Z" stroke="none" stroke-width="1" stroke-linecap="butt" stroke-dasharray="" stroke-dashoffset="1" fill="#000000" fill-opacity="1"/><path d=" M 87.5 341 C 79.505 341 73 347.505 73 355.5 C 73 363.495 79.505 370 87.5 370 C 95.495 370 102 363.495 102 355.5 C 102 347.505 95.495 341 87.5 341 Z" stroke="none" stroke-width="1" stroke-linecap="butt" stroke-dasharray="" stroke-dashoffset="1" fill="#000000" fill-opacity="1"/><path d=" M 423.5 341 C 415.505 341 409 347.505 409 355.5 C 409 363.495 415.505 370 423.5 370 C 431.495 370 438 363.495 438 355.5 C 438 347.505 431.495 341 423.5 341 Z" stroke="none" stroke-width="1" stroke-linecap="butt" stroke-dasharray="" stroke-dashoffset="1" fill="#000000" fill-opacity="1"/><path d=" M 375.5 341 C 367.505 341 361 347.505 361 355.5 C 361 363.495 367.505 370 375.5 370 C 383.495 370 390 363.495 390 355.5 C 390 347.505 383.495 341 375.5 341 Z" stroke="none" stroke-width="1" stroke-linecap="butt" stroke-dasharray="" stroke-dashoffset="1" fill="#000000" fill-opacity="1"/><path d=" M 279.5 341 C 271.505 341 265 347.505 265 355.5 C 265 363.495 271.505 370 279.5 370 C 287.495 370 294 363.495 294 355.5 C 294 347.505 287.495 341 279.5 341 Z" stroke="none" stroke-width="1" stroke-linecap="butt" stroke-dasharray="" stroke-dashoffset="1" fill="#000000" fill-opacity="1"/><path d=" M 327.5 341 C 319.505 341 313 347.505 313 355.5 C 313 363.495 319.505 370 327.5 370 C 335.495 370 342 363.495 342 355.5 C 342 347.505 335.495 341 327.5 341 Z" stroke="none" stroke-width="1" stroke-linecap="butt" stroke-dasharray="" stroke-dashoffset="1" fill="#000000" fill-opacity="1"/></g><g></g><g></g><g></g><g></g><g></g><g></g><g></g><g></g><g></g><g></g><g></g><g></g><g></g><g></g><g></g></svg>