<svg version="1.1" width="45.118" height="45.118" viewBox="0 0 45.118 45.118" xmlns="http://www.w3.org/2000/svg" xmlns:xlink="http://www.w3.org/1999/xlink" id="Capa_1" overflow="hidden"><style>
.MsftOfcThm_Text1_Fill {
 fill:#000000; 
}
</style>
<g><path d=" M 42.701 29.043 C 45.849 25.894 45.849 20.786 42.7 17.636 C 42.111 17.047 41.439 16.605 40.739 16.236 C 40.761 14.142 39.982 12.042 38.385 10.444 C 37.722 9.78 36.96 9.29 36.159 8.904 C 35.773 8.103 35.283 7.342 34.62 6.679 C 33.021 5.079 30.921 4.3 28.827 4.324 C 28.458 3.623 28.015 2.95 27.428 2.362 C 24.279 -0.787 19.169 -0.788 16.02 2.362 C 15.939 2.443 15.885 2.536 15.811 2.619 C 12.707 0.744 8.626 1.123 5.95 3.801 C 2.8 6.95 2.8 12.059 5.95 15.209 C 7.117 16.375 8.573 17.121 10.076 17.416 C 9.864 19.212 8.121 32.186 0.561 41.458 C -0.189 42.377 -0.094 43.723 0.779 44.525 C 1.6 45.281 2.847 45.317 3.713 44.613 C 13.116 36.967 25.95 35.237 27.698 35.03 C 27.991 36.534 28.698 37.956 29.866 39.124 C 33.014 42.274 38.118 42.27 41.267 39.119 C 43.945 36.441 44.319 32.355 42.444 29.252 C 42.527 29.179 42.62 29.124 42.701 29.043 Z M 12.611 25.399 C 12.999 26.34 13.487 27.229 14.125 28.091 L 10.591 31.625 C 11.416 29.394 12.1 27.292 12.611 25.399 Z M 13.546 34.581 L 17.11 31.017 C 17.994 31.636 18.95 32.142 19.937 32.514 C 18.004 33.031 15.777 33.663 13.546 34.581 Z" stroke="none" stroke-width="1" stroke-linecap="butt" stroke-dasharray="" stroke-dashoffset="1" fill="#000000" fill-opacity="1"/></g><g></g><g></g><g></g><g></g><g></g><g></g><g></g><g></g><g></g><g></g><g></g><g></g><g></g><g></g><g></g></svg>