<svg version="1.1" width="438.536" height="438.536" viewBox="0 0 438.536 438.536" xmlns="http://www.w3.org/2000/svg" xmlns:xlink="http://www.w3.org/1999/xlink" id="Capa_1" overflow="hidden"><style>
.MsftOfcThm_Text1_Fill {
 fill:#000000; 
}
</style>
<g><path d=" M 404.272 125.623 C 393.609 114.966 380.667 109.636 365.438 109.636 C 350.216 109.636 337.274 114.966 326.61 125.623 C 315.954 136.283 310.626 149.224 310.626 164.454 C 310.626 176.254 314.003 186.82 320.759 196.143 C 327.521 205.472 336.32 212.129 347.171 216.128 L 347.171 328.904 C 347.171 349.081 338.222 366.308 320.334 380.582 C 302.443 394.855 280.938 401.994 255.81 401.994 C 230.688 401.994 209.178 394.855 191.285 380.582 C 173.395 366.309 164.448 349.081 164.448 328.904 L 164.448 291.218 C 195.665 287.413 221.74 275.227 242.679 254.669 C 263.616 234.116 274.087 210.132 274.087 182.72 L 274.087 36.547 C 274.087 31.599 272.274 27.314 268.659 23.697 C 265.046 20.085 260.755 18.273 255.805 18.273 C 254.669 18.273 253.143 18.466 251.241 18.845 C 248.003 13.132 243.534 8.57 237.819 5.139 C 232.118 1.711 225.927 0 219.266 0 C 209.181 0 200.568 3.573 193.429 10.706 C 186.29 17.845 182.722 26.458 182.722 36.547 C 182.722 46.632 186.29 55.246 193.429 62.384 C 200.568 69.522 209.181 73.091 219.266 73.091 C 225.547 73.091 231.636 71.38 237.538 67.952 L 237.538 182.724 C 237.538 202.903 228.593 220.126 210.702 234.404 C 192.809 248.675 171.299 255.81 146.177 255.81 C 121.055 255.81 99.545 248.674 81.653 234.404 C 63.763 220.13 54.816 202.906 54.816 182.724 L 54.816 67.952 C 60.714 71.379 66.809 73.091 73.089 73.091 C 83.174 73.091 91.788 69.523 98.926 62.384 C 106.063 55.245 109.63 46.632 109.63 36.547 C 109.63 26.459 106.063 17.845 98.926 10.706 C 91.787 3.573 83.173 0 73.088 0 C 66.425 0 60.238 1.711 54.528 5.139 C 48.82 8.566 44.345 13.131 41.111 18.845 C 39.205 18.467 37.684 18.273 36.541 18.273 C 31.589 18.273 27.308 20.085 23.691 23.697 C 20.076 27.314 18.267 31.599 18.267 36.547 L 18.267 182.725 C 18.267 210.133 28.733 234.111 49.672 254.67 C 70.61 275.228 96.686 287.414 127.901 291.223 L 127.901 328.908 C 127.901 359.174 140.416 385.011 165.447 406.42 C 190.478 427.833 220.597 438.537 255.805 438.537 C 291.026 438.537 321.141 427.833 346.171 406.42 C 371.207 385.011 383.712 359.174 383.712 328.908 L 383.712 216.128 C 394.566 212.129 403.368 205.471 410.124 196.143 C 416.886 186.819 420.268 176.253 420.268 164.454 C 420.265 149.229 414.937 136.282 404.272 125.623 Z M 378.299 177.301 C 374.678 180.918 370.394 182.725 365.445 182.725 C 360.496 182.725 356.218 180.918 352.598 177.301 C 348.984 173.685 347.177 169.403 347.177 164.454 C 347.177 159.506 348.984 155.221 352.598 151.604 C 356.218 147.992 360.496 146.18 365.445 146.18 C 370.394 146.18 374.677 147.992 378.299 151.604 C 381.913 155.221 383.72 159.506 383.72 164.454 C 383.72 169.406 381.913 173.685 378.299 177.301 Z" stroke="none" stroke-width="1" stroke-linecap="butt" stroke-dasharray="" stroke-dashoffset="1" fill="#000000" fill-opacity="1"/></g><g></g><g></g><g></g><g></g><g></g><g></g><g></g><g></g><g></g><g></g><g></g><g></g><g></g><g></g><g></g></svg>