<svg version="1.1" viewBox="0 0 58 58" xmlns="http://www.w3.org/2000/svg" xmlns:xlink="http://www.w3.org/1999/xlink" id="Capa_1" overflow="hidden"><style>
.MsftOfcThm_Text1_Fill {
 fill:#000000; 
}
</style>
<g><circle cx="50" cy="49" r="1" stroke="none" stroke-width="1" stroke-linecap="butt" stroke-dasharray="" stroke-dashoffset="1" fill="#000000" fill-opacity="1"/><circle cx="48" cy="46" r="1" stroke="none" stroke-width="1" stroke-linecap="butt" stroke-dasharray="" stroke-dashoffset="1" fill="#000000" fill-opacity="1"/><circle cx="46" cy="43" r="1" stroke="none" stroke-width="1" stroke-linecap="butt" stroke-dasharray="" stroke-dashoffset="1" fill="#000000" fill-opacity="1"/><circle cx="50" cy="43" r="1" stroke="none" stroke-width="1" stroke-linecap="butt" stroke-dasharray="" stroke-dashoffset="1" fill="#000000" fill-opacity="1"/><circle cx="44" cy="40" r="1" stroke="none" stroke-width="1" stroke-linecap="butt" stroke-dasharray="" stroke-dashoffset="1" fill="#000000" fill-opacity="1"/><circle cx="48" cy="40" r="1" stroke="none" stroke-width="1" stroke-linecap="butt" stroke-dasharray="" stroke-dashoffset="1" fill="#000000" fill-opacity="1"/><circle cx="42" cy="37" r="1" stroke="none" stroke-width="1" stroke-linecap="butt" stroke-dasharray="" stroke-dashoffset="1" fill="#000000" fill-opacity="1"/><circle cx="46" cy="37" r="1" stroke="none" stroke-width="1" stroke-linecap="butt" stroke-dasharray="" stroke-dashoffset="1" fill="#000000" fill-opacity="1"/><circle cx="52" cy="52" r="1" stroke="none" stroke-width="1" stroke-linecap="butt" stroke-dasharray="" stroke-dashoffset="1" fill="#000000" fill-opacity="1"/><circle cx="48" cy="52" r="1" stroke="none" stroke-width="1" stroke-linecap="butt" stroke-dasharray="" stroke-dashoffset="1" fill="#000000" fill-opacity="1"/><circle cx="46" cy="49" r="1" stroke="none" stroke-width="1" stroke-linecap="butt" stroke-dasharray="" stroke-dashoffset="1" fill="#000000" fill-opacity="1"/><circle cx="44" cy="46" r="1" stroke="none" stroke-width="1" stroke-linecap="butt" stroke-dasharray="" stroke-dashoffset="1" fill="#000000" fill-opacity="1"/><circle cx="42" cy="43" r="1" stroke="none" stroke-width="1" stroke-linecap="butt" stroke-dasharray="" stroke-dashoffset="1" fill="#000000" fill-opacity="1"/><circle cx="40" cy="40" r="1" stroke="none" stroke-width="1" stroke-linecap="butt" stroke-dasharray="" stroke-dashoffset="1" fill="#000000" fill-opacity="1"/><circle cx="42" cy="49" r="1" stroke="none" stroke-width="1" stroke-linecap="butt" stroke-dasharray="" stroke-dashoffset="1" fill="#000000" fill-opacity="1"/><circle cx="40" cy="46" r="1" stroke="none" stroke-width="1" stroke-linecap="butt" stroke-dasharray="" stroke-dashoffset="1" fill="#000000" fill-opacity="1"/><circle cx="38" cy="43" r="1" stroke="none" stroke-width="1" stroke-linecap="butt" stroke-dasharray="" stroke-dashoffset="1" fill="#000000" fill-opacity="1"/><circle cx="44" cy="52" r="1" stroke="none" stroke-width="1" stroke-linecap="butt" stroke-dasharray="" stroke-dashoffset="1" fill="#000000" fill-opacity="1"/><circle cx="40" cy="52" r="1" stroke="none" stroke-width="1" stroke-linecap="butt" stroke-dasharray="" stroke-dashoffset="1" fill="#000000" fill-opacity="1"/><circle cx="38" cy="49" r="1" stroke="none" stroke-width="1" stroke-linecap="butt" stroke-dasharray="" stroke-dashoffset="1" fill="#000000" fill-opacity="1"/><circle cx="36" cy="46" r="1" stroke="none" stroke-width="1" stroke-linecap="butt" stroke-dasharray="" stroke-dashoffset="1" fill="#000000" fill-opacity="1"/><circle cx="34" cy="49" r="1" stroke="none" stroke-width="1" stroke-linecap="butt" stroke-dasharray="" stroke-dashoffset="1" fill="#000000" fill-opacity="1"/><circle cx="36" cy="52" r="1" stroke="none" stroke-width="1" stroke-linecap="butt" stroke-dasharray="" stroke-dashoffset="1" fill="#000000" fill-opacity="1"/><circle cx="32" cy="52" r="1" stroke="none" stroke-width="1" stroke-linecap="butt" stroke-dasharray="" stroke-dashoffset="1" fill="#000000" fill-opacity="1"/><path d=" M 56.374 47.186 C 55.359 45.93 53.938 43.617 52.565 41.379 C 51.126 39.033 49.766 36.817 48.718 35.524 C 47.092 33.517 45.087 32.31 42.999 32.054 L 42.999 3 C 42.999 2.447 42.551 2 41.999 2 L 11.006 2 C 10.454 2 10.006 2.447 10.006 3 L 10.006 52 C 10.006 52.553 10.454 53 11.006 53 L 26.47 53 C 26.528 53.26 26.606 53.514 26.727 53.752 C 27.25 54.777 28.588 56 31.988 56 L 50.148 56 C 53.922 56 56.646 54.831 57.619 52.793 C 58.406 51.144 57.964 49.153 56.374 47.186 Z M 33 31 C 33 31.553 32.552 32 32 32 L 22 32 C 21.448 32 21 31.553 21 31 C 21 30.447 21.448 30 22 30 L 32 30 C 32.552 30 33 30.447 33 31 Z M 18 34 C 18 33.447 18.448 33 19 33 L 34 33 C 34.552 33 35 33.447 35 34 C 35 34.553 34.552 35 34 35 L 19 35 C 18.448 35 18 34.553 18 34 Z M 21 37 C 21 36.447 21.448 36 22 36 L 32 36 C 32.552 36 33 36.447 33 37 C 33 37.553 32.552 38 32 38 L 22 38 C 21.448 38 21 37.553 21 37 Z M 31.988 54 C 30.152 54 28.884 53.578 28.509 52.844 C 28.509 52.843 28.509 52.842 28.509 52.842 C 28.797 52.666 29 52.363 29 52 C 29 51.685 28.845 51.415 28.616 51.232 C 28.631 51.194 28.64 51.159 28.657 51.121 C 28.67 51.09 28.686 51.059 28.701 51.028 C 28.764 50.891 28.838 50.751 28.919 50.609 C 28.942 50.569 28.964 50.529 28.988 50.488 C 29.093 50.314 29.208 50.136 29.339 49.956 C 29.372 49.91 29.408 49.855 29.442 49.808 C 29.604 49.919 29.789 50 30 50 C 30.552 50 31 49.552 31 49 C 31 48.642 30.801 48.342 30.518 48.165 C 30.792 47.721 31.075 47.25 31.366 46.756 C 31.539 46.902 31.755 47 32 47 C 32.552 47 33 46.552 33 46 C 33 45.568 32.723 45.209 32.34 45.069 C 32.42 44.928 32.501 44.787 32.581 44.645 C 32.786 44.284 32.99 43.923 33.194 43.562 C 33.375 43.82 33.661 44 34 44 C 34.552 44 35 43.552 35 43 C 35 42.472 34.588 42.052 34.07 42.014 C 34.404 41.425 34.735 40.847 35.059 40.291 C 35.185 40.698 35.551 41 36 41 C 36.552 41 37 40.552 37 40 C 37 39.448 36.552 39 36 39 C 35.929 39 35.866 39.026 35.799 39.041 C 36.244 38.306 36.659 37.658 37.028 37.137 C 37.097 37.621 37.496 38 38 38 C 38.552 38 39 37.552 39 37 C 39 36.448 38.552 36 38 36 C 37.987 36 37.976 36.007 37.964 36.007 C 38.046 35.922 38.126 35.829 38.21 35.749 C 38.318 35.646 38.43 35.557 38.541 35.462 C 38.629 35.387 38.716 35.305 38.806 35.236 C 38.923 35.145 39.045 35.068 39.165 34.987 C 39.253 34.927 39.339 34.862 39.428 34.808 C 39.548 34.735 39.67 34.676 39.792 34.613 C 39.885 34.565 39.978 34.51 40.072 34.468 C 40.19 34.415 40.31 34.374 40.429 34.33 C 40.531 34.292 40.631 34.25 40.734 34.219 C 40.85 34.184 40.968 34.161 41.085 34.134 C 41.193 34.11 41.3 34.081 41.409 34.064 C 41.526 34.045 41.645 34.039 41.763 34.029 C 41.898 34.018 42.032 34 42.167 34 C 43.936 34 45.71 34.988 47.164 36.784 C 48.13 37.975 49.518 40.238 50.861 42.426 C 51.44 43.37 52.026 44.322 52.593 45.216 C 52.425 45.089 52.227 45 52 45 C 51.448 45 51 45.448 51 46 C 51 46.552 51.448 47 52 47 C 52.552 47 53 46.552 53 46 C 53 45.924 52.973 45.858 52.957 45.787 C 53.585 46.76 54.176 47.624 54.698 48.287 C 54.517 48.11 54.272 48 54 48 C 53.448 48 53 48.448 53 49 C 53 49.552 53.448 50 54 50 C 54.552 50 55 49.552 55 49 C 55 48.744 54.897 48.517 54.739 48.34 C 54.765 48.373 54.794 48.413 54.82 48.444 C 55.568 49.369 55.958 50.246 55.987 51.003 C 55.441 51.011 55 51.453 55 52 C 55 52.248 55.1 52.467 55.249 52.642 C 54.295 53.5 52.488 54 50.148 54 L 31.988 54 Z M 35.342 16 L 39 16 L 39 19.658 C 39 22.608 36.608 25 33.658 25 L 30 25 L 30 21.342 C 30 18.391 32.392 16 35.342 16 Z M 23.406 10.359 L 25.993 7.772 L 28.58 10.359 C 30.666 12.445 30.666 15.827 28.58 17.913 L 25.992 20.5 L 23.405 17.913 C 21.319 15.827 21.319 12.445 23.406 10.359 Z M 14 19.658 L 14 16 L 17.658 16 C 20.608 16 23 18.391 23 21.341 L 23 25 L 19.342 25 C 16.392 25 14 22.608 14 19.658 Z" stroke="none" stroke-width="1" stroke-linecap="butt" stroke-dasharray="" stroke-dashoffset="1" fill="#000000" fill-opacity="1"/><path d=" M 7.976 2 L 1 2 C 0.448 2 0 2.447 0 3 L 0 49 C 0 49.399 0.238 49.761 0.605 49.919 L 7.581 52.919 C 7.708 52.973 7.842 53 7.976 53 C 8.168 53 8.36 52.944 8.526 52.835 C 8.807 52.65 8.976 52.336 8.976 52 L 8.976 3 C 8.976 2.447 8.528 2 7.976 2 Z" stroke="none" stroke-width="1" stroke-linecap="butt" stroke-dasharray="" stroke-dashoffset="1" fill="#000000" fill-opacity="1"/></g><g></g><g></g><g></g><g></g><g></g><g></g><g></g><g></g><g></g><g></g><g></g><g></g><g></g><g></g><g></g></svg>