<?xml version="1.0" encoding="utf-8"?>
<!-- Generator: Adobe Illustrator 21.0.2, SVG Export Plug-In . SVG Version: 6.00 Build 0)  -->
<svg version="1.1" id="Layer_1" xmlns="http://www.w3.org/2000/svg" xmlns:xlink="http://www.w3.org/1999/xlink" x="0px" y="0px"
	 viewBox="0 0 502 502" style="enable-background:new 0 0 502 502;" xml:space="preserve">
<style type="text/css">
	.st0{fill:#FFFFFF;}
</style>
<g>
	<g>
		<g>
			<path class="st0" d="M113.1,421c3.1,0,6-1.4,7.9-3.9c0.9-1.1,21.5-28.1,42.5-61.3c28.9-45.7,43.5-79.6,43.5-100.7
				c0-51.8-42.1-94-94-94s-94,42.1-94,94c0,21.1,14.6,55,43.5,100.7c21,33.2,41.6,60.2,42.5,61.3C107.1,419.5,110,421,113.1,421z
				 M39.2,255c0-40.8,33.2-74,74-74s74,33.2,74,74c0,31.7-47.7,103.5-74,139.3C86.9,358.4,39.2,286.6,39.2,255z"/>
			<path class="st0" d="M170.3,255c0-31.5-25.7-57.2-57.2-57.2S56,223.4,56,255s25.7,57.2,57.2,57.2S170.3,286.5,170.3,255z
				 M113.1,292.2C92.6,292.2,76,275.5,76,255s16.7-37.2,37.2-37.2s37.2,16.7,37.2,37.2S133.7,292.2,113.1,292.2z"/>
			<path class="st0" d="M388,290.1h-67.5c-41.2,0-74.8-33.5-74.8-74.8s33.5-74.8,74.8-74.8h7.2c5.5,0,10-4.5,10-10
				c0-5.5-4.5-10-10-10h-7.2c-52.3,0-94.8,42.5-94.8,94.8s42.5,94.8,94.8,94.8H388c41.2,0,74.8,33.5,74.8,74.8s-33.5,74.8-74.8,74.8
				H144c-4.2-13-16.4-22.4-30.8-22.4c-17.9,0-32.4,14.5-32.4,32.4S95.3,502,113.1,502c14.4,0,26.6-9.4,30.8-22.4H388
				c52.3,0,94.8-42.5,94.8-94.8S440.3,290.1,388,290.1z M113.1,482c-6.8,0-12.4-5.6-12.4-12.4c0-6.8,5.6-12.4,12.4-12.4
				c6.8,0,12.4,5.6,12.4,12.4C125.5,476.4,120,482,113.1,482z"/>
			<path class="st0" d="M365.1,140.5h27.7c5.5,0,10-4.5,10-10c0-5.5-4.5-10-10-10h-27.7c-5.5,0-10,4.5-10,10
				C355.1,136,359.6,140.5,365.1,140.5z"/>
			<path class="st0" d="M391.8,63.7h48.6v36c-13,4.2-22.4,16.4-22.4,30.8c0,17.9,14.5,32.4,32.4,32.4s32.4-14.5,32.4-32.4
				c0-14.4-9.4-26.6-22.4-30.8v-46V10c0-5.5-4.5-10-10-10h-58.6c-5.5,0-10,4.5-10,10v43.7C381.8,59.2,386.2,63.7,391.8,63.7z
				 M450.4,118.1c6.8,0,12.4,5.6,12.4,12.4s-5.6,12.4-12.4,12.4c-6.8,0-12.4-5.6-12.4-12.4S443.6,118.1,450.4,118.1z M401.8,20h38.6
				v23.7h-38.6V20z"/>
		</g>
	</g>
</g>
</svg>
