<?xml version="1.0" encoding="utf-8"?>
<!-- Generator: Adobe Illustrator 21.0.2, SVG Export Plug-In . SVG Version: 6.00 Build 0)  -->
<svg version="1.1" id="Capa_1" xmlns="http://www.w3.org/2000/svg" xmlns:xlink="http://www.w3.org/1999/xlink" x="0px" y="0px"
	 viewBox="0 0 456.1 456.1" style="enable-background:new 0 0 456.1 456.1;" xml:space="preserve">
<style type="text/css">
	.st0{fill:#FFFFFF;}
</style>
<g>
	<path class="st0" d="M276.8,229.3c-4.9,9.6-3.7,21.6,3.8,29.6c3,3.2,6.8,5.6,10.9,7c5.1,1.6,9.1,5.6,10.7,10.7
		c1.3,4.2,3.8,7.9,7,10.9c4.8,4.5,11.1,6.7,17.4,6.7c6.8,0,13.6-2.6,18.7-7.7l73.1-73.1c9.9-9.9,10.3-26.1,1-36.2
		c-3-3.2-6.8-5.6-10.9-7c-5.1-1.6-9.1-5.6-10.7-10.7c-1.3-4.2-3.8-7.9-7-10.9c-8.1-7.5-20.1-8.7-29.6-3.8L281.2,65
		c4.9-9.6,3.7-21.6-3.8-29.6c-3-3.2-6.8-5.6-10.9-7c-5.1-1.6-9.1-5.6-10.7-10.7c-1.3-4.2-3.8-7.9-7-10.9c-10-9.4-26.3-8.9-36.2,1
		l-73.1,73.1c-9.9,9.9-10.3,26.1-1,36.2c3,3.2,6.8,5.6,10.9,7c5.1,1.6,9.1,5.6,10.7,10.7c1.3,4.2,3.8,7.9,7,10.9
		c4.8,4.5,11.1,6.7,17.4,6.7c4.2,0,8.4-1,12.2-3l22.5,22.5L10.7,380.5C0,391.2,0,408.7,10.7,419.4c5.4,5.4,12.4,8,19.4,8
		c7,0,14.1-2.7,19.4-8l208.6-208.6L276.8,229.3z M409.9,186.2L409.9,186.2c4.6,5,4.3,13.1-0.7,18.1l-73.1,73.1
		c-5,5-13.1,5.3-18.1,0.7c-1.6-1.5-2.8-3.3-3.5-5.4c-0.8-2.4-1.8-4.6-3.2-6.7l86.3-86.3c2.1,1.3,4.3,2.4,6.7,3.2
		C406.6,183.4,408.4,184.6,409.9,186.2z M381.9,158.2c1.6,1.5,2.8,3.3,3.5,5.4c0.8,2.4,1.8,4.6,3.2,6.7l-86.3,86.3
		c-2.1-1.3-4.3-2.4-6.7-3.2c-2.1-0.7-3.9-1.8-5.4-3.5c-4.6-5-4.3-13.1,0.7-18.1l36.6-36.6l36.5-36.5c2.6-2.6,6.1-4,9.5-4
		C376.5,154.9,379.6,156,381.9,158.2z M148.1,108.1c-4.6-5-4.3-13.1,0.7-18.1l73.1-73.1c2.6-2.6,6.1-4,9.5-4c3.1,0,6.2,1.1,8.6,3.3
		c1.6,1.5,2.8,3.3,3.5,5.4c0.8,2.4,1.8,4.6,3.2,6.7l-86.3,86.3c-2.1-1.3-4.3-2.4-6.7-3.2C151.4,110.9,149.6,109.7,148.1,108.1z
		 M176.1,136.1c-1.6-1.5-2.8-3.3-3.5-5.4c-0.8-2.4-1.8-4.6-3.2-6.7l86.3-86.3c2.1,1.3,4.3,2.4,6.7,3.2c2.1,0.7,3.9,1.8,5.4,3.5l0,0
		c4.6,5,4.3,13.1-0.7,18.1l-73.1,73.1C189.2,140.4,181,140.7,176.1,136.1z M272.9,75.1l78.2,78.2l-33,33l-33,33l-78.2-78.2
		L272.9,75.1z M40.4,410.2c-5.7,5.7-14.9,5.7-20.5,0s-5.7-14.9,0-20.5l208.6-208.6l20.5,20.5L40.4,410.2z"/>
	<path class="st0" d="M453.4,421.9c0-1.4-0.4-2.8-1.3-4l-26.4-34.6v-15.8c0-3.6-2.9-6.5-6.5-6.5h-182c-3.6,0-6.5,2.9-6.5,6.5v15.8
		l-26.4,34.6c-0.9,1.2-1.3,2.5-1.3,4l0,27.7c0,3.6,2.9,6.5,6.5,6.5H447c3.6,0,6.5-2.9,6.5-6.5L453.4,421.9z M243.7,374.1h169v5h-169
		V374.1z M240.4,392.1H416l17.8,23.3H222.6L240.4,392.1z M215.9,443.1v-14.7h224.6v14.7H215.9z"/>
	<path class="st0" d="M323,156.6c1.3,1.3,2.9,1.9,4.6,1.9c1.7,0,3.3-0.6,4.6-1.9c2.5-2.5,2.5-6.7,0-9.2L278.7,94
		c-2.5-2.5-6.7-2.5-9.2,0c-2.5,2.5-2.5,6.7,0,9.2L323,156.6z"/>
</g>
</svg>
