<?xml version="1.0" encoding="utf-8"?>
<!-- Generator: Adobe Illustrator 21.0.2, SVG Export Plug-In . SVG Version: 6.00 Build 0)  -->
<svg version="1.1" id="Layer_1" xmlns="http://www.w3.org/2000/svg" xmlns:xlink="http://www.w3.org/1999/xlink" x="0px" y="0px"
	 viewBox="0 0 512 512" style="enable-background:new 0 0 512 512;" xml:space="preserve">
<style type="text/css">
	.st0{fill:#FFFFFF;}
</style>
<g>
	<g>
		<g>
			<path class="st0" d="M477.2,243.3h-32L279.3,77.3c1.7-3.5,2.7-7.4,2.7-11.5c0-14.3-11.7-26-26-26c-14.3,0-26,11.7-26,26
				c0,4.1,1,8.1,2.7,11.5L66.8,243.3h-32C15.6,243.3,0,258.9,0,278.1v159.2c0,19.2,15.6,34.8,34.8,34.8h442.3
				c19.2,0,34.8-15.6,34.8-34.8V278.1C512,258.9,496.4,243.3,477.2,243.3z M256,56.4c5.2,0,9.4,4.2,9.4,9.4s-4.2,9.4-9.4,9.4
				c-5.2,0-9.4-4.2-9.4-9.4S250.8,56.4,256,56.4z M244.5,89.1c3.5,1.7,7.4,2.7,11.5,2.7c4.1,0,8.1-1,11.5-2.7l154.2,154.2H90.2
				L244.5,89.1z M495.4,437.4c0,10.1-8.2,18.2-18.2,18.2H34.8c-10.1,0-18.2-8.2-18.2-18.2V278.1c0-10.1,8.2-18.2,18.2-18.2h442.3
				c10.1,0,18.2,8.2,18.2,18.2V437.4z"/>
			<path class="st0" d="M70.2,321.8c7.7,0,14.7,4.9,17.2,12.2c1.5,4.3,6.3,6.6,10.6,5.1c4.3-1.5,6.6-6.3,5.1-10.6
				c-4.9-13.9-18.1-23.3-32.9-23.3c-19.2,0-34.8,15.6-34.8,34.8v35.4c0,19.2,15.6,34.8,34.8,34.8c14.7,0,27.9-9.3,32.8-23.2
				c1.5-4.3-0.7-9.1-5.1-10.6c-4.3-1.5-9.1,0.7-10.6,5.1c-2.6,7.3-9.5,12.2-17.2,12.2c-10.1,0-18.2-8.2-18.2-18.2V340
				C52,330,60.2,321.8,70.2,321.8z"/>
			<path class="st0" d="M167.5,393.7h-35.9v-80.2c0-4.6-3.7-8.3-8.3-8.3c-4.6,0-8.3,3.7-8.3,8.3V402c0,4.6,3.7,8.3,8.3,8.3h44.2
				c4.6,0,8.3-3.7,8.3-8.3C175.8,397.4,172.1,393.7,167.5,393.7z"/>
			<path class="st0" d="M211.8,305.2c-19.2,0-34.8,15.6-34.8,34.8v35.4c0,19.2,15.6,34.8,34.8,34.8s34.8-15.6,34.8-34.8V340
				C246.6,320.8,231,305.2,211.8,305.2z M230,375.4c0,10.1-8.2,18.2-18.2,18.2c-10.1,0-18.2-8.2-18.2-18.2V340
				c0-10.1,8.2-18.2,18.2-18.2c10.1,0,18.2,8.2,18.2,18.2V375.4z"/>
			<path class="st0" d="M291.4,349.4c-9.9,0-18.2-6.3-18.2-13.8s8.4-13.8,18.2-13.8c8.7,0,16.4,4.9,18,11.4c1.1,4.5,5.6,7.2,10,6.1
				c4.5-1.1,7.2-5.6,6.1-10c-3.4-13.9-17.7-24.1-34.1-24.1c-19.2,0-34.8,13.6-34.8,30.4c0,16.8,15.6,30.4,34.8,30.4
				c9.9,0,18.2,6.3,18.2,13.8s-8.4,13.8-18.2,13.8c-8.7,0-16.4-4.9-18-11.4c-1.1-4.5-5.6-7.2-10-6.1c-4.5,1.1-7.2,5.6-6.1,10
				c3.4,13.9,17.7,24.1,34.1,24.1c19.2,0,34.8-13.6,34.8-30.4C326.2,363.1,310.6,349.4,291.4,349.4z"/>
			<path class="st0" d="M388.7,321.8c4.6,0,8.3-3.7,8.3-8.3c0-4.6-3.7-8.3-8.3-8.3h-44.2c-4.6,0-8.3,3.7-8.3,8.3V402
				c0,4.6,3.7,8.3,8.3,8.3h44.2c4.6,0,8.3-3.7,8.3-8.3c0-4.6-3.7-8.3-8.3-8.3h-35.9V366h27.1c4.6,0,8.3-3.7,8.3-8.3
				c0-4.6-3.7-8.3-8.3-8.3h-27.1v-27.6H388.7z"/>
			<path class="st0" d="M424.1,305.2h-8.8c-4.6,0-8.3,3.7-8.3,8.3V402c0,4.6,3.7,8.3,8.3,8.3h8.8c29,0,52.5-23.6,52.5-52.5
				C476.6,328.8,453,305.2,424.1,305.2z M424.1,393.7h-0.6v-71.9h0.6c19.8,0,35.9,16.1,35.9,35.9S443.9,393.7,424.1,393.7z"/>
		</g>
	</g>
</g>
</svg>
