<?xml version="1.0" encoding="utf-8"?>
<!-- Generator: Adobe Illustrator 21.0.2, SVG Export Plug-In . SVG Version: 6.00 Build 0)  -->
<svg version="1.1" id="Layer_1" xmlns="http://www.w3.org/2000/svg" xmlns:xlink="http://www.w3.org/1999/xlink" x="0px" y="0px"
	 viewBox="0 0 512 512" style="enable-background:new 0 0 512 512;" xml:space="preserve">
<style type="text/css">
	.st0{fill:#FFFFFF;}
</style>
<g transform="translate(1 1)">
	<g>
		<g>
			<path class="st0" d="M468.3,186.7c-5.1,0-8.5,3.4-8.5,8.5v8.5c0,5.1,3.4,8.5,8.5,8.5s8.5-3.4,8.5-8.5v-8.5
				C476.9,190.1,473.5,186.7,468.3,186.7z"/>
			<path class="st0" d="M468.3,117.6c-5.1,0-8.5,3.4-8.5,8.5v19.6c0,5.1,3.4,8.5,8.5,8.5s8.5-4.3,8.5-8.5v-19.6
				C476.9,121,473.5,117.6,468.3,117.6z"/>
			<path class="st0" d="M459.8,75.8c0,5.1,3.4,8.5,8.5,8.5s8.5-3.4,8.5-8.5V58.7h-17.1c-5.1,0-8.5,3.4-8.5,8.5
				S454.7,75.8,459.8,75.8z"/>
			<path class="st0" d="M155.2,75.8h17.1c4.3,0,8.5-3.4,8.5-8.5s-3.4-8.5-8.5-8.5h-17.1c-5.1,0-8.5,3.4-8.5,8.5S150,75.8,155.2,75.8
				z"/>
			<path class="st0" d="M215.7,75.8h17.1c5.1,0,8.5-3.4,8.5-8.5s-3.4-8.5-8.5-8.5h-17.1c-5.1,0-8.5,3.4-8.5,8.5
				S210.6,75.8,215.7,75.8z"/>
			<path class="st0" d="M93.7,75.8h17.1c5.1,0,8.5-3.4,8.5-8.5s-3.4-8.5-8.5-8.5H93.7c-5.1,0-8.5,3.4-8.5,8.5S88.6,75.8,93.7,75.8z"
				/>
			<path class="st0" d="M337.8,75.8h17.1c5.1,0,8.5-3.4,8.5-8.5s-3.4-8.5-8.5-8.5h-17.1c-5.1,0-8.5,3.4-8.5,8.5
				S332.7,75.8,337.8,75.8z"/>
			<path class="st0" d="M277.2,75.8h17.1c4.3,0,8.5-3.4,8.5-8.5s-3.4-8.5-8.5-8.5h-17.1c-5.1,0-8.5,3.4-8.5,8.5
				S272.1,75.8,277.2,75.8z"/>
			<path class="st0" d="M399.2,75.8h17.1c4.3,0,8.5-3.4,8.5-8.5s-3.4-8.5-8.5-8.5h-17.1c-5.1,0-8.5,3.4-8.5,8.5
				S394.1,75.8,399.2,75.8z"/>
			<path class="st0" d="M41.7,84.3c5.1,0,8.5-3.4,8.5-8.5c5.1,0,8.5-3.4,8.5-8.5s-3.4-8.5-8.5-8.5H33.1v17.1
				C33.1,80.9,36.5,84.3,41.7,84.3z"/>
			<path class="st0" d="M41.7,268.6c5.1,0,8.5-3.4,8.5-8.5v-17.9c0-5.1-3.4-8.5-8.5-8.5s-8.5,3.4-8.5,8.5v17.9
				C33.1,265.2,36.5,268.6,41.7,268.6z"/>
			<path class="st0" d="M41.7,207.2c5.1,0,8.5-3.4,8.5-8.5v-17.9c0-5.1-3.4-8.5-8.5-8.5s-8.5,3.4-8.5,8.5v17.9
				C33.1,203.8,36.5,207.2,41.7,207.2z"/>
			<path class="st0" d="M41.7,145.8c5.1,0,8.5-3.4,8.5-8.5v-17.9c0-5.1-3.4-8.5-8.5-8.5s-8.5,3.4-8.5,8.5v17.9
				C33.1,142.3,36.5,145.8,41.7,145.8z"/>
			<path class="st0" d="M41.7,330.9c5.1,0,8.5-4.3,8.5-8.5v-17.9c0-5.1-3.4-8.5-8.5-8.5s-8.5,3.4-8.5,8.5v17.9
				C33.1,327.5,36.5,330.9,41.7,330.9z"/>
			<path class="st0" d="M58.7,374.4c0-5.1-3.4-8.5-8.5-8.5c0-5.1-3.4-8.5-8.5-8.5s-8.5,3.4-8.5,8.5V383h17.1
				C55.3,383,58.7,379.6,58.7,374.4z"/>
			<path class="st0" d="M169.7,365.9h-17.1c-5.1,0-8.5,3.4-8.5,8.5s3.4,8.5,8.5,8.5h17.1c5.1,0,8.5-3.4,8.5-8.5
				S174.8,365.9,169.7,365.9z"/>
			<path class="st0" d="M92.9,383h17.1c5.1,0,8.5-3.4,8.5-8.5s-3.4-8.5-8.5-8.5H92.9c-5.1,0-8.5,3.4-8.5,8.5S87.7,383,92.9,383z"/>
			<path class="st0" d="M229.4,365.9h-17.1c-5.1,0-8.5,3.4-8.5,8.5s3.4,8.5,8.5,8.5h17.1c5.1,0,8.5-3.4,8.5-8.5
				S234.5,365.9,229.4,365.9z"/>
			<path class="st0" d="M280.6,365.9h-8.5c-5.1,0-8.5,3.4-8.5,8.5s3.4,8.5,8.5,8.5h8.5c5.1,0,8.5-3.4,8.5-8.5
				S285.7,365.9,280.6,365.9z"/>
			<path class="st0" d="M511,24.6H-1v392.5h324.3v59.7c0,3.4,1.7,6.8,5.1,7.7c3.4,1.7,6.8,0.9,9.4-1.7l45.2-45.2l45.2,45.2
				c1.7,1.7,3.4,2.6,6,2.6c0.9,0,2.6,0,3.4-0.9c3.4-0.9,5.1-4.3,5.1-7.7v-59.7H511V24.6z M425.7,456.4L389,419.7
				c-1.7-1.7-3.4-2.6-6-2.6s-4.3,0.9-6,2.6l-36.7,36.7v-39.3v-53.8c25.6,15.4,59.7,15.4,85.3,0v53.8L425.7,456.4L425.7,456.4z
				 M397.2,355.9c-0.4,0.1-0.8,0.2-1.2,0.2c-0.6,0.1-1.1,0.2-1.7,0.3c-0.6,0.1-1.1,0.2-1.7,0.3c-0.5,0.1-0.9,0.1-1.4,0.2
				c-0.6,0.1-1.2,0.2-1.9,0.2c-0.5,0-1.1,0.1-1.6,0.1c-0.5,0-1.1,0.1-1.6,0.1c-1.1,0.1-2.2,0.1-3.2,0.1c-1.1,0-2.2,0-3.2-0.1
				c-0.6,0-1.2-0.1-1.8-0.1c-0.4,0-0.8-0.1-1.3-0.1c-0.8-0.1-1.7-0.2-2.5-0.3c-0.1,0-0.3,0-0.4-0.1c-2-0.3-3.9-0.6-5.9-1.1
				c-1-0.2-2-0.5-3-0.8c-2-0.5-3.9-1.2-5.8-1.9s-3.8-1.5-5.7-2.4c-0.6-0.3-1.3-0.6-1.9-1c-0.3-0.2-0.7-0.3-1-0.5c0,0-0.1,0-0.1,0
				c-21.2-11.6-35.7-34.2-35.7-60c0-37.5,30.7-68.3,68.3-68.3s68.3,30.7,68.3,68.3C451.3,321.8,428,349.3,397.2,355.9z M493.9,400
				h-51.2v-50.2c15.8-15.5,25.6-37,25.6-60.8c0-46.9-38.4-85.3-85.3-85.3s-85.3,38.4-85.3,85.3c0,23.7,9.8,45.3,25.6,60.8V400H16.1
				V41.6h477.9L493.9,400L493.9,400z"/>
			<path class="st0" d="M400.1,135.5H109.9c-5.1,0-8.5,3.4-8.5,8.5s3.4,8.5,8.5,8.5h290.1c5.1,0,8.5-3.4,8.5-8.5
				S405.2,135.5,400.1,135.5z"/>
			<path class="st0" d="M297.7,186.7H109.9c-5.1,0-8.5,3.4-8.5,8.5s3.4,8.5,8.5,8.5h187.7c5.1,0,8.5-3.4,8.5-8.5
				S302.8,186.7,297.7,186.7z"/>
			<path class="st0" d="M109.9,255h162.1c5.1,0,8.5-3.4,8.5-8.5s-3.4-8.5-8.5-8.5H109.9c-5.1,0-8.5,3.4-8.5,8.5S104.8,255,109.9,255
				z"/>
			<path class="st0" d="M109.9,314.7h162.1c5.1,0,8.5-3.4,8.5-8.5s-3.4-8.5-8.5-8.5H109.9c-5.1,0-8.5,3.4-8.5,8.5
				S104.8,314.7,109.9,314.7z"/>
		</g>
	</g>
</g>
</svg>
