<?xml version="1.0" encoding="utf-8"?>
<!-- Generator: Adobe Illustrator 21.0.2, SVG Export Plug-In . SVG Version: 6.00 Build 0)  -->
<svg version="1.1" id="Capa_1" xmlns="http://www.w3.org/2000/svg" xmlns:xlink="http://www.w3.org/1999/xlink" x="0px" y="0px"
	 viewBox="0 0 512 512" style="enable-background:new 0 0 512 512;" xml:space="preserve">
<style type="text/css">
	.st0{fill:#FFFFFF;}
</style>
<g>
	<g>
		<g>
			<path class="st0" d="M432,200c44.1,0,80-39.5,80-88V80.1c0-3.8-2.6-7.1-6.4-7.9l-352-72c-0.7-0.1-1.3-0.2-2-0.2H104
				c-0.1,0-0.1,0-0.2,0c-0.2,0-0.3,0-0.5,0c-0.1,0-0.2,0-0.3,0c-0.1,0-0.3,0-0.4,0.1c-0.1,0-0.2,0-0.3,0.1c-0.1,0-0.3,0.1-0.4,0.1
				c-0.1,0-0.2,0.1-0.4,0.1c-0.1,0-0.3,0.1-0.4,0.1c-0.1,0-0.2,0.1-0.4,0.1c-0.1,0.1-0.2,0.1-0.3,0.2c-0.1,0.1-0.2,0.1-0.4,0.2
				c-0.1,0.1-0.2,0.1-0.3,0.2c-0.1,0.1-0.2,0.2-0.3,0.2c-0.1,0-0.1,0.1-0.2,0.1l-96,72c-0.1,0-0.1,0.1-0.1,0.1
				C3,73.8,2.9,73.9,2.8,74c-0.1,0.1-0.2,0.2-0.3,0.3c-0.1,0.1-0.1,0.1-0.2,0.2c-0.1,0.1-0.2,0.2-0.3,0.4c0,0.1-0.1,0.1-0.1,0.2
				c-0.1,0.1-0.2,0.3-0.3,0.4c0,0.1-0.1,0.1-0.1,0.2C1.2,75.8,1.1,76,1,76.1c0,0.1-0.1,0.1-0.1,0.2c-0.1,0.2-0.2,0.3-0.2,0.5
				c0,0.1-0.1,0.2-0.1,0.3c-0.1,0.2-0.1,0.3-0.2,0.5c0,0.1-0.1,0.2-0.1,0.3c0,0.2-0.1,0.3-0.1,0.5c0,0.1,0,0.2-0.1,0.3
				c0,0.2-0.1,0.3-0.1,0.5c0,0.1,0,0.2,0,0.3c0,0.2,0,0.4,0,0.5c0,0,0,0.1,0,0.1v32c0,4.4,3.6,8,8,8h24v24c0,4.4,3.6,8,8,8h32
				c4.4,0,8-3.6,8-8v-24h16v280H80c-4.4,0-8,3.6-8,8v56H56c-8.8,0-16,7.2-16,16v24c0,4.4,3.6,8,8,8h160c4.4,0,8-3.6,8-8v-24
				c0-8.8-7.2-16-16-16h-16v-56c0-4.4-3.6-8-8-8h-16V120h200v144h-16c-2.5,0-4.8,1.1-6.3,3.1c-1.5,1.9-2.1,4.5-1.5,6.9l8,32
				c0.9,3.6,4.1,6.1,7.8,6.1h8v8c0,8.8,7.2,16,16,16h4.8c1.7,0,3.2,1.4,3.2,3.2c0,1.6-1,2.4-1.7,2.8c-0.6,0.3-1.9,0.8-3.2-0.2
				l-6.7-4.4c-3.7-2.5-8.6-1.5-11.1,2.2c-0.9,1.4-1.3,2.9-1.3,4.4H256c-8.8,0-16,7.2-16,16v112c0,8.8,7.2,16,16,16h224
				c8.8,0,16-7.2,16-16V360c0-8.8-7.2-16-16-16h-80.6c0.4-1.6,0.6-3.2,0.6-4.8c0-10.6-8.6-19.2-19.2-19.2H376v-8h8
				c3.7,0,6.9-2.5,7.8-6.1l8-32c0.6-2.4,0.1-4.9-1.5-6.9s-3.8-3.1-6.3-3.1h-16v-94.1C388.8,188.8,408.4,200,432,200z M480,472H256
				V360h224L480,472z M377.8,296h-19.5l-4-16h27.5L377.8,296z M432,184c-30.9,0-53-25.9-55.7-64h119.3C492,156,464.9,184,432,184z
				 M160,17.8L425,72H160V17.8z M144,16v56h-32c0-14,0-56,0-56H144z M112,255l32,21.3v15.4l-32,21.3C112,292.7,112,282.3,112,255z
				 M144,257.1l-32-21.3c0-7.6,0-7.7,0-15.4l32-21.3V257.1z M112,332.3l32-21.3v58.1l-32-21.3C112,344.1,112,336.8,112,332.3z
				 M144,179.7l-32,21.3c0-29,0-32.4,0-58.1l32,21.3V179.7z M144,88v16h-32c0-5.7,0-11.1,0-16H144z M72,72H40h-8l64-48v48H72z
				 M16,104V88h16v16H16z M64,136H48V88h16V136z M80,104V88h16v16H80z M200,496H56v-16h24h96h24V496z M168,464H88v-48h16h48h16V464z
				 M112,400c0,0,0-27.9,0-33.1l32,21.3V400H112z M144,145.1l-32-21.3c0-1.5,0-2.2,0-3.7h32V145.1z M160,88h336v16H368h0h0H160V88z"
				/>
			<path class="st0" d="M448,456c4.4,0,8-3.6,8-8v-64c0-4.4-3.6-8-8-8s-8,3.6-8,8v64C440,452.4,443.6,456,448,456z"/>
			<path class="st0" d="M408,456c4.4,0,8-3.6,8-8v-64c0-4.4-3.6-8-8-8c-4.4,0-8,3.6-8,8v64C400,452.4,403.6,456,408,456z"/>
			<path class="st0" d="M368,456c4.4,0,8-3.6,8-8v-64c0-4.4-3.6-8-8-8c-4.4,0-8,3.6-8,8v64C360,452.4,363.6,456,368,456z"/>
			<path class="st0" d="M328,456c4.4,0,8-3.6,8-8v-64c0-4.4-3.6-8-8-8c-4.4,0-8,3.6-8,8v64C320,452.4,323.6,456,328,456z"/>
			<path class="st0" d="M288,456c4.4,0,8-3.6,8-8v-64c0-4.4-3.6-8-8-8c-4.4,0-8,3.6-8,8v64C280,452.4,283.6,456,288,456z"/>
		</g>
	</g>
</g>
</svg>
