<svg version="1.1" width="512" height="512" viewBox="0 0 512 512" xmlns="http://www.w3.org/2000/svg" xmlns:xlink="http://www.w3.org/1999/xlink" id="Layer_1" overflow="hidden"><style>
.MsftOfcThm_Text1_Fill {
 fill:#000000; 
}
</style>
<g><g><path d=" M 227.737 208.713 L 220.671 208.713 L 220.671 185.885 L 238.607 185.885 C 243.11 185.885 246.76 182.235 246.76 177.732 C 246.76 173.229 243.11 169.579 238.607 169.579 L 220.671 169.579 L 220.671 160.339 C 220.671 155.836 217.021 152.186 212.518 152.186 C 208.015 152.186 204.365 155.836 204.365 160.339 L 204.365 169.579 L 197.3 169.579 C 186.811 169.579 178.277 178.113 178.277 188.602 L 178.277 205.995 C 178.277 216.484 186.811 225.018 197.3 225.018 L 204.366 225.018 L 204.366 247.846 L 186.43 247.846 C 181.927 247.846 178.277 251.496 178.277 255.999 C 178.277 260.502 181.927 264.152 186.43 264.152 L 204.366 264.152 L 204.366 273.392 C 204.366 277.895 208.016 281.545 212.519 281.545 C 217.022 281.545 220.672 277.895 220.672 273.392 L 220.672 264.152 L 227.738 264.152 C 238.227 264.152 246.761 255.618 246.761 245.129 L 246.761 227.736 C 246.76 217.248 238.226 208.713 227.737 208.713 Z M 204.365 208.713 L 197.3 208.713 C 195.802 208.713 194.582 207.493 194.582 205.995 L 194.582 188.602 C 194.582 187.104 195.802 185.884 197.3 185.884 L 204.366 185.884 L 204.366 208.713 Z M 230.454 245.13 C 230.454 246.628 229.234 247.848 227.736 247.848 L 220.67 247.848 L 220.67 225.02 L 227.736 225.02 C 229.234 225.02 230.454 226.24 230.454 227.738 L 230.454 245.13 Z" stroke="none" stroke-width="1" stroke-linecap="butt" stroke-dasharray="" stroke-dashoffset="1" fill="#000000" fill-opacity="1"/></g></g><g><g><path d=" M 509.612 216.579 L 472.716 179.683 C 469.533 176.498 464.371 176.499 461.187 179.683 L 425.036 215.834 L 425.036 8.153 C 425.036 3.65 421.386 0 416.883 0 L 8.153 0 C 3.65 0 0 3.65 0 8.153 L 0 403.839 C 0 408.342 3.65 411.992 8.153 411.992 C 12.656 411.992 16.306 408.342 16.306 403.839 L 16.306 16.306 L 408.731 16.306 L 408.731 232.14 L 349.542 291.329 L 329.376 291.329 L 329.376 142.403 L 356.009 142.403 C 360.512 142.403 364.162 138.753 364.162 134.25 L 364.162 108.161 C 364.162 103.658 360.512 100.008 356.009 100.008 L 323.608 100.008 L 216.913 31.723 C 214.233 30.009 210.803 30.009 208.123 31.723 L 101.428 100.008 L 69.028 100.008 C 64.525 100.008 60.875 103.658 60.875 108.161 L 60.875 134.25 C 60.875 138.753 64.525 142.403 69.028 142.403 L 95.66 142.403 L 95.66 291.329 L 69.028 291.329 C 64.525 291.329 60.875 294.979 60.875 299.482 L 60.875 325.571 C 60.875 330.074 64.525 333.724 69.028 333.724 L 307.147 333.724 L 246.219 394.652 C 246.201 394.67 246.184 394.691 246.166 394.711 C 245.201 395.61 244.44 396.756 243.993 398.096 L 225.546 453.44 C 223.463 459.687 229.606 465.836 235.859 463.753 L 291.203 445.305 C 292.549 444.856 293.699 444.09 294.599 443.118 C 294.632 443.085 294.669 443.057 294.7 443.024 L 344.602 392.157 C 347.754 388.943 347.706 383.78 344.491 380.628 C 341.277 377.476 336.115 377.526 332.962 380.739 L 288.825 425.731 L 263.514 400.42 L 435.95 227.984 L 461.316 253.35 L 368.768 345.898 C 365.584 349.082 365.584 354.244 368.768 357.427 C 371.952 360.611 377.114 360.611 380.297 357.427 L 408.731 328.992 L 408.731 417.428 L 338.616 417.428 C 334.113 417.428 330.463 421.078 330.463 425.581 L 330.463 495.696 L 16.306 495.696 L 16.306 447.322 C 16.306 442.819 12.656 439.169 8.153 439.169 C 3.65 439.169 0 442.819 0 447.322 L 0 503.849 C 0 508.35 3.65 512 8.153 512 L 338.616 512 C 340.752 512 342.871 511.123 344.381 509.612 L 422.649 431.344 C 424.16 429.834 425.037 427.715 425.037 425.579 L 425.037 312.685 L 478.61 259.112 L 509.613 228.109 C 512.796 224.926 512.796 219.763 509.612 216.579 Z M 273.914 433.878 L 246.17 443.127 L 255.417 415.382 L 273.914 433.878 Z M 212.518 48.269 L 293.36 100.008 L 131.677 100.008 L 212.518 48.269 Z M 77.181 126.098 L 77.181 116.315 L 347.856 116.315 L 347.856 126.098 L 77.181 126.098 Z M 313.07 142.403 L 313.07 291.329 L 285.894 291.329 L 285.894 142.403 L 313.07 142.403 Z M 269.588 142.403 L 269.588 291.329 L 155.448 291.329 L 155.448 142.403 L 269.588 142.403 Z M 139.142 142.403 L 139.142 291.329 L 111.966 291.329 L 111.966 142.403 L 139.142 142.403 Z M 323.453 317.418 L 77.181 317.418 L 77.181 307.635 L 333.236 307.635 L 323.453 317.418 Z M 346.769 484.165 L 346.769 433.732 L 397.202 433.732 L 346.769 484.165 Z M 472.845 241.817 L 447.479 216.451 L 466.952 196.979 L 492.317 222.344 L 472.845 241.817 Z" stroke="none" stroke-width="1" stroke-linecap="butt" stroke-dasharray="" stroke-dashoffset="1" fill="#000000" fill-opacity="1"/></g></g><g><g><path d=" M 208.17 404.382 L 103.813 404.382 C 99.31 404.382 95.66 408.032 95.66 412.535 C 95.66 417.038 99.31 420.688 103.813 420.688 L 208.17 420.688 C 212.673 420.688 216.323 417.038 216.323 412.535 C 216.323 408.032 212.673 404.382 208.17 404.382 Z" stroke="none" stroke-width="1" stroke-linecap="butt" stroke-dasharray="" stroke-dashoffset="1" fill="#000000" fill-opacity="1"/></g></g><g><g><path d=" M 216.866 447.864 L 103.813 447.864 C 99.31 447.864 95.66 451.514 95.66 456.017 C 95.66 460.52 99.31 464.17 103.813 464.17 L 216.866 464.17 C 221.369 464.17 225.019 460.52 225.019 456.017 C 225.019 451.514 221.369 447.864 216.866 447.864 Z" stroke="none" stroke-width="1" stroke-linecap="butt" stroke-dasharray="" stroke-dashoffset="1" fill="#000000" fill-opacity="1"/></g></g><g><g><path d=" M 208.17 360.9 L 103.813 360.9 C 99.31 360.9 95.66 364.55 95.66 369.053 C 95.66 373.556 99.31 377.206 103.813 377.206 L 208.17 377.206 C 212.673 377.206 216.323 373.556 216.323 369.053 C 216.323 364.55 212.673 360.9 208.17 360.9 Z" stroke="none" stroke-width="1" stroke-linecap="butt" stroke-dasharray="" stroke-dashoffset="1" fill="#000000" fill-opacity="1"/></g></g><g></g><g></g><g></g><g></g><g></g><g></g><g></g><g></g><g></g><g></g><g></g><g></g><g></g><g></g><g></g></svg>