<svg version="1.1" viewBox="0 0 480 480" xmlns="http://www.w3.org/2000/svg" xmlns:xlink="http://www.w3.org/1999/xlink" id="Capa_1" overflow="hidden"><style>
.MsftOfcThm_Text1_Fill {
 fill:#000000; 
}
</style>
<g><g><path d=" M 400 0 L 112 0 C 92.432 0 76.168 14.144 72.736 32.736 C 54.144 36.168 40 52.432 40 72 L 40 440 C 40 462.056 57.944 480 80 480 L 368 480 C 387.568 480 403.832 465.856 407.264 447.264 C 425.856 443.832 440 427.568 440 408 L 440 40 C 440 17.944 422.056 0 400 0 Z M 392 440 C 392 453.232 381.232 464 368 464 L 80 464 C 66.768 464 56 453.232 56 440 L 56 72 C 56 58.768 66.768 48 80 48 L 320 48 L 320 112 C 320 116.424 323.584 120 328 120 L 392 120 L 392 440 Z M 336 104 L 336 59.312 L 380.688 104 L 336 104 Z M 424 408 C 424 418.416 417.288 427.216 408 430.528 L 408 112 C 408 109.784 407.104 107.784 405.648 106.336 L 333.664 34.352 C 332.216 32.896 330.216 32 328 32 L 89.472 32 C 92.784 22.712 101.584 16 112 16 L 400 16 C 413.232 16 424 26.768 424 40 L 424 408 Z" stroke="none" stroke-width="1" stroke-linecap="butt" stroke-dasharray="" stroke-dashoffset="1" fill="#000000" fill-opacity="1"/></g></g><g><g><path d=" M 224 120 C 162.24 120 112 170.24 112 232 C 112 293.76 162.24 344 224 344 C 285.76 344 336 293.76 336 232 C 336 170.24 285.76 120 224 120 Z M 224 328 C 171.064 328 128 284.936 128 232 C 128 179.064 171.064 136 224 136 C 276.936 136 320 179.064 320 232 C 320 284.936 276.936 328 224 328 Z" stroke="none" stroke-width="1" stroke-linecap="butt" stroke-dasharray="" stroke-dashoffset="1" fill="#000000" fill-opacity="1"/></g></g><g><g><rect x="166.318" y="223.989" width="115.381" height="16.001" stroke="none" stroke-width="1" stroke-linecap="butt" stroke-dasharray="" stroke-dashoffset="1" fill="#000000" fill-opacity="1" transform="matrix(0.5547,-0.8321,0.8321,0.5547,-93.2743,289.7)"/></g></g><g><g><path d=" M 264 232 C 250.768 232 240 242.768 240 256 C 240 269.232 250.768 280 264 280 C 277.232 280 288 269.232 288 256 C 288 242.768 277.232 232 264 232 Z M 264 264 C 259.592 264 256 260.416 256 256 C 256 251.584 259.592 248 264 248 C 268.408 248 272 251.584 272 256 C 272 260.416 268.408 264 264 264 Z" stroke="none" stroke-width="1" stroke-linecap="butt" stroke-dasharray="" stroke-dashoffset="1" fill="#000000" fill-opacity="1"/></g></g><g><g><path d=" M 184 184 C 170.768 184 160 194.768 160 208 C 160 221.232 170.768 232 184 232 C 197.232 232 208 221.232 208 208 C 208 194.768 197.232 184 184 184 Z M 184 216 C 179.592 216 176 212.416 176 208 C 176 203.584 179.592 200 184 200 C 188.408 200 192 203.584 192 208 C 192 212.416 188.408 216 184 216 Z" stroke="none" stroke-width="1" stroke-linecap="butt" stroke-dasharray="" stroke-dashoffset="1" fill="#000000" fill-opacity="1"/></g></g><g><g><path d=" M 266.344 354.344 L 224 396.688 L 205.656 378.344 L 194.344 389.656 L 218.344 413.656 C 219.904 415.216 221.952 416 224 416 C 226.048 416 228.096 415.216 229.656 413.656 L 277.656 365.656 L 266.344 354.344 Z" stroke="none" stroke-width="1" stroke-linecap="butt" stroke-dasharray="" stroke-dashoffset="1" fill="#000000" fill-opacity="1"/></g></g><g></g><g></g><g></g><g></g><g></g><g></g><g></g><g></g><g></g><g></g><g></g><g></g><g></g><g></g><g></g></svg>