<svg version="1.1" viewBox="0 0 356.883 356.883" xmlns="http://www.w3.org/2000/svg" xmlns:xlink="http://www.w3.org/1999/xlink" id="Capa_1" overflow="hidden"><g><path d=" M 264.916 58.007 C 213.342 58.007 172.941 79.416 172.941 106.746 L 172.941 115.098 C 161.7 115.765 150.996 118.458 141.19 122.82 C 127.041 118.152 110.207 115.474 91.972 115.474 C 40.399 115.474 0 136.882 0 164.211 L 0 192.671 L 0 221.677 L 0 250.138 C 0 277.468 40.399 298.876 91.973 298.876 C 110.513 298.876 127.608 296.11 141.903 291.297 C 153.11 296.169 165.467 298.876 178.446 298.876 C 191.425 298.876 203.781 296.169 214.989 291.297 C 229.282 296.11 246.378 298.876 264.917 298.876 C 316.487 298.876 356.884 277.468 356.884 250.138 L 356.884 221.677 L 356.884 192.671 L 356.884 164.211 L 356.884 135.206 L 356.884 106.746 C 356.883 79.416 316.486 58.007 264.916 58.007 Z M 206.232 81.094 C 221.814 73.304 242.656 69.013 264.916 69.013 C 287.175 69.013 308.014 73.304 323.594 81.094 C 337.756 88.175 345.877 97.525 345.877 106.746 C 345.877 115.964 337.756 125.313 323.594 132.394 C 308.012 140.186 287.174 144.477 264.916 144.477 C 258.034 144.477 251.288 144.066 244.79 143.268 C 229.724 127.567 209.154 117.188 186.217 115.259 C 184.726 112.455 183.947 109.594 183.947 106.745 C 183.947 97.524 192.07 88.175 206.232 81.094 Z M 178.445 287.87 C 170.99 287.87 163.769 286.852 156.91 284.958 C 151.863 283.564 147.015 281.692 142.412 279.395 C 135.955 276.172 129.986 272.113 124.648 267.358 C 121.337 264.41 118.271 261.194 115.481 257.747 C 111.335 252.622 107.8 246.983 104.99 240.943 C 103.378 237.477 102.004 233.879 100.889 230.17 C 99.222 224.624 98.132 218.83 97.696 212.857 C 97.553 210.89 97.477 208.905 97.477 206.901 C 97.477 205.204 97.536 203.52 97.639 201.848 C 99.453 172.532 116.934 147.389 141.794 134.715 C 146.371 132.382 151.197 130.471 156.222 129.034 C 161.59 127.5 167.185 126.512 172.942 126.124 C 174.762 126.002 176.596 125.934 178.446 125.934 C 179.003 125.934 179.558 125.944 180.113 125.955 C 181.399 125.981 182.677 126.039 183.948 126.125 C 189.432 126.495 194.768 127.413 199.902 128.825 C 207.686 130.967 215.006 134.243 221.669 138.466 C 228.284 142.659 234.253 147.782 239.389 153.654 C 244.31 159.28 248.466 165.59 251.695 172.422 C 253.41 176.051 254.863 179.828 256.03 183.727 C 257.765 189.524 258.865 195.591 259.253 201.85 C 259.356 203.522 259.416 205.205 259.416 206.903 C 259.416 208.907 259.34 210.892 259.195 212.859 C 258.759 218.832 257.67 224.626 256.002 230.172 C 254.888 233.882 253.514 237.48 251.9 240.945 C 249.089 246.985 245.556 252.624 241.41 257.749 C 238.62 261.196 235.554 264.412 232.244 267.36 C 226.906 272.115 220.937 276.174 214.479 279.397 C 209.877 281.694 205.027 283.566 199.981 284.96 C 193.119 286.853 185.899 287.87 178.445 287.87 Z M 33.29 138.56 C 48.872 130.77 69.713 126.48 91.973 126.48 C 104.473 126.48 116.526 127.833 127.451 130.398 C 104.074 146.032 88.229 172.081 86.611 201.858 C 66.383 201.225 47.616 197.023 33.292 189.861 C 19.13 182.779 11.007 173.43 11.007 164.212 C 11.006 154.99 19.129 145.641 33.29 138.56 Z M 86.669 212.871 C 87.057 218.883 88.022 224.739 89.514 230.386 C 68.183 230.081 48.299 225.825 33.291 218.322 C 19.129 211.24 11.006 201.89 11.006 192.672 L 11.006 187.686 C 25.646 202.093 53.567 211.919 86.669 212.871 Z M 91.973 241.411 C 92.381 241.411 92.786 241.405 93.192 241.403 C 95.735 247.663 98.947 253.58 102.74 259.068 C 99.2 259.294 95.606 259.41 91.973 259.41 C 69.715 259.41 48.874 255.118 33.291 247.326 C 19.129 240.245 11.006 230.895 11.006 221.677 L 11.006 216.146 C 26.422 231.317 56.563 241.411 91.973 241.411 Z M 91.973 287.87 C 69.715 287.87 48.874 283.579 33.291 275.786 C 19.129 268.705 11.006 259.356 11.006 250.138 L 11.006 245.152 C 26.422 260.324 56.563 270.417 91.973 270.417 C 98.531 270.417 104.906 270.069 111.041 269.408 C 116.102 274.863 121.814 279.703 128.055 283.805 C 116.969 286.464 104.704 287.87 91.973 287.87 Z M 345.877 250.138 C 345.877 259.357 337.756 268.705 323.594 275.786 C 308.012 283.579 287.174 287.87 264.916 287.87 C 252.186 287.87 239.92 286.464 228.836 283.805 C 235.075 279.702 240.787 274.863 245.85 269.408 C 251.985 270.069 258.36 270.417 264.916 270.417 C 300.324 270.417 330.463 260.324 345.877 245.152 L 345.877 250.138 Z M 345.877 221.677 C 345.877 230.896 337.756 240.245 323.594 247.326 C 308.012 255.118 287.174 259.41 264.916 259.41 C 261.284 259.41 257.69 259.294 254.15 259.068 C 257.943 253.58 261.156 247.663 263.698 241.403 C 264.104 241.405 264.509 241.411 264.916 241.411 C 300.324 241.411 330.463 231.318 345.877 216.146 L 345.877 221.677 Z M 345.877 192.671 C 345.877 201.891 337.756 211.239 323.594 218.321 C 308.588 225.825 288.705 230.081 267.377 230.385 C 268.869 224.739 269.834 218.882 270.221 212.87 C 303.319 211.918 331.239 202.093 345.877 187.684 L 345.877 192.671 Z M 345.877 164.211 C 345.877 173.43 337.756 182.778 323.594 189.86 C 309.272 197.022 290.504 201.224 270.28 201.857 C 269.946 195.701 269.007 189.703 267.514 183.924 C 301.794 183.444 330.841 173.479 345.877 158.68 L 345.877 164.211 Z M 345.877 135.206 C 345.877 144.425 337.756 153.773 323.594 160.855 C 308.012 168.647 287.174 172.939 264.916 172.939 C 264.582 172.939 264.249 172.934 263.915 172.932 C 261.408 166.646 258.227 160.701 254.46 155.183 C 257.887 155.379 261.374 155.484 264.916 155.484 C 300.324 155.484 330.463 145.392 345.877 130.22 L 345.877 135.206 Z"/><path d=" M 214.779 231.565 C 214.779 227.916 213.994 224.416 212.559 221.174 C 208.387 211.754 198.708 204.532 186.784 202.195 C 185.85 202.012 184.907 201.851 183.946 201.729 L 183.946 192.669 L 183.946 187.683 L 183.946 164.209 L 183.946 163.524 C 195.274 165.43 203.772 173.09 203.772 182.229 C 203.772 185.268 206.236 187.732 209.275 187.732 C 212.314 187.732 214.778 185.268 214.778 182.229 C 214.778 180.102 214.508 178.026 214.001 176.021 C 210.915 163.815 198.921 154.299 183.946 152.403 L 183.946 145.229 C 183.946 142.19 181.483 139.726 178.444 139.726 C 176.662 139.726 175.083 140.577 174.077 141.89 C 173.998 141.993 173.921 142.096 173.848 142.203 C 173.276 143.072 172.94 144.11 172.94 145.228 L 172.94 152.402 C 171.625 152.568 170.334 152.798 169.067 153.08 C 153.563 156.522 142.11 168.283 142.11 182.228 C 142.11 185.907 142.91 189.432 144.369 192.695 C 145.889 196.091 148.13 199.197 150.93 201.892 C 154.403 205.235 158.74 207.939 163.654 209.765 C 166.569 210.848 169.682 211.628 172.941 212.041 L 172.941 216.142 L 172.941 221.673 L 172.941 245.148 L 172.941 249.253 L 172.941 250.134 L 172.941 250.253 C 172.941 250.253 172.939 250.253 172.938 250.253 C 171.366 249.987 169.847 249.614 168.4 249.14 C 164.312 247.798 160.778 245.668 158.142 243 C 154.987 239.806 153.117 235.846 153.117 231.561 C 153.117 230.848 152.976 230.168 152.729 229.543 C 151.923 227.503 149.939 226.058 147.613 226.058 C 144.574 226.058 142.111 228.522 142.111 231.561 C 142.111 232.288 142.152 233.004 142.214 233.718 C 142.679 239.141 144.867 244.173 148.342 248.431 C 150.807 251.451 153.918 254.076 157.502 256.182 C 161.053 258.269 165.066 259.848 169.397 260.772 C 170.557 261.02 171.741 261.221 172.942 261.374 L 172.942 268.563 C 172.942 269.957 173.464 271.225 174.318 272.195 C 175.327 273.34 176.799 274.066 178.446 274.066 C 180.092 274.066 181.565 273.339 182.573 272.195 C 183.427 271.225 183.948 269.957 183.948 268.563 L 183.948 261.374 C 185.151 261.222 186.333 261.021 187.494 260.772 C 191.824 259.848 195.839 258.269 199.39 256.182 C 202.974 254.076 206.085 251.452 208.549 248.432 C 212.024 244.174 214.212 239.141 214.677 233.719 C 214.737 233.01 214.779 232.292 214.779 231.565 Z M 171.003 200.54 C 167.434 199.708 164.199 198.296 161.492 196.448 C 158.162 194.175 155.632 191.246 154.262 187.932 C 153.517 186.13 153.117 184.215 153.117 182.231 C 153.117 173.098 161.605 165.442 172.924 163.529 C 172.93 163.528 172.936 163.526 172.942 163.526 L 172.942 164.211 L 172.942 187.685 L 172.942 192.671 L 172.942 200.924 C 172.286 200.814 171.639 200.689 171.003 200.54 Z M 203.773 231.565 C 203.773 235.849 201.902 239.809 198.748 243.004 C 196.111 245.672 192.578 247.803 188.49 249.144 C 187.041 249.619 185.523 249.993 183.951 250.257 C 183.95 250.257 183.949 250.257 183.947 250.257 L 183.947 250.138 L 183.947 249.257 L 183.947 245.152 L 183.947 221.677 L 183.947 216.146 L 183.947 212.852 C 194.316 214.599 202.306 221.167 203.587 229.279 C 203.705 230.029 203.773 230.791 203.773 231.565 Z"/></g><g></g><g></g><g></g><g></g><g></g><g></g><g></g><g></g><g></g><g></g><g></g><g></g><g></g><g></g><g></g></svg>