<?xml version="1.0" encoding="iso-8859-1"?>
<!-- Generator: Adobe Illustrator 19.0.0, SVG Export Plug-In . SVG Version: 6.00 Build 0)  -->
<svg version="1.1" id="Layer_1" xmlns="http://www.w3.org/2000/svg" xmlns:xlink="http://www.w3.org/1999/xlink" x="0px" y="0px"
	 viewBox="0 0 511.996 511.996" style="enable-background:new 0 0 511.996 511.996;" xml:space="preserve">
<g>
	<g>
		<g>
			<path d="M162.131,51.196c-32.939,0-59.733,26.795-59.733,59.733s26.795,59.733,59.733,59.733
				c32.939,0,59.733-26.795,59.733-59.733S195.07,51.196,162.131,51.196z M162.131,153.596c-23.526,0-42.667-19.14-42.667-42.667
				c0-23.526,19.14-42.667,42.667-42.667c23.526,0,42.667,19.14,42.667,42.667C204.798,134.456,185.658,153.596,162.131,153.596z"/>
			<path d="M51.232,120.478c0.196,2.278,1.306,4.378,3.063,5.828c4.685,3.874,6.135,10.419,3.524,15.932
				c-0.981,2.065-1.092,4.429-0.307,6.579c0.785,2.142,2.398,3.891,4.471,4.838c4.011,1.835,6.835,5.53,7.569,9.882
				c0.691,4.173,4.309,7.125,8.405,7.125c0.461,0,0.939-0.034,1.417-0.111c4.651-0.777,7.782-5.171,7.014-9.822
				c-1.237-7.373-5.103-13.918-10.752-18.517c1.562-8.192-0.316-16.674-5.188-23.424c3.635-7.501,4.011-16.188,1.05-23.97
				c5.444-6.306,8.064-14.601,7.219-22.878c6.895-4.685,11.571-12.023,12.902-20.233c7.868-2.748,14.285-8.619,17.69-16.205
				c8.311-0.614,16.026-4.625,21.282-11.076c8.183,1.57,16.674-0.316,23.424-5.188c7.509,3.627,16.196,4.002,23.962,1.05
				c6.315,5.453,14.575,8.073,22.886,7.228c4.685,6.895,12.015,11.563,20.232,12.894c2.739,7.876,8.61,14.285,16.196,17.698
				c0.606,8.303,4.625,16.017,11.076,21.274c-1.562,8.183,0.316,16.666,5.188,23.424c-3.627,7.501-4.011,16.188-1.05,23.962
				c-5.453,6.315-8.064,14.601-7.219,22.886c-2.97,2.014-5.564,4.557-7.671,7.526c-2.731,3.84-1.826,9.173,2.014,11.895
				c3.849,2.722,9.165,1.826,11.904-2.014c1.579-2.236,3.789-3.908,6.391-4.838c2.15-0.768,3.9-2.372,4.855-4.437
				c0.964-2.065,1.05-4.437,0.256-6.579c-2.125-5.683-0.102-12.083,4.915-15.556c1.886-1.297,3.157-3.294,3.55-5.538
				c0.401-2.253-0.128-4.565-1.451-6.426c-3.516-4.949-3.217-11.657,0.725-16.307c1.476-1.732,2.193-3.994,1.997-6.263
				c-0.205-2.278-1.306-4.378-3.063-5.828c-4.685-3.874-6.127-10.428-3.524-15.932c0.981-2.065,1.092-4.429,0.307-6.579
				c-0.776-2.142-2.389-3.883-4.463-4.838c-5.53-2.526-8.627-8.482-7.526-14.473c0.41-2.253-0.102-4.565-1.408-6.434
				c-1.314-1.877-3.319-3.14-5.572-3.516c-5.982-1.007-10.513-5.965-11.016-12.058c-0.188-2.27-1.28-4.378-3.029-5.845
				c-1.749-1.459-4.053-2.167-6.281-1.946c-6.11,0.58-11.708-3.038-13.764-8.789c-0.768-2.142-2.372-3.891-4.437-4.855
				c-2.065-0.964-4.437-1.05-6.571-0.256c-5.692,2.116-12.092,0.085-15.573-4.932c-1.297-1.869-3.294-3.149-5.538-3.541
				c-2.236-0.41-4.565,0.128-6.417,1.451c-4.958,3.516-11.656,3.208-16.307-0.725c-1.749-1.476-4.028-2.176-6.272-1.988
				c-2.278,0.196-4.369,1.306-5.82,3.063c-3.874,4.676-10.428,6.127-15.94,3.516c-2.048-0.964-4.42-1.084-6.579-0.299
				c-2.142,0.785-3.883,2.389-4.83,4.463c-2.526,5.521-8.457,8.61-14.49,7.526c-2.236-0.401-4.557,0.102-6.426,1.417
				c-1.869,1.306-3.132,3.311-3.507,5.555c-1.015,5.99-5.965,10.522-12.049,11.016c-2.278,0.188-4.378,1.28-5.845,3.029
				c-1.459,1.749-2.167,4.011-1.954,6.281c0.58,6.05-3.038,11.708-8.781,13.773c-2.15,0.759-3.9,2.364-4.864,4.429
				c-0.964,2.074-1.058,4.437-0.256,6.579c2.116,5.692,0.085,12.092-4.924,15.565c-1.877,1.297-3.157,3.294-3.55,5.538
				c-0.401,2.253,0.128,4.565,1.451,6.426c3.516,4.949,3.226,11.648-0.725,16.299C51.744,115.947,51.027,118.208,51.232,120.478z"/>
			<path d="M319.998,469.329c0,4.71,3.823,8.533,8.533,8.533h106.667c4.71,0,8.533-3.823,8.533-8.533
				c0-4.71-3.823-8.533-8.533-8.533H328.531C323.821,460.796,319.998,464.619,319.998,469.329z"/>
			<path d="M477.865,462.255V271.603c9.933-3.524,17.067-13.013,17.067-24.141c0-14.114-11.486-25.6-25.6-25.6h-140.8
				c-4.71,0-8.533,3.823-8.533,8.533s3.823,8.533,8.533,8.533h140.8c4.702,0,8.533,3.831,8.533,8.533s-3.831,8.533-8.533,8.533
				c-4.71,0-8.533,3.823-8.533,8.533v204.8c0,4.71,3.823,8.533,8.533,8.533c4.702,0,8.533,3.831,8.533,8.533
				c0,4.702-3.831,8.533-8.533,8.533h-140.8c-4.71,0-8.533,3.823-8.533,8.533s3.823,8.533,8.533,8.533h140.8
				c14.114,0,25.6-11.486,25.6-25.6C494.931,475.268,487.797,465.779,477.865,462.255z"/>
			<path d="M443.731,264.529c0-4.71-3.823-8.533-8.533-8.533H315.731c-4.71,0-8.533,3.823-8.533,8.533s3.823,8.533,8.533,8.533
				h119.467C439.908,273.062,443.731,269.24,443.731,264.529z"/>
			<path d="M290.131,462.255V237.47c9.933-3.524,17.067-13.013,17.067-24.141c0-14.114-11.486-25.6-25.6-25.6H42.665
				c-14.114,0-25.6,11.486-25.6,25.6c0,11.11,7.151,20.489,17.067,24.021v225.016c-9.916,3.541-17.067,12.919-17.067,24.03
				c0,14.114,11.486,25.6,25.6,25.6h238.933c14.114,0,25.6-11.486,25.6-25.6C307.198,475.268,300.064,465.779,290.131,462.255z
				 M281.598,494.929H42.665c-4.702,0-8.533-3.831-8.533-8.533c0-4.702,3.831-8.533,8.533-8.533h204.8
				c4.71,0,8.533-3.823,8.533-8.533c0-4.71-3.823-8.533-8.533-8.533H51.198V238.929h196.267c4.71,0,8.533-3.823,8.533-8.533
				s-3.823-8.533-8.533-8.533h-204.8c-4.702,0-8.533-3.831-8.533-8.533c0-4.702,3.831-8.533,8.533-8.533h238.933
				c4.702,0,8.533,3.831,8.533,8.533c0,4.702-3.831,8.533-8.533,8.533c-4.71,0-8.533,3.823-8.533,8.533v238.933
				c0,4.71,3.823,8.533,8.533,8.533c4.702,0,8.533,3.831,8.533,8.533C290.131,491.098,286.3,494.929,281.598,494.929z"/>
			<path d="M247.465,324.262c-14.114,0-25.6-11.486-25.6-25.6c0-4.71-3.823-8.533-8.533-8.533h-102.4
				c-4.71,0-8.533,3.823-8.533,8.533c0,14.114-11.486,25.6-25.6,25.6c-4.71,0-8.533,3.823-8.533,8.533v34.133
				c0,4.71,3.823,8.533,8.533,8.533c14.114,0,25.6,11.486,25.6,25.6c0,4.71,3.823,8.533,8.533,8.533h102.4
				c4.71,0,8.533-3.823,8.533-8.533c0-14.114,11.486-25.6,25.6-25.6c4.71,0,8.533-3.823,8.533-8.533v-34.133
				C255.998,328.085,252.175,324.262,247.465,324.262z M238.931,359.258c-16.691,3.396-29.875,16.58-33.271,33.271h-87.057
				c-3.396-16.691-16.58-29.875-33.271-33.271v-18.79c16.691-3.396,29.875-16.58,33.271-33.271h87.057
				c3.396,16.691,16.58,29.875,33.271,33.271V359.258z"/>
			<path d="M375.465,418.129c28.237,0,51.2-22.963,51.2-51.2s-22.963-51.2-51.2-51.2c-28.237,0-51.2,22.963-51.2,51.2
				S347.228,418.129,375.465,418.129z M375.465,332.796c18.825,0,34.133,15.309,34.133,34.133s-15.309,34.133-34.133,34.133
				s-34.133-15.309-34.133-34.133S356.64,332.796,375.465,332.796z"/>
		</g>
	</g>
</g>
<g>
</g>
<g>
</g>
<g>
</g>
<g>
</g>
<g>
</g>
<g>
</g>
<g>
</g>
<g>
</g>
<g>
</g>
<g>
</g>
<g>
</g>
<g>
</g>
<g>
</g>
<g>
</g>
<g>
</g>
</svg>
