<?xml version="1.0" encoding="iso-8859-1"?>
<!-- Generator: Adobe Illustrator 19.2.1, SVG Export Plug-In . SVG Version: 6.00 Build 0)  -->
<svg version="1.1" id="Layer_1" xmlns="http://www.w3.org/2000/svg" xmlns:xlink="http://www.w3.org/1999/xlink" x="0px" y="0px"
	 viewBox="0 0 512 512" style="enable-background:new 0 0 512 512;" xml:space="preserve">
<g>
	<path style="fill:#83C8E6;" d="M439.651,428.522L439.651,428.522l0.001-211.479c0-11.508-2.34-22.479-6.57-32.463
		c-1.057-2.496-2.233-4.93-3.52-7.296c-7.076-13.01-17.512-23.94-30.134-31.617c-1.147-0.698-2.313-1.369-3.496-2.012
		c-5.914-3.216-12.257-5.739-18.92-7.457c-1.367-0.353-2.749-0.669-4.143-0.953V33.391h16.695c0.576,0,1.145-0.029,1.706-0.086
		c8.416-0.855,14.99-7.962,14.99-16.609c0,0,0,0,0,0s0,0,0,0c0-8.647-6.573-15.754-14.99-16.609C390.71,0.029,390.141,0,389.565,0
		h-33.391H256H155.826h-33.391c-9.217,0-16.696,7.472-16.696,16.695c0,9.223,7.479,16.696,16.696,16.696h16.695v101.854
		c-38.058,7.756-66.782,41.483-66.782,81.798v211.478l0.001,0.001H439.651z M316.368,357.027
		c-12.96,19.586-35.176,32.538-60.368,32.538c-39.891,0-72.348-32.456-72.348-72.348c0-14.358,4.206-28.245,12.163-40.152
		l46.305-69.299c3.097-4.636,8.488-6.954,13.879-6.954v-0.001c5.392,0,10.783,2.318,13.881,6.954l46.305,69.294
		c7.957,11.913,12.163,25.8,12.163,40.158C328.348,331.917,323.93,345.598,316.368,357.027z M172.522,33.391H256h83.478v100.174
		h-66.782v-33.391h16.695c6.337,0,11.852-3.532,14.68-8.737c1.286-2.366,2.016-5.077,2.016-7.959v0c0-1.153-0.117-2.278-0.339-3.365
		c-1.558-7.609-8.292-13.331-16.357-13.331h-66.783c-9.217,0-16.696,7.473-16.696,16.696c0,9.223,7.479,16.696,16.696,16.696h16.696
		v33.391h-66.782V33.391z"/>
	<line style="fill:none;" x1="281.209" y1="553.291" x2="280.316" y2="554.184"/>
</g>
<path style="fill:#41A7D3;" d="M74.243,446.172C82.365,483.752,115.85,512,155.826,512H256h100.174
	c39.976,0,73.461-28.248,81.583-65.828H74.243z"/>
</svg>
