<?xml version="1.0" encoding="utf-8"?>
<!-- Generator: Adobe Illustrator 19.2.1, SVG Export Plug-In . SVG Version: 6.00 Build 0)  -->
<svg version="1.1" id="Capa_1" xmlns="http://www.w3.org/2000/svg" xmlns:xlink="http://www.w3.org/1999/xlink" x="0px" y="0px"
	 viewBox="0 0 432.5 432.5" style="enable-background:new 0 0 432.5 432.5;" xml:space="preserve">
<style type="text/css">
	.st0{fill:#83C8E6;}
	.st1{fill:#41A7D3;}
</style>
<g>
	<path class="st0" d="M319.2,117c-43.6,0-79.1,35.5-79.1,79.1v216.4c0,11,9,20,20,20h118.2c11,0,20-9,20-20V196.1
		C398.3,152.5,362.8,117,319.2,117z"/>
	<path class="st1" d="M190.2,293.8l-4.6-127.8c-0.5-13.6-10.2-25.1-22.9-28.5l0.1-59.8c0-9.7-5.8-22.2-13.3-28.5L95.2,4
		c-3.2-2.6-6.3-4-9.4-4c-3.2,0-6.2,1.6-8,4.3c-1.5,2.3-2.3,5.3-2.3,8.9l0.1,124.3c-12.7,3.3-22.5,14.8-23,28.5L48,293.8
		c-8,2.6-13.7,10.1-13.7,19v99.8c0,11,9,20,20,20h129.6c11,0,20-9,20-20v-99.8C203.9,303.9,198.1,296.4,190.2,293.8z M72.2,292.8
		l4-111.4c0.2-6.9,6.1-12.5,12.9-12.5h59.8c6.9,0,12.7,5.6,12.9,12.5l4,111.4H72.2z"/>
</g>
</svg>
