<?xml version="1.0" encoding="utf-8"?>
<!-- Generator: Adobe Illustrator 19.2.1, SVG Export Plug-In . SVG Version: 6.00 Build 0)  -->
<svg version="1.1" id="Capa_1" xmlns="http://www.w3.org/2000/svg" xmlns:xlink="http://www.w3.org/1999/xlink" x="0px" y="0px"
	 viewBox="0 0 197.2 197.2" style="enable-background:new 0 0 197.2 197.2;" xml:space="preserve">
<style type="text/css">
	.st0{fill:#83C8E6;}
	.st1{fill:#41A7D3;}
</style>
<path class="st0" d="M133.9,197.2c-23.1-2.5-41.1-21.7-40.9-44.9c0.2-22.9,18.1-41.7,40.9-44.2V197.2z"/>
<path class="st1" d="M143.9,108.2v89c22.8-2.4,40.7-21.3,40.9-44.2C184.9,129.9,167,110.7,143.9,108.2z"/>
<path class="st0" d="M66.5,38.1l-39,26.5c-7.6,5.2-12.7,12.9-14.4,21.9s0.2,18.1,5.3,25.7l1.8,2.6c6.4,9.4,17,15,28.4,15
	c6.9,0,13.5-2.1,19.3-5.9l39-26.5L66.5,38.1z"/>
<path class="st1" d="M163.1,17.6l-1.8-2.6C155,5.6,144.4,0,133,0c-6.9,0-13.5,2.1-19.3,5.9l-39,26.5l40.4,59.3l39-26.5
	C169.7,54.6,173.8,33.3,163.1,17.6z"/>
</svg>
