<?xml version="1.0" encoding="utf-8"?>
<!-- Generator: Adobe Illustrator 19.2.1, SVG Export Plug-In . SVG Version: 6.00 Build 0)  -->
<svg version="1.1" id="Capa_1" xmlns="http://www.w3.org/2000/svg" xmlns:xlink="http://www.w3.org/1999/xlink" x="0px" y="0px"
	 viewBox="0 0 513.3 513.3" style="enable-background:new 0 0 513.3 513.3;" xml:space="preserve">
<style type="text/css">
	.st0{fill:#83C8E6;}
	.st1{fill:#41A7D3;}
</style>
<g>
	<path class="st0" d="M246.1,58.9c-109.2,0-197.7,88.5-197.7,197.7c0,109.2,88.5,197.7,197.7,197.7c10.6,0,21-0.9,31.1-2.5
		c7.9-13.2,22.2-23.8,40.3-28.3c4.8-1.2,9.6-1.9,14.4-2.1V237.3l108.5-17.6C423.1,128.2,342.7,58.9,246.1,58.9z M282.5,75
		l-21.2,92.8h-21.2L225,75C247.2,63.9,282.5,75,282.5,75z M246.1,330c-40.5,0-73.4-32.9-73.4-73.4c0-40.5,32.9-73.4,73.4-73.4
		c40.5,0,73.4,32.9,73.4,73.4C319.5,297.2,286.7,330,246.1,330z"/>
	<path class="st1" d="M246.1,200.7c-30.9,0-56,25.1-56,56c0,30.9,25.1,56,56,56c30.9,0,56-25.1,56-56
		C302.1,225.8,277,200.7,246.1,200.7z M246.1,296.6c-22,0-40-17.9-40-40c0-22,17.9-40,40-40c22,0,40,17.9,40,40
		C286.1,278.7,268.2,296.6,246.1,296.6z"/>
	<path class="st1" d="M271.5,486c1,5.3,3.1,10.2,6.1,14.7c-10.3,1.3-20.8,2.1-31.4,2.1C110.4,502.8,0,392.3,0,256.6
		C0,120.9,110.4,10.5,246.1,10.5c120.5,0,220.9,87,242,201.5l-23.9,3.9c-19.2-103-109.7-181.2-218.1-181.2
		c-122.4,0-221.9,99.6-221.9,221.9c0,122.4,99.6,221.9,221.9,221.9c8.2,0,16.3-0.5,24.2-1.3C270.5,480.1,270.8,483.1,271.5,486z"/>
	<path class="st1" d="M513.3,225.3v213.4c0,17.7-13.2,31.8-33.7,37c-22.6,5.6-44.3-3.9-48.7-21.1c-4.3-17.3,10.5-35.9,33-41.5
		c10.2-2.5,20.2-2,28.6,1V285.3l-115.4,21.1l-0.5,159.9h0c-0.1,15.1-13.8,30-33.4,34.9c-22.3,5.6-45.6-5-48.1-20.9
		c-4.3-17.1,10.3-35.5,32.7-41.1c10.1-2.5,19.9-2,28.1,0.9V250.8L513.3,225.3z"/>
</g>
</svg>
