<?xml version="1.0" encoding="utf-8"?>
<!-- Generator: Adobe Illustrator 19.2.1, SVG Export Plug-In . SVG Version: 6.00 Build 0)  -->
<svg version="1.1" id="Capa_1" xmlns="http://www.w3.org/2000/svg" xmlns:xlink="http://www.w3.org/1999/xlink" x="0px" y="0px"
	 viewBox="0 0 903.1 903.1" style="enable-background:new 0 0 903.1 903.1;" xml:space="preserve">
<style type="text/css">
	.st0{fill:#41A7D3;}
</style>
<g>
	<path class="st0" d="M349.3,809.3c20.5,0.7,113.2,1.4,221.1-36.3c70.8-24.8,133.7-61,186.9-107.8
		c61.7-54.3,110.2-122.6,144.3-203.3c4.4-10.4-0.7-22.4-11.2-26.5L855.5,422c-10-3.9-21.4,0.9-25.6,10.8
		c-29.5,69.5-71.1,128.1-123.7,174.4c-14.3,12.6-29.5,24.3-45.5,35.2c34.9-55.2,55-120.6,55-190.8c0-197-159.2-356.9-356-357.9
		C162.2,92.6,0.3,253.3,0,450.9C-0.3,646,155.4,804.7,349.3,809.3z M557.5,363.5c48.6,0,88,39.4,88,88s-39.4,88-88,88
		c-48.6,0-88-39.4-88-88S508.9,363.5,557.5,363.5z M357.9,163.8c48.6,0,88,39.4,88,88s-39.4,88-88,88s-88-39.4-88-88
		S309.2,163.8,357.9,163.8z M357.9,563.1c48.6,0,88,39.4,88,88s-39.4,88-88,88s-88-39.4-88-88C269.8,602.5,309.2,563.1,357.9,563.1z
		 M70.2,451.5c0-48.6,39.4-88,88-88s88,39.4,88,88s-39.4,88-88,88S70.2,500.1,70.2,451.5z"/>
</g>
</svg>
