<?xml version="1.0" encoding="utf-8"?>
<!-- Generator: Adobe Illustrator 19.2.1, SVG Export Plug-In . SVG Version: 6.00 Build 0)  -->
<svg version="1.1" id="Layer_1" xmlns="http://www.w3.org/2000/svg" xmlns:xlink="http://www.w3.org/1999/xlink" x="0px" y="0px"
	 viewBox="0 0 512 512" style="enable-background:new 0 0 512 512;" xml:space="preserve">
<style type="text/css">
	.st0{fill:#83C8E6;}
	.st1{fill:#41A7D3;}
</style>
<path class="st0" d="M434.2,410.3c10.1-49.3,15.2-103.4,15-157.9c-0.2-52.2-5.4-103.8-15-150.8H77.8c-10.1,49.3-15.2,103.4-15,157.9
	c0.2,52.2,5.4,103.8,15,150.8L434.2,410.3L434.2,410.3z M256,360.5c-41.2,0-76.9-12.4-76.9-53.1c0-37.9,34.5-68.7,76.9-68.7
	s76.9,30.8,76.9,68.7C332.9,348.1,297.2,360.5,256,360.5z M336.3,177c23-4,44.8,11.4,48.7,34.4c4.4,25.7-15.3,49.3-41.6,49.3
	c-20,0-38-14.2-41.5-35C297.9,202.7,313.3,180.9,336.3,177z M256,149.1c23.3,0,42.2,18.9,42.2,42.2s-18.9,42.2-42.2,42.2
	s-42.2-18.9-42.2-42.2S232.7,149.1,256,149.1z M168.5,176.4c23.3,0,42.2,18.9,42.2,42.2c0,23.3-18.9,42.2-42.2,42.2
	s-42.2-18.9-42.2-42.2C126.3,195.3,145.3,176.4,168.5,176.4z"/>
<path class="st1" d="M77.5,66h357.1L445,22c2.7-11.2-5.9-22-17.4-22H84.4C72.8,0,64.3,10.8,67,22L77.5,66z"/>
<path class="st1" d="M434.5,446H77.5L67,490c-2.7,11.2,5.9,22,17.4,22h343.2c11.5,0,20-10.8,17.4-22L434.5,446z"/>
</svg>
