<?xml version="1.0" encoding="iso-8859-1"?>
<!-- Generator: Adobe Illustrator 19.2.1, SVG Export Plug-In . SVG Version: 6.00 Build 0)  -->
<svg version="1.1" id="Capa_1" xmlns="http://www.w3.org/2000/svg" xmlns:xlink="http://www.w3.org/1999/xlink" x="0px" y="0px"
	 viewBox="-49 141 512 512" style="enable-background:new -49 141 512 512;" xml:space="preserve">
<path style="fill:#41A7D3;" d="M292.248,318.973c4.839,1.82,8.935,5.198,11.644,9.602c2.018,3.042,6.12,3.872,9.162,1.854
	c0.736-0.488,1.366-1.119,1.854-1.854c6.671-11.079,21.061-14.653,32.141-7.982c1.395,0.84,2.699,1.824,3.891,2.935l9.66-11.573
	v-51.488c-0.02-18.843-15.29-34.113-34.133-34.133h-34.133c-18.843,0.02-34.113,15.29-34.133,34.133v0.826
	C278.988,273.107,291.949,295.064,292.248,318.973z"/>
<path style="fill:#41A7D3;" d="M326.467,175.133H335v-8.513c0-4.711-3.818-8.531-8.529-8.533l-34.133-0.017
	c-4.713-0.002-8.535,3.816-8.538,8.529c0,0.001,0,0.003,0,0.004v8.53H326.467z"/>
<path style="fill:#41A7D3;" d="M150.292,328.575c1.416,2.144,3.988,3.219,6.508,2.719c-3.534-20.164,2.389-40.835,16.067-56.067
	V217.8c0-14.138-11.462-25.6-25.6-25.6s-25.6,11.462-25.6,25.6v101.208C132.256,314.536,144.519,318.635,150.292,328.575
	L150.292,328.575z M132.7,245.9l8.533-8.533c3.362-3.302,8.764-3.253,12.066,0.109c3.26,3.319,3.26,8.638,0,11.957l-8.533,8.533
	c-3.362,3.302-8.764,3.253-12.066-0.109C129.44,254.538,129.44,249.219,132.7,245.9z M132.7,280.034l8.533-8.533
	c3.362-3.302,8.764-3.254,12.066,0.108c3.26,3.319,3.26,8.639,0,11.958l-8.533,8.533c-3.362,3.302-8.764,3.254-12.066-0.108
	C129.44,288.672,129.44,283.353,132.7,280.034z"/>
<path style="fill:#41A7D3;" d="M317.933,209.267v-8.533c0-4.713-3.82-8.533-8.533-8.533l0,0c-4.713,0-8.533,3.821-8.533,8.533v8.533
	H317.933z"/>
<path style="fill:#83C8E6;" d="M356.992,342.904c-0.764,0.578-1.493,1.202-2.183,1.867c-0.079,0.047-0.169,0.043-0.248,0.087
	c-0.567,0.275-1.164,0.484-1.779,0.623c-1.974,0.801-4.213,0.607-6.019-0.523c-0.547-0.225-1.068-0.507-1.554-0.843
	c-0.072-0.057-0.162-0.068-0.233-0.127c-0.577-0.765-1.2-1.495-1.867-2.183l-2.642-4.437c-1.851-3.02-5.801-3.968-8.821-2.117
	c-0.874,0.536-1.607,1.273-2.137,2.15c-6.66,11.105-21.061,14.709-32.166,8.049c-3.295-1.976-6.054-4.731-8.034-8.024
	c-2.018-3.042-6.12-3.872-9.162-1.854c-0.736,0.488-1.366,1.119-1.854,1.854c-6.673,11.096-21.078,14.682-32.174,8.01
	c-3.284-1.975-6.035-4.725-8.01-8.01c-2.018-3.042-6.12-3.872-9.162-1.854c-0.736,0.488-1.366,1.119-1.854,1.854
	c-6.673,11.096-21.077,14.682-32.174,8.01c-3.284-1.975-6.035-4.725-8.01-8.01c-2.018-3.042-6.12-3.872-9.162-1.854
	c-0.736,0.488-1.366,1.119-1.854,1.854c-6.673,11.096-21.078,14.682-32.174,8.01c-3.284-1.975-6.035-4.725-8.01-8.01
	c-2.018-3.042-6.12-3.872-9.162-1.854c-0.736,0.488-1.366,1.119-1.854,1.854c-1.426,2.261-3.226,4.263-5.323,5.921
	c-0.627,0.649-1.353,1.193-2.152,1.613c-10.69,7.049-25.071,4.097-32.12-6.594c-0.204-0.309-0.4-0.622-0.588-0.94
	c-2.018-3.042-6.12-3.872-9.162-1.854c-0.736,0.488-1.366,1.119-1.854,1.854l-2.6,4.379c-0.293,0.388-0.621,0.748-0.979,1.077
	c-0.263,0.394-0.56,0.764-0.887,1.106c-0.071,0.06-0.161,0.07-0.233,0.127c-0.486,0.336-1.007,0.618-1.554,0.843
	c-0.454,0.268-0.932,0.492-1.427,0.672c-0.481,0.091-0.968,0.141-1.457,0.148c-0.584,0.095-1.177,0.129-1.768,0.101
	c-0.466-0.094-0.923-0.227-1.367-0.397c-0.615-0.139-1.212-0.348-1.779-0.623c-0.079-0.044-0.169-0.04-0.248-0.087
	c-0.392-0.295-0.757-0.625-1.089-0.987c-0.39-0.261-0.756-0.555-1.095-0.88l-20.675-24.767v262.771
	c0.005,5.987,2.104,11.785,5.933,16.388l19.408,23.287c8.096,9.74,20.11,15.367,32.775,15.35h225.1
	c12.665,0.017,24.679-5.61,32.775-15.35l19.408-23.287c3.829-4.603,5.928-10.4,5.933-16.388V318.138L356.992,342.904z M70.467,576.2
	c0,4.713-3.821,8.533-8.533,8.533s-8.533-3.82-8.533-8.533V388.467c0-4.713,3.82-8.533,8.533-8.533s8.533,3.82,8.533,8.533V576.2z
	 M360.6,576.2c0,4.713-3.821,8.533-8.533,8.533s-8.533-3.82-8.533-8.533V388.467c0-4.713,3.82-8.533,8.533-8.533
	s8.533,3.82,8.533,8.533V576.2z"/>
<path style="fill:#41A7D3;" d="M201.492,328.575c2.018,3.042,6.12,3.872,9.162,1.854c0.736-0.488,1.366-1.119,1.854-1.854
	c6.673-11.096,21.077-14.682,32.174-8.01c3.284,1.975,6.035,4.725,8.01,8.01c2.018,3.042,6.12,3.872,9.162,1.854
	c0.736-0.488,1.366-1.119,1.854-1.854c2.677-4.35,6.71-7.699,11.477-9.533c-0.299-19.36-11.62-36.853-29.16-45.054
	c-19.758-9.122-43.107-4.962-58.5,10.421c-9.113,9.232-14.338,21.607-14.6,34.576C183.504,314.55,195.731,318.655,201.492,328.575
	L201.492,328.575z"/>
<path style="fill:#41A7D3;" d="M79,317.212c8.232-0.02,15.866,4.298,20.092,11.362c1.192,1.882,3.281,3.003,5.508,2.956V183.667
	c0-14.138-11.462-25.6-25.6-25.6s-25.6,11.462-25.6,25.6v128.288l9.669,11.582C67.378,319.474,73.077,317.211,79,317.212z
	 M64.434,211.767l8.533-8.533c3.362-3.302,8.764-3.253,12.066,0.11c3.259,3.319,3.259,8.637,0,11.956l-8.533,8.533
	c-3.362,3.302-8.764,3.253-12.066-0.11C61.174,220.404,61.174,215.086,64.434,211.767z M64.434,245.9l8.533-8.533
	c3.362-3.302,8.764-3.253,12.066,0.11c3.259,3.319,3.259,8.637,0,11.956l-8.533,8.533c-3.362,3.302-8.764,3.253-12.066-0.11
	C61.174,254.538,61.174,249.219,64.434,245.9z M64.434,280.034l8.533-8.533c3.362-3.302,8.764-3.253,12.066,0.109
	c3.26,3.319,3.26,8.638,0,11.957L76.5,292.1c-3.362,3.302-8.764,3.253-12.066-0.109C61.174,288.672,61.174,283.353,64.434,280.034z"
	/>
</svg>
