<?xml version="1.0" encoding="utf-8"?>
<!-- Generator: Adobe Illustrator 19.2.1, SVG Export Plug-In . SVG Version: 6.00 Build 0)  -->
<svg version="1.1" id="Capa_1" xmlns="http://www.w3.org/2000/svg" xmlns:xlink="http://www.w3.org/1999/xlink" x="0px" y="0px"
	 viewBox="0 0 297.1 297.1" style="enable-background:new 0 0 297.1 297.1;" xml:space="preserve">
<style type="text/css">
	.st0{fill:#41A7D3;}
	.st1{fill:#83C8E6;}
</style>
<g>
	<path class="st0" d="M290.4,29.9l-7.1-17.2c-2.8-6.7-9.3-11.1-16.6-11.1H30.4c-7.3,0-13.8,4.4-16.6,11.1L6.7,29.9L2.2,40.8
		c-5.9,14.3,0.5,31,14.7,37c3.6,1.5,7.6,2.4,11.8,2.4c15.4,0,28-11.5,30-26.3c1.9,14.8,14.6,26.3,30,26.3s28-11.5,30-26.3
		c1.9,14.8,14.6,26.3,30,26.3s28-11.5,30-26.3c1.9,14.8,14.6,26.3,30,26.3s28-11.5,30-26.3c1.9,14.8,14.6,26.3,30,26.3
		c3.7,0,7.3-0.7,10.6-1.9c14.9-5.6,21.9-22.7,15.8-37.5L290.4,29.9z"/>
	<path class="st1" d="M244.9,159.5h-6.4V90.3c0,0-0.1,0-0.1-0.1c-8.4,6.3-18.8,9.9-29.9,10v59.3h-120v-59.3
		c-11.1,0-21.5-3.7-29.9-10c0,0-0.1,0-0.1,0.1v69.2h-6.4c-11.2,0-20.2,9.1-20.2,20.2v49.4c0,11.2,9.1,20.2,20.2,20.2h6.4v31.1
		c0,8.3,6.7,15,15,15s15-6.7,15-15v-31.1h38.4c0-35.1,28.5-63.6,63.6-63.6c34.3,0,62.4,27.3,63.5,61.4c6.6-3.3,11.1-10.2,11.1-18
		v-49.4C265.2,168.6,256.1,159.5,244.9,159.5z"/>
	<path class="st0" d="M190.5,203.3c-25.4,0-46.1,20.7-46.1,46.1c0,25.4,20.7,46.1,46.1,46.1s46.1-20.7,46.1-46.1
		C236.6,223.9,216,203.3,190.5,203.3z M190.5,265.5c-8.9,0-16.1-7.2-16.1-16.1c0-8.9,7.2-16.1,16.1-16.1s16.1,7.2,16.1,16.1
		C206.6,258.2,199.4,265.5,190.5,265.5z"/>
</g>
</svg>
