<?xml version="1.0" encoding="iso-8859-1"?>
<!-- Generator: Adobe Illustrator 19.2.1, SVG Export Plug-In . SVG Version: 6.00 Build 0)  -->
<svg version="1.1" id="Capa_1" xmlns="http://www.w3.org/2000/svg" xmlns:xlink="http://www.w3.org/1999/xlink" x="0px" y="0px"
	 viewBox="0 0 296 296" style="enable-background:new 0 0 296 296;" xml:space="preserve">
<g>
	<path style="fill:#41A7D3;" d="M115.758,195.78c8.949-9.354,13.754-22.137,13.182-35.071l-3.144-71.04
		c-0.177-4.01-3.479-7.169-7.492-7.169H43.815c-4.014,0-7.316,3.159-7.492,7.168L33.2,160.221
		c-0.578,13.06,4.273,25.968,13.311,35.415c7.238,7.566,16.815,12.538,27.059,14.222V276h-18c-5.522,0-10,4.478-10,10
		s4.478,10,10,10h51c5.522,0,10-4.478,10-10s-4.478-10-10-10h-18v-66.065C98.861,208.331,108.496,203.369,115.758,195.78z
		 M64.28,137l-0.999,22.577c-0.174,3.944,1.292,7.844,4.021,10.696c2.863,2.993,2.759,7.741-0.233,10.604
		c-1.453,1.391-3.32,2.081-5.185,2.081c-1.975,0-3.946-0.775-5.42-2.314c-5.545-5.796-8.522-13.716-8.169-21.73L50.99,97.5h60.138
		l1.748,39.5H64.28z"/>
	<path style="fill:#83C8E6;" d="M228.947,89h-2.194V30h0.725c3.338,0,6.043-2.705,6.043-6.043V6.043
		c0-3.338-2.705-6.043-6.043-6.043h-38.265c-3.337,0-6.043,2.705-6.043,6.043v17.914c0,3.338,2.706,6.043,6.043,6.043h0.727v59
		h-2.194c-18.722,0-33.899,15.178-33.899,33.899v155.976c0,9.458,7.667,17.125,17.125,17.125h74.75
		c9.458,0,17.125-7.667,17.125-17.125V122.899C262.846,104.178,247.668,89,228.947,89z M241.846,235.957
		c0,3.338-2.706,6.043-6.043,6.043h-54.914c-3.337,0-6.043-2.705-6.043-6.043v-83.914c0-3.338,2.706-6.043,6.043-6.043h54.914
		c3.337,0,6.043,2.705,6.043,6.043V235.957z"/>
</g>
</svg>
