<?xml version="1.0" encoding="utf-8"?>
<!-- Generator: Adobe Illustrator 19.2.1, SVG Export Plug-In . SVG Version: 6.00 Build 0)  -->
<svg version="1.1" id="Layer_1" xmlns="http://www.w3.org/2000/svg" xmlns:xlink="http://www.w3.org/1999/xlink" x="0px" y="0px"
	 viewBox="0 0 512 512" style="enable-background:new 0 0 512 512;" xml:space="preserve">
<style type="text/css">
	.st0{fill:#41A7D3;}
	.st1{fill:#83C8E6;}
</style>
<g>
	<g>
		<path class="st0" d="M29.2,66.2h100.4c6.4,0,11.6-5.2,11.6-11.6V38.1c0-16.1-11.4-29.5-26.5-32.8v25.7c0,4.9-4,8.8-8.8,8.8
			s-8.8-4-8.8-8.8V4.4h-8.8v26.5c0,4.9-4,8.8-8.8,8.8s-8.8-4-8.8-8.8V4.4h-8.8v26.5c0,4.9-4,8.8-8.8,8.8s-8.8-4-8.8-8.8V5.2
			C29,8.5,17.7,22,17.7,38.1v16.6C17.7,61,22.8,66.2,29.2,66.2z"/>
		<rect y="260.4" class="st0" width="70.6" height="105.9"/>
		<path class="st1" d="M136.3,164.2c-7.9-3.9-12.7-11.9-12.7-20.7V83.9H35.3v59.7c0,8.8-4.9,16.7-12.8,20.7
			C8.6,171.2,0,185.2,0,200.7v42.1h79.4c4.9,0,8.8,4,8.8,8.8v123.6c0,4.9-4,8.8-8.8,8.8H0v97.1c0,14.6,11.9,26.5,26.5,26.5h105.9
			c14.6,0,26.5-11.9,26.5-26.5V200.7C158.9,185.2,150.3,171.2,136.3,164.2z"/>
		<path class="st0" d="M205.8,66.2h100.4c6.4,0,11.6-5.2,11.6-11.6V38.1c0-16.1-11.4-29.5-26.5-32.8v25.7c0,4.9-4,8.8-8.8,8.8
			c-4.9,0-8.8-4-8.8-8.8V4.4h-8.8v26.5c0,4.9-4,8.8-8.8,8.8s-8.8-4-8.8-8.8V4.4h-8.8v26.5c0,4.9-4,8.8-8.8,8.8s-8.8-4-8.8-8.8V5.2
			c-15.1,3.3-26.5,16.7-26.5,32.8v16.6C194.2,61,199.4,66.2,205.8,66.2z"/>
		<rect x="176.6" y="260.4" class="st0" width="70.6" height="105.9"/>
		<path class="st1" d="M312.9,164.2c-7.9-3.9-12.7-11.9-12.7-20.7V83.9h-88.3v59.7c0,8.8-4.9,16.7-12.8,20.7
			c-13.9,7-22.5,20.9-22.5,36.4v42.1H256c4.9,0,8.8,4,8.8,8.8v123.6c0,4.9-4,8.8-8.8,8.8h-79.4v97.1c0,14.6,11.9,26.5,26.5,26.5H309
			c14.6,0,26.5-11.9,26.5-26.5V200.7C335.4,185.2,326.8,171.2,312.9,164.2z"/>
		<path class="st0" d="M382.3,66.2h100.4c6.4,0,11.6-5.2,11.6-11.6V38.1c0-16.1-11.4-29.5-26.5-32.8v25.7c0,4.9-4,8.8-8.8,8.8
			s-8.8-4-8.8-8.8V4.4h-8.8v26.5c0,4.9-4,8.8-8.8,8.8c-4.9,0-8.8-4-8.8-8.8V4.4h-8.8v26.5c0,4.9-4,8.8-8.8,8.8s-8.8-4-8.8-8.8V5.2
			c-15.1,3.3-26.5,16.7-26.5,32.8v16.6C370.8,61,375.9,66.2,382.3,66.2z"/>
		<rect x="353.1" y="260.4" class="st0" width="70.6" height="105.9"/>
		<path class="st1" d="M489.4,164.2c-7.9-3.9-12.7-11.9-12.7-20.7V83.9h-88.3v59.7c0,8.8-4.9,16.7-12.8,20.7
			c-13.9,7-22.5,20.9-22.5,36.4v42.1h79.4c4.9,0,8.8,4,8.8,8.8v123.6c0,4.9-4,8.8-8.8,8.8h-79.4v97.1c0,14.6,11.9,26.5,26.5,26.5
			h105.9c14.6,0,26.5-11.9,26.5-26.5V200.7C512,185.2,503.4,171.2,489.4,164.2z"/>
	</g>
</g>
</svg>
