<?xml version="1.0" encoding="utf-8"?>
<!-- Generator: Adobe Illustrator 19.2.1, SVG Export Plug-In . SVG Version: 6.00 Build 0)  -->
<svg version="1.1" id="Layer_1" xmlns="http://www.w3.org/2000/svg" xmlns:xlink="http://www.w3.org/1999/xlink" x="0px" y="0px"
	 viewBox="0 0 512 512" style="enable-background:new 0 0 512 512;" xml:space="preserve">
<style type="text/css">
	.st0{fill:#83C8E6;}
	.st1{fill:#41A7D3;}
</style>
<g>
	<g>
		<path class="st0" d="M0,161.7V512h512V161.7H0z M431.2,431.2H80.8V242.5h350.3L431.2,431.2L431.2,431.2z"/>
	</g>
</g>
<g>
	<g>
		<path class="st1" d="M269.5,318.9c0-2.2,0-2.3,2.7-5.8c4-5.4,10.8-14.4,10.8-30.1h-40.4c0,2.2,0,2.3-2.7,5.8
			c-4,5.4-10.8,14.4-10.8,30.1c0,15.7,6.7,24.7,10.8,30.1c2.7,3.6,2.7,3.6,2.7,5.8s0,2.3-2.7,5.8c-4,5.4-10.8,14.4-10.8,30.1h40.4
			c0-2.2,0-2.3,2.7-5.8c4-5.4,10.8-14.4,10.8-30.1s-6.7-24.7-10.8-30.1C269.5,321.2,269.5,321.1,269.5,318.9z"/>
	</g>
</g>
<g>
	<g>
		<path class="st1" d="M350.3,318.9c0-2.2,0-2.3,2.7-5.8c4-5.4,10.8-14.4,10.8-30.1h-40.4c0,2.2,0,2.3-2.7,5.8
			c-4,5.4-10.8,14.4-10.8,30.1c0,15.7,6.7,24.7,10.8,30.1c2.7,3.6,2.7,3.6,2.7,5.8s0,2.3-2.7,5.8c-4,5.4-10.8,14.4-10.8,30.1h40.4
			c0-2.2,0-2.3,2.7-5.8c4-5.4,10.8-14.4,10.8-30.1s-6.7-24.7-10.8-30.1C350.3,321.2,350.3,321.1,350.3,318.9z"/>
	</g>
</g>
<g>
	<g>
		<path class="st1" d="M188.6,318.9c0-2.2,0-2.3,2.7-5.8c4-5.4,10.8-14.4,10.8-30.1h-40.4c0,2.2,0,2.3-2.7,5.8
			c-4,5.4-10.8,14.4-10.8,30.1c0,15.7,6.7,24.7,10.8,30.1c2.7,3.6,2.7,3.6,2.7,5.8s0,2.3-2.7,5.8c-4,5.4-10.8,14.4-10.8,30.1h40.4
			c0-2.2,0-2.3,2.7-5.8c4-5.4,10.8-14.4,10.8-30.1s-6.7-24.7-10.8-30.1C188.7,321.2,188.6,321.1,188.6,318.9z"/>
	</g>
</g>
<g>
	<g>
		<path class="st1" d="M0,0v121.3h512V0H0z M141.5,87.6c-14.9,0-26.9-12.1-26.9-26.9s12.1-26.9,26.9-26.9s26.9,12.1,26.9,26.9
			S156.3,87.6,141.5,87.6z M256,87.6c-14.9,0-26.9-12.1-26.9-26.9s12.1-26.9,26.9-26.9c14.9,0,26.9,12.1,26.9,26.9
			S270.9,87.6,256,87.6z M370.5,87.6c-14.9,0-26.9-12.1-26.9-26.9s12.1-26.9,26.9-26.9c14.9,0,26.9,12.1,26.9,26.9
			S385.4,87.6,370.5,87.6z"/>
	</g>
</g>
</svg>
