<svg xmlns="http://www.w3.org/2000/svg" viewBox="-11845 -7227 45 48.717">
  <defs>
    <style>
      .cls-1 {
        fill: #5ca1bf;
      }
    </style>
  </defs>
  <g id="Group_1327" data-name="Group 1327" transform="translate(-12255 -8276)">
    <path id="Path_5654" data-name="Path 5654" class="cls-1" d="M9.122,186.322a.956.956,0,0,0,.767-.378c.087-.107,2.086-2.727,4.124-5.949,2.8-4.435,4.221-7.725,4.221-9.772A9.117,9.117,0,1,0,0,170.213c0,2.048,1.417,5.337,4.221,9.772,2.038,3.222,4.037,5.842,4.124,5.949A.97.97,0,0,0,9.122,186.322Zm-7.181-16.11a7.181,7.181,0,1,1,14.363,0c0,3.076-4.629,10.044-7.181,13.518C6.57,180.247,1.941,173.279,1.941,170.213Z" transform="translate(410 903.534)"/>
    <path id="Path_5655" data-name="Path 5655" class="cls-1" d="M47.892,203.351a5.546,5.546,0,1,0-5.541,5.551A5.562,5.562,0,0,0,47.892,203.351Zm-5.541,3.61a3.61,3.61,0,1,1,3.61-3.61A3.616,3.616,0,0,1,42.351,206.961Z" transform="translate(376.771 870.396)"/>
    <path id="Path_5656" data-name="Path 5656" class="cls-1" d="M91.412,136.959H84.862a7.259,7.259,0,0,1,0-14.518h.7a.97.97,0,0,0,0-1.941h-.7a9.2,9.2,0,0,0,0,18.4h6.551a7.259,7.259,0,0,1,0,14.518H67.733a3.139,3.139,0,1,0,0,1.931H91.422a9.2,9.2,0,1,0-.01-18.39ZM64.744,155.582a1.2,1.2,0,1,1,1.2-1.2A1.209,1.209,0,0,1,64.744,155.582Z" transform="translate(354.378 940.194)"/>
    <path id="Path_5657" data-name="Path 5657" class="cls-1" d="M336.87,122.441h2.688a.97.97,0,0,0,0-1.941H336.87a.97.97,0,1,0,0,1.941Z" transform="translate(106.698 940.194)"/>
    <path id="Path_5658" data-name="Path 5658" class="cls-1" d="M363.57,6.182h4.716V9.675a3.144,3.144,0,1,0,1.941,0V.97a.973.973,0,0,0-.971-.97H363.57a.973.973,0,0,0-.97.97V5.211A.967.967,0,0,0,363.57,6.182Zm5.687,5.279a1.2,1.2,0,1,1-1.2,1.2A1.209,1.209,0,0,1,369.257,11.461Zm-4.716-9.52h3.746v2.3h-3.746Z" transform="translate(82.589 1049)"/>
  </g>
</svg>
