<svg xmlns="http://www.w3.org/2000/svg" viewBox="-11551 -6968 45 45.927">
  <defs>
    <style>
      .cls-1 {
        fill: #5ca1bf;
      }
    </style>
  </defs>
  <g id="Group_1364" data-name="Group 1364" transform="translate(-11943 -8238)">
    <path id="Path_5685" data-name="Path 5685" class="cls-1" d="M39.393,0,39.24,0H9.931A4.772,4.772,0,0,0,5.165,4.73c0,.005,0,.011,0,.016v37.82a3.364,3.364,0,0,0,3.36,3.36h24.4a3.364,3.364,0,0,0,3.36-3.36V14.537h5.519a2.223,2.223,0,0,0,2.22-2.22V4.847A4.84,4.84,0,0,0,39.393,0Zm-4.9,4.728c0,.005,0,.011,0,.016v37.82a1.568,1.568,0,0,1-1.566,1.566H8.525a1.568,1.568,0,0,1-1.566-1.566V4.767A2.976,2.976,0,0,1,9.931,1.794h25.6A4.723,4.723,0,0,0,34.493,4.73Zm7.739,7.587a.427.427,0,0,1-.426.426H36.287V4.767a2.972,2.972,0,0,1,2.965-2.972h.092a3.034,3.034,0,0,1,2.888,3.052Z" transform="translate(386.835 1270)"/>
    <path id="Path_5686" data-name="Path 5686" class="cls-1" d="M65.734,58.586a7.092,7.092,0,1,0,7.092,7.092A7.1,7.1,0,0,0,65.734,58.586Zm0,12.39a5.3,5.3,0,1,1,5.3-5.3A5.3,5.3,0,0,1,65.734,70.976Z" transform="translate(338.155 1216.669)"/>
    <path id="Path_5687" data-name="Path 5687" class="cls-1" d="M106.849,108.04a1.247,1.247,0,0,1,0-2.494.9.9,0,1,0,0-1.794,3.041,3.041,0,0,0,0,6.082.9.9,0,0,0,0-1.794Z" transform="translate(297.04 1175.555)"/>
    <path id="Path_5688" data-name="Path 5688" class="cls-1" d="M78.545,255.618H59.539a.9.9,0,1,0,0,1.794H78.545a.9.9,0,1,0,0-1.794Z" transform="translate(338.155 1037.311)"/>
    <path id="Path_5689" data-name="Path 5689" class="cls-1" d="M78.545,298.02H59.539a.9.9,0,1,0,0,1.794H78.545a.9.9,0,1,0,0-1.794Z" transform="translate(338.155 998.712)"/>
    <path id="Path_5690" data-name="Path 5690" class="cls-1" d="M69.406,342.788H59.539a.9.9,0,0,0,0,1.794h9.867a.9.9,0,0,0,0-1.794Z" transform="translate(338.155 957.96)"/>
    <path id="Path_5691" data-name="Path 5691" class="cls-1" d="M387.674,215.151v-2.7l1.515-2.964a.9.9,0,0,0,0-.809l-3.947-7.9a.9.9,0,0,0-.8-.5h0a.9.9,0,0,0-.8.5l-3.947,7.971a.9.9,0,0,0,.009.813l1.513,2.9v2.69a3.211,3.211,0,0,0-2.517,3.13q0,.044,0,.089l.9,9.065a.9.9,0,0,0,.893.808h7.894a.9.9,0,0,0,.893-.808l.9-9.065a.885.885,0,0,0,0-.089A3.211,3.211,0,0,0,387.674,215.151Zm-4.128-10.139v3.747a.9.9,0,1,0,1.794,0v-3.777l2.045,4.095-1.158,2.265h-3.574l-1.151-2.2Zm2.334,8.124v1.939h-2.873v-1.939Zm1.7,13.313h-6.27l-.817-8.207a1.413,1.413,0,0,1,1.411-1.372h5.083a1.413,1.413,0,0,1,1.411,1.372Z" transform="translate(46.81 1087.683)"/>
    <path id="Path_5692" data-name="Path 5692" class="cls-1" d="M71.613,429.025a.9.9,0,0,0-1.218-.355.537.537,0,0,1-.609-.067,2.329,2.329,0,0,0-2.33-.438l-1.517.551a.3.3,0,0,1-.293-.1l-.2-.215a2.082,2.082,0,0,0-2.159-.59l-1.771.551a.9.9,0,0,0,.533,1.713l1.771-.551a.3.3,0,0,1,.311.1l.2.215a2.085,2.085,0,0,0,2.142.6l.047-.016,1.548-.562a.534.534,0,0,1,.535.1,2.336,2.336,0,0,0,2.655.29A.9.9,0,0,0,71.613,429.025Z" transform="translate(336.112 880.651)"/>
    <ellipse id="Ellipse_7" data-name="Ellipse 7" class="cls-1" cx="0.897" cy="0.897" rx="0.897" ry="0.897" transform="translate(408.598 1309.07)"/>
  </g>
</svg>
