<svg xmlns="http://www.w3.org/2000/svg" viewBox="-11247 -6968 40 39.999">
  <defs>
    <style>
      .cls-1 {
        fill: #5ca1bf;
      }
    </style>
  </defs>
  <g id="Group_1365" data-name="Group 1365" transform="translate(-11943 -8238)">
    <path id="Path_5693" data-name="Path 5693" class="cls-1" d="M26.88,109.039l-5.153-1.405-.814-1.221a1.3,1.3,0,0,0-.858-.558c-.032-.006-.064-.008-.1-.011v-1.6l.341-.284a3.3,3.3,0,0,0,1.145-2.013l.185-1.156H22a1.965,1.965,0,0,0,1.962-1.962V97.487a1.966,1.966,0,0,0-1.5-1.908l.124-.775a8.032,8.032,0,1,0-15.862,0l.124.775a1.966,1.966,0,0,0-1.5,1.908v1.336a1.965,1.965,0,0,0,1.962,1.962h.375l.185,1.156a3.3,3.3,0,0,0,1.145,2.013l.341.284v1.6c-.032,0-.064.006-.1.011a1.3,1.3,0,0,0-.858.558l-.814,1.221-5.153,1.405A3.306,3.306,0,0,0,0,112.221v4.64a1.965,1.965,0,0,0,1.962,1.962H27.349a1.965,1.965,0,0,0,1.962-1.962v-4.64A3.306,3.306,0,0,0,26.88,109.039ZM22.263,96.827a.71.71,0,0,1,.451.66v1.336a.711.711,0,0,1-.71.71H21.83ZM7.307,99.533a.711.711,0,0,1-.71-.71V97.487a.711.711,0,0,1,.451-.66l.433,2.706Zm1.8,2.21L7.961,94.607a6.779,6.779,0,1,1,13.388,0l-1.142,7.137a2.046,2.046,0,0,1-.71,1.249l-2.681,2.234a1.38,1.38,0,0,1-.882.319H13.377a1.38,1.38,0,0,1-.882-.319l-2.681-2.234A2.046,2.046,0,0,1,9.1,101.743Zm9.6,3.539v1.078l-4.05,3.038-4.05-3.038v-1.078l1.088.906a2.635,2.635,0,0,0,1.684.61h2.557a2.635,2.635,0,0,0,1.684-.61ZM4.676,117.571H1.962a.711.711,0,0,1-.71-.71v-4.64a2.037,2.037,0,0,1,.28-1.027L4.181,113.4a1.374,1.374,0,0,1,.5,1.059Zm8.09,0H5.929v-3.111a2.623,2.623,0,0,0-.946-2.021L2.476,110.35a2.03,2.03,0,0,1,.284-.1L7.719,108.9l2.677,3.747a1.3,1.3,0,0,0,.875.53,1.27,1.27,0,0,0,.176.012,1.3,1.3,0,0,0,.81-.284l.48-.384a1.3,1.3,0,0,0,.565.764Zm-1.292-5.648a.042.042,0,0,1-.06-.008l-2.679-3.751.7-1.057a.039.039,0,0,1,.028-.018.038.038,0,0,1,.032.008l4.133,3.1Zm2.554,5.648.511-4.092h.23l.511,4.092Zm1.336-5.386a.042.042,0,0,1-.042.042H13.987a.042.042,0,0,1-.042-.042v-.634l.71-.568.71.568v.634Zm4.445-5.088a.039.039,0,0,1,.032-.008.04.04,0,0,1,.028.018l.7,1.057L17.9,111.914a.039.039,0,0,1-.028.017.04.04,0,0,1-.032-.009L15.678,110.2Zm3.571,7.363v3.111H16.545l-.536-4.29a1.3,1.3,0,0,0,.565-.764l.48.384a1.3,1.3,0,0,0,.81.284,1.271,1.271,0,0,0,.176-.012,1.3,1.3,0,0,0,.875-.53l2.677-3.747,4.959,1.352a2.056,2.056,0,0,1,.284.1l-2.507,2.089A2.624,2.624,0,0,0,23.382,114.459Zm4.676,2.4a.711.711,0,0,1-.71.71H24.635v-3.111a1.374,1.374,0,0,1,.5-1.058l2.648-2.207a2.037,2.037,0,0,1,.28,1.027Z" transform="translate(696 1191.175)"/>
    <path id="Path_5694" data-name="Path 5694" class="cls-1" d="M330.915,34.194a5.971,5.971,0,1,0,5.971,5.971A5.978,5.978,0,0,0,330.915,34.194Zm0,10.689a4.718,4.718,0,1,1,4.718-4.718A4.724,4.724,0,0,1,330.915,44.883Z" transform="translate(396.442 1238.477)"/>
    <path id="Path_5695" data-name="Path 5695" class="cls-1" d="M370.5,63.21c-1.293-.359-1.546-.6-1.546-.9,0-.166.521-.543,1.378-.543a1.613,1.613,0,0,1,1.369.506.626.626,0,0,0,1.155-.483,2.381,2.381,0,0,0-1.9-1.226v-.091a.626.626,0,1,0-1.253,0v.089c-1.177.182-2,.873-2,1.748,0,1.423,1.482,1.834,2.463,2.107,1.293.359,1.545.6,1.545.9,0,.166-.521.543-1.378.543a1.613,1.613,0,0,1-1.369-.506.626.626,0,1,0-1.155.483,2.381,2.381,0,0,0,1.9,1.226v.091a.626.626,0,1,0,1.253,0v-.089c1.177-.182,2-.873,2-1.748C372.96,63.894,371.478,63.483,370.5,63.21Z" transform="translate(357.027 1214.828)"/>
    <path id="Path_5696" data-name="Path 5696" class="cls-1" d="M305.152,2.211a8.643,8.643,0,1,0-10.275,13.813l-.774,3.168a.626.626,0,0,0,.731.763,8.446,8.446,0,0,0,4.864-2.666,8.643,8.643,0,0,0,5.454-15.078Zm-5.764,13.831a.626.626,0,0,0-.521.279,6.45,6.45,0,0,1-3.3,2.154l.638-2.611a.626.626,0,0,0-.312-.7,7.39,7.39,0,1,1,3.494.878Z" transform="translate(427.969 1269.991)"/>
  </g>
</svg>
