<svg xmlns="http://www.w3.org/2000/svg" viewBox="-10945 -6968 45 45.525">
  <defs>
    <style>
      .cls-1 {
        fill: #5ca1bf;
      }
    </style>
  </defs>
  <g id="Group_1357" data-name="Group 1357" transform="translate(-11943 -8238)">
    <path id="Path_5697" data-name="Path 5697" class="cls-1" d="M30,22.89a2.563,2.563,0,0,0,1.47,3.655,1.663,1.663,0,0,1,1.069,1.069,2.584,2.584,0,0,0,.7,1.093,2.54,2.54,0,0,0,1.738.673,2.644,2.644,0,0,0,1.871-.77l7.3-7.3a2.622,2.622,0,0,0,.1-3.609,2.583,2.583,0,0,0-1.093-.7,1.663,1.663,0,0,1-1.069-1.069,2.563,2.563,0,0,0-3.655-1.47l-7.98-7.98a2.563,2.563,0,0,0-1.47-3.655A1.663,1.663,0,0,1,27.9,1.766,2.584,2.584,0,0,0,27.2.673a2.622,2.622,0,0,0-3.609.1l-7.3,7.3a2.622,2.622,0,0,0-.1,3.609,2.583,2.583,0,0,0,1.093.7,1.664,1.664,0,0,1,1.069,1.069,2.583,2.583,0,0,0,.7,1.093,2.54,2.54,0,0,0,1.738.673,2.667,2.667,0,0,0,1.22-.3l2.244,2.245L3.434,37.982a2.745,2.745,0,0,0,3.882,3.882L28.143,21.038Zm13.288-4.3h0a1.314,1.314,0,0,1-.065,1.807l-7.3,7.3a1.314,1.314,0,0,1-1.807.065,1.266,1.266,0,0,1-.347-.542,2.938,2.938,0,0,0-.316-.671l8.618-8.618a2.943,2.943,0,0,0,.671.316A1.266,1.266,0,0,1,43.284,18.588ZM40.491,15.8a1.266,1.266,0,0,1,.347.542,2.942,2.942,0,0,0,.316.671l-8.618,8.618a2.943,2.943,0,0,0-.671-.316,1.266,1.266,0,0,1-.542-.346,1.314,1.314,0,0,1,.065-1.807l3.648-3.648,3.648-3.648a1.349,1.349,0,0,1,.953-.395A1.247,1.247,0,0,1,40.491,15.8Zm-23.342-5a1.314,1.314,0,0,1,.065-1.807l7.3-7.3a1.349,1.349,0,0,1,.953-.395,1.248,1.248,0,0,1,.855.329,1.266,1.266,0,0,1,.347.542,2.941,2.941,0,0,0,.316.671l-8.618,8.618a2.942,2.942,0,0,0-.671-.316A1.265,1.265,0,0,1,17.149,10.791Zm2.793,2.793a1.264,1.264,0,0,1-.346-.542,2.941,2.941,0,0,0-.316-.671L27.9,3.753a2.943,2.943,0,0,0,.671.316,1.265,1.265,0,0,1,.542.346h0a1.314,1.314,0,0,1-.065,1.807l-7.3,7.3A1.314,1.314,0,0,1,19.942,13.584ZM29.608,7.5l7.8,7.8-3.293,3.293-3.293,3.293-7.8-7.8ZM6.4,40.947A1.447,1.447,0,0,1,4.352,38.9L25.178,18.073l2.047,2.047Z" transform="translate(995.369 1270)"/>
    <path id="Path_5698" data-name="Path 5698" class="cls-1" d="M227.9,367.161a.647.647,0,0,0-.132-.394l-2.64-3.449v-1.577a.649.649,0,0,0-.649-.649H206.31a.649.649,0,0,0-.649.649v1.577l-2.64,3.449a.647.647,0,0,0-.132.394v2.765a.649.649,0,0,0,.649.649H227.25a.649.649,0,0,0,.649-.649Zm-20.939-4.772h16.869v.5H206.959Zm-.328,1.8h17.526l1.78,2.326H204.851Zm-2.445,5.091V367.81H226.6v1.467Z" transform="translate(815.101 944.951)"/>
    <path id="Path_5699" data-name="Path 5699" class="cls-1" d="M273.161,98.5a.649.649,0,1,0,.917-.918l-5.337-5.337a.649.649,0,0,0-.918.918Z" transform="translate(756.818 1187.135)"/>
  </g>
</svg>
