<svg xmlns="http://www.w3.org/2000/svg" viewBox="-11551 -6833 45 40.503">
  <defs>
    <style>
      .cls-1 {
        fill: #5ca1bf;
      }
    </style>
  </defs>
  <g id="Group_1366" data-name="Group 1366" transform="translate(-11943 -8238)">
    <path id="Path_5707" data-name="Path 5707" class="cls-1" d="M460.55,186.716a.709.709,0,0,0-.75.75v.75a.75.75,0,1,0,1.5,0v-.75A.708.708,0,0,0,460.55,186.716Z" transform="translate(-27.3 1232.534)"/>
    <path id="Path_5708" data-name="Path 5708" class="cls-1" d="M460.55,117.6a.709.709,0,0,0-.75.75v1.725a.709.709,0,0,0,.75.75.752.752,0,0,0,.75-.75v-1.725A.708.708,0,0,0,460.55,117.6Z" transform="translate(-27.3 1295.579)"/>
    <path id="Path_5709" data-name="Path 5709" class="cls-1" d="M452.017,60.216a.75.75,0,1,0,1.5,0v-1.5h-1.5a.75.75,0,0,0,0,1.5Z" transform="translate(-19.517 1349.284)"/>
    <path id="Path_5710" data-name="Path 5710" class="cls-1" d="M147.377,60.217h1.5a.751.751,0,0,0,.75-.75.709.709,0,0,0-.75-.75h-1.5a.75.75,0,1,0,0,1.5Z" transform="translate(258.348 1349.283)"/>
    <path id="Path_5711" data-name="Path 5711" class="cls-1" d="M207.964,60.217h1.5a.75.75,0,1,0,0-1.5h-1.5a.75.75,0,0,0,0,1.5Z" transform="translate(203.086 1349.283)"/>
    <path id="Path_5712" data-name="Path 5712" class="cls-1" d="M85.937,60.217h1.5a.75.75,0,1,0,0-1.5h-1.5a.75.75,0,1,0,0,1.5Z" transform="translate(314.388 1349.283)"/>
    <path id="Path_5713" data-name="Path 5713" class="cls-1" d="M329.99,60.217h1.5a.75.75,0,1,0,0-1.5h-1.5a.75.75,0,1,0,0,1.5Z" transform="translate(91.785 1349.283)"/>
    <path id="Path_5714" data-name="Path 5714" class="cls-1" d="M269.4,60.217h1.5a.751.751,0,0,0,.75-.75.709.709,0,0,0-.75-.75h-1.5a.75.75,0,0,0,0,1.5Z" transform="translate(147.046 1349.283)"/>
    <path id="Path_5715" data-name="Path 5715" class="cls-1" d="M391.43,60.217h1.5a.752.752,0,0,0,.75-.75.709.709,0,0,0-.75-.75h-1.5a.75.75,0,1,0,0,1.5Z" transform="translate(35.745 1349.283)"/>
    <path id="Path_5716" data-name="Path 5716" class="cls-1" d="M33.883,60.967a.709.709,0,0,0,.75-.75.75.75,0,1,0,0-1.5h-1.5v1.5A.709.709,0,0,0,33.883,60.967Z" transform="translate(361.867 1349.283)"/>
    <path id="Path_5717" data-name="Path 5717" class="cls-1" d="M33.884,236.725a.709.709,0,0,0,.75-.75V234.4a.75.75,0,0,0-1.5,0v1.575A.708.708,0,0,0,33.884,236.725Z" transform="translate(361.866 1189.725)"/>
    <path id="Path_5718" data-name="Path 5718" class="cls-1" d="M33.884,175.285a.709.709,0,0,0,.75-.75V172.96a.75.75,0,0,0-1.5,0v1.575A.708.708,0,0,0,33.884,175.285Z" transform="translate(361.866 1245.765)"/>
    <path id="Path_5719" data-name="Path 5719" class="cls-1" d="M33.884,113.845a.709.709,0,0,0,.75-.75V111.52a.75.75,0,0,0-1.5,0v1.575A.708.708,0,0,0,33.884,113.845Z" transform="translate(361.866 1301.805)"/>
    <path id="Path_5720" data-name="Path 5720" class="cls-1" d="M33.884,299.018a.752.752,0,0,0,.75-.75v-1.575a.75.75,0,0,0-1.5,0v1.575A.708.708,0,0,0,33.884,299.018Z" transform="translate(361.866 1132.907)"/>
    <path id="Path_5721" data-name="Path 5721" class="cls-1" d="M35.384,358.883a.709.709,0,0,0-.75-.75.75.75,0,0,0-1.5,0v1.5h1.5A.709.709,0,0,0,35.384,358.883Z" transform="translate(361.866 1076.867)"/>
    <path id="Path_5722" data-name="Path 5722" class="cls-1" d="M146.317,365.916h-1.5a.75.75,0,1,0,0,1.5h1.5a.75.75,0,1,0,0-1.5Z" transform="translate(260.683 1069.084)"/>
    <path id="Path_5723" data-name="Path 5723" class="cls-1" d="M85.084,367.417h1.5a.75.75,0,1,0,0-1.5h-1.5a.75.75,0,1,0,0,1.5Z" transform="translate(315.166 1069.083)"/>
    <path id="Path_5724" data-name="Path 5724" class="cls-1" d="M206.05,365.916h-1.5a.75.75,0,1,0,0,1.5h1.5a.75.75,0,1,0,0-1.5Z" transform="translate(206.2 1069.084)"/>
    <path id="Path_5725" data-name="Path 5725" class="cls-1" d="M265.034,365.916h-.75a.75.75,0,1,0,0,1.5h.75a.75.75,0,0,0,0-1.5Z" transform="translate(151.716 1069.084)"/>
    <path id="Path_5726" data-name="Path 5726" class="cls-1" d="M44,24.583H-1v34.5H27.5v5.25a.656.656,0,0,0,.45.675.685.685,0,0,0,.825-.15l3.975-3.975,3.975,3.975a.681.681,0,0,0,.525.225.451.451,0,0,0,.3-.075.656.656,0,0,0,.45-.675v-5.25h6Zm-7.5,37.95-3.225-3.225a.725.725,0,0,0-1.05,0L29,62.533V54.358a7.451,7.451,0,0,0,7.5,0v8.175ZM34,53.7l-.1.021-.15.027-.152.024-.119.015-.163.018-.14.011-.139.009c-.094,0-.189.007-.285.007s-.189,0-.283-.007c-.053,0-.106-.007-.159-.011l-.112-.009q-.11-.01-.219-.025l-.039,0q-.259-.036-.516-.095-.131-.03-.261-.066-.259-.072-.513-.167t-.5-.213c-.057-.027-.112-.056-.168-.085l-.086-.044-.007,0a6,6,0,1,1,4.11.6Zm8.5,3.883H38V53.174a7.5,7.5,0,1,0-10.5,0v4.408H.5v-31.5h42v31.5Z" transform="translate(393 1380.417)"/>
    <path id="Path_5727" data-name="Path 5727" class="cls-1" d="M127.65,135.516h-25.5a.75.75,0,1,0,0,1.5h25.5a.75.75,0,0,0,0-1.5Z" transform="translate(299.6 1279.234)"/>
    <path id="Path_5728" data-name="Path 5728" class="cls-1" d="M118.65,186.716h-16.5a.75.75,0,1,0,0,1.5h16.5a.75.75,0,0,0,0-1.5Z" transform="translate(299.6 1232.534)"/>
    <path id="Path_5729" data-name="Path 5729" class="cls-1" d="M102.15,239.417H116.4a.75.75,0,0,0,0-1.5H102.15a.75.75,0,0,0,0,1.5Z" transform="translate(299.6 1185.833)"/>
    <path id="Path_5730" data-name="Path 5730" class="cls-1" d="M102.15,299.15H116.4a.75.75,0,1,0,0-1.5H102.15a.75.75,0,1,0,0,1.5Z" transform="translate(299.6 1131.35)"/>
  </g>
</svg>
