<svg xmlns="http://www.w3.org/2000/svg" viewBox="-11551 -7231 45 45.009">
  <defs>
    <style>
      .cls-1 {
        fill: #5ca1bf;
      }
    </style>
  </defs>
  <g id="Group_1341" data-name="Group 1341" transform="translate(-11949 -8246)">
    <path id="Path_5659" data-name="Path 5659" class="cls-1" d="M37.969,17.578c3.876,0,7.031-3.472,7.031-7.734V7.04a.705.705,0,0,0-.562-.694L13.5.018A1.191,1.191,0,0,0,13.324,0H9.053a.053.053,0,0,0-.035.009.032.032,0,0,0-.026.009c-.009,0-.026.009-.035.009s-.018.009-.035.009-.026.009-.035.009-.018.009-.035.009S8.833.062,8.824.07s-.018.009-.035.018S8.771.1,8.763.105s-.018.018-.026.018-.009.009-.018.009L.281,6.46a.009.009,0,0,0-.009.009A.121.121,0,0,1,.246,6.5L.22,6.53.2,6.548a.121.121,0,0,0-.026.035c0,.009-.009.009-.009.018s-.018.026-.026.035-.009.009-.009.018a.1.1,0,0,0-.044.035c0,.009-.009.009-.009.018s-.018.026-.018.044-.009.018-.009.026S.044,6.8.035,6.82s-.009.018-.009.026-.009.026-.009.044a.032.032,0,0,1-.009.026c0,.018-.009.026-.009.044V9.853a.705.705,0,0,0,.7.7H2.813v2.109a.705.705,0,0,0,.7.7H6.328a.705.705,0,0,0,.7-.7V10.556H8.438V35.165H7.031a.705.705,0,0,0-.7.7V40.79H4.922A1.41,1.41,0,0,0,3.516,42.2v2.109a.705.705,0,0,0,.7.7H18.281a.705.705,0,0,0,.7-.7V42.2a1.41,1.41,0,0,0-1.406-1.406H16.172V35.868a.705.705,0,0,0-.7-.7H14.063V10.547H31.641V23.2H30.234a.683.683,0,0,0-.554.272.712.712,0,0,0-.132.606l.7,2.813a.705.705,0,0,0,.686.536h.7v.7a1.41,1.41,0,0,0,1.406,1.406h.422a.283.283,0,0,1,.281.281.273.273,0,0,1-.149.246.254.254,0,0,1-.281-.018l-.589-.387a.7.7,0,0,0-.976.193.706.706,0,0,0-.114.387H22.5a1.41,1.41,0,0,0-1.406,1.406v9.844A1.41,1.41,0,0,0,22.5,42.9H42.188a1.41,1.41,0,0,0,1.406-1.406V31.641a1.41,1.41,0,0,0-1.406-1.406H35.1a1.733,1.733,0,0,0,.053-.422,1.688,1.688,0,0,0-1.687-1.688h-.422v-.7h.7a.705.705,0,0,0,.686-.536l.7-2.812a.712.712,0,0,0-.686-.879H33.047V14.924A5.788,5.788,0,0,0,37.969,17.578Zm4.219,23.906H22.5V31.641H42.188ZM33.2,26.016H31.482l-.352-1.406h2.417Zm4.772-9.844c-2.716,0-4.658-2.276-4.9-5.625H43.559C43.242,13.7,40.86,16.172,37.969,16.172ZM14.063,1.564,37.354,6.328H14.063Zm-1.406-.158V6.328H9.844V1.406ZM9.844,22.412l2.813,1.872v1.354L9.844,27.51Zm2.813.185L9.844,20.725V19.371L12.656,17.5ZM9.844,29.206l2.813-1.872V32.44L9.844,30.568Zm2.813-13.412L9.844,17.666V12.56l2.813,1.872Zm0-8.06V9.141H9.844V7.734ZM6.328,6.328H2.813L8.438,2.109V6.328ZM1.406,9.141V7.734H2.813V9.141Zm4.219,2.813H4.219V7.734H5.625ZM7.031,9.141V7.734H8.438V9.141ZM17.578,43.594H4.922V42.187H17.578Zm-2.813-2.812H7.734V36.562h7.031ZM9.844,35.156V32.247l2.813,1.872v1.037Zm2.813-22.4L9.844,10.881v-.325h2.813Zm1.406-5.019H43.594V9.141H14.063Z" transform="translate(398 1015)"/>
    <path id="Path_5660" data-name="Path 5660" class="cls-1" d="M440.7,383.031a.705.705,0,0,0,.7-.7V376.7a.7.7,0,0,0-1.406,0v5.625A.705.705,0,0,0,440.7,383.031Z" transform="translate(-3.328 672.047)"/>
    <path id="Path_5661" data-name="Path 5661" class="cls-1" d="M400.7,383.031a.705.705,0,0,0,.7-.7V376.7a.7.7,0,0,0-1.406,0v5.625A.705.705,0,0,0,400.7,383.031Z" transform="translate(33.156 672.047)"/>
    <path id="Path_5662" data-name="Path 5662" class="cls-1" d="M360.7,383.031a.705.705,0,0,0,.7-.7V376.7a.7.7,0,0,0-1.406,0v5.625A.705.705,0,0,0,360.7,383.031Z" transform="translate(69.641 672.047)"/>
    <path id="Path_5663" data-name="Path 5663" class="cls-1" d="M320.7,383.031a.705.705,0,0,0,.7-.7V376.7a.7.7,0,0,0-1.406,0v5.625A.705.705,0,0,0,320.7,383.031Z" transform="translate(106.125 672.047)"/>
    <path id="Path_5664" data-name="Path 5664" class="cls-1" d="M280.7,383.031a.705.705,0,0,0,.7-.7V376.7a.7.7,0,0,0-1.406,0v5.625A.705.705,0,0,0,280.7,383.031Z" transform="translate(142.609 672.047)"/>
  </g>
</svg>
