<svg xmlns="http://www.w3.org/2000/svg" viewBox="-11247 -7231.5 33.802 58.865">
  <defs>
    <style>
      .cls-1 {
        fill: #5ca1bf;
      }
    </style>
  </defs>
  <path id="Path_5750" data-name="Path 5750" class="cls-1" d="M33.674.539A1.039,1.039,0,0,0,32.752,0H10.823A1.07,1.07,0,0,0,9.816.723L.412,28.567a1.065,1.065,0,0,0,.142.965,1.049,1.049,0,0,0,.865.44h8.908L.086,57.432a1.065,1.065,0,0,0,1.007,1.433,1.055,1.055,0,0,0,.823-.383L30.454,24.369a1.035,1.035,0,0,0,.142-1.135,1.068,1.068,0,0,0-.965-.61H21.391L33.688,1.6A1.092,1.092,0,0,0,33.674.539ZM18.61,23.149a1.024,1.024,0,0,0,0,1.064,1.067,1.067,0,0,0,.922.539h7.816L4.242,52.354l8.624-23.078a1.049,1.049,0,0,0-.128-.979,1.069,1.069,0,0,0-.879-.454H2.908L11.589,2.128h19.3Z" transform="translate(-11247.018 -7231.5)"/>
</svg>
