<svg xmlns="http://www.w3.org/2000/svg" viewBox="-10945 -7231 45 49.011">
  <defs>
    <style>
      .cls-1 {
        fill: #5ca1bf;
      }
    </style>
  </defs>
  <g id="Group_1342" data-name="Group 1342" transform="translate(-11942.999 -8242)">
    <circle id="Ellipse_5" data-name="Ellipse 5" class="cls-1" cx="1.024" cy="1.024" r="1.024" transform="translate(1019.489 1032.193)"/>
    <circle id="Ellipse_6" data-name="Ellipse 6" class="cls-1" cx="1.024" cy="1.024" r="1.024" transform="translate(1019.489 1035.639)"/>
    <path id="Path_5666" data-name="Path 5666" class="cls-1" d="M38.548,10.75a4.788,4.788,0,0,0,.89-2.8V4.834A4.845,4.845,0,0,0,34.6,0h-.66A4.845,4.845,0,0,0,29.11,4.834V7.955A4.759,4.759,0,0,0,30,10.74H26.793a4.827,4.827,0,0,0,.89-2.786V4.834A4.845,4.845,0,0,0,22.849,0h-.66a4.845,4.845,0,0,0-4.834,4.834V7.955a4.759,4.759,0,0,0,.89,2.786H15.038a4.827,4.827,0,0,0,.89-2.786V4.834A4.845,4.845,0,0,0,11.094,0h-.66A4.843,4.843,0,0,0,5.581,4.834V7.955a4.834,4.834,0,0,0,.89,2.8A6.756,6.756,0,0,0,0,17.47v9.974a3.771,3.771,0,0,0,3.772,3.762h.067V45.6a3.415,3.415,0,0,0,3.408,3.408h1.11a3.389,3.389,0,0,0,2.384-.976,3.389,3.389,0,0,0,2.384.976h1.11a3.389,3.389,0,0,0,2.384-.976,3.4,3.4,0,0,0,2.393.976h1.11a3.389,3.389,0,0,0,2.384-.976,3.389,3.389,0,0,0,2.384.976H26a3.429,3.429,0,0,0,2.393-.976,3.389,3.389,0,0,0,2.384.976h1.11a3.389,3.389,0,0,0,2.384-.976,3.389,3.389,0,0,0,2.384.976h1.11A3.415,3.415,0,0,0,41.171,45.6v-14.4h.057A3.771,3.771,0,0,0,45,27.444V17.47A6.72,6.72,0,0,0,38.548,10.75Zm-7.39-5.916a2.788,2.788,0,0,1,2.786-2.786h.66A2.788,2.788,0,0,1,37.39,4.834V7.955A2.788,2.788,0,0,1,34.6,10.74h-.66a2.788,2.788,0,0,1-2.786-2.786Zm-11.765,0a2.788,2.788,0,0,1,2.786-2.786h.66a2.788,2.788,0,0,1,2.786,2.786V7.955A2.788,2.788,0,0,1,22.84,10.74h-.66a2.788,2.788,0,0,1-2.786-2.786Zm5.485,7.955-2.364,3.886L20.15,12.789ZM7.62,4.834a2.788,2.788,0,0,1,2.786-2.786h.66a2.788,2.788,0,0,1,2.786,2.786V7.955a2.788,2.788,0,0,1-2.786,2.786h-.66A2.788,2.788,0,0,1,7.62,7.955ZM4.863,19.9a1.025,1.025,0,0,0-1.024,1.024h0v8.242H3.772a1.722,1.722,0,0,1-1.733-1.713V17.47a4.7,4.7,0,0,1,4.71-4.681h6.921a6.714,6.714,0,0,0-1.914,4.681v9.974a3.914,3.914,0,0,0,.124.957l-1.149.584-4.844-2.47v-5.59h0A1.025,1.025,0,0,0,4.863,19.9ZM15.6,45.6a1.369,1.369,0,0,1-1.369,1.369h-1.11A1.369,1.369,0,0,1,11.755,45.6V34.355a1.024,1.024,0,1,0-2.049,0V45.6a1.369,1.369,0,0,1-1.369,1.369H7.246A1.369,1.369,0,0,1,5.877,45.6V28.813l4.394,2.24a.99.99,0,0,0,.459.115.962.962,0,0,0,.459-.115l1.733-.881a3.776,3.776,0,0,0,2.6,1.043h.057L15.6,45.6Zm11.765,0A1.369,1.369,0,0,1,26,46.972h-1.11A1.369,1.369,0,0,1,23.519,45.6V34.355a1.024,1.024,0,1,0-2.049,0V45.6A1.369,1.369,0,0,1,20.1,46.972h-1.11A1.369,1.369,0,0,1,17.623,45.6V28.823l4.394,2.23a.99.99,0,0,0,.459.115.962.962,0,0,0,.459-.115l4.394-2.24.038,16.79Zm1.024-25.7a1.025,1.025,0,0,0-1.024,1.024h0v5.59L22.5,28.985l-4.863-2.46v-5.6h0a1.024,1.024,0,1,0-2.048,0h0v8.242h-.067a1.722,1.722,0,0,1-1.733-1.713V17.47a4.7,4.7,0,0,1,3.973-4.623l3.858,6.327a1.021,1.021,0,0,0,1.742,0l3.858-6.327A4.694,4.694,0,0,1,31.2,17.47v9.974a1.722,1.722,0,0,1-1.733,1.713h-.057V20.916h0A1.009,1.009,0,0,0,28.392,19.9Zm10.75,25.7a1.369,1.369,0,0,1-1.369,1.369h-1.11A1.369,1.369,0,0,1,35.294,45.6V34.355a1.024,1.024,0,1,0-2.049,0V45.6a1.369,1.369,0,0,1-1.369,1.369h-1.11A1.369,1.369,0,0,1,29.4,45.6v-14.4h.057a3.751,3.751,0,0,0,2.6-1.043l1.733.881a.99.99,0,0,0,.459.115.962.962,0,0,0,.459-.115L39.1,28.8l.038,16.8Zm2.106-16.445H41.19V20.916h0a1.024,1.024,0,0,0-2.049,0h0v5.6l-4.863,2.47L33.13,28.4a3.976,3.976,0,0,0,.124-.957V17.47a6.672,6.672,0,0,0-1.914-4.681h6.921a4.7,4.7,0,0,1,4.71,4.681v9.974h0A1.72,1.72,0,0,1,41.248,29.158Z" transform="translate(997.999 1011)"/>
  </g>
</svg>
