<svg xmlns="http://www.w3.org/2000/svg" viewBox="-11845 -7097 45 45">
  <defs>
    <style>
      .cls-1 {
        fill: #5ca1bf;
      }
    </style>
  </defs>
  <g id="Group_1361" data-name="Group 1361" transform="translate(-11943 -8238)">
    <path id="Path_5731" data-name="Path 5731" class="cls-1" d="M182.624,157.154H182v-2.006h1.576a.717.717,0,0,0,0-1.433H182V152.9a.717.717,0,1,0-1.433,0v.812h-.621a1.674,1.674,0,0,0-1.672,1.672v1.529a1.674,1.674,0,0,0,1.672,1.672h.621v2.006h-1.576a.717.717,0,0,0,0,1.433h1.576v.812a.717.717,0,0,0,1.433,0v-.812h.621a1.674,1.674,0,0,0,1.672-1.672v-1.529A1.674,1.674,0,0,0,182.624,157.154Zm-2.054,0h-.621a.239.239,0,0,1-.239-.239v-1.529a.239.239,0,0,1,.239-.239h.621v2.006Zm2.293,3.2a.239.239,0,0,1-.239.239H182v-2.006h.621a.239.239,0,0,1,.239.239Z" transform="translate(-64.608 1002.19)"/>
    <path id="Path_5732" data-name="Path 5732" class="cls-1" d="M44.79,19.035l-3.243-3.243a.716.716,0,0,0-1.013,0L37.357,18.97V.717A.717.717,0,0,0,36.64,0H.717A.717.717,0,0,0,0,.717V35.494a.717.717,0,0,0,1.433,0V1.433h34.49V20.4l-5.2,5.2H28.949V12.516H31.29a.717.717,0,0,0,.717-.717V9.506a.717.717,0,0,0-.717-.717H28.442l-9.377-6a.717.717,0,0,0-.773,0l-9.377,6H6.067a.717.717,0,0,0-.717.717V11.8a.717.717,0,0,0,.717.717H8.408V25.605H6.067a.717.717,0,0,0-.717.717v2.293a.717.717,0,0,0,.717.717H27L21.64,34.686l0,.005a.714.714,0,0,0-.191.3l-1.621,4.864a.723.723,0,0,0,.906.906l4.864-1.621a.713.713,0,0,0,.3-.192l.009-.008,4.386-4.471a.717.717,0,0,0-1.023-1l-3.879,3.954L23.16,35.193,38.316,20.038l2.229,2.229L32.411,30.4a.717.717,0,1,0,1.013,1.013l2.5-2.5v7.773H29.761a.717.717,0,0,0-.717.717v6.162H1.433V39.315a.717.717,0,0,0-1.433,0v4.968A.717.717,0,0,0,.717,45H29.761a.724.724,0,0,0,.507-.21l6.879-6.879a.724.724,0,0,0,.21-.507V27.482l4.709-4.709,2.725-2.725A.717.717,0,0,0,44.79,19.035Zm-20.716,19.1-2.438.813.813-2.439Zm-5.4-33.891L25.784,8.79H11.573ZM6.783,11.083v-.86h23.79v.86Zm20.732,1.433V25.605H25.127V12.516Zm-3.822,0V25.605H13.662V12.516Zm-11.465,0V25.605H9.841V12.516ZM28.428,27.9H6.783v-.86h22.5Zm2.049,14.655V38.121H34.91Zm11.081-21.3-2.229-2.229,1.711-1.711,2.229,2.229Z" transform="translate(98 1141)"/>
    <path id="Path_5733" data-name="Path 5733" class="cls-1" d="M105.549,404.382H96.377a.717.717,0,1,0,0,1.433h9.172a.717.717,0,1,0,0-1.433Z" transform="translate(10.748 772.159)"/>
    <path id="Path_5734" data-name="Path 5734" class="cls-1" d="M106.313,447.864H96.377a.717.717,0,1,0,0,1.433h9.936a.717.717,0,0,0,0-1.433Z" transform="translate(10.748 732.499)"/>
    <path id="Path_5735" data-name="Path 5735" class="cls-1" d="M105.549,360.9H96.377a.717.717,0,0,0,0,1.433h9.172a.717.717,0,1,0,0-1.433Z" transform="translate(10.748 811.82)"/>
  </g>
</svg>
