<svg xmlns="http://www.w3.org/2000/svg" viewBox="-11551 -7097 40 48">
  <defs>
    <style>
      .cls-1 {
        fill: #5ca1bf;
      }
    </style>
  </defs>
  <g id="Group_1360" data-name="Group 1360" transform="translate(-11943 -8238)">
    <path id="Path_5736" data-name="Path 5736" class="cls-1" d="M76,0H47.2a4,4,0,0,0-3.926,3.274A4,4,0,0,0,40,7.2V44a4,4,0,0,0,4,4H72.8a4,4,0,0,0,3.926-3.274A4,4,0,0,0,80,40.8V4A4,4,0,0,0,76,0Zm-.8,44a2.4,2.4,0,0,1-2.4,2.4H44A2.4,2.4,0,0,1,41.6,44V7.2A2.4,2.4,0,0,1,44,4.8H68v6.4a.8.8,0,0,0,.8.8h6.4ZM69.6,10.4V5.931L74.069,10.4Zm8.8,30.4a2.4,2.4,0,0,1-1.6,2.253V11.2a.8.8,0,0,0-.235-.566l-7.2-7.2A.8.8,0,0,0,68.8,3.2H44.947A2.4,2.4,0,0,1,47.2,1.6H76A2.4,2.4,0,0,1,78.4,4Z" transform="translate(352 1141)"/>
    <path id="Path_5737" data-name="Path 5737" class="cls-1" d="M123.2,120a11.2,11.2,0,1,0,11.2,11.2A11.212,11.212,0,0,0,123.2,120Zm0,20.8a9.6,9.6,0,1,1,9.6-9.6A9.611,9.611,0,0,1,123.2,140.8Z" transform="translate(287.2 1033)"/>
    <rect id="Rectangle_945" data-name="Rectangle 945" class="cls-1" width="11.538" height="1.6" transform="translate(406.536 1168.555) rotate(-56.312)"/>
    <path id="Path_5738" data-name="Path 5738" class="cls-1" d="M242.4,232a2.4,2.4,0,1,0,2.4,2.4A2.4,2.4,0,0,0,242.4,232Zm0,3.2a.8.8,0,1,1,.8-.8A.8.8,0,0,1,242.4,235.2Z" transform="translate(172 932.2)"/>
    <path id="Path_5739" data-name="Path 5739" class="cls-1" d="M162.4,184a2.4,2.4,0,1,0,2.4,2.4A2.4,2.4,0,0,0,162.4,184Zm0,3.2a.8.8,0,1,1,.8-.8A.8.8,0,0,1,162.4,187.2Z" transform="translate(244 975.4)"/>
    <path id="Path_5740" data-name="Path 5740" class="cls-1" d="M201.544,354.344l-4.234,4.234-1.834-1.834-1.131,1.131,2.4,2.4a.8.8,0,0,0,1.131,0l4.8-4.8Z" transform="translate(213.09 822.09)"/>
  </g>
</svg>
