<svg xmlns="http://www.w3.org/2000/svg" viewBox="-11247 -7097 45 30.372">
  <defs>
    <style>
      .cls-1 {
        fill: #5ca1bf;
      }
    </style>
  </defs>
  <g id="Group_1359" data-name="Group 1359" transform="translate(-11943 -8238)">
    <path id="Path_5741" data-name="Path 5741" class="cls-1" d="M33.4,58.007c-6.5,0-11.6,2.7-11.6,6.146v1.053a11.512,11.512,0,0,0-4,.974,20.012,20.012,0,0,0-6.206-.926c-6.5,0-11.6,2.7-11.6,6.145V82.233c0,3.446,5.094,6.145,11.6,6.145a19.943,19.943,0,0,0,6.3-.956,11.586,11.586,0,0,0,9.216,0,19.94,19.94,0,0,0,6.3.956c6.5,0,11.6-2.7,11.6-6.145V64.153C45,60.706,39.906,58.007,33.4,58.007ZM26,60.918a16.957,16.957,0,0,1,7.4-1.523,16.953,16.953,0,0,1,7.4,1.523c1.786.893,2.81,2.072,2.81,3.235s-1.024,2.341-2.81,3.234a16.95,16.95,0,0,1-7.4,1.524,20.866,20.866,0,0,1-2.538-.152,11.571,11.571,0,0,0-7.386-3.532,2.28,2.28,0,0,1-.286-1.074C23.194,62.99,24.218,61.811,26,60.918ZM22.5,86.991A10.182,10.182,0,0,1,15.717,84.4a10.264,10.264,0,0,1-2.479-3.331,10.143,10.143,0,0,1-.92-3.541q-.027-.372-.028-.751c0-.214.007-.426.02-.637a10.2,10.2,0,0,1,9.5-9.548c.229-.015.461-.024.694-.024l.21,0q.243,0,.484.021a10.141,10.141,0,0,1,4.756,1.556,10.275,10.275,0,0,1,3.786,4.282,10.134,10.134,0,0,1,.953,3.711c.013.211.021.423.021.637q0,.379-.028.751a10.139,10.139,0,0,1-.92,3.541A10.2,10.2,0,0,1,22.5,86.991ZM4.2,68.164a16.957,16.957,0,0,1,7.4-1.523,19.72,19.72,0,0,1,4.473.494,11.6,11.6,0,0,0-5.15,9.011A16.5,16.5,0,0,1,4.2,74.633c-1.786-.893-2.81-2.072-2.81-3.234S2.412,69.057,4.2,68.164Zm6.731,9.37a11.552,11.552,0,0,0,.359,2.208A16.753,16.753,0,0,1,4.2,78.221c-1.786-.893-2.81-2.072-2.81-3.234v-.629C3.234,76.175,6.754,77.414,10.928,77.534Zm.669,3.6h.154a11.589,11.589,0,0,0,1.2,2.227q-.67.043-1.358.043a16.953,16.953,0,0,1-7.4-1.524c-1.786-.893-2.81-2.072-2.81-3.234v-.7C3.332,79.86,7.132,81.133,11.6,81.133Zm0,5.858a16.952,16.952,0,0,1-7.4-1.524c-1.786-.893-2.81-2.072-2.81-3.234V81.6C3.332,83.517,7.132,84.79,11.6,84.79a22.466,22.466,0,0,0,2.4-.127,11.673,11.673,0,0,0,2.145,1.815A19.657,19.657,0,0,1,11.6,86.991Zm32.015-4.758c0,1.162-1.024,2.341-2.81,3.234a16.949,16.949,0,0,1-7.4,1.524,19.654,19.654,0,0,1-4.549-.513A11.7,11.7,0,0,0,31,84.663a22.464,22.464,0,0,0,2.4.127c4.465,0,8.265-1.273,10.208-3.186Zm0-3.589c0,1.162-1.024,2.341-2.81,3.234A16.951,16.951,0,0,1,33.4,83.4q-.687,0-1.358-.043a11.582,11.582,0,0,0,1.2-2.227H33.4c4.465,0,8.265-1.273,10.208-3.186Zm0-3.657c0,1.163-1.024,2.341-2.81,3.234a16.746,16.746,0,0,1-7.088,1.521,11.541,11.541,0,0,0,.359-2.208c4.173-.12,7.694-1.359,9.54-3.176Zm0-3.589c0,1.162-1.024,2.341-2.81,3.234a16.5,16.5,0,0,1-6.722,1.513,11.531,11.531,0,0,0-.349-2.261c4.322-.061,7.985-1.317,9.881-3.183Zm0-3.657c0,1.162-1.024,2.341-2.81,3.234A16.951,16.951,0,0,1,33.4,72.5h-.126a11.575,11.575,0,0,0-1.192-2.238q.648.037,1.318.038c4.465,0,8.265-1.273,10.208-3.186Z" transform="translate(696 1082.993)"/>
    <path id="Path_5742" data-name="Path 5742" class="cls-1" d="M151.273,151.306a3.223,3.223,0,0,0-.28-1.31,4.416,4.416,0,0,0-3.25-2.393c-.118-.023-.237-.043-.358-.059v-4.817a2.689,2.689,0,0,1,2.5,2.359.694.694,0,1,0,1.388,0,3.186,3.186,0,0,0-.1-.783,4.328,4.328,0,0,0-3.79-2.978v-.9a.693.693,0,0,0-1.244-.421l-.029.039a.691.691,0,0,0-.114.381v.9c-.166.021-.329.05-.488.085a4.008,4.008,0,0,0-3.4,3.675,3.219,3.219,0,0,0,.285,1.32,3.735,3.735,0,0,0,.827,1.16,4.641,4.641,0,0,0,1.6.993,5.261,5.261,0,0,0,1.171.287v4.818h0a3.961,3.961,0,0,1-.572-.14,3.231,3.231,0,0,1-1.293-.774,2.05,2.05,0,0,1-.634-1.442.694.694,0,0,0-1.388,0c0,.092.005.182.013.272a3.385,3.385,0,0,0,.773,1.855,4.293,4.293,0,0,0,1.155.977,5.033,5.033,0,0,0,1.5.579q.219.047.447.076v.906a.694.694,0,0,0,1.388,0v-.906q.228-.029.447-.076a5.035,5.035,0,0,0,1.5-.579,4.29,4.29,0,0,0,1.155-.977,3.385,3.385,0,0,0,.773-1.855C151.268,151.488,151.273,151.4,151.273,151.306Zm-5.52-3.912a3.563,3.563,0,0,1-1.2-.516,2.468,2.468,0,0,1-.912-1.074,1.872,1.872,0,0,1-.144-.719,2.688,2.688,0,0,1,2.5-2.358h0v4.716C145.915,147.429,145.833,147.413,145.753,147.394Zm4.132,3.912a2.051,2.051,0,0,1-.634,1.442,3.229,3.229,0,0,1-1.293.774,3.931,3.931,0,0,1-.572.14h0v-4.716a2.81,2.81,0,0,1,2.476,2.071A1.851,1.851,0,0,1,149.885,151.306Z" transform="translate(571.809 1011.578)"/>
  </g>
</svg>
