<svg xmlns="http://www.w3.org/2000/svg" viewBox="-10945 -7097 45 46">
  <defs>
    <style>
      .cls-1 {
        fill: #5ca1bf;
      }
    </style>
  </defs>
  <g id="Group_1358" data-name="Group 1358" transform="translate(-11943 -8238)">
    <rect id="Rectangle_946" data-name="Rectangle 946" class="cls-1" width="22" height="2" transform="translate(1009.5 1154.5)"/>
    <rect id="Rectangle_947" data-name="Rectangle 947" class="cls-1" width="2" height="2" transform="translate(1029.5 1157.5)"/>
    <rect id="Rectangle_948" data-name="Rectangle 948" class="cls-1" width="2" height="2" transform="translate(1009.5 1157.5)"/>
    <rect id="Rectangle_949" data-name="Rectangle 949" class="cls-1" width="2" height="2" transform="translate(1019.5 1148)"/>
    <rect id="Rectangle_950" data-name="Rectangle 950" class="cls-1" width="2" height="2" transform="translate(1022.5 1148)"/>
    <rect id="Rectangle_951" data-name="Rectangle 951" class="cls-1" width="2" height="2" transform="translate(1016.5 1148)"/>
    <rect id="Rectangle_952" data-name="Rectangle 952" class="cls-1" width="2" height="2" transform="translate(1013.5 1148)"/>
    <rect id="Rectangle_953" data-name="Rectangle 953" class="cls-1" width="2" height="2" transform="translate(1025.5 1148)"/>
    <path id="Path_5743" data-name="Path 5743" class="cls-1" d="M46.347,43.118A5.946,5.946,0,0,1,43.122,44l5.894-17.683a1,1,0,0,0-.538-1.228l-5.41-2.435V13a3,3,0,0,0-3-3h-1.5V5a1,1,0,0,0-1-1h-8.5V0h-2V4h-8.5a1,1,0,0,0-1,1v5h-1.5a3,3,0,0,0-3,3v9.653L7.656,25.088a1,1,0,0,0-.538,1.228L13.012,44a5.946,5.946,0,0,1-3.225-.881A7.891,7.891,0,0,0,5.567,42v2a5.951,5.951,0,0,1,3.279.882A7.89,7.89,0,0,0,13.067,46a8.293,8.293,0,0,0,1.466-.113,8.107,8.107,0,0,0,2.754-1.007,5.941,5.941,0,0,1,3.27-.88,5.951,5.951,0,0,1,3.279.882A7.89,7.89,0,0,0,28.057,46a7.891,7.891,0,0,0,4.221-1.118,6.545,6.545,0,0,1,6.56,0A8.147,8.147,0,0,0,41.6,45.887,8.279,8.279,0,0,0,43.067,46a7.891,7.891,0,0,0,4.221-1.118A5.951,5.951,0,0,1,50.567,44V42A7.889,7.889,0,0,0,46.347,43.118Zm.486-16.577-.717,2.151L29.067,20.859V18.547ZM19.567,6h17v4h-17Zm-4.5,7a1,1,0,0,1,1-1h24a1,1,0,0,1,1,1v8.753l-12.59-5.665a1,1,0,0,0-.821,0l-12.59,5.665V13ZM9.3,26.541l17.766-7.994v2.312L10.018,28.692ZM41.107,43.72a8.114,8.114,0,0,1-1.33-.606,8.538,8.538,0,0,0-8.44,0A5.951,5.951,0,0,1,28.057,44a5.95,5.95,0,0,1-3.279-.882A7.891,7.891,0,0,0,20.557,42a7.88,7.88,0,0,0-4.211,1.115,8.089,8.089,0,0,1-1.32.6L10.654,30.6,27.067,23.06V35h2V23.06L45.479,30.6Z" transform="translate(992.433 1141)"/>
  </g>
</svg>
