<svg xmlns="http://www.w3.org/2000/svg" viewBox="-11845 -6968 45 44.77">
  <defs>
    <style>
      .cls-1 {
        fill: #5ca1bf;
      }
    </style>
  </defs>
  <g id="Group_1362" data-name="Group 1362" transform="translate(-11943 -8238)">
    <path id="Path_5744" data-name="Path 5744" class="cls-1" d="M244.5,206.478H243a1.5,1.5,0,0,1,0-3h1.5a1.5,1.5,0,0,1,1.5,1.5h1.5a3,3,0,0,0-3-3v-.75H243v.75a3,3,0,0,0,0,6h1.5a1.5,1.5,0,0,1,0,3H243a1.5,1.5,0,0,1-1.5-1.5H240a3,3,0,0,0,3,3v.75h1.5v-.75a3,3,0,0,0,0-6Z" transform="translate(-119.5 1087.522)"/>
    <rect id="Rectangle_954" data-name="Rectangle 954" class="cls-1" width="1.5" height="1.5" transform="translate(130.25 1309)"/>
    <rect id="Rectangle_955" data-name="Rectangle 955" class="cls-1" width="1.5" height="1.5" transform="translate(133.25 1309)"/>
    <rect id="Rectangle_956" data-name="Rectangle 956" class="cls-1" width="1.5" height="1.5" transform="translate(136.25 1309)"/>
    <rect id="Rectangle_957" data-name="Rectangle 957" class="cls-1" width="1.5" height="1.5" transform="translate(139.25 1309)"/>
    <rect id="Rectangle_958" data-name="Rectangle 958" class="cls-1" width="1.5" height="1.5" transform="translate(139.25 1306)"/>
    <rect id="Rectangle_959" data-name="Rectangle 959" class="cls-1" width="1.5" height="1.5" transform="translate(139.25 1303)"/>
    <rect id="Rectangle_960" data-name="Rectangle 960" class="cls-1" width="1.5" height="1.5" transform="translate(139.25 1300)"/>
    <rect id="Rectangle_961" data-name="Rectangle 961" class="cls-1" width="1.5" height="1.5" transform="translate(139.25 1297)"/>
    <rect id="Rectangle_962" data-name="Rectangle 962" class="cls-1" width="1.5" height="1.5" transform="translate(139.25 1294)"/>
    <rect id="Rectangle_963" data-name="Rectangle 963" class="cls-1" width="1.5" height="1.5" transform="translate(139.25 1291)"/>
    <rect id="Rectangle_964" data-name="Rectangle 964" class="cls-1" width="1.5" height="1.5" transform="translate(139.25 1288)"/>
    <rect id="Rectangle_965" data-name="Rectangle 965" class="cls-1" width="1.5" height="1.5" transform="translate(101 1295.5)"/>
    <rect id="Rectangle_966" data-name="Rectangle 966" class="cls-1" width="1.5" height="1.5" transform="translate(101 1292.5)"/>
    <rect id="Rectangle_967" data-name="Rectangle 967" class="cls-1" width="1.5" height="1.5" transform="translate(101 1289.5)"/>
    <rect id="Rectangle_968" data-name="Rectangle 968" class="cls-1" width="1.5" height="1.5" transform="translate(101 1286.5)"/>
    <rect id="Rectangle_969" data-name="Rectangle 969" class="cls-1" width="1.5" height="1.5" transform="translate(101 1283.5)"/>
    <rect id="Rectangle_970" data-name="Rectangle 970" class="cls-1" width="1.5" height="1.5" transform="translate(101 1280.5)"/>
    <rect id="Rectangle_971" data-name="Rectangle 971" class="cls-1" width="1.5" height="1.5" transform="translate(101 1277.5)"/>
    <rect id="Rectangle_972" data-name="Rectangle 972" class="cls-1" width="1.5" height="1.5" transform="translate(101 1274.5)"/>
    <rect id="Rectangle_973" data-name="Rectangle 973" class="cls-1" width="1.5" height="1.5" transform="translate(104 1274.5)"/>
    <rect id="Rectangle_974" data-name="Rectangle 974" class="cls-1" width="1.5" height="1.5" transform="translate(107 1274.5)"/>
    <rect id="Rectangle_975" data-name="Rectangle 975" class="cls-1" width="1.5" height="1.5" transform="translate(110 1274.5)"/>
    <rect id="Rectangle_976" data-name="Rectangle 976" class="cls-1" width="1.5" height="1.5" transform="translate(113 1274.5)"/>
    <rect id="Rectangle_977" data-name="Rectangle 977" class="cls-1" width="1.5" height="1.5" transform="translate(101.75 1307.5)"/>
    <path id="Path_5745" data-name="Path 5745" class="cls-1" d="M44.25,5.728H34.5v-.75a3.754,3.754,0,0,0-3.75-3.75H21a.749.749,0,0,0-.75.75,4.433,4.433,0,0,0,.615,2.25H20.25a2.24,2.24,0,0,0-1.665,3.75,2.216,2.216,0,0,0,0,3,2.216,2.216,0,0,0,0,3,2.24,2.24,0,0,0,1.665,3.75h1.287L13.7,26.219a.753.753,0,0,0-.2.509v3H.75a.749.749,0,0,0-.75.75v12a.749.749,0,0,0,.75.75H7.5a.749.749,0,0,0,.75-.75v-.75h2.073l8.018,4.009a2.443,2.443,0,0,0,2.331-.074l16.362-9.545a2.422,2.422,0,0,0,.818-3.431l.928-.928a.747.747,0,0,0,.22-.53v-4.5a.753.753,0,0,0-.2-.509l-7.837-8.491H44.25a.749.749,0,0,0,.75-.75V6.478A.749.749,0,0,0,44.25,5.728Zm-37.5,36H1.5v-10.5H6.75Zm13.5-36h4.5A.739.739,0,0,1,25,5.78a.719.719,0,0,1,.07.029.78.78,0,0,1,.158.106.756.756,0,0,1,.1.108.735.735,0,0,1,.169.455.75.75,0,0,1-.75.75h-4.5a.75.75,0,0,1,0-1.5Zm0,3h4.5a.75.75,0,1,1,0,1.5h-4.5a.75.75,0,0,1,0-1.5Zm0,3h4.5a.75.75,0,1,1,0,1.5h-4.5a.75.75,0,0,1,0-1.5Zm0,4.5a.75.75,0,0,1,0-1.5h4.5a.75.75,0,0,1,0,1.5ZM36.278,34.822,19.917,44.367a.947.947,0,0,1-.9.028l-8.176-4.088a.748.748,0,0,0-.336-.08H8.25v-9h7.189l5.909,5.909a1.371,1.371,0,0,1-1.939,1.94L15.53,35.2,14.47,36.258l3.879,3.879a2.871,2.871,0,0,0,4.06-4.06l-.608-.608,13.833-2.406a.951.951,0,0,1,.644,1.759Zm1.222-7.8v3.9l-.814.814a2.442,2.442,0,0,0-1.308-.145L20.5,34.172,16.28,29.948a.747.747,0,0,0-.53-.22H15V27.021l8.578-9.293H24.75a2.24,2.24,0,0,0,1.665-3.75,2.216,2.216,0,0,0,0-3,2.216,2.216,0,0,0,0-3,2.274,2.274,0,0,0,.223-.283A5.271,5.271,0,0,0,28.5,10.029v6.949a.753.753,0,0,0,.2.509ZM35.25,16.228H30V10.757a5.217,5.217,0,0,0,1.5.221v-1.5a3.754,3.754,0,0,1-3.75-3.75.749.749,0,0,0-.75-.75h-.58c-.005-.006-.012-.01-.017-.016a2.24,2.24,0,0,0-.3-.271c-.014-.011-.027-.024-.042-.035a2.234,2.234,0,0,0-.371-.217c-.009,0-.017-.01-.026-.014a2.239,2.239,0,0,0-.416-.138l-.026-.008a2.269,2.269,0,0,0-.47-.051H22.784a2.974,2.974,0,0,1-.938-1.5h8.9A2.253,2.253,0,0,1,33,4.978v1.5a.749.749,0,0,0,.75.75h1.5Zm3,0h-1.5v-9h1.5Zm5.25,0H39.75v-9H43.5Z" transform="translate(98 1268.772)"/>
  </g>
</svg>
