<svg xmlns="http://www.w3.org/2000/svg" viewBox="3571.001 1679 35.311 30">
  <defs>
    <style>
      .cls-1 {
        fill: #47708e;
      }
    </style>
  </defs>
  <path id="Path_5642" data-name="Path 5642" class="cls-1" d="M35.191,27.538,34.3,25.361a1.8,1.8,0,0,0-1.641-1.07h-.785v-14.2h1.534A1.417,1.417,0,0,0,34.8,8.983a1.439,1.439,0,0,0-.785-1.606L19.169.348a3.478,3.478,0,0,0-3.033,0L1.221,7.377a1.446,1.446,0,0,0,.607,2.748h1.5v14.2H2.684A1.8,1.8,0,0,0,1.043,25.4L.151,27.538a1.858,1.858,0,0,0,.178,1.677A1.75,1.75,0,0,0,1.792,30H33.549a1.75,1.75,0,0,0,1.463-.785A1.658,1.658,0,0,0,35.191,27.538ZM1.863,8.662l14.88-7.029a2.04,2.04,0,0,1,1.82,0l14.88,7.029H31.159a.716.716,0,0,0-.714.714c0,.071,0,.107.036.143,0,.036-.036.107-.036.143v14.63H27.59v-9.92a2.855,2.855,0,1,0-5.709,0v9.955H20.454V14.371a2.855,2.855,0,0,0-5.709,0v9.955H13.317V14.371a2.855,2.855,0,1,0-5.709,0v9.955H4.754V10.089H18.705a.714.714,0,1,0,0-1.427Zm24.3,5.709v9.955H23.308V14.371a1.427,1.427,0,1,1,2.855,0Zm-7.136,0v9.955H16.172V14.371a1.427,1.427,0,1,1,2.855,0Zm-7.136,0v9.955H9.035V14.371a1.427,1.427,0,0,1,2.855,0ZM33.835,28.43c-.036.036-.143.178-.285.178H1.792a.3.3,0,0,1-.285-.178.354.354,0,0,1-.036-.357l.892-2.105a.392.392,0,0,1,.357-.214H32.693a.392.392,0,0,1,.357.214l.892,2.141A.555.555,0,0,1,33.835,28.43Z" transform="translate(3570.973 1679)"/>
</svg>
