<svg xmlns="http://www.w3.org/2000/svg" viewBox="2970 1683 33.51 30">
  <defs>
    <style>
      .cls-1 {
        fill: #47708e;
      }
    </style>
  </defs>
  <path id="Path_5677" data-name="Path 5677" class="cls-1" d="M32.187,30H1.315A1.321,1.321,0,0,1,0,28.685V1.315a1.315,1.315,0,0,1,2.63,0V27.377H32.194A1.311,1.311,0,1,1,32.187,30ZM15.526,8.763a1.314,1.314,0,0,0-1.751.128L5.516,17.585a1.318,1.318,0,0,0,.045,1.864,1.3,1.3,0,0,0,.894.353,1.282,1.282,0,0,0,.962-.413l7.447-7.838,4.727,3.637a1.292,1.292,0,0,0,1.751-.15l9.311-9.89v5.8a1.315,1.315,0,1,0,2.63,0V1.969A1.321,1.321,0,0,0,31.969.654H23.214a1.315,1.315,0,1,0,0,2.63H28.8l-8.545,9.108Z" transform="translate(2970 1683)"/>
</svg>
