<?xml version="1.0" standalone="no"?>
<!DOCTYPE svg PUBLIC "-//W3C//DTD SVG 1.1//EN" "http://www.w3.org/Graphics/SVG/1.1/DTD/svg11.dtd" >
<svg xmlns="http://www.w3.org/2000/svg">
<metadata>
Created by FontPrep 20130207 at Fri Jul 10 11:12:26 2015
 By Menn
Copyright (c) 2010-2011 by Software Industry Promotion Agency (Public Organization) (SIPA). All rights reserved.
Created by : Suppakit CHALERMLARP.
</metadata>
<defs>
<font id="4225a5f47f7da26e681adadebaaad17c" horiz-adv-x='1024' >
  <font-face 
    font-family="THSarabunNew"
    font-weight="400"
    font-stretch="normal"
    units-per-em="2048"
    panose-1="2 11 5 0 4 2 0 2 0 3"
    ascent="1638"
    descent="-410"
    x-height="696"
    cap-height="975"
    bbox="-874 -862 1939 1712"
    underline-thickness="61"
    underline-position="-41"
    unicode-range="U+0020-FB02"
  />
<missing-glyph horiz-adv-x="1417" 
d="M1253 57v1542h-1089v-1542h1089zM1315 0h-1213v1657h1213v-1657z" />
    <glyph glyph-name="Agrave" unicode="A&#x300;" horiz-adv-x="819" 
d="M594 381l-184 520l-187 -520h371zM819 0h-88l-113 313h-419l-111 -313h-88l369 989h82zM500 1077h-64l-119 166l80 21z" />
    <glyph glyph-name="Aacute" unicode="A&#x301;" horiz-adv-x="819" 
d="M594 381l-184 520l-187 -520h371zM819 0h-88l-113 313h-419l-111 -313h-88l369 989h82zM381 1077h-64l103 187l80 -21z" />
    <glyph glyph-name="Atilde" unicode="A&#x303;" horiz-adv-x="819" 
d="M594 381l-184 520l-187 -520h371zM819 0h-88l-113 313h-419l-111 -313h-88l369 989h82zM483 1081q-32 0 -88 34t-72 34q-17 -1 -31 -19t-18 -53h-51q2 61 30 92q27 31 67 31t92 -34t85 -33q32 0 38 71h51q-4 -123 -103 -123z" />
    <glyph glyph-name="Egrave" unicode="E&#x300;" horiz-adv-x="718" 
d="M641 0h-530v975h530v-68h-451v-358h402v-68h-402v-413h451v-68zM451 1077h-64l-119 166l80 21z" />
    <glyph glyph-name="Eacute" unicode="E&#x301;" horiz-adv-x="718" 
d="M641 0h-530v975h530v-68h-451v-358h402v-68h-402v-413h451v-68zM332 1077h-64l103 187l80 -21z" />
    <glyph glyph-name="Igrave" unicode="I&#x300;" horiz-adv-x="301" 
d="M190 0h-79v975h79v-975zM242 1077h-64l-119 166l80 21z" />
    <glyph glyph-name="Iacute" unicode="I&#x301;" horiz-adv-x="301" 
d="M190 0h-79v975h79v-975zM123 1077h-64l103 187l80 -21z" />
    <glyph glyph-name="Ograve" unicode="O&#x300;" horiz-adv-x="995" 
d="M870 485q0 181 -104 309t-268 128t-268 -128t-105 -308q0 -180 104 -309q105 -128 269 -128t268 128t104 308zM950 485q0 -219 -126 -362t-326 -143t-327 143q-126 143 -126 362t126 363t327 143q200 1 326 -143t126 -363zM588 1077h-64l-118 166l79 21z" />
    <glyph glyph-name="Oacute" unicode="O&#x301;" horiz-adv-x="995" 
d="M870 485q0 181 -104 309t-268 128t-268 -128t-105 -308q0 -180 104 -309q105 -128 269 -128t268 128t104 308zM950 485q0 -219 -126 -362t-326 -143t-327 143q-126 143 -126 362t126 363t327 143q200 1 326 -143t126 -363zM469 1077h-63l102 187l80 -21z" />
    <glyph glyph-name="Otilde" unicode="O&#x303;" horiz-adv-x="995" 
d="M870 485q0 181 -104 309t-268 128t-268 -128t-105 -308q0 -180 104 -309q105 -128 269 -128t268 128t104 308zM950 485q0 -219 -126 -362t-326 -143t-327 143q-126 143 -126 362t126 363t327 143q200 1 326 -143t126 -363zM571 1081q-32 0 -88 34t-72 34q-17 -1 -31 -19
t-18 -53h-51q2 61 30 92q27 31 67 31q39 0 92 -34q52 -34 85 -33q32 0 38 71h51q-4 -123 -103 -123z" />
    <glyph glyph-name="Ugrave" unicode="U&#x300;" horiz-adv-x="954" 
d="M844 412q0 -430 -367 -430t-366 430v563h79v-561q0 -193 79 -279t209 -86t209 86t77 279v561h80v-563zM532 1077h-63l-119 166l80 21z" />
    <glyph glyph-name="Uacute" unicode="U&#x301;" horiz-adv-x="954" 
d="M844 412q0 -430 -367 -430t-366 430v563h79v-561q0 -193 79 -279t209 -86t209 86t77 279v561h80v-563zM469 1077h-63l102 187l80 -21z" />
    <glyph glyph-name="Yacute" unicode="Y&#x301;" horiz-adv-x="749" 
d="M414 0h-78v428l-336 547h92l283 -477l282 477h93l-336 -545v-430zM377 1077h-64l103 187l80 -21z" />
    <glyph glyph-name="agrave" unicode="a&#x300;" horiz-adv-x="704" 
d="M518 225v140q-381 0 -381 -177q0 -68 41 -104t103 -35q162 0 227 137q10 23 10 39zM53 174q0 260 453 260h12v12q0 68 -31 119q-47 82 -159 82q-72 0 -222 -47l-10 74q115 37 238 37q264 0 264 -291v-250q0 -86 25 -170l-72 -14l-29 112q-94 -117 -248 -116
q-90 0 -156 51t-65 141zM442 799h-63l-119 166l80 20z" />
    <glyph glyph-name="aacute" unicode="a&#x301;" horiz-adv-x="704" 
d="M518 225v140q-381 0 -381 -177q0 -68 41 -104t103 -35q162 0 227 137q10 23 10 39zM53 174q0 260 453 260h12v12q0 68 -31 119q-47 82 -159 82q-72 0 -222 -47l-10 74q115 37 238 37q264 0 264 -291v-250q0 -86 25 -170l-72 -14l-29 112q-94 -117 -248 -116
q-90 0 -156 51t-65 141zM324 799h-64l102 186l80 -20z" />
    <glyph glyph-name="atilde" unicode="a&#x303;" horiz-adv-x="704" 
d="M518 225v140q-381 0 -381 -177q0 -68 41 -104t103 -35q162 0 227 137q10 23 10 39zM53 174q0 260 453 260h12v12q0 68 -31 119q-47 82 -159 82q-72 0 -222 -47l-10 74q115 37 238 37q264 0 264 -291v-250q0 -86 25 -170l-72 -14l-29 112q-94 -117 -248 -116
q-90 0 -156 51t-65 141zM426 803q-36 -1 -88 33t-71 34t-33 -18t-17 -53h-51q2 61 30 92t65 31t76 -24q38 -24 58 -34t41 -10q35 0 41 72h51q-4 -123 -102 -123z" />
    <glyph glyph-name="egrave" unicode="e&#x300;" horiz-adv-x="765" 
d="M400 647q-120 0 -184 -74t-79 -165h490q-2 84 -47 149q-60 90 -180 90zM402 -18q-150 0 -248 98t-98 260t98 266t249 105q293 0 299 -367h-569q4 -139 83 -216t203 -77t245 47l6 -67q-118 -49 -268 -49zM473 799h-63l-119 166l80 20z" />
    <glyph glyph-name="eacute" unicode="e&#x301;" horiz-adv-x="765" 
d="M400 647q-120 0 -184 -74t-79 -165h490q-2 84 -47 149q-60 90 -180 90zM402 -18q-150 0 -248 98t-98 260t98 266t249 105q293 0 299 -367h-569q4 -139 83 -216t203 -77t245 47l6 -67q-118 -49 -268 -49zM354 799h-63l102 186l80 -20z" />
    <glyph glyph-name="igrave" unicode="i&#x300;" horiz-adv-x="292" 
d="M184 0h-78v696h78v-696zM238 799h-64l-119 166l80 20z" />
    <glyph glyph-name="iacute" unicode="i&#x301;" horiz-adv-x="292" 
d="M184 0h-78v696h78v-696zM119 799h-64l103 186l80 -20z" />
    <glyph glyph-name="ograve" unicode="o&#x300;" horiz-adv-x="815" 
d="M680 346q0 127 -77 212t-195 85t-196 -85q-77 -85 -77 -212t77 -213t196 -86q120 0 196 86t76 213zM758 346q0 -154 -96 -260t-254 -106t-254 106t-97 260q1 154 97 259t254 105t254 -104q96 -106 96 -260zM498 799h-64l-119 166l80 20z" />
    <glyph glyph-name="oacute" unicode="o&#x301;" horiz-adv-x="815" 
d="M680 346q0 127 -77 212t-195 85t-196 -85q-77 -85 -77 -212t77 -213t196 -86q120 0 196 86t76 213zM758 346q0 -154 -96 -260t-254 -106t-254 106t-97 260q1 154 97 259t254 105t254 -104q96 -106 96 -260zM379 799h-64l103 186l80 -20z" />
    <glyph glyph-name="otilde" unicode="o&#x303;" horiz-adv-x="815" 
d="M680 346q0 127 -77 212t-195 85t-196 -85q-77 -85 -77 -212t77 -213t196 -86q120 0 196 86t76 213zM758 346q0 -154 -96 -260t-254 -106t-254 106t-97 260q1 154 97 259t254 105t254 -104q96 -106 96 -260zM481 803q-36 -1 -88 33t-71 34t-33 -18t-17 -53h-51q2 61 30 92
t66 31t76 -24t58 -34t41 -10q35 0 40 72h52q-4 -123 -103 -123z" />
    <glyph glyph-name="ugrave" unicode="u&#x300;" horiz-adv-x="798" 
d="M356 -18q-250 0 -250 323v391h80v-377q0 -268 189 -268q88 0 163 62t74 161v422h80v-526q0 -76 35 -168l-76 -16q-25 70 -33 135q-90 -139 -262 -139zM489 799h-63l-119 166l80 20z" />
    <glyph glyph-name="uacute" unicode="u&#x301;" horiz-adv-x="798" 
d="M356 -18q-250 0 -250 323v391h80v-377q0 -268 189 -268q88 0 163 62t74 161v422h80v-526q0 -76 35 -168l-76 -16q-25 70 -33 135q-90 -139 -262 -139zM371 799h-64l103 186l79 -20z" />
    <glyph glyph-name="yacute" unicode="y&#x301;" horiz-adv-x="690" 
d="M377 0q-121 -272 -322 -319l-18 63q174 39 264 279q0 6 -6 24l-289 649h86l260 -590l244 590h88zM317 799h-63l102 186l80 -20z" />
    <glyph glyph-name="Itilde" unicode="I&#x303;" horiz-adv-x="301" 
d="M190 0h-79v975h79v-975zM225 1081q-32 0 -88 34t-73 34q-17 -1 -31 -19t-17 -53h-51q2 61 30 92q27 31 67 31t92 -34t85 -33q32 0 37 71h52q-4 -123 -103 -123z" />
    <glyph glyph-name="itilde" unicode="i&#x303;" horiz-adv-x="292" 
d="M184 0h-78v696h78v-696zM221 803q-36 -1 -88 33t-71 34t-33 -18t-17 -53h-51q2 61 30 92t65 31t76 -24q38 -24 58 -34t41 -10q35 0 41 72h52q-4 -123 -103 -123z" />
    <glyph glyph-name="Utilde" unicode="U&#x303;" horiz-adv-x="974" 
d="M854 412q0 -430 -367 -430t-366 430v563h80v-561q0 -193 79 -279q78 -86 208 -86t209 86t77 279v561h80v-563zM561 1081q-32 0 -88 34t-73 34q-17 -1 -31 -19t-17 -53h-51q2 61 30 92t67 31t91 -34q52 -33 85 -33q32 0 38 71h52q-4 -123 -103 -123z" />
    <glyph glyph-name="utilde" unicode="u&#x303;" horiz-adv-x="829" 
d="M356 -18q-250 0 -250 323v391h80v-377q0 -268 189 -268q88 0 163 62t74 161v422h80v-526q0 -76 35 -168l-76 -16q-25 70 -33 135q-90 -139 -262 -139zM487 803q-36 -1 -88 33q-52 33 -71 34q-18 0 -32 -18t-17 -53h-52q2 61 30 92t66 31t76 -24t58 -34t41 -10q35 0 41 72
h51q-4 -123 -103 -123z" />
    <glyph glyph-name="uni1EA0" unicode="A&#x323;" horiz-adv-x="819" 
d="M594 381l-184 520l-187 -520h371zM819 0h-88l-113 313h-419l-111 -313h-88l369 989h82zM469 -160q0 -22 -16 -40q-16 -17 -42 -17t-43 17q-18 18 -18 40t18 40t43 20q26 0 42 -19t16 -41z" />
    <glyph glyph-name="uni1EA1" unicode="a&#x323;" horiz-adv-x="704" 
d="M518 225v140q-381 0 -381 -177q0 -68 41 -104t103 -35q162 0 227 137q10 23 10 39zM53 174q0 260 453 260h12v12q0 68 -31 119q-47 82 -159 82q-72 0 -222 -47l-10 74q115 37 238 37q264 0 264 -291v-250q0 -86 25 -170l-72 -14l-29 112q-94 -117 -248 -116
q-90 0 -156 51t-65 141zM293 -160q0 22 17 40t43 20q27 0 43 -19t16 -41t-16 -40q-16 -17 -43 -17q-26 0 -43 17q-17 18 -17 40z" />
    <glyph glyph-name="uni1EA2" unicode="A&#x309;" horiz-adv-x="819" 
d="M594 381l-184 520l-187 -520h371zM819 0h-88l-113 313h-419l-111 -313h-88l369 989h82zM432 1358q55 0 90 -30t35 -89t-57 -104t-58 -70h-63q2 53 58 94t57 84q0 58 -72 60q-53 0 -92 -58l-39 31q45 82 141 82z" />
    <glyph glyph-name="uni1EA3" unicode="a&#x309;" horiz-adv-x="704" 
d="M518 225v140q-381 0 -381 -177q0 -68 41 -104t103 -35q162 0 227 137q10 23 10 39zM53 174q0 260 453 260h12v12q0 68 -31 119q-47 82 -159 82q-72 0 -222 -47l-10 74q115 37 238 37q264 0 264 -291v-250q0 -86 25 -170l-72 -14l-29 112q-94 -117 -248 -116
q-90 0 -156 51t-65 141zM294 991q-56 0 -91 -51l-35 27q41 74 127 74q50 -1 81 -27t31 -80q1 -54 -51 -94q-52 -41 -52 -63h-57q2 48 53 85t50 76q0 53 -56 53z" />
    <glyph glyph-name="uni1EA4" unicode="&#xc2;&#x301;" horiz-adv-x="819" 
d="M594 381l-184 520l-187 -520h371zM819 0h-88l-113 313h-419l-111 -313h-88l369 989h82zM504 1166l79 142l72 -18l-107 -149h-21l53 -60h-76l-94 107l-95 -107h-75l141 160h57z" />
    <glyph glyph-name="uni1EA5" unicode="&#xe2;&#x301;" horiz-adv-x="704" 
d="M518 225v140q-381 0 -381 -177q0 -68 41 -104t103 -35q162 0 227 137q10 23 10 39zM53 174q0 260 453 260h12v12q0 68 -31 119q-47 82 -159 82q-72 0 -222 -47l-10 74q115 37 238 37q264 0 264 -291v-250q0 -86 25 -170l-72 -14l-29 112q-94 -117 -248 -116
q-90 0 -156 51t-65 141zM426 912l83 151l72 -19l-107 -149h-33l81 -92h-76l-94 106l-94 -106h-76l142 160h57z" />
    <glyph glyph-name="uni1EA6" unicode="&#xc2;&#x300;" horiz-adv-x="819" 
d="M594 381l-184 520l-187 -520h371zM819 0h-88l-113 313h-419l-111 -313h-88l369 989h82zM438 1241l142 -160h-76l-94 107l-95 -107h-75l141 160h57zM601 1141h-57l-107 149l72 18z" />
    <glyph glyph-name="uni1EA7" unicode="&#xe2;&#x300;" horiz-adv-x="704" 
d="M518 225v140q-381 0 -381 -177q0 -68 41 -104t103 -35q162 0 227 137q10 23 10 39zM53 174q0 260 453 260h12v12q0 68 -31 119q-47 82 -159 82q-72 0 -222 -47l-10 74q115 37 238 37q264 0 264 -291v-250q0 -86 25 -170l-72 -14l-29 112q-94 -117 -248 -116
q-90 0 -156 51t-65 141zM381 963l141 -160h-76l-94 106l-94 -106h-76l142 160h57zM536 895h-57l-107 149l72 19z" />
    <glyph glyph-name="uni1EA8" unicode="&#xc2;&#x309;" horiz-adv-x="819" 
d="M594 381l-184 520l-187 -520h371zM819 0h-88l-113 313h-419l-111 -313h-88l369 989h82zM550 1350q-56 0 -91 -52l-35 28q41 74 127 73q50 -1 81 -27t31 -80q1 -54 -51 -94t-52 -62h-29l49 -55h-76l-94 107l-95 -107h-75l141 160h57l70 -79q11 32 55 64t43 70q0 54 -56 54
z" />
    <glyph glyph-name="uni1EA9" unicode="&#xe2;&#x309;" horiz-adv-x="704" 
d="M518 225v140q-381 0 -381 -177q0 -68 41 -104t103 -35q162 0 227 137q10 23 10 39zM53 174q0 260 453 260h12v12q0 68 -31 119q-47 82 -159 82q-72 0 -222 -47l-10 74q115 37 238 37q264 0 264 -291v-250q0 -86 25 -170l-72 -14l-29 112q-94 -117 -248 -116
q-90 0 -156 51t-65 141zM469 1174q50 0 81 -26t31 -80q1 -54 -51 -95t-52 -62h-51l95 -108h-76l-94 106l-94 -106h-76l142 160h57l41 -46q5 43 54 79t48 75q0 55 -64 53q-48 0 -83 -51l-35 27q41 74 127 74z" />
    <glyph glyph-name="uni1EAA" unicode="&#xc2;&#x303;" horiz-adv-x="819" 
d="M594 381l-184 520l-187 -520h371zM819 0h-88l-113 313h-419l-111 -313h-88l369 989h82zM438 1241l142 -160h-76l-94 107l-95 -107h-75l141 160h57zM487 1298q-32 0 -88 34t-72 34q-17 0 -31 -18t-17 -54h-52q2 61 30 92t67 31q39 1 92 -33q52 -34 85 -34q32 0 38 71h51
q-4 -123 -103 -123z" />
    <glyph glyph-name="uni1EAB" unicode="&#xe2;&#x303;" horiz-adv-x="704" 
d="M518 225v140q-381 0 -381 -177q0 -68 41 -104t103 -35q162 0 227 137q10 23 10 39zM53 174q0 260 453 260h12v12q0 68 -31 119q-47 82 -159 82q-72 0 -222 -47l-10 74q115 37 238 37q264 0 264 -291v-250q0 -86 25 -170l-72 -14l-29 112q-94 -117 -248 -116
q-90 0 -156 51t-65 141zM381 963l141 -160h-76l-94 106l-94 -106h-76l142 160h57zM430 1018q-36 0 -88 34t-71 33q-19 0 -33 -18t-17 -53h-51q2 61 30 92t65 31q37 1 76 -23q38 -24 58 -34t41 -11q35 0 41 72h51q-4 -123 -102 -123z" />
    <glyph glyph-name="uni1EAC" unicode="&#xc2;&#x323;" horiz-adv-x="819" 
d="M594 381l-184 520l-187 -520h371zM819 0h-88l-113 313h-419l-111 -313h-88l369 989h82zM469 -160q0 -22 -16 -40q-16 -17 -42 -17t-43 17q-18 18 -18 40t18 40t43 20q26 0 42 -19t16 -41zM438 1241l142 -160h-76l-94 107l-95 -107h-75l141 160h57z" />
    <glyph glyph-name="uni1EAD" unicode="&#xe2;&#x323;" horiz-adv-x="704" 
d="M518 225v140q-381 0 -381 -177q0 -68 41 -104t103 -35q162 0 227 137q10 23 10 39zM53 174q0 260 453 260h12v12q0 68 -31 119q-47 82 -159 82q-72 0 -222 -47l-10 74q115 37 238 37q264 0 264 -291v-250q0 -86 25 -170l-72 -14l-29 112q-94 -117 -248 -116
q-90 0 -156 51t-65 141zM293 -160q0 22 17 40t43 20q27 0 43 -19t16 -41t-16 -40q-16 -17 -43 -17q-26 0 -43 17q-17 18 -17 40zM381 963l141 -160h-76l-94 106l-94 -106h-76l142 160h57z" />
    <glyph glyph-name="uni1EAE" unicode="&#x102;&#x301;" horiz-adv-x="819" 
d="M594 381l-184 520l-187 -520h371zM819 0h-88l-113 313h-419l-111 -313h-88l369 989h82zM405 1130q62 0 93 37q16 16 24 39h70q-10 -55 -56 -97t-126 -42t-136 49q-37 35 -49 90h72q4 -11 10 -21l85 156l72 -18l-107 -149h-43q29 -44 91 -44z" />
    <glyph glyph-name="uni1EAF" unicode="&#x103;&#x301;" horiz-adv-x="704" 
d="M518 225v140q-381 0 -381 -177q0 -68 41 -104t103 -35q162 0 227 137q10 23 10 39zM53 174q0 260 453 260h12v12q0 68 -31 119q-47 82 -159 82q-72 0 -222 -47l-10 74q115 37 238 37q264 0 264 -291v-250q0 -86 25 -170l-72 -14l-29 112q-94 -117 -248 -116
q-90 0 -156 51t-65 141zM240 928q26 -76 112 -76q57 0 88 37q16 16 25 39h70q-11 -55 -57 -97q-46 -43 -126 -43t-126 42t-58 98h72zM308 930h-57l92 168l72 -19z" />
    <glyph glyph-name="uni1EB0" unicode="&#x102;&#x300;" horiz-adv-x="819" 
d="M594 381l-184 520l-187 -520h371zM819 0h-88l-113 313h-419l-111 -313h-88l369 989h82zM410 1130q57 0 88 37q16 16 24 39h70q-10 -55 -56 -97t-126 -42t-136 49q-37 35 -49 90h72q26 -76 113 -76zM396 1178h-57l-107 149l72 18z" />
    <glyph glyph-name="uni1EB1" unicode="&#x103;&#x300;" horiz-adv-x="704" 
d="M518 225v140q-381 0 -381 -177q0 -68 41 -104t103 -35q162 0 227 137q10 23 10 39zM53 174q0 260 453 260h12v12q0 68 -31 119q-47 82 -159 82q-72 0 -222 -47l-10 74q115 37 238 37q264 0 264 -291v-250q0 -86 25 -170l-72 -14l-29 112q-94 -117 -248 -116
q-90 0 -156 51t-65 141zM240 928q26 -76 112 -76q57 0 88 37q16 16 25 39h70q-11 -55 -57 -97q-46 -43 -126 -43t-126 42t-58 98h72zM345 928h-57l-107 149l72 19z" />
    <glyph glyph-name="uni1EB2" unicode="&#x102;&#x309;" horiz-adv-x="819" 
d="M594 381l-184 520l-187 -520h371zM819 0h-88l-113 313h-419l-111 -313h-88l369 989h82zM405 1130q62 0 93 37q16 16 24 39h70q-10 -55 -56 -97t-126 -42t-136 49q-37 35 -49 90h72q2 -5 4 -9q9 37 55 71t45 71q0 54 -56 54t-91 -52l-35 28q41 74 127 73q50 0 81 -26
t31 -80t-51 -94q-52 -40 -52 -63h-44q32 -49 94 -49z" />
    <glyph glyph-name="uni1EB3" unicode="&#x103;&#x309;" horiz-adv-x="704" 
d="M518 225v140q-381 0 -381 -177q0 -68 41 -104t103 -35q162 0 227 137q10 23 10 39zM53 174q0 260 453 260h12v12q0 68 -31 119q-47 82 -159 82q-72 0 -222 -47l-10 74q115 37 238 37q264 0 264 -291v-250q0 -86 25 -170l-72 -14l-29 112q-94 -117 -248 -116
q-90 0 -156 51t-65 141zM240 928q26 -76 112 -76q57 0 88 37q16 16 25 39h70q-11 -55 -57 -97q-46 -43 -126 -43t-126 42t-58 98h72zM296 1147q-56 0 -91 -52l-35 28q41 74 127 74q50 0 81 -27q31 -26 31 -80q1 -54 -51 -94t-52 -63h-57q2 48 53 85t50 75q0 54 -56 54z" />
    <glyph glyph-name="uni1EB4" unicode="&#x102;&#x303;" horiz-adv-x="819" 
d="M594 381l-184 520l-187 -520h371zM819 0h-88l-113 313h-419l-111 -313h-88l369 989h82zM410 1130q57 0 88 37q16 16 24 39h70q-10 -55 -56 -97t-126 -42t-136 49q-37 35 -49 90h72q26 -76 113 -76zM483 1278q-36 0 -88 33t-70 34q-19 1 -33 -17t-18 -54h-51q2 61 30 92
t66 31q38 1 76 -23t58 -34t41 -11q35 0 41 72h51q-4 -123 -103 -123z" />
    <glyph glyph-name="uni1EB5" unicode="&#x103;&#x303;" horiz-adv-x="704" 
d="M518 225v140q-381 0 -381 -177q0 -68 41 -104t103 -35q162 0 227 137q10 23 10 39zM53 174q0 260 453 260h12v12q0 68 -31 119q-47 82 -159 82q-72 0 -222 -47l-10 74q115 37 238 37q264 0 264 -291v-250q0 -86 25 -170l-72 -14l-29 112q-94 -117 -248 -116
q-90 0 -156 51t-65 141zM240 928q26 -76 112 -76q57 0 88 37q16 16 25 39h70q-11 -55 -57 -97q-46 -43 -126 -43t-126 42t-58 98h72zM426 995q-32 0 -88 34t-73 34q-17 -1 -31 -19t-17 -53h-51q2 61 30 92t67 31t91 -34t85 -33q32 0 38 71h51q-4 -123 -102 -123z" />
    <glyph glyph-name="uni1EB6" unicode="&#x102;&#x323;" horiz-adv-x="819" 
d="M594 381l-184 520l-187 -520h371zM819 0h-88l-113 313h-419l-111 -313h-88l369 989h82zM469 -160q0 -22 -16 -40q-16 -17 -42 -17t-43 17q-18 18 -18 40t18 40t43 20q26 0 42 -19t16 -41zM410 1130q57 0 88 37q16 16 24 39h70q-10 -55 -56 -97t-126 -42t-136 49
q-37 35 -49 90h72q26 -76 113 -76z" />
    <glyph glyph-name="uni1EB7" unicode="&#x103;&#x323;" horiz-adv-x="704" 
d="M518 225v140q-381 0 -381 -177q0 -68 41 -104t103 -35q162 0 227 137q10 23 10 39zM53 174q0 260 453 260h12v12q0 68 -31 119q-47 82 -159 82q-72 0 -222 -47l-10 74q115 37 238 37q264 0 264 -291v-250q0 -86 25 -170l-72 -14l-29 112q-94 -117 -248 -116
q-90 0 -156 51t-65 141zM293 -160q0 22 17 40t43 20q27 0 43 -19t16 -41t-16 -40q-16 -17 -43 -17q-26 0 -43 17q-17 18 -17 40zM240 928q26 -76 112 -76q57 0 88 37q16 16 25 39h70q-11 -55 -57 -97q-46 -43 -126 -43t-126 42t-58 98h72z" />
    <glyph glyph-name="uni1EB8" unicode="E&#x323;" horiz-adv-x="718" 
d="M641 0h-530v975h530v-68h-451v-358h402v-68h-402v-413h451v-68zM299 -160q0 22 17 40t43 20q27 0 43 -19t16 -41t-16 -40q-16 -17 -43 -17q-26 0 -43 17q-17 18 -17 40z" />
    <glyph glyph-name="uni1EB9" unicode="e&#x323;" horiz-adv-x="765" 
d="M400 647q-120 0 -184 -74t-79 -165h490q-2 84 -47 149q-60 90 -180 90zM402 -18q-150 0 -248 98t-98 260t98 266t249 105q293 0 299 -367h-569q4 -139 83 -216t203 -77t245 47l6 -67q-118 -49 -268 -49zM442 -160q0 -22 -16 -40q-16 -17 -42 -17t-43 17q-17 18 -17 40
t17 40t43 20q26 0 42 -19t16 -41z" />
    <glyph glyph-name="uni1EBA" unicode="E&#x309;" horiz-adv-x="718" 
d="M641 0h-530v975h530v-68h-451v-358h402v-68h-402v-413h451v-68zM444 1243q0 58 -62 59t-101 -57l-39 31q45 82 141 82q55 0 90 -30t35 -89t-57 -104t-58 -70h-63q2 53 58 94t56 84z" />
    <glyph glyph-name="uni1EBB" unicode="e&#x309;" horiz-adv-x="765" 
d="M400 647q-120 0 -184 -74t-79 -165h490q-2 84 -47 149q-60 90 -180 90zM402 -18q-150 0 -248 98t-98 260t98 266t249 105q293 0 299 -367h-569q4 -139 83 -216t203 -77t245 47l6 -67q-118 -49 -268 -49zM324 1041q50 -1 81 -27t31 -80t-52 -94q-52 -41 -51 -63h-57
q2 48 52 85q51 38 51 70q0 60 -65 59q-48 0 -83 -51l-35 27q41 74 128 74z" />
    <glyph glyph-name="uni1EBC" unicode="E&#x303;" horiz-adv-x="718" 
d="M641 0h-530v975h530v-68h-451v-358h402v-68h-402v-413h451v-68zM434 1081q-32 0 -88 34t-73 34q-17 -1 -31 -19t-17 -53h-51q2 61 30 92t67 31t91 -34t85 -33q32 0 38 71h52q-4 -123 -103 -123z" />
    <glyph glyph-name="uni1EBD" unicode="e&#x303;" horiz-adv-x="765" 
d="M400 602q-120 0 -184 -74t-79 -166h490q-2 84 -47 150q-60 90 -180 90zM402 -63q-150 0 -248 98t-98 260t98 266t249 105q293 0 299 -367h-569q4 -139 83 -216t203 -77t245 47l6 -67q-118 -49 -268 -49zM457 758q-36 0 -88 34q-52 33 -71 33q-20 0 -34 -18t-16 -53h-51
q2 61 29 92q28 31 66 31q38 1 76 -23t58 -34t41 -11q35 0 41 72h51q-4 -123 -102 -123z" />
    <glyph glyph-name="uni1EBE" unicode="&#xca;&#x301;" horiz-adv-x="718" 
d="M641 0h-530v975h530v-68h-451v-358h402v-68h-402v-413h451v-68zM444 1176l73 132l72 -18l-107 -149h-6l52 -60h-75l-95 107l-94 -107h-76l142 160h57z" />
    <glyph glyph-name="uni1EBF" unicode="&#xea;&#x301;" horiz-adv-x="765" 
d="M400 647q-120 0 -184 -74t-79 -165h490q-2 84 -47 149q-60 90 -180 90zM402 -18q-150 0 -248 98t-98 260t98 266t249 105q293 0 299 -367h-569q4 -139 83 -216t203 -77t245 47l6 -67q-118 -49 -268 -49zM468 899l90 164l72 -19l-107 -149h-52l82 -92h-76l-94 106
l-94 -106h-76l141 160h58z" />
    <glyph glyph-name="uni1EC0" unicode="&#xca;&#x300;" horiz-adv-x="718" 
d="M641 0h-530v975h530v-68h-451v-358h402v-68h-402v-413h451v-68zM387 1241l141 -160h-75l-95 107l-94 -107h-76l142 160h57zM538 1141h-57l-107 149l72 18z" />
    <glyph glyph-name="uni1EC1" unicode="&#xea;&#x300;" horiz-adv-x="765" 
d="M400 647q-120 0 -184 -74t-79 -165h490q-2 84 -47 149q-60 90 -180 90zM402 -18q-150 0 -248 98t-98 260t98 266t249 105q293 0 299 -367h-569q4 -139 83 -216t203 -77t245 47l6 -67q-118 -49 -268 -49zM412 963l141 -160h-76l-94 106l-94 -106h-76l141 160h58zM657 895
h-63l-119 166l80 20z" />
    <glyph glyph-name="uni1EC2" unicode="&#xca;&#x309;" horiz-adv-x="718" 
d="M641 0h-530v975h530v-68h-451v-358h402v-68h-402v-413h451v-68zM555 1296q-1 54 -57 54t-90 -52l-35 28q41 74 127 73q50 -1 81 -27t31 -80t-52 -94t-51 -62h-29l48 -55h-75l-95 107l-94 -107h-76l142 160h57l70 -79q11 32 55 64t43 70z" />
    <glyph glyph-name="uni1EC3" unicode="&#xea;&#x309;" horiz-adv-x="765" 
d="M400 647q-120 0 -184 -74t-79 -165h490q-2 84 -47 149q-60 90 -180 90zM402 -18q-150 0 -248 98t-98 260t98 266t249 105q293 0 299 -367h-569q4 -139 83 -216t203 -77t245 47l6 -67q-118 -49 -268 -49zM412 963l141 -160h-76l-94 106l-94 -106h-76l141 160h58zM514 1174
q50 0 81 -26t31 -80t-52 -95t-51 -62h-57q2 49 53 85t50 75q0 55 -64 53q-48 0 -83 -51l-35 27q41 74 127 74z" />
    <glyph glyph-name="uni1EC4" unicode="&#xca;&#x303;" horiz-adv-x="718" 
d="M641 0h-530v975h530v-68h-451v-358h402v-68h-402v-413h451v-68zM387 1241l141 -160h-75l-95 107l-94 -107h-76l142 160h57zM432 1298q-32 0 -88 34t-73 34t-31 -18t-17 -54h-51q2 61 30 92t67 31q39 1 91 -33t85 -34q32 0 38 71h52q-4 -123 -103 -123z" />
    <glyph glyph-name="uni1EC5" unicode="&#xea;&#x303;" horiz-adv-x="765" 
d="M400 647q-120 0 -184 -74t-79 -165h490q-2 84 -47 149q-60 90 -180 90zM402 -18q-150 0 -248 98t-98 260t98 266t249 105q293 0 299 -367h-569q4 -139 83 -216t203 -77t245 47l6 -67q-118 -49 -268 -49zM412 963l141 -160h-76l-94 106l-94 -106h-76l141 160h58zM457 1018
q-36 0 -88 34t-71 33q-20 0 -34 -18t-16 -53h-51q2 61 29 92q28 31 66 31q38 1 76 -23t58 -34t41 -11q35 0 41 72h51q-4 -123 -102 -123z" />
    <glyph glyph-name="uni1EC6" unicode="&#xca;&#x323;" horiz-adv-x="718" 
d="M641 0h-530v975h530v-68h-451v-358h402v-68h-402v-413h451v-68zM299 -160q0 22 17 40t43 20q27 0 43 -19t16 -41t-16 -40q-16 -17 -43 -17q-26 0 -43 17q-17 18 -17 40zM387 1241l141 -160h-75l-95 107l-94 -107h-76l142 160h57z" />
    <glyph glyph-name="uni1EC7" unicode="&#xea;&#x323;" horiz-adv-x="765" 
d="M400 647q-120 0 -184 -74t-79 -165h490q-2 84 -47 149q-60 90 -180 90zM402 -18q-150 0 -248 98t-98 260t98 266t249 105q293 0 299 -367h-569q4 -139 83 -216t203 -77t245 47l6 -67q-118 -49 -268 -49zM442 -160q0 -22 -16 -40q-16 -17 -42 -17t-43 17q-17 18 -17 40
t17 40t43 20q26 0 42 -19t16 -41zM412 963l141 -160h-76l-94 106l-94 -106h-76l141 160h58z" />
    <glyph glyph-name="uni1EC8" unicode="I&#x309;" horiz-adv-x="301" 
d="M190 0h-79v975h79v-975zM174 1358q55 0 90 -30t35 -89t-57 -104t-58 -70h-63q2 53 58 94t57 84q0 58 -72 60q-53 0 -92 -58l-39 31q45 82 141 82z" />
    <glyph glyph-name="uni1EC9" unicode="i&#x309;" horiz-adv-x="292" 
d="M231 965q0 59 -62 59t-101 -57l-39 30q45 82 141 82q55 1 90 -29t35 -89t-57 -105t-58 -70h-63q2 52 58 94t56 85zM184 0h-78v696h78v-696z" />
    <glyph glyph-name="uni1ECA" unicode="I&#x323;" horiz-adv-x="301" 
d="M190 0h-79v975h79v-975zM211 -160q0 -22 -16 -40q-16 -17 -42 -17t-43 17q-18 18 -18 40t18 40t43 20q26 0 42 -19t16 -41z" />
    <glyph glyph-name="uni1ECB" unicode="i&#x323;" horiz-adv-x="292" 
d="M209 907q-1 -29 -19 -46t-47 -17t-46 17t-17 46t17 47t46 18t47 -18t19 -47zM186 0h-80v696h80v-696zM88 -160q0 22 17 40t43 20q26 0 42 -19t17 -41q-1 -22 -17 -40q-16 -17 -42 -17t-43 17q-17 18 -17 40z" />
    <glyph glyph-name="uni1ECC" unicode="O&#x323;" horiz-adv-x="995" 
d="M870 485q0 181 -104 309t-268 128t-268 -128t-105 -308q0 -180 104 -309q105 -128 269 -128t268 128t104 308zM950 485q0 -219 -126 -362t-326 -143t-327 143q-126 143 -126 362t126 363t327 143q200 1 326 -143t126 -363zM557 -160q0 -22 -16 -40q-16 -17 -42 -17
t-43 17q-18 18 -18 40t18 40t43 20q26 0 42 -19t16 -41z" />
    <glyph glyph-name="uni1ECD" unicode="o&#x323;" horiz-adv-x="815" 
d="M680 346q0 127 -77 212t-195 85t-196 -85q-77 -85 -77 -212t77 -213t196 -86q120 0 196 86t76 213zM758 346q0 -154 -96 -260t-254 -106t-254 106t-97 260q1 154 97 259t254 105t254 -104q96 -106 96 -260zM467 -160q0 -22 -16 -40q-16 -17 -42 -17t-43 17q-18 18 -18 40
t18 40t43 20q26 0 42 -19t16 -41z" />
    <glyph glyph-name="uni1ECE" unicode="O&#x309;" horiz-adv-x="995" 
d="M870 485q0 181 -104 309t-268 128t-268 -128t-105 -308q0 -180 104 -309q105 -128 269 -128t268 128t104 308zM950 485q0 -219 -126 -362t-326 -143t-327 143q-126 143 -126 362t126 363t327 143q200 1 326 -143t126 -363zM520 1358q55 0 90 -30t35 -89t-57 -104t-58 -70
h-63q2 53 58 94t57 84q0 58 -72 60q-53 0 -92 -58l-39 31q45 82 141 82z" />
    <glyph glyph-name="uni1ECF" unicode="o&#x309;" horiz-adv-x="815" 
d="M680 346q0 127 -77 212t-195 85t-196 -85q-77 -85 -77 -212t77 -213t196 -86q120 0 196 86t76 213zM758 346q0 -154 -96 -260t-254 -106t-254 106t-97 260q1 154 97 259t254 105t254 -104q96 -106 96 -260zM420 1024q-53 0 -92 -57l-39 30q45 82 141 82q55 1 90 -29
t35 -89t-57 -105t-58 -70h-63q2 52 58 94t57 85q0 59 -72 59z" />
    <glyph glyph-name="uni1ED0" unicode="&#xd4;&#x301;" horiz-adv-x="995" 
d="M870 485q0 181 -104 309t-268 128t-268 -128t-105 -308q0 -180 104 -309q105 -128 269 -128t268 128t104 308zM950 485q0 -219 -126 -362t-326 -143t-327 143q-126 143 -126 362t126 363t327 143q200 1 326 -143t126 -363zM600 1158l83 150l72 -18l-107 -149h-33l53 -60
h-76l-94 107l-95 -107h-75l141 160h57z" />
    <glyph glyph-name="uni1ED1" unicode="&#xf4;&#x301;" horiz-adv-x="815" 
d="M680 346q0 127 -77 212t-195 85t-196 -85q-77 -85 -77 -212t77 -213t196 -86q120 0 196 86t76 213zM758 346q0 -154 -96 -260t-254 -106t-254 106t-97 260q1 154 97 259t254 105t254 -104q96 -106 96 -260zM495 896l92 167l72 -19l-107 -149h-56l82 -92h-76l-94 106
l-95 -106h-75l141 160h57z" />
    <glyph glyph-name="uni1ED2" unicode="&#xd4;&#x300;" horiz-adv-x="995" 
d="M870 485q0 181 -104 309t-268 128t-268 -128t-105 -308q0 -180 104 -309q105 -128 269 -128t268 128t104 308zM950 485q0 -219 -126 -362t-326 -143t-327 143q-126 143 -126 362t126 363t327 143q200 1 326 -143t126 -363zM526 1241l142 -160h-76l-94 107l-95 -107h-75
l141 160h57zM700 1141h-58l-106 149l71 18z" />
    <glyph glyph-name="uni1ED3" unicode="&#xf4;&#x300;" horiz-adv-x="815" 
d="M680 346q0 127 -77 212t-195 85t-196 -85q-77 -85 -77 -212t77 -213t196 -86q120 0 196 86t76 213zM758 346q0 -154 -96 -260t-254 -106t-254 106t-97 260q1 154 97 259t254 105t254 -104q96 -106 96 -260zM436 963l142 -160h-76l-94 106l-95 -106h-75l141 160h57z
M607 895h-57l-107 149l72 19z" />
    <glyph glyph-name="uni1ED4" unicode="&#xd4;&#x309;" horiz-adv-x="995" 
d="M870 485q0 181 -104 309t-268 128t-268 -128t-105 -308q0 -180 104 -309q105 -128 269 -128t268 128t104 308zM950 485q0 -219 -126 -362t-326 -143t-327 143q-126 143 -126 362t126 363t327 143q200 1 326 -143t126 -363zM688 1296q0 54 -56 54t-91 -52l-35 28
q41 74 127 73q50 -1 81 -27t31 -80q1 -54 -51 -94t-52 -62h-23l49 -55h-76l-94 107l-95 -107h-75l141 160h57l66 -74q12 29 54 60t42 69z" />
    <glyph glyph-name="uni1ED5" unicode="&#xf4;&#x309;" horiz-adv-x="815" 
d="M680 346q0 127 -77 212t-195 85t-196 -85q-77 -85 -77 -212t77 -213t196 -86q120 0 196 86t76 213zM758 346q0 -154 -96 -260t-254 -106t-254 106t-97 260q1 154 97 259t254 105t254 -104q96 -106 96 -260zM436 963l142 -160h-76l-94 106l-95 -106h-75l141 160h57z
M530 1174q50 0 82 -26t31 -80q0 -54 -52 -95t-51 -62h-58q2 49 53 85t51 68q0 62 -65 60q-48 0 -83 -51l-35 27q41 74 127 74z" />
    <glyph glyph-name="uni1ED6" unicode="&#xd4;&#x303;" horiz-adv-x="995" 
d="M870 485q0 181 -104 309t-268 128t-268 -128t-105 -308q0 -180 104 -309q105 -128 269 -128t268 128t104 308zM950 485q0 -219 -126 -362t-326 -143t-327 143q-126 143 -126 362t126 363t327 143q200 1 326 -143t126 -363zM526 1241l142 -160h-76l-94 107l-95 -107h-75
l141 160h57zM571 1298q-32 0 -88 34t-72 34q-17 0 -31 -18t-18 -54h-51q2 61 30 92t67 31q39 1 92 -33q52 -34 85 -34q32 0 38 71h51q-4 -123 -103 -123z" />
    <glyph glyph-name="uni1ED7" unicode="&#xf4;&#x303;" horiz-adv-x="815" 
d="M680 346q0 127 -77 212t-195 85t-196 -85q-77 -85 -77 -212t77 -213t196 -86q120 0 196 86t76 213zM758 346q0 -154 -96 -260t-254 -106t-254 106t-97 260q1 154 97 259t254 105t254 -104q96 -106 96 -260zM436 963l142 -160h-76l-94 106l-95 -106h-75l141 160h57z
M481 1018q-36 0 -88 34t-71 33q-19 0 -33 -18t-17 -53h-51q2 61 30 92t66 31q38 1 76 -23t58 -34t41 -11q35 0 40 72h52q-4 -123 -103 -123z" />
    <glyph glyph-name="uni1ED8" unicode="&#xd4;&#x323;" horiz-adv-x="995" 
d="M870 485q0 181 -104 309t-268 128t-268 -128t-105 -308q0 -180 104 -309q105 -128 269 -128t268 128t104 308zM950 485q0 -219 -126 -362t-326 -143t-327 143q-126 143 -126 362t126 363t327 143q200 1 326 -143t126 -363zM557 -160q0 -22 -16 -40q-16 -17 -42 -17
t-43 17q-18 18 -18 40t18 40t43 20q26 0 42 -19t16 -41zM526 1241l142 -160h-76l-94 107l-95 -107h-75l141 160h57z" />
    <glyph glyph-name="uni1ED9" unicode="&#xf4;&#x323;" horiz-adv-x="815" 
d="M680 346q0 127 -77 212t-195 85t-196 -85q-77 -85 -77 -212t77 -213t196 -86q120 0 196 86t76 213zM758 346q0 -154 -96 -260t-254 -106t-254 106t-97 260q1 154 97 259t254 105t254 -104q96 -106 96 -260zM467 -160q0 -22 -16 -40q-16 -17 -42 -17t-43 17q-18 18 -18 40
t18 40t43 20q26 0 42 -19t16 -41zM436 963l142 -160h-76l-94 106l-95 -106h-75l141 160h57z" />
    <glyph glyph-name="uni1EDA" unicode="&#x1a0;&#x301;" horiz-adv-x="995" 
d="M870 485q0 181 -104 309t-268 128t-268 -128t-105 -308q0 -180 104 -309q105 -128 269 -128t268 128t104 308zM950 482q0 -216 -126 -359t-326 -143t-327 143q-126 143 -126 362t126 363q125 144 315 143q190 0 313 -117q86 92 86 193h65q0 -45 -32 -111t-87 -116
q119 -142 119 -358zM461 1077h-64l103 187l80 -21z" />
    <glyph glyph-name="uni1EDB" unicode="&#x1a1;&#x301;" horiz-adv-x="815" 
d="M680 346q0 127 -77 212t-195 85t-196 -85q-77 -85 -77 -212t77 -213t196 -86q120 0 196 86t76 213zM758 338q0 -146 -96 -252t-254 -106t-254 106t-97 260q1 154 97 259t244 105t245 -87q74 70 80 192h68q-4 -125 -115 -227q82 -104 82 -250zM371 799h-64l103 186l79 -20
z" />
    <glyph glyph-name="uni1EDC" unicode="&#x1a0;&#x300;" horiz-adv-x="995" 
d="M870 485q0 181 -104 309t-268 128t-268 -128t-105 -308q0 -180 104 -309q105 -128 269 -128t268 128t104 308zM950 482q0 -216 -126 -359t-326 -143t-327 143q-126 143 -126 362t126 363q125 144 315 143q190 0 313 -117q86 92 86 193h65q0 -45 -32 -111t-87 -116
q119 -142 119 -358zM600 1077h-63l-119 166l80 21z" />
    <glyph glyph-name="uni1EDD" unicode="&#x1a1;&#x300;" horiz-adv-x="815" 
d="M680 346q0 127 -77 212t-195 85t-196 -85q-77 -85 -77 -212t77 -213t196 -86q120 0 196 86t76 213zM758 338q0 -146 -96 -252t-254 -106t-254 106t-97 260q1 154 97 259t244 105t245 -87q74 70 80 192h68q-4 -125 -115 -227q82 -104 82 -250zM510 799h-64l-118 166l80 20
z" />
    <glyph glyph-name="uni1EDE" unicode="&#x1a0;&#x309;" horiz-adv-x="995" 
d="M870 485q0 181 -104 309t-268 128t-268 -128t-105 -308q0 -180 104 -309q105 -128 269 -128t268 128t104 308zM950 482q0 -216 -126 -359t-326 -143t-327 143q-126 143 -126 362t126 363q125 144 315 143q190 0 313 -117q86 92 86 193h65q0 -45 -32 -111t-87 -116
q119 -142 119 -358zM520 1358q55 0 90 -30t35 -89t-57 -104t-58 -70h-63q2 53 58 94t57 84q0 58 -72 60q-53 0 -92 -58l-39 31q45 82 141 82z" />
    <glyph glyph-name="uni1EDF" unicode="&#x1a1;&#x309;" horiz-adv-x="815" 
d="M680 346q0 127 -77 212t-195 85t-196 -85q-77 -85 -77 -212t77 -213t196 -86q120 0 196 86t76 213zM758 338q0 -146 -96 -252t-254 -106t-254 106t-97 260q1 154 97 259t244 105t245 -87q74 70 80 192h68q-4 -125 -115 -227q82 -104 82 -250zM343 991q-56 0 -91 -51
l-35 27q41 74 127 74q50 -1 81 -27t31 -80t-52 -94q-52 -41 -51 -63h-57q2 48 53 85t50 76q0 53 -56 53z" />
    <glyph glyph-name="uni1EE0" unicode="&#x1a0;&#x303;" horiz-adv-x="995" 
d="M870 485q0 181 -104 309t-268 128t-268 -128t-105 -308q0 -180 104 -309q105 -128 269 -128t268 128t104 308zM950 482q0 -216 -126 -359t-326 -143t-327 143q-126 143 -126 362t126 363q125 144 315 143q190 0 313 -117q86 92 86 193h65q0 -45 -32 -111t-87 -116
q119 -142 119 -358zM571 1081q-32 0 -88 34t-72 34q-17 -1 -31 -19t-18 -53h-51q2 61 30 92q27 31 67 31q39 0 92 -34q52 -34 85 -33q32 0 38 71h51q-4 -123 -103 -123z" />
    <glyph glyph-name="uni1EE1" unicode="&#x1a1;&#x303;" horiz-adv-x="815" 
d="M680 346q0 127 -77 212t-195 85t-196 -85q-77 -85 -77 -212t77 -213t196 -86q120 0 196 86t76 213zM758 338q0 -146 -96 -252t-254 -106t-254 106t-97 260q1 154 97 259t244 105t245 -87q74 70 80 192h68q-4 -125 -115 -227q82 -104 82 -250zM481 803q-36 -1 -88 33
t-71 34t-33 -18t-17 -53h-51q2 61 30 92t66 31t76 -24t58 -34t41 -10q35 0 40 72h52q-4 -123 -103 -123z" />
    <glyph glyph-name="uni1EE2" unicode="&#x1a0;&#x323;" horiz-adv-x="995" 
d="M870 485q0 181 -104 309t-268 128t-268 -128t-105 -308q0 -180 104 -309q105 -128 269 -128t268 128t104 308zM950 482q0 -216 -126 -359t-326 -143t-327 143q-126 143 -126 362t126 363q125 144 315 143q190 0 313 -117q86 92 86 193h65q0 -45 -32 -111t-87 -116
q119 -142 119 -358zM557 -160q0 -22 -16 -40q-16 -17 -42 -17t-43 17q-18 18 -18 40t18 40t43 20q26 0 42 -19t16 -41z" />
    <glyph glyph-name="uni1EE3" unicode="&#x1a1;&#x323;" horiz-adv-x="815" 
d="M680 346q0 127 -77 212t-195 85t-196 -85q-77 -85 -77 -212t77 -213t196 -86q120 0 196 86t76 213zM758 338q0 -146 -96 -252t-254 -106t-254 106t-97 260q1 154 97 259t244 105t245 -87q74 70 80 192h68q-4 -125 -115 -227q82 -104 82 -250zM467 -160q0 -22 -16 -40
q-16 -17 -42 -17t-43 17q-18 18 -18 40t18 40t43 20q26 0 42 -19t16 -41z" />
    <glyph glyph-name="uni1EE4" unicode="U&#x323;" horiz-adv-x="954" 
d="M844 412q0 -430 -367 -430t-366 430v563h79v-561q0 -193 79 -279t209 -86t209 86t77 279v561h80v-563zM418 -160q0 22 17 40t43 20q26 0 42 -19t17 -41q-1 -22 -17 -40q-16 -17 -42 -17t-43 17q-17 18 -17 40z" />
    <glyph glyph-name="uni1EE5" unicode="u&#x323;" horiz-adv-x="798" 
d="M356 -18q-250 0 -250 323v391h80v-377q0 -268 189 -268q88 0 163 62t74 161v422h80v-526q0 -76 35 -168l-76 -16q-25 70 -33 135q-90 -139 -262 -139zM340 -160q0 22 17 40t43 20q26 0 42 -19t17 -41q-1 -22 -17 -40q-16 -17 -42 -17t-43 17q-17 18 -17 40z" />
    <glyph glyph-name="uni1EE6" unicode="U&#x309;" horiz-adv-x="954" 
d="M844 412q0 -430 -367 -430t-366 430v563h79v-561q0 -193 79 -279t209 -86t209 86t77 279v561h80v-563zM561 1243q-1 58 -63 59t-101 -57l-39 31q45 82 142 82q55 0 90 -30t35 -89q1 -59 -57 -104t-58 -70h-64q2 53 59 94q56 41 56 84z" />
    <glyph glyph-name="uni1EE7" unicode="u&#x309;" horiz-adv-x="798" 
d="M356 -18q-250 0 -250 323v391h80v-377q0 -268 189 -268q88 0 163 62t74 161v422h80v-526q0 -76 35 -168l-76 -16q-25 70 -33 135q-90 -139 -262 -139zM337 991q-56 0 -91 -51l-35 27q41 74 127 74q50 -1 81 -27t31 -80t-52 -94q-52 -41 -51 -63h-57q2 48 53 85t50 76
q0 53 -56 53z" />
    <glyph glyph-name="uni1EE8" unicode="&#x1af;&#x301;" horiz-adv-x="954" 
d="M844 412q0 -430 -367 -430t-366 430v563h79v-561q0 -193 79 -279t209 -86t209 86t77 279v561h80v-90q92 80 98 182h66q-18 -145 -164 -244v-411zM487 1077h-63l102 187l80 -21z" />
    <glyph glyph-name="uni1EE9" unicode="&#x1b0;&#x301;" horiz-adv-x="763" 
d="M356 -18q-250 0 -250 323v391h80v-377q0 -268 189 -268q88 0 163 62t74 161v422h80v-84q82 78 90 203h66q-14 -168 -156 -260v-385q0 -76 35 -168l-76 -16q-25 70 -33 135q-90 -139 -262 -139zM391 799h-63l102 186l80 -20z" />
    <glyph glyph-name="uni1EEA" unicode="&#x1af;&#x300;" horiz-adv-x="954" 
d="M844 412q0 -430 -367 -430t-366 430v563h79v-561q0 -193 79 -279t209 -86t209 86t77 279v561h80v-90q92 80 98 182h66q-18 -145 -164 -244v-411zM551 1077h-64l-118 166l80 21z" />
    <glyph glyph-name="uni1EEB" unicode="&#x1b0;&#x300;" horiz-adv-x="763" 
d="M356 -18q-250 0 -250 323v391h80v-377q0 -268 189 -268q88 0 163 62t74 161v422h80v-84q82 78 90 203h66q-14 -168 -156 -260v-385q0 -76 35 -168l-76 -16q-25 70 -33 135q-90 -139 -262 -139zM444 799h-63l-119 166l80 20z" />
    <glyph glyph-name="uni1EEC" unicode="&#x1af;&#x309;" horiz-adv-x="954" 
d="M844 412q0 -430 -367 -430t-366 430v563h79v-561q0 -193 79 -279t209 -86t209 86t77 279v561h80v-90q92 80 98 182h66q-18 -145 -164 -244v-411zM549 1243q0 58 -72 60q-53 0 -92 -58l-39 31q45 82 141 82q55 0 90 -30t35 -89t-57 -104t-57 -70h-64q2 53 59 94
q56 41 56 84z" />
    <glyph glyph-name="uni1EED" unicode="&#x1b0;&#x309;" horiz-adv-x="763" 
d="M356 -18q-250 0 -250 323v391h80v-377q0 -268 189 -268q88 0 163 62t74 161v422h80v-84q82 78 90 203h66q-14 -168 -156 -260v-385q0 -76 35 -168l-76 -16q-25 70 -33 135q-90 -139 -262 -139zM339 991q-56 0 -91 -51l-35 27q41 74 127 74q50 -1 81 -27t31 -80t-52 -94
q-52 -41 -51 -63h-57q2 48 53 85t50 76q0 53 -56 53z" />
    <glyph glyph-name="uni1EEE" unicode="&#x1af;&#x303;" horiz-adv-x="954" 
d="M844 412q0 -430 -367 -430t-366 430v563h79v-561q0 -193 79 -279t209 -86t209 86t77 279v561h80v-90q92 80 98 182h66q-18 -145 -164 -244v-411zM561 1081q-32 0 -88 34t-73 34q-17 -1 -31 -19t-17 -53h-51q2 61 30 92t67 31t91 -34q52 -33 85 -33q32 0 38 71h52
q-4 -123 -103 -123z" />
    <glyph glyph-name="uni1EEF" unicode="&#x1b0;&#x303;" horiz-adv-x="763" 
d="M356 -18q-250 0 -250 323v391h80v-377q0 -268 189 -268q88 0 163 62t74 161v422h80v-84q82 78 90 203h66q-14 -168 -156 -260v-385q0 -76 35 -168l-76 -16q-25 70 -33 135q-90 -139 -262 -139zM485 803q-36 -1 -88 33t-71 34q-18 0 -32 -18t-18 -53h-51q2 61 30 92t66 31
t76 -24t58 -34t41 -10q35 0 41 72h51q-4 -123 -103 -123z" />
    <glyph glyph-name="uni1EF0" unicode="&#x1af;&#x323;" horiz-adv-x="954" 
d="M844 412q0 -430 -367 -430t-366 430v563h79v-561q0 -193 79 -279t209 -86t209 86t77 279v561h80v-90q92 80 98 182h66q-18 -145 -164 -244v-411zM418 -160q0 22 17 40t43 20q26 0 42 -19t17 -41q-1 -22 -17 -40q-16 -17 -42 -17t-43 17q-17 18 -17 40z" />
    <glyph glyph-name="uni1EF1" unicode="&#x1b0;&#x323;" horiz-adv-x="763" 
d="M356 -18q-250 0 -250 323v391h80v-377q0 -268 189 -268q88 0 163 62t74 161v422h80v-84q82 78 90 203h66q-14 -168 -156 -260v-385q0 -76 35 -168l-76 -16q-25 70 -33 135q-90 -139 -262 -139zM440 -160q0 -22 -16 -40q-16 -17 -42 -17t-43 17q-17 18 -17 40t17 40t43 20
q26 0 42 -19t16 -41z" />
    <glyph glyph-name="Ygrave" unicode="Y&#x300;" horiz-adv-x="749" 
d="M414 0h-78v428l-336 547h92l283 -477l282 477h93l-336 -545v-430zM440 1077h-63l-119 166l80 21z" />
    <glyph glyph-name="ygrave" unicode="y&#x300;" horiz-adv-x="690" 
d="M377 0q-121 -272 -322 -319l-18 63q174 39 264 279q0 6 -6 24l-289 649h86l260 -590l244 590h88zM397 799h-63l-119 166l80 20z" />
    <glyph glyph-name="uni1EF4" unicode="Y&#x323;" horiz-adv-x="749" 
d="M414 0h-78v428l-336 547h92l283 -477l282 477h93l-336 -545v-430zM434 -160q0 -22 -16 -40q-16 -17 -42 -17t-43 17q-17 18 -17 40t16 40q18 18 44 20q26 0 42 -19t16 -41z" />
    <glyph glyph-name="uni1EF5" unicode="y&#x323;" horiz-adv-x="690" 
d="M377 0q-121 -272 -322 -319l-18 63q174 39 264 279q0 6 -6 24l-289 649h86l260 -590l244 590h88zM426 -160q0 22 17 40t43 20q26 0 42 -19t17 -41q-1 -22 -17 -40q-16 -17 -42 -17t-43 17q-17 18 -17 40z" />
    <glyph glyph-name="uni1EF6" unicode="Y&#x309;" horiz-adv-x="749" 
d="M414 0h-78v428l-336 547h92l283 -477l282 477h93l-336 -545v-430zM397 1358q55 0 90 -30t35 -89t-57 -104t-57 -70h-64q2 53 58 94t57 84q0 58 -72 60q-53 0 -92 -58l-39 31q45 82 141 82z" />
    <glyph glyph-name="uni1EF7" unicode="y&#x309;" horiz-adv-x="690" 
d="M377 0q-121 -272 -322 -319l-18 63q174 39 264 279q0 6 -6 24l-289 649h86l260 -590l244 590h88zM287 1041q50 -1 81 -27t31 -80q1 -54 -51 -94q-52 -41 -52 -63h-57q2 48 52 85q51 38 51 70q0 60 -65 59q-48 0 -82 -51l-35 27q41 74 127 74z" />
    <glyph glyph-name="uni1EF8" unicode="Y&#x303;" horiz-adv-x="749" 
d="M414 0h-78v428l-336 547h92l283 -477l282 477h93l-336 -545v-430zM449 1081q-30 0 -88 34t-74 34q-17 -1 -31 -19t-16 -53h-52q2 61 30 92t68 31q39 0 91 -34t85 -33q32 0 38 71h51q-4 -123 -102 -123z" />
    <glyph glyph-name="uni1EF9" unicode="y&#x303;" horiz-adv-x="690" 
d="M377 0q-121 -272 -322 -319l-18 63q174 39 264 279q0 6 -6 24l-289 649h86l260 -590l244 590h88zM420 803q-36 -1 -88 33t-71 34t-33 -18t-17 -53h-51q2 61 29 92q28 31 66 31t76 -24t58 -34t41 -10q35 0 41 72h51q-4 -123 -102 -123z" />
    <glyph glyph-name="uni0E4F.liga" unicode="&#xe4f;&#x22;" horiz-adv-x="907" 
d="M807 332q0 -144 -101 -244q-102 -100 -246 -100t-245 100q-100 100 -100 244t100 246q99 102 243 102t247 -102q102 -103 102 -246zM735 334q0 114 -80 194q-81 80 -195 80t-194 -80t-80 -196t79 -195q79 -80 195 -80t196 81t79 196zM664 334q0 -84 -60 -144t-143 -61
q-84 0 -144 60q-59 61 -59 145t59 143t143 59t144 -58q60 -60 60 -144zM592 333q0 54 -38 93t-93 39t-93 -39t-38 -93t38 -92t93 -38t93 38t38 92zM391 788h-55l-21 330h97zM569 788h-55l-20 330h96z" />
    <glyph glyph-name="uni0E24.liga" unicode="&#xe24;&#xe32;" horiz-adv-x="1177" 
d="M315 117q0 29 -20 49t-49 20t-48 -20q-20 -20 -20 -49t20 -48t48 -19q29 0 49 18q20 20 20 49zM1063 -410h-74v1022q0 62 -46 102t-122 40t-119 -48t-47 -104q5 -28 4 -59v-953h-73v945q0 104 -62 161q-62 58 -146 58q-86 0 -149 -40t-88 -102q125 -10 162 -88
q-47 -10 -84 -54t-37 -95v-133q33 14 76 14t83 -40t40 -97t-40 -96t-97 -39t-97 39q-39 39 -38 96v254q0 111 104 162q-55 23 -160 22q17 113 107 187t207 75q164 0 245 -110q70 111 198 111q128 -1 190 -58t63 -152v-1020z" />
    <glyph glyph-name="uni0E26.liga" unicode="&#xe26;&#xe32;" horiz-adv-x="1271" 
d="M1157 610v-1020h-74v1022q0 62 -46 102t-122 40t-118 -48t-47 -100q6 -31 6 -65v-951h-74v942q0 100 -62 160t-146 62q-84 0 -150 -40q-64 -40 -88 -102q109 -10 165 -90q-111 -37 -110 -149q0 -81 13 -141t13 -114q1 -54 -39 -94t-96 -40t-94 39q-39 39 -39 94t39 95
t94 40q23 0 49 -10q-12 94 -12 143q0 94 82 147q-55 25 -95 25t-52 -2q10 115 99 189t208 75q164 0 245 -110q73 111 199 111q127 -1 189 -58t63 -152zM252 117q0 29 -20 49t-50 20q-29 0 -48 -20t-19 -49t19 -48t48 -19q30 0 50 18q20 20 20 49z" />
    <glyph glyph-name="fi" unicode="fi" horiz-adv-x="710" 
d="M604 696v-696h-80v633h-321v-633h-80v633h-103v63h103v35q0 145 72.5 232.5t212.5 87.5q98 0 174 -56l-35 -61q-78 49 -154 49q-190 0 -190 -252v-35h401z" />
    <glyph glyph-name="fl" unicode="fl" horiz-adv-x="827" 
d="M524 350v613q-41 20 -102 20q-219 0 -219 -256v-31h200v-63h-200v-633h-80v633h-103v63h103v21q0 166 90 250t227 84q80 0 164 -41v-629q0 -150 27 -217q41 -107 160 -109l-9 -69q-258 12 -258 364z" />
    <glyph glyph-name="PSK" unicode="PSK&#x2e;Design&#x28;c&#x29;" horiz-adv-x="1953" 
d="M582 0h-66v88h21v-70h45v-18zM1470 0q0 33 -18 35h-14v-35h-21v88h43q31 0 31 -22q0 -16 -16 -23q12 -4 20 -43h-25zM1438 53h14q14 0 14 9t-14 10h-14v-19zM1145 0q0 33 -19 35h-14v-35h-25v88h46q32 1 32 -22q0 -16 -16 -23q12 -4 20 -43h-24zM1126 53q15 0 15 9
t-15 10h-14v-19h14zM1921 1380q0 43 -30.5 73t-72.5 30t-71 -30t-29 -73t29 -71.5t71 -28.5t72.5 28.5t30.5 71.5zM1939 1382.5q0 -53.5 -34.5 -86t-86.5 -32.5t-86 32.5t-34 86t34 87t86 33.5t86.5 -33.5t34.5 -87zM1151 831q0 -162 -119 -237q-94 -62 -230 -62t-207 53.5
t-71 149.5q0 33 8 64h78q-2 -14 -2 -35q0 -162 203 -162q90 0 162 43q92 55 92 158q0 78 -107 119q-96 33 -194 65q-106 45 -107 131q1 140 101 208t226 68t186.5 -42.5t60.5 -120.5q0 -31 -10 -68h-74q4 29 4 39q0 123 -129 123t-201.5 -47t-72.5 -127q0 -53 36.5 -80
t154.5 -60.5t165 -73.5t47 -106zM1776 408h-1657v51h1657v-51zM224 162q-89 0 -89 87t101 87q76 0 83 -62h-53q-2 27 -35 27q-47 0 -47 -51t45 -51q35 0 37 24h53q-6 -61 -95 -61zM1245 18v-18h-69v88h67v-18h-45v-17h43v-16h-43v-19h47zM1657 0h-68v88h68v-18h-43v-17h41
v-16h-41v-19h43v-18zM1331 27q0 -29 -39 -29t-39 33h23q0 -15 15 -15t16 9q0 2 -26 11t-26 25q0 29 37 29t37 -29h-22q0 12 -14.5 12.5t-14.5 -9.5t26.5 -15.5t26.5 -21.5zM997 231h-28v-61h-47v162h92q70 0 69 -43q0 -27 -34 -39q31 -6 30 -39l8 -41h-45l-10 41
q-2 20 -35 20zM1036 281q0 16 -37 16h-30v-39h30q37 0 37 23zM1769 295h-67v-125h-47v125h-64v37h178v-37zM1573 170h-47v66h-82v-66h-49v162h49v-64h82v64h47v-162zM1284 166q-104 0 -104 84t91 84t97 -55h-53q-4 23 -37 22q-49 0 -49 -51t55 -51l33 4v28h-39v27h90v-82
q-37 -10 -84 -10zM1157 170h-51v162h51v-162zM1036 70h-28v-70h-25v70h-31v18h84v-18zM946 0h-22v37h-45v-37h-23v88h23v-35h45v35h22v-88zM805 -2q-53 0 -53 46t51 46q39 0 41 -33h-23q-2 14 -18 15q-27 0 -27 -28t29 -28q10 0 16 2v15h-18v16h41v-43q-18 -8 -39 -8z
M739 88v-88h-18v88h18zM684 0q0 33 -20 35h-13v-35h-22v88h43q35 1 35 -22q0 -16 -17 -23q12 -4 21 -43h-27zM664 53q16 0 16 9t-16 10h-13v-19h13zM510 0h-66v88h21v-70h45v-18zM1708 88q49 0 49 -44t-49 -44h-41v88h41zM1708 20q27 0 27 25t-27 25h-16v-50h16zM1585 88
l-35 -88h-24l-37 88h24l25 -65l25 65h22zM1411 0h-70v88h70v-18h-47v-17h43v-16h-43v-19h47v-18zM440 0h-26l-8 18h-41l-9 -18h-24l41 88h30zM401 35l-14 35l-16 -35h30zM827 170h-47v57l-73 105h53l49 -70q6 8 45 70h47l-74 -107v-55zM713 276.5q0 -55.5 -78 -55.5h-35v-51
h-43v162h84q72 0 72 -55.5zM666 274q0 22 -35 23h-31v-43h31q35 -2 35 20zM535 247q1 -85 -101 -85t-102 85t102 85t101 -85zM379 248q0 -51 53 -51t53 51t-53 51t-53 -51zM1815 1311q-63 0 -63.5 73.5t63.5 73.5q55 0 59 -49h-33q-6 20 -26 21q-27 0 -27 -46t29 -47
q23 0 24 27h35q-10 -53 -61 -53zM1427 750h-122v460h122v-196l168 196h144l-183 -204l197 -256h-158l-168 233v-233zM373 1210q182 0 182 -148t-205 -149h-84v-163h-119v460h226zM344 1006q90 0 90 58t-90 58h-78v-116h78z" />
    <glyph glyph-name=".notdef" horiz-adv-x="1417" 
d="M1253 57v1542h-1089v-1542h1089zM1315 0h-1213v1657h1213v-1657z" />
    <glyph glyph-name=".null" 
 />
    <glyph glyph-name="nonmarkingreturn" 
 />
    <glyph glyph-name="space" unicode=" " horiz-adv-x="442" 
 />
    <glyph glyph-name="exclam" unicode="!" horiz-adv-x="301" 
d="M219 57.5q0 -28.5 -21.5 -49t-50 -20.5t-49 20.5t-20.5 49t20.5 50t49 21.5t50 -21.5t21.5 -50zM180 246h-65l-15 727h97z" />
    <glyph glyph-name="quotedbl" unicode="&#x22;" horiz-adv-x="425" 
d="M152 692h-56l-20 330h96zM330 692h-56l-20 330h96z" />
    <glyph glyph-name="numbersign" unicode="#" horiz-adv-x="825" 
d="M565 602h-256l-55 -260h258zM748 281h-189l-57 -273h-60l60 273h-258l-60 -273h-59l59 273h-114v61h125l53 260h-178v62h190l57 274h62l-57 -274h253l60 274h63l-57 -274h107v-62h-119l-54 -260h173v-61z" />
    <glyph glyph-name="dollar" unicode="$" horiz-adv-x="739" 
d="M631 279q1 -89 -59 -157t-171 -89v-152h-71v152q-131 0 -224 71l37 64q81 -70 189 -70t164.5 48.5t56.5 121.5q0 119 -180 195q-246 102 -246 254q0 88 59.5 149.5t159.5 75.5v156h70v-156q100 -6 188 -59l-37 -66q-70 59 -172 59t-147 -46t-45 -105t42.5 -99t156.5 -90
t172 -109t57 -148z" />
    <glyph glyph-name="percent" unicode="%" horiz-adv-x="1198" 
d="M1053 284.5q0 225.5 -145.5 225.5t-145.5 -225.5t145.5 -225.5t145.5 225.5zM1126 284.5q0 -290.5 -219 -290.5t-219 290.5t219 290.5t219 -290.5zM434 684q0 225 -145.5 225t-145.5 -225t145.5 -225t145.5 225zM508 684q0 -291 -219 -291t-219 291t219 291t219 -291z
M928 975l-594 -993h-70l594 993h70z" />
    <glyph glyph-name="ampersand" unicode="&#x26;" horiz-adv-x="866" 
d="M117 272q0 -100 67.5 -162.5t167.5 -62.5q153 0 264 111q-186 186 -329 350q-170 -90 -170 -236zM532 801q0 59 -36 103t-106 44q-71 0 -114 -51t-43 -126t86 -187q213 102 213 217zM334 -18q-123 0 -209 80.5t-86 199.5q0 195 207 297q-88 117 -88 212t65.5 167
t165.5 72t157.5 -56.5t57.5 -144.5q0 -164 -250 -277q119 -131 308 -325q70 94 108 317h76q-49 -260 -137 -360q78 -78 172 -164h-103q-39 37 -114 109q-152 -127 -330 -127z" />
    <glyph glyph-name="quotesingle" unicode="'" horiz-adv-x="245" 
d="M152 692h-56l-20 330h94z" />
    <glyph glyph-name="parenleft" unicode="(" horiz-adv-x="389" 
d="M41 470q0 341 225 620h82q-229 -262 -229 -600t227 -609h-78q-227 248 -227 589z" />
    <glyph glyph-name="parenright" unicode=")" horiz-adv-x="389" 
d="M346 489q0 -344 -227 -608h-78q227 285 227 607t-227 602h78q227 -257 227 -601z" />
    <glyph glyph-name="asterisk" unicode="*" horiz-adv-x="583" 
d="M547 729l-211 19l131 -177l-68 -43l-108 203l-107 -203l-67 43l131 177l-211 -19v78l211 -14l-131 174l78 45l98 -189l96 189l78 -45l-131 -174l211 14v-78z" />
    <glyph glyph-name="plus" unicode="+" horiz-adv-x="841" 
d="M764 338h-307v-338h-72v338h-307v68h307v325h72v-325h307v-68z" />
    <glyph glyph-name="comma" unicode="," horiz-adv-x="331" 
d="M100 61.5q0 30.5 22.5 54t54.5 23.5t53.5 -24.5t21.5 -59.5q-4 -111 -68 -194q-43 -59 -94 -84l-29 30q106 72 119 179q-33 0 -56.5 22.5t-23.5 53z" />
    <glyph glyph-name="hyphen" unicode="-" horiz-adv-x="442" 
d="M399 338h-358v68h358v-68z" />
    <glyph glyph-name="period" unicode="." horiz-adv-x="331" 
d="M236 57.5q0 -28.5 -21.5 -49t-50.5 -20.5t-49.5 20.5t-20.5 49t20.5 50t49.5 21.5t50.5 -21.5t21.5 -50z" />
    <glyph glyph-name="slash" unicode="/" horiz-adv-x="552" 
d="M569 1010l-528 -1069h-78l522 1069h84z" />
    <glyph glyph-name="zero" unicode="0" horiz-adv-x="741" 
d="M594 482q0 162 -56 296q-56 133 -168 133t-173 -143q-51 -120 -51 -284t49 -283q61 -154 175 -154t175 154q49 119 49 281zM370.5 980.5q151.5 -0.5 228.5 -154.5t77 -342t-66 -328q-84 -178 -240 -178t-241 178q-66 136 -66 326t72 333q84 166 235.5 165.5z" />
    <glyph glyph-name="one" unicode="1" horiz-adv-x="741" 
d="M588 0h-389v74h153v780l-153 -133l-45 51l235 207q45 0 45 -78v-827h154v-74z" />
    <glyph glyph-name="two" unicode="2" horiz-adv-x="741" 
d="M580 737q0 80 -51.5 123t-133.5 43q-184 0 -209 -184l-73 20q12 119 90 179q77 60 193 61q116 0 191 -70.5t75 -177.5q0 -156 -246 -391q-178 -176 -252 -260h522l-16 -80h-617q8 51 29 117q88 90 194.5 192.5t237.5 259.5q66 88 66 168z" />
    <glyph glyph-name="three" unicode="3" horiz-adv-x="741" 
d="M672 330q0 -156 -106 -252t-258 -100t-238 75l34 64q76 -57 197 -57t205 79t84 173t-49 147t-131 53t-131 -47l-39 65q78 59 175 139t97 136q0 100 -146 100t-223 -153l-57 30q33 90 113 143.5t173 53.5t154.5 -46t61.5 -133t-168 -214h12q109 0 174.5 -72.5t65.5 -183.5
z" />
    <glyph glyph-name="four" unicode="4" horiz-adv-x="741" 
d="M561 303h146l-11 -76h-135v-227h-82v227h-413q4 305 138 516t357 256v-696zM479 303v592q-141 -70 -231 -240t-94 -352h325z" />
    <glyph glyph-name="five" unicode="5" horiz-adv-x="741" 
d="M651 324q0 -146 -106.5 -243t-260.5 -97t-235 75l35 64q30 -18 74 -40t142 -22t182.5 72t84.5 192t-73 175q-62 49 -154 49t-143 -68l-43 -4l30 496h437l-15 -78h-344l-18 -289q53 20 114 21q119 0 206 -78q87 -79 87 -225z" />
    <glyph glyph-name="six" unicode="6" horiz-adv-x="741" 
d="M578 298q0 101 -55.5 173t-147.5 72t-153.5 -72t-61.5 -173t61.5 -173t154.5 -72t147.5 72t54.5 173zM659 295q0 -131 -74.5 -221t-211.5 -90t-216 104t-79 254q0 236 145.5 421t370.5 228l6 -59q-137 -39 -257 -152t-167 -276q8 30 67 68t144 38q121 0 196.5 -92
t75.5 -223z" />
    <glyph glyph-name="seven" unicode="7" horiz-adv-x="741" 
d="M354 0h-86q0 309 123 592q29 66 98.5 183.5t71.5 119.5h-493l30 78h576l-17 -82q-137 -180 -220 -390t-83 -501z" />
    <glyph glyph-name="eight" unicode="8" horiz-adv-x="741" 
d="M672 246q0 -116 -82 -189t-220 -73t-220 73t-82 189t58 189t148 91q-76 23 -126 81.5t-50 125.5q0 109 76 178.5t196 69.5t195.5 -69.5t75.5 -178.5q0 -68 -50 -126t-126 -81q90 -18 148.5 -91t58.5 -189zM559 739q0 72 -51 119t-138 47t-138.5 -47t-51.5 -119
q0 -127 189 -174q190 47 190 174zM590 250q0 86 -55.5 158.5t-165.5 78.5q-109 -6 -164 -78.5t-55 -158.5t62 -140.5t158 -54.5t158 54.5t62 140.5z" />
    <glyph glyph-name="nine" unicode="9" horiz-adv-x="741" 
d="M578 669q0 101 -61.5 172.5t-154.5 71.5t-147.5 -71.5t-54.5 -172.5t55 -173t147 -72t154 72t62 173zM659 625q0 -236 -145 -421.5t-371 -228.5l-6 60q137 39 257 151t167 277q-8 -31 -59 -66q-66 -41 -152 -41q-121 0 -196.5 92.5t-75.5 223.5t74.5 221t211.5 90
t216 -104t79 -254z" />
    <glyph glyph-name="colon" unicode=":" horiz-adv-x="331" 
d="M236 579.5q0 -28.5 -21.5 -49t-50.5 -20.5t-49.5 20.5t-20.5 49t20.5 50t49.5 21.5t50.5 -21.5t21.5 -50zM236 57.5q0 -28.5 -21.5 -49t-50.5 -20.5t-49.5 20.5t-20.5 49t20.5 50t49.5 21.5t50.5 -21.5t21.5 -50z" />
    <glyph glyph-name="semicolon" unicode=";" horiz-adv-x="331" 
d="M236 579.5q0 -28.5 -21.5 -49t-50.5 -20.5t-49.5 20.5t-20.5 49t20.5 50t49.5 21.5t50.5 -21.5t21.5 -50zM100 61.5q0 30.5 22.5 54t54.5 23.5t53.5 -24.5t21.5 -59.5q-4 -111 -68 -194q-43 -59 -94 -84l-29 30q106 72 119 179q-33 0 -56.5 22.5t-23.5 53z" />
    <glyph glyph-name="less" unicode="&#x3c;" horiz-adv-x="841" 
d="M750 74v-78l-660 360v56l660 360v-76l-578 -313z" />
    <glyph glyph-name="equal" unicode="=" horiz-adv-x="841" 
d="M729 276v-67h-616v67h616zM729 543v-68h-616v68h616z" />
    <glyph glyph-name="greater" unicode="&#x3e;" horiz-adv-x="841" 
d="M750 412v-56l-660 -360v78l578 311l-578 311v76z" />
    <glyph glyph-name="question" unicode="?" horiz-adv-x="579" 
d="M315 57.5q0 -28.5 -21.5 -49t-50 -20.5t-49 20.5t-20.5 49t20.5 50t49 21.5t50 -21.5t21.5 -50zM203 324q0 109 111.5 233.5t111.5 212.5q0 147 -168 148q-96 0 -164 -54l-31 62q98 63 212 63q115 0 173 -63t58 -162q0 -98 -114 -220t-116 -227q1 -36 7 -65h-70
q-10 31 -10 72z" />
    <glyph glyph-name="at" unicode="@" horiz-adv-x="1097" 
d="M684 215v125q-334 -4 -334 -158q0 -123 125 -123q147 0 205 129q4 9 4 27zM1044 360q0 -139 -86 -237t-186 -105l-63 -4l-21 92q-82 -104 -217 -104q-93 0 -145 53.5t-52 114.5q0 229 410 229v11q0 174 -166 174q-90 0 -153 -49l-23 51q80 59 180 59q233 0 234 -260v-219
q0 -45 8 -84q80 4 145.5 84t65.5 188q0 170 -106.5 282t-294.5 112t-318 -131q-131 -131 -131 -345q0 -176 112.5 -291.5t266.5 -115.5t252 61l28 -59q-123 -66 -274 -66q-193 0 -328 131t-135 344q-1 213 147 372t396 159q205 0 329.5 -127t124.5 -320z" />
    <glyph glyph-name="A" unicode="A" horiz-adv-x="819" 
d="M594 381l-184 520l-187 -520h371zM819 0h-88l-113 313h-419l-111 -313h-88l369 989h82z" />
    <glyph glyph-name="B" unicode="B" horiz-adv-x="774" 
d="M631 268q0 111 -85 163t-214 52h-142v-417q54 -12 154 -12t184 46q103 57 103 168zM590 739q0 180 -275 181q-63 0 -125 -15v-356h166q110 0 172 55t62 135zM709 272q0 -285 -412 -284q-90 0 -186 20v953q102 27 204 26q354 0 355 -246q0 -74 -44 -134t-118 -87
q74 -18 137.5 -83t63.5 -165z" />
    <glyph glyph-name="C" unicode="C" horiz-adv-x="831" 
d="M510 -14q-199 0 -331 142t-132 361.5t132 359.5t331 140q158 0 266 -51l-24 -66q-112 48 -254 48t-256 -120t-113.5 -312.5t114.5 -312.5t256 -120t253 47l24 -65q-109 -51 -266 -51z" />
    <glyph glyph-name="D" unicode="D" horiz-adv-x="882" 
d="M743 500q0 203 -98 309t-250 106q-63 0 -205 -16v-825q102 -12 195 -13q166 0 262 118t96 321zM823 508q0 -516 -463 -516q-61 0 -249 18v951q188 25 290 24q186 0 304 -125q118 -131 118 -352z" />
    <glyph glyph-name="E" unicode="E" horiz-adv-x="718" 
d="M641 0h-530v975h530v-68h-451v-358h402v-68h-402v-413h451v-68z" />
    <glyph glyph-name="F" unicode="F" horiz-adv-x="718" 
d="M631 469h-441v-469h-79v975h551v-68h-472v-370h441v-68z" />
    <glyph glyph-name="G" unicode="G" horiz-adv-x="870" 
d="M784 487v-467q-16 12 -43 13l-120 -22q-121 -22 -162 -21q-186 0 -299 136t-113 358t119 362t328 139q150 0 262 -49l-25 -66q-123 47 -242 48q-154 0 -257 -121t-103 -316t89 -310.5t253 -115.5q129 0 236 51v316h-248v65h325z" />
    <glyph glyph-name="H" unicode="H" horiz-adv-x="903" 
d="M793 0h-80v485h-523v-485h-79v975h79v-422h523v422h80v-975z" />
    <glyph glyph-name="I" unicode="I" horiz-adv-x="301" 
d="M190 0h-79v975h79v-975z" />
    <glyph glyph-name="J" unicode="J" horiz-adv-x="540" 
d="M430 319q0 -338 -287 -337q-80 0 -145 30l20 64q47 -25 139 -25t142.5 62.5t50.5 226.5v635h80v-656z" />
    <glyph glyph-name="K" unicode="K" horiz-adv-x="770" 
d="M190 0h-79v975h79v-469l486 481l80 -22l-406 -406l449 -541l-72 -28l-432 518l-105 -105v-403z" />
    <glyph glyph-name="L" unicode="L" horiz-adv-x="722" 
d="M670 0h-559v975h79v-907h480v-68z" />
    <glyph glyph-name="M" unicode="M" horiz-adv-x="1122" 
d="M1040 0h-75l-62 860l-315 -860h-53l-316 860l-61 -860h-76l68 975h94l317 -875l318 875h94z" />
    <glyph glyph-name="N" unicode="N" horiz-adv-x="903" 
d="M793 0h-84l-516 862v-862h-82v975h92l512 -850v850h78v-975z" />
    <glyph glyph-name="O" unicode="O" horiz-adv-x="995" 
d="M870 485.5q0 180.5 -104 308.5t-268 128t-268.5 -128t-104.5 -308.5t104.5 -308.5t268.5 -128t268 128t104 308.5zM950 485.5q0 -219.5 -126 -362.5t-326.5 -143t-326.5 143t-126 362.5t126 362.5t326.5 143t326.5 -143t126 -362.5z" />
    <glyph glyph-name="P" unicode="P" horiz-adv-x="774" 
d="M631 698q0 217 -287 217q-102 0 -154 -10v-426q55 -14 144 -14q297 16 297 233zM364 985q130 -1 236 -73q107 -72 107 -216q-1 -144 -115 -223q-114 -78 -275 -76q-66 0 -127 13v-410h-79v965q123 20 253 20z" />
    <glyph glyph-name="Q" unicode="Q" horiz-adv-x="997" 
d="M870 485.5q0 180.5 -104 308.5t-268 128t-268.5 -128t-104.5 -308.5t104.5 -308.5t268.5 -128t268 128t104 308.5zM950 485q0 -176 -88 -312t-244 -175q121 -51 279 -59l-29 -76q-203 47 -370 117q-201 0 -327 143t-126 362.5t126 362.5t326.5 143t326.5 -143.5
t126 -362.5z" />
    <glyph glyph-name="R" unicode="R" horiz-adv-x="776" 
d="M631 713q0 203 -281 202q-113 0 -160 -14v-393h183q121 0 189.5 54.5t68.5 150.5zM379 444h-189v-444h-79v963q115 23 256 21t240 -66t100 -195q0 -182 -189 -252q109 -59 164 -221q26 -84 51 -250h-78q-55 444 -276 444z" />
    <glyph glyph-name="S" unicode="S" horiz-adv-x="720" 
d="M655 256q0 -113 -80 -186q-91 -88 -251 -88t-269 73l33 70q100 -76 230 -76t195 54.5t65 140.5t-50.5 136t-167.5 87q-272 88 -272 274q0 109 84 180.5t220 71.5t222 -51q-18 -35 -34 -63q-88 47 -197 47t-164 -54t-55 -120q0 -135 217 -209q141 -49 207 -111t67 -176z
" />
    <glyph glyph-name="T" unicode="T" horiz-adv-x="776" 
d="M786 907h-358v-907h-78v907h-360v68h796v-68z" />
    <glyph glyph-name="U" unicode="U" horiz-adv-x="954" 
d="M844 412q0 -430 -366.5 -430t-366.5 430v563h79v-561q0 -193 79 -279t209 -86t209 86t77 279v561h80v-563z" />
    <glyph glyph-name="V" unicode="V" horiz-adv-x="798" 
d="M799 975l-357 -975h-86l-356 975h90l309 -883l310 883h90z" />
    <glyph glyph-name="W" unicode="W" horiz-adv-x="1204" 
d="M1204 975l-295 -975h-86l-221 885l-221 -885h-86l-295 975h90l248 -883l219 883h90l219 -883l248 883h90z" />
    <glyph glyph-name="X" unicode="X" horiz-adv-x="856" 
d="M821 0h-94l-299 440l-299 -440h-94l346 500l-332 475h96l283 -426l283 426h96l-332 -475z" />
    <glyph glyph-name="Y" unicode="Y" horiz-adv-x="749" 
d="M414 0h-78v428l-336 547h92l283 -477l282 477h93l-336 -545v-430z" />
    <glyph glyph-name="Z" unicode="Z" horiz-adv-x="868" 
d="M45 0v53l662 854h-621l12 68h711v-55l-659 -852h686l-17 -68h-774z" />
    <glyph glyph-name="bracketleft" unicode="[" horiz-adv-x="401" 
d="M379 -98v-62h-273v1196h273v-61h-201v-1073h201z" />
    <glyph glyph-name="backslash" unicode="\" horiz-adv-x="536" 
d="M571 -57h-82l-507 1046h79z" />
    <glyph glyph-name="bracketright" unicode="]" horiz-adv-x="401" 
d="M297 -160h-274v62h200v1073h-200v61h274v-1196z" />
    <glyph glyph-name="asciicircum" unicode="^" horiz-adv-x="843" 
d="M457 983l295 -657h-76l-256 579l-256 -579h-76l295 657h74z" />
    <glyph glyph-name="underscore" unicode="_" horiz-adv-x="720" 
d="M721 -311v-64h-721v64h721z" />
    <glyph glyph-name="grave" unicode="`" horiz-adv-x="417" 
d="M303 799h-63l-119 166l80 20z" />
    <glyph glyph-name="a" unicode="a" horiz-adv-x="704" 
d="M518 225v140q-381 0 -381 -177q0 -68 41 -103.5t103 -35.5q162 0 227 137q10 23 10 39zM53 174q0 260 453 260h12v12q0 68 -31 119q-47 82 -159 82q-72 0 -222 -47l-10 74q115 37 238 37q264 0 264 -291v-250q0 -86 25 -170l-72 -14l-29 112q-94 -117 -248 -116
q-90 0 -155.5 51t-65.5 141z" />
    <glyph glyph-name="b" unicode="b" horiz-adv-x="821" 
d="M686 354q0 129 -66 211t-174 82q-108 1 -184 -69t-76 -183v-116q0 -98 70 -164t172 -66q258 0 258 305zM764 349q0 -161 -88 -264t-245 -103t-253 141q0 -70 -4 -123h-74q6 53 6 170v864h80v-471q90 147 265 148q145 0 229 -100.5t84 -261.5z" />
    <glyph glyph-name="c" unicode="c" horiz-adv-x="677" 
d="M424 -18q-172 0 -270.5 99t-98.5 265t98.5 265.5t270.5 99.5q127 0 215 -49l-29 -66q-76 49 -196 49t-200.5 -80t-80.5 -219t80.5 -219t200.5 -80t196 49l29 -65q-88 -49 -215 -49z" />
    <glyph glyph-name="d" unicode="d" horiz-adv-x="821" 
d="M635 279v116q0 113 -76 183q-77 70 -185 70t-173.5 -82.5t-65.5 -211.5q0 -305 258 -305q102 0 172 66t70 164zM390 -18q-157 0 -245 103t-88 264t84 261.5t230 100.5q174 0 264 -148v471h80v-864q0 -117 6 -170h-74q-4 53 -4 123q-96 -141 -253 -141z" />
    <glyph glyph-name="e" unicode="e" horiz-adv-x="765" 
d="M400 647q-120 0 -184 -74t-79 -165h490q-2 84 -47 149q-60 90 -180 90zM402 -18q-150 0 -248.5 98t-98.5 260t98.5 266.5t249.5 104.5q293 0 299 -367h-569q4 -139 83 -216t203 -77t245 47l6 -67q-118 -49 -268 -49z" />
    <glyph glyph-name="f" unicode="f" horiz-adv-x="421" 
d="M207 723v-27h201v-63h-201v-633h-80v633h-117v63h119v27q0 328 248 328q78 0 117 -33l-23 -57q-45 23 -100 22q-164 0 -164 -260z" />
    <glyph glyph-name="g" unicode="g" horiz-adv-x="636" 
d="M494 449q0 75 -46 131t-130 56t-128.5 -54t-44.5 -132q-1 -78 53 -124q54 -47 124 -47t121 47t51 123zM563 456q0 -104 -70.5 -171.5t-175.5 -67.5q-63 0 -108 23q-12 -31 -12 -60q0 -53 165 -100q197 -55 197 -201q0 -88 -63.5 -144.5t-179.5 -56.5t-205 56l28 65
q88 -51 170 -51t131 35t49 90q0 98 -161 152q-98 31 -135 55q-63 39 -64 100q0 37 21 99q-76 81 -76 183t69.5 169t163.5 67h273v-65l-101 10q84 -83 84 -187z" />
    <glyph glyph-name="h" unicode="h" horiz-adv-x="798" 
d="M692 395v-395h-80v395q0 250 -209 250q-84 0 -150.5 -70.5t-66.5 -152.5v-422h-80v1034h80v-463q84 139 234 140q272 -1 272 -316z" />
    <glyph glyph-name="i" unicode="i" horiz-adv-x="292" 
d="M209 907.5q0 -28.5 -18.5 -46t-47 -17.5t-46 17.5t-17.5 46t17.5 47t46 18.5t47 -18.5t18.5 -47zM186 0h-80v696h80v-696z" />
    <glyph glyph-name="j" unicode="j" horiz-adv-x="317" 
d="M233 907.5q0 -28.5 -18 -46t-47 -17.5t-46.5 17.5t-17.5 46t17.5 47t46.5 18.5t47 -18.5t18 -47zM131 37v659h80v-682q-4 -311 -289 -317l-8 63q141 12 186 99q31 59 31 178z" />
    <glyph glyph-name="k" unicode="k" horiz-adv-x="647" 
d="M186 0h-80v1034h80v-651l346 324l82 -17l-299 -282l355 -406l-80 -22l-332 382l-72 -69v-293z" />
    <glyph glyph-name="l" unicode="l" horiz-adv-x="409" 
d="M106 1034h80v-653q0 -150 27 -217q41 -107 160 -109l-8 -69q-258 12 -259 364v684z" />
    <glyph glyph-name="m" unicode="m" horiz-adv-x="1230" 
d="M1124 0h-80v385q0 119 -48 189.5t-134 70.5t-146.5 -62.5t-60.5 -140.5v-442h-80v422q0 223 -176 223q-82 0 -147.5 -70.5t-65.5 -152.5v-422h-80v524q0 55 -14 172h76q14 -43 16 -125q80 139 228 139t217 -155q82 156 250 156q115 0 180 -87t65 -237v-387z" />
    <glyph glyph-name="n" unicode="n" horiz-adv-x="798" 
d="M692 0h-80v395q0 250 -209 250q-84 0 -150.5 -70.5t-66.5 -152.5v-422h-80v524q0 55 -14 172h76q14 -43 16 -125q80 139 236 140q272 0 272 -316v-395z" />
    <glyph glyph-name="o" unicode="o" horiz-adv-x="815" 
d="M680 346q0 127 -77 212t-195.5 85t-195.5 -85t-77 -212t77 -213t195.5 -86t195.5 86t77 213zM758 346.5q0 -153.5 -96.5 -260t-254 -106.5t-254 106.5t-96.5 260t96.5 259t254 105.5t254 -105.5t96.5 -259z" />
    <glyph glyph-name="p" unicode="p" horiz-adv-x="821" 
d="M446 45q108 0 176 82q66 82 66 218t-67 217t-181 81t-184 -65.5t-70 -163.5v-117q0 -113 80 -184q72 -68 180 -68zM764 343q0 -161 -84 -261t-229 -100q-174 0 -265 147v-471h-80v864q0 119 -6 170h74q4 -53 4 -123q96 141 253 141t245 -103t88 -264z" />
    <glyph glyph-name="q" unicode="q" horiz-adv-x="821" 
d="M678 297v117q0 98 -69.5 163.5t-184.5 65.5t-181.5 -81t-66.5 -217t67 -218t175 -82t180 68q80 71 80 184zM758 -342h-80v471q-90 -147 -264 -147q-146 0 -230 100t-84 261t88 264.5t245 103.5t253 -142q0 70 4 123h74q-6 -51 -6 -170v-864z" />
    <glyph glyph-name="r" unicode="r" horiz-adv-x="444" 
d="M401 641q-158 0 -208 -197q-6 -23 -7 -69v-375h-80v469q0 154 -20 227h68q23 -45 22 -139q66 154 211 154q18 0 39 -4v-68q-6 2 -25 2z" />
    <glyph glyph-name="s" unicode="s" horiz-adv-x="577" 
d="M508 184q0 -88 -67 -145t-177 -57t-205 55l31 65q98 -53 172 -53q172 0 172 129q0 100 -162 150q-186 57 -186 188q0 80 60.5 137.5t169 57.5t171.5 -47l-32 -66q-61 49 -141 49t-116 -34.5t-36 -86.5q0 -82 160 -137q186 -64 186 -205z" />
    <glyph glyph-name="t" unicode="t" horiz-adv-x="487" 
d="M318 -18q-78 0 -122 65t-44 158v428h-140v63h140v207l79 37v-244h224v-63h-224v-426q0 -156 105 -156q63 0 94 12l8 -63q-42 -18 -120 -18z" />
    <glyph glyph-name="u" unicode="u" horiz-adv-x="798" 
d="M356 -18q-250 0 -250 323v391h80v-377q0 -268 189 -268q88 0 163 62t74 161v422h80v-526q0 -76 35 -168l-76 -16q-25 70 -33 135q-90 -139 -262 -139z" />
    <glyph glyph-name="v" unicode="v" horiz-adv-x="698" 
d="M692 696l-313 -696h-72l-301 696h82l258 -610l264 610h82z" />
    <glyph glyph-name="w" unicode="w" horiz-adv-x="1038" 
d="M1038 696l-250 -696h-69l-201 614l-211 -614h-74l-227 696h84l184 -602l209 602h76l197 -602l202 602h80z" />
    <glyph glyph-name="x" unicode="x" horiz-adv-x="651" 
d="M651 0h-94l-233 301l-232 -301h-92l283 354l-265 342h91l221 -282l219 282h88l-266 -340z" />
    <glyph glyph-name="y" unicode="y" horiz-adv-x="690" 
d="M377 0q-121 -272 -322 -319l-18 63q174 39 264 279q0 6 -6 24l-289 649h86l260 -590l244 590h88z" />
    <glyph glyph-name="z" unicode="z" horiz-adv-x="657" 
d="M31 0v49l491 582h-467l13 65h555l-2 -55l-490 -575h502l-17 -66h-585z" />
    <glyph glyph-name="braceleft" unicode="{" horiz-adv-x="425" 
d="M369 -96v-62h-23q-221 0 -221 195q0 39 14.5 120t14.5 122q0 102 -127 106v61q127 4 127 107q0 41 -14.5 122t-14.5 120q0 195 221 194h23v-61h-31q-141 0 -141 -142q29 -207 28 -227q0 -104 -82 -143q82 -39 82 -144q0 -20 -28 -227q0 -141 141 -141h31z" />
    <glyph glyph-name="bar" unicode="|" horiz-adv-x="313" 
d="M190 1081v-1437h-67v1437h67z" />
    <glyph glyph-name="braceright" unicode="}" horiz-adv-x="425" 
d="M57 -158v62h31q141 0 141 141q-29 207 -28 227q0 104 82 144q-82 39 -82 143q0 20 28 227q0 141 -141 142h-31v61h23q221 0 221 -194q0 -39 -14.5 -120t-14.5 -122q0 -102 127 -107v-61q-127 -4 -127 -106q0 -41 14.5 -122t14.5 -120q0 -195 -221 -195h-23z" />
    <glyph glyph-name="asciitilde" unicode="~" horiz-adv-x="851" 
d="M797 510v-12q1 -94 -47 -142t-120 -47q-72 0 -206.5 66.5t-206.5 66.5q-96 0 -100 -133h-64v17q0 86 48.5 135t120.5 49t208.5 -64.5t210.5 -64.5q88 0 92 129h64z" />
    <glyph glyph-name="nonbreakingspace" unicode="&#xa0;" horiz-adv-x="442" 
 />
    <glyph glyph-name="exclamdown" unicode="&#xa1;" horiz-adv-x="309" 
d="M229 622.5q0 -30.5 -22.5 -53t-53 -22.5t-53 22.5t-22.5 53t22.5 53t53 22.5t53 -22.5t22.5 -53zM209 -287h-113l21 713h71z" />
    <glyph glyph-name="cent" unicode="&#xa2;" horiz-adv-x="841" 
d="M506 45h-10v-166h-68v170q-156 23 -260 131t-102 292q0 185 94 303t268 149v186h68v-178q14 2 43 2q123 0 229 -39l-16 -74q-92 47 -209 47q-188 0 -293 -99t-105 -281q-1 -182 99 -276q100 -95 286 -95q129 0 220 41l24 -60q-98 -53 -268 -53z" />
    <glyph glyph-name="sterling" unicode="&#xa3;" horiz-adv-x="841" 
d="M723 0h-606v51q174 106 174 273q0 47 -10 118h-162v64h155q-16 98 -16 166q0 272 262 272q84 0 170 -41l-24 -59q-82 33 -150 33q-186 0 -186 -207q0 -76 18 -164h232v-64h-224q8 -47 9 -104q0 -172 -111 -270h469v-68z" />
    <glyph glyph-name="currency" unicode="&#xa4;" horiz-adv-x="841" 
d="M711 462q0 122 -85 213t-206 91t-208 -90t-87 -215t87 -212t208 -87t206 89t85 211zM793 465q0 -139 -78 -232l82 -83l-60 -62l-86 86q-94 -86 -230 -86t-235 86l-82 -86l-59 62l80 83q-80 99 -80 229t80 232l-80 82l59 64l82 -86q106 84 234 84t231 -84l88 86l58 -64
l-82 -82q78 -90 78 -229z" />
    <glyph glyph-name="yen" unicode="&#xa5;" horiz-adv-x="841" 
d="M707 195h-248v-156h-76v156h-246v59h246v117h-246v59h246l-313 510h94l256 -432l256 432h96l-313 -508h248v-61h-248v-117h248v-59z" />
    <glyph glyph-name="brokenbar" unicode="&#xa6;" horiz-adv-x="313" 
d="M190 -252h-67v510h67v-510zM190 465h-67v508h67v-508z" />
    <glyph glyph-name="section" unicode="&#xa7;" horiz-adv-x="765" 
d="M578 411q0 52 -43 94.5t-139 74.5t-144 61q-70 -59 -70 -121t72 -106q43 -27 143 -63t127 -56q54 64 54 116zM616 121q0 -86 -73.5 -143.5t-193.5 -57.5t-202 68l33 57q68 -63 167 -63t149.5 38.5t50.5 102.5q0 88 -113 139q-104 41 -209 84q-113 58 -113 156t93 172
q-47 46 -47 122t68.5 130.5t177 54.5t198.5 -53l-35 -60q-72 54 -158 54t-132 -36t-46 -90t60 -91q39 -25 145 -62q217 -74 217 -211q0 -94 -86 -176q49 -49 49 -135z" />
    <glyph glyph-name="dieresis" unicode="&#xa8;" horiz-adv-x="434" 
d="M408 864.5q0 -26.5 -18.5 -44t-45.5 -17.5t-44 17.5t-17 44t17 45t44 18.5t45.5 -18.5t18.5 -45zM154 864.5q0 -26.5 -18.5 -44t-45.5 -17.5t-44 17.5t-17 44t17 45t44 18.5t45.5 -18.5t18.5 -45z" />
    <glyph glyph-name="copyright" unicode="&#xa9;" horiz-adv-x="1097" 
d="M973 491.5q0 176.5 -124 300t-300 123.5t-300 -123.5t-124 -300t124 -300t300 -123.5t300 123.5t124 300zM1047 491.5q0 -204.5 -146.5 -351t-351.5 -146.5t-351.5 146.5t-146.5 351t146.5 351t351.5 146.5t351.5 -146.5t146.5 -351zM250 486q0 134 84 217t216 83
t198 -49l-25 -61q-78 45 -170 45q-221 -13 -221 -235t223 -234q104 0 176 51l27 -63q-78 -60 -213 -60t-215 86t-80 220z" />
    <glyph glyph-name="ordfeminine" unicode="&#xaa;" horiz-adv-x="503" 
d="M356 659v86q-236 0 -235 -106q0 -78 98 -78q39 0 88 29.5t49 68.5zM49 639q0 160 307 164v14q0 29 -16 55q-34 48 -104 48t-127 -43l-23 51q76 53 164 53q178 0 178 -219v-137q0 -60 6 -119h-63l-11 67q-57 -74 -153 -73q-158 0 -158 139z" />
    <glyph glyph-name="guillemotleft" unicode="&#xab;" horiz-adv-x="610" 
d="M250 98l-227 264l225 271h86l-225 -271l227 -264h-86zM477 98l-227 264l225 271h86l-225 -271l227 -264h-86z" />
    <glyph glyph-name="logicalnot" unicode="&#xac;" horiz-adv-x="860" 
d="M793 186h-80v303h-666v68h746v-371z" />
    <glyph glyph-name="uni00AD" unicode="&#xad;" horiz-adv-x="442" 
d="M399 338h-358v68h358v-68z" />
    <glyph glyph-name="registered" unicode="&#xae;" horiz-adv-x="1097" 
d="M678 621q0 111 -141 110q-55 0 -97 -6v-199h111q57 0 92 25t35 70zM440 451v-261h-82v596q74 14 176 16t163 -44.5t61 -139.5t-84 -139q79 -72 104 -289h-80q-37 260 -133 261h-125zM973 491.5q0 176.5 -124 300t-300 123.5t-300 -123.5t-124 -300t124 -300t300 -123.5
t300 123.5t124 300zM1047 491.5q0 -204.5 -146.5 -351t-351.5 -146.5t-351.5 146.5t-146.5 351t146.5 351t351.5 146.5t351.5 -146.5t146.5 -351z" />
    <glyph glyph-name="macron" unicode="&#xaf;" horiz-adv-x="720" 
d="M721 1145v-64h-721v64h721z" />
    <glyph glyph-name="degree" unicode="&#xb0;" horiz-adv-x="434" 
d="M330 813q0 47 -34 82t-81 35t-80 -35t-33 -82t33 -81t80 -34t81 34t34 81zM391 813q0 -72 -52 -123t-124 -51t-123 51t-51 123t51 124t123 52t124 -52t52 -124z" />
    <glyph glyph-name="plusminus" unicode="&#xb1;" horiz-adv-x="841" 
d="M764 0h-686v66h686v-66zM764 412h-307v-273h-72v273h-307v65h307v254h72v-254h307v-65z" />
    <glyph glyph-name="twosuperior" unicode="&#xb2;" horiz-adv-x="520" 
d="M352 834q0 88 -88 88q-98 0 -108 -113l-70 12q8 78 55 121t118 43t117 -41.5t46 -117.5t-96 -176t-181 -185h285l-8 -64h-371q4 84 142 215q55 51 107 106.5t52 111.5z" />
    <glyph glyph-name="threesuperior" unicode="&#xb3;" horiz-adv-x="520" 
d="M440 610q0 -94 -61.5 -150.5t-156.5 -58.5t-150 41l30 66q47 -39 116 -39t112 39t43 100q0 90 -86 90q-57 0 -90 -28l-29 51q102 72 115 82q47 39 47 78t-76 39t-111 -91l-59 31q55 127 184 127t129 -106q0 -37 -28.5 -76t-63.5 -53q135 -9 135 -142z" />
    <glyph glyph-name="acute" unicode="&#xb4;" horiz-adv-x="434" 
d="M174 1081h-63l102 187h102z" />
    <glyph glyph-name="mu" unicode="&#xb5;" horiz-adv-x="831" 
d="M647 106v23q-117 -147 -262 -147q-119 0 -190 104v-373h-78v983h78v-397q0 -248 208 -248q90 0 164 68.5t74 152.5v424h78v-526q0 -127 14 -170h-76q-10 57 -10 106z" />
    <glyph glyph-name="paragraph" unicode="&#xb6;" horiz-adv-x="765" 
d="M657 -129h-69v1036h-99v-1036h-71v498h-8q-123 1 -220 77t-98 211q0 315 406 316q109 0 159 -10v-1092z" />
    <glyph glyph-name="periodcentered" unicode="&#xb7;" horiz-adv-x="331" 
d="M236 370.5q0 -28.5 -21.5 -49t-50.5 -20.5t-49.5 20.5t-20.5 49t20.5 50t49.5 21.5t50.5 -21.5t21.5 -50z" />
    <glyph glyph-name="cedilla" unicode="&#xb8;" horiz-adv-x="434" 
d="M313 -166q0 -119 -143 -119q-49 0 -98 27l20 45q43 -20 80 -20q78 0 78 57q0 51 -129 61l80 123h65l-55 -78q102 -24 102 -96z" />
    <glyph glyph-name="onesuperior" unicode="&#xb9;" horiz-adv-x="520" 
d="M397 412h-250v49h91v420l-78 -68l-39 49l145 129q43 -4 43 -57v-473h88v-49z" />
    <glyph glyph-name="ordmasculine" unicode="&#xba;" horiz-adv-x="583" 
d="M471 737.5q0 73.5 -53 127t-127 53.5t-126 -53.5t-52 -127t52 -126t126 -52.5t127 52.5t53 126zM543 736q0 -101 -76 -175t-177 -74t-175 74t-74 175t73.5 177t175.5 76t177.5 -76t75.5 -177z" />
    <glyph glyph-name="guillemotright" unicode="&#xbb;" horiz-adv-x="602" 
d="M352 98h-86l228 264l-226 271h86l226 -271zM125 98h-86l227 264l-225 271h86l225 -271z" />
    <glyph glyph-name="onequarter" unicode="&#xbc;" horiz-adv-x="1097" 
d="M338 381h-250v49h90v412l-78 -68l-39 49l146 129q43 -4 43 -57v-465h88v-49zM299 -18h-68l582 974h68zM938 127v-127h-72v127h-229q2 137 78 281q90 174 223 178v-391h90l-4 -68h-86zM866 195v303q-57 -50 -103 -144t-50 -159h153z" />
    <glyph glyph-name="onehalf" unicode="&#xbd;" horiz-adv-x="1097" 
d="M967 432q0 88 -88 88q-98 0 -109 -112l-70 12q8 78 55 121t119 43t118 -40t46 -118t-97 -178t-173 -185h276l-8 -63h-370q4 84 141 215q55 51 107.5 106.5t52.5 110.5zM338 381h-250v49h90v412l-78 -68l-39 49l146 129q43 -4 43 -57v-465h88v-49zM299 -18h-68l582 974h68
z" />
    <glyph glyph-name="threequarters" unicode="&#xbe;" horiz-adv-x="1097" 
d="M938 127v-127h-72v127h-229q2 137 78 281q90 174 223 178v-391h90l-4 -68h-86zM866 195v303q-57 -50 -103 -144t-50 -159h153zM440 586q0 -94 -61.5 -150.5t-156.5 -58.5t-150 41l30 65q47 -39 116 -39t112 39t43 101q0 90 -86 90q-57 0 -90 -29l-29 51q102 72 115 82
q47 39 47 78t-68 39q-92 0 -119 -90l-59 31q55 127 184 127t129 -107q0 -37 -28.5 -76t-63.5 -53q135 -20 135 -141zM299 -18h-68l582 974h68z" />
    <glyph glyph-name="questiondown" unicode="&#xbf;" horiz-adv-x="591" 
d="M406 622.5q0 -30.5 -23 -53t-53.5 -22.5t-53 22.5t-22.5 53t22.5 53t53 22.5t53.5 -22.5t23 -53zM300 -313q-114 0 -172 63t-58 162t129 235q100 106 100 211q0 37 -6 66h69q10 -31 11 -72q0 -109 -111.5 -233.5t-111.5 -212.5q0 -147 167 -148q96 0 164 54l31 -62
q-98 -63 -212 -63z" />
    <glyph glyph-name="Acircumflex" unicode="&#xc2;" horiz-adv-x="819" 
d="M594 381l-184 520l-187 -520h371zM819 0h-88l-113 313h-419l-111 -313h-88l369 989h82zM438 1241l142 -160h-76l-94 107l-95 -107h-75l141 160h57z" />
    <glyph glyph-name="Adieresis" unicode="&#xc4;" horiz-adv-x="819" 
d="M594 381l-184 520l-187 -520h371zM819 0h-88l-113 313h-419l-111 -313h-88l369 989h82zM598 1143q0 -27 -18 -44t-45 -17t-45 16q-18 18 -17 45q0 27 17 45q16 18 44 18t46 -18t18 -45zM344 1143q0 -27 -18 -44t-45 -17t-44 16q-17 18 -18 45t17 45t45 18t45 -18t18 -45z
" />
    <glyph glyph-name="Aring" unicode="&#xc5;" horiz-adv-x="819" 
d="M594 381l-184 520l-187 -520h371zM819 0h-88l-113 313h-419l-111 -313h-88l369 989h82zM500 1180q0 36 -26 62t-64 26t-62 -26t-24 -62t24 -62q24 -24 63 -24q37 0 63 24t26 62zM559 1182q0 -62 -44 -106t-105 -44t-106 44q-44 44 -44 106t44 106q44 45 106 45t105 -45
q44 -45 44 -106z" />
    <glyph glyph-name="AE" unicode="&#xc6;" horiz-adv-x="1191" 
d="M608 467l-55 451l-238 -451h293zM1114 0h-438l-58 401h-335l-213 -401h-84l522 975h582v-68h-467l49 -360h395v-68h-385l61 -411h371v-68z" />
    <glyph glyph-name="Ccedilla" unicode="&#xc7;" horiz-adv-x="831" 
d="M510 -14q-18 0 -36 1l-40 -57q102 -25 103 -96q0 -119 -144 -119q-49 0 -98 27l20 45q43 -20 80 -20q78 0 78 57q0 51 -129 61l71 110q-137 27 -236 133q-132 142 -132 361t132 359t331 141q158 0 266 -51l-24 -66q-112 48 -254 48t-256 -120t-113 -313q0 -193 114 -313
t256 -119q142 0 253 47l24 -65q-109 -51 -266 -51z" />
    <glyph glyph-name="Ecircumflex" unicode="&#xca;" horiz-adv-x="718" 
d="M641 0h-530v975h530v-68h-451v-358h402v-68h-402v-413h451v-68zM387 1241l141 -160h-75l-95 107l-94 -107h-76l142 160h57z" />
    <glyph glyph-name="Edieresis" unicode="&#xcb;" horiz-adv-x="718" 
d="M641 0h-530v975h530v-68h-451v-358h402v-68h-402v-413h451v-68zM549 1143q-1 -27 -19 -44t-45 -17t-44 16q-17 18 -17 45t17 45t44 18t45 -18t19 -45zM295 1143q-1 -27 -19 -44t-45 -17t-44 16q-17 18 -17 45t17 45t44 18t45 -18t19 -45z" />
    <glyph glyph-name="Icircumflex" unicode="&#xce;" horiz-adv-x="301" 
d="M190 0h-79v975h79v-975zM209 1241l141 -160h-76l-94 107l-94 -107h-76l142 160h57z" />
    <glyph glyph-name="Idieresis" unicode="&#xcf;" horiz-adv-x="301" 
d="M190 0h-79v975h79v-975zM369 1143q-1 -27 -19 -44t-45 -17t-44 16q-17 18 -17 45t17 45t44 18t45 -18t19 -45zM115 1143q-1 -27 -19 -44t-45 -17t-44 16q-17 18 -17 45t17 45t44 18t45 -18t19 -45z" />
    <glyph glyph-name="Eth" unicode="&#xd0;" horiz-adv-x="882" 
d="M743 500q0 203 -98 309t-250 106q-63 0 -205 -16v-395h345v-68h-345v-362q102 -12 195 -13q166 0 262 118t96 321zM823 508q0 -516 -463 -516q-61 0 -249 18v426h-101v68h101v457q188 25 290 24q186 0 304 -125q118 -131 118 -352z" />
    <glyph glyph-name="Ntilde" unicode="&#xd1;" horiz-adv-x="903" 
d="M793 0h-84l-516 862v-862h-82v975h92l512 -850v850h78v-975zM526 1081q-32 0 -88 34t-72 34q-18 -1 -32 -19t-17 -53h-51q2 61 30 92t68 31q39 0 91 -34t85 -33q32 0 38 71h51q-4 -123 -103 -123z" />
    <glyph glyph-name="Ocircumflex" unicode="&#xd4;" horiz-adv-x="995" 
d="M870 485q0 181 -104 309t-268 128t-268 -128t-105 -308q0 -180 104 -309q105 -128 269 -128t268 128t104 308zM950 485q0 -219 -126 -362t-326 -143t-327 143q-126 143 -126 362t126 363t327 143q200 1 326 -143t126 -363zM526 1241l142 -160h-76l-94 107l-95 -107h-75
l141 160h57z" />
    <glyph glyph-name="Odieresis" unicode="&#xd6;" horiz-adv-x="995" 
d="M870 485q0 181 -104 309t-268 128t-268 -128t-105 -308q0 -180 104 -309q105 -128 269 -128t268 128t104 308zM950 485q0 -219 -126 -362t-326 -143t-327 143q-126 143 -126 362t126 363t327 143q200 1 326 -143t126 -363zM686 1143q0 -27 -18 -44t-45 -17t-44 16
q-17 18 -18 45t17 45t45 18t45 -18t18 -45zM432 1143q0 -27 -18 -44t-45 -17t-44 16q-17 18 -18 45t17 45t45 18t45 -18t18 -45z" />
    <glyph glyph-name="multiply" unicode="&#xd7;" horiz-adv-x="841" 
d="M690 23l-270 282l-270 -282l-54 49l271 284l-271 285l54 49l270 -282l270 282l53 -49l-270 -285l270 -284z" />
    <glyph glyph-name="Oslash" unicode="&#xd8;" horiz-adv-x="995" 
d="M870 485.5q0 180.5 -104 307.5q-23 29 -49 49l-375 -758q70 -35 156 -35q164 0 268 128t104 308.5zM498 922q-164 0 -268.5 -128t-104.5 -308.5t104 -309.5q25 -31 54 -53l372 762q-72 37 -157 37zM950 516q0 -250 -126 -393t-326 -143q-104 0 -189 36l-37 -75h-77
l53 110q-203 153 -203 403.5t126 393.5t327 143q104 0 190 -41l29 60h84l-49 -97q198 -147 198 -397z" />
    <glyph glyph-name="Ucircumflex" unicode="&#xdb;" horiz-adv-x="954" 
d="M844 412q0 -430 -367 -430t-366 430v563h79v-561q0 -193 79 -279t209 -86t209 86t77 279v561h80v-563zM506 1241l141 -160h-76l-94 107l-94 -107h-76l142 160h57z" />
    <glyph glyph-name="Udieresis" unicode="&#xdc;" horiz-adv-x="954" 
d="M844 412q0 -430 -367 -430t-366 430v563h79v-561q0 -193 79 -279t209 -86t209 86t77 279v561h80v-563zM666 1143q0 -27 -18 -44t-46 -17q-27 0 -44 16q-17 18 -17 45t17 45t44 18q28 0 46 -18t18 -45zM412 1143q0 -27 -18 -44t-46 -17q-27 0 -44 16q-17 18 -17 45t17 45
t44 18q28 0 46 -18t18 -45z" />
    <glyph glyph-name="Thorn" unicode="&#xde;" horiz-adv-x="778" 
d="M643 525q0 110 -78 162t-175 52t-189 -28v-398q74 -23 137 -22q147 0 226 62t79 172zM369 805q137 -1 243 -71t107 -210q0 -140 -103.5 -219.5t-281.5 -79.5q-51 0 -133 17v-242h-78v975h78v-193q86 23 168 23z" />
    <glyph glyph-name="germandbls" unicode="&#xdf;" horiz-adv-x="802" 
d="M729 192q-1 -83 -65 -147q-64 -63 -174 -63t-183 41l25 67q78 -41 156 -41t122.5 42t44.5 109t-104.5 158t-104.5 168q0 55 70 122t70 108q0 168 -178 168q-205 0 -205 -336v-699q0 -111 -45 -192l-74 20q39 80 39 172v734q0 375 299 374q102 0 171 -64.5t69 -159.5
t-68 -150.5t-68 -96.5t68 -100t82 -80q53 -71 53 -154z" />
    <glyph glyph-name="acircumflex" unicode="&#xe2;" horiz-adv-x="704" 
d="M518 225v140q-381 0 -381 -177q0 -68 41 -104t103 -35q162 0 227 137q10 23 10 39zM53 174q0 260 453 260h12v12q0 68 -31 119q-47 82 -159 82q-72 0 -222 -47l-10 74q115 37 238 37q264 0 264 -291v-250q0 -86 25 -170l-72 -14l-29 112q-94 -117 -248 -116
q-90 0 -156 51t-65 141zM381 963l141 -160h-76l-94 106l-94 -106h-76l142 160h57z" />
    <glyph glyph-name="adieresis" unicode="&#xe4;" horiz-adv-x="704" 
d="M518 225v140q-381 0 -381 -177q0 -68 41 -104t103 -35q162 0 227 137q10 23 10 39zM53 174q0 260 453 260h12v12q0 68 -31 119q-47 82 -159 82q-72 0 -222 -47l-10 74q115 37 238 37q264 0 264 -291v-250q0 -86 25 -170l-72 -14l-29 112q-94 -117 -248 -116
q-90 0 -156 51t-65 141zM541 864q-1 -27 -19 -44t-45 -17t-44 17t-17 44t17 45q17 19 44 19t45 -18t19 -46zM287 864q-1 -27 -19 -44t-45 -17t-44 17t-17 44t17 45q17 19 44 19t45 -18t19 -46z" />
    <glyph glyph-name="aring" unicode="&#xe5;" horiz-adv-x="704" 
d="M518 225v140q-381 0 -381 -177q0 -68 41 -104t103 -35q162 0 227 137q10 23 10 39zM53 174q0 260 453 260h12v12q0 68 -31 119q-47 82 -159 82q-72 0 -222 -47l-10 74q115 37 238 37q264 0 264 -291v-250q0 -86 25 -170l-72 -14l-29 112q-94 -117 -248 -116
q-90 0 -156 51t-65 141zM266 901q0 -37 25 -61t63 -25q38 1 62 25q26 24 26 61t-25 63q-26 26 -64 26q-39 0 -63 -26t-24 -63zM502 903q0 -61 -44 -105t-106 -44t-105 44q-44 44 -44 105t44 107t105 45q61 0 106 -45q44 -46 44 -107z" />
    <glyph glyph-name="ae" unicode="&#xe6;" horiz-adv-x="1245" 
d="M862 647q-119 0 -190 -82q-58 -65 -72 -157h490q-2 84 -48 149q-61 90 -180 90zM518 293v72q-381 0 -381 -177q0 -68 41 -103.5t117 -35.5t139 47q84 64 84 197zM874 -18q-211 0 -311 178q-57 -178 -289 -178q-90 0 -155.5 51t-65.5 141q0 260 453 260h12v12
q0 68 -31 119q-47 82 -159 82q-72 0 -222 -47l-10 74q115 37 238 37q188 0 244 -156q98 156 288 156q293 0 299 -367h-569q4 -139 83 -216t203 -77t244 47l7 -67q-119 -49 -259 -49z" />
    <glyph glyph-name="ccedilla" unicode="&#xe7;" horiz-adv-x="677" 
d="M424 -18q-27 0 -52 2l-33 -47q92 -22 93 -86q0 -107 -130 -107q-44 0 -88 24l18 40q39 -18 72 -18q70 0 70 51q0 46 -116 56l62 95q-100 22 -166 89q-98 99 -99 265q1 166 99 265t270 100q127 0 215 -49l-29 -66q-76 49 -196 49t-200 -80q-81 -80 -81 -219t81 -219
q80 -80 200 -80t196 49l29 -65q-88 -49 -215 -49z" />
    <glyph glyph-name="ecircumflex" unicode="&#xea;" horiz-adv-x="765" 
d="M400 647q-120 0 -184 -74t-79 -165h490q-2 84 -47 149q-60 90 -180 90zM402 -18q-150 0 -248 98t-98 260t98 266t249 105q293 0 299 -367h-569q4 -139 83 -216t203 -77t245 47l6 -67q-118 -49 -268 -49zM412 963l141 -160h-76l-94 106l-94 -106h-76l141 160h58z" />
    <glyph glyph-name="edieresis" unicode="&#xeb;" horiz-adv-x="765" 
d="M400 647q-120 0 -184 -74t-79 -165h490q-2 84 -47 149q-60 90 -180 90zM402 -18q-150 0 -248 98t-98 260t98 266t249 105q293 0 299 -367h-569q4 -139 83 -216t203 -77t245 47l6 -67q-118 -49 -268 -49zM571 864q0 -27 -18 -44t-45 -17t-44 17t-18 44q0 27 18 45
q18 19 44 19q27 0 45 -18t18 -46zM317 864q0 -27 -18 -44t-45 -17t-44 17t-17 44t17 45q17 19 44 19t45 -18t18 -46z" />
    <glyph glyph-name="icircumflex" unicode="&#xee;" horiz-adv-x="292" 
d="M184 0h-78v696h78v-696zM205 963l141 -160h-76l-94 106l-94 -106h-76l141 160h58z" />
    <glyph glyph-name="idieresis" unicode="&#xef;" horiz-adv-x="292" 
d="M184 0h-78v696h78v-696zM365 864q-1 -27 -19 -44t-45 -17t-44 17t-17 44t17 45q17 19 44 19t45 -18t19 -46zM111 864q-1 -27 -19 -44t-45 -17t-44 17t-17 44t17 45q17 19 44 19t45 -18t19 -46z" />
    <glyph glyph-name="eth" unicode="&#xf0;" horiz-adv-x="741" 
d="M578 290q0 101 -61.5 173t-153.5 72t-147.5 -72t-55.5 -173t54 -173t148 -72t155 72t61 173zM659 334q-1 -150 -79 -254t-216 -105q-138 0 -212 90.5t-74 221.5t75.5 223t196.5 92q86 0 152 -41q47 -33 57 -61q-47 160 -172 278l-178 -112l-35 55l160 102
q-92 70 -197 101l6 59q145 -29 258 -117l154 101l35 -56l-137 -90q33 -31 61 -67q145 -184 145 -420z" />
    <glyph glyph-name="ntilde" unicode="&#xf1;" horiz-adv-x="798" 
d="M692 0h-80v395q0 250 -209 250q-85 0 -151 -71t-66 -152v-422h-80v524q0 55 -14 172h76q14 -43 16 -125q80 139 236 140q272 0 272 -316v-395zM473 803q-36 -1 -88 33t-71 34t-33 -18t-17 -53h-51q2 61 30 92t65 31t76 -24q38 -24 58 -34t41 -10q35 0 41 72h51
q-4 -123 -102 -123z" />
    <glyph glyph-name="ocircumflex" unicode="&#xf4;" horiz-adv-x="815" 
d="M680 346q0 127 -77 212t-195 85t-196 -85q-77 -85 -77 -212t77 -213t196 -86q120 0 196 86t76 213zM758 346q0 -154 -96 -260t-254 -106t-254 106t-97 260q1 154 97 259t254 105t254 -104q96 -106 96 -260zM436 963l142 -160h-76l-94 106l-95 -106h-75l141 160h57z" />
    <glyph glyph-name="odieresis" unicode="&#xf6;" horiz-adv-x="815" 
d="M680 346q0 127 -77 212t-195 85t-196 -85q-77 -85 -77 -212t77 -213t196 -86q120 0 196 86t76 213zM758 346q0 -154 -96 -260t-254 -106t-254 106t-97 260q1 154 97 259t254 105t254 -104q96 -106 96 -260zM596 864q0 -27 -18 -44t-46 -17t-44 17q-17 17 -17 44t17 45
q17 19 44 19q28 0 46 -18t18 -46zM342 864q0 -27 -18 -44t-45 -17t-45 17q-17 17 -17 44t17 45q16 19 44 19t46 -18t18 -46z" />
    <glyph glyph-name="divide" unicode="&#xf7;" horiz-adv-x="841" 
d="M764 338h-686v68h686v-68zM487 121q0 -29 -18 -49.5t-48 -20.5t-47.5 20.5t-17.5 49.5t18.5 50.5t48.5 21.5t47 -21.5t17 -50.5zM489 618.5q0 -28.5 -18 -50t-48 -21.5t-48.5 21.5t-17.5 49.5t19.5 49t47.5 21t47 -20.5t18 -49z" />
    <glyph glyph-name="oslash" unicode="&#xf8;" horiz-adv-x="815" 
d="M408 643q-119 0 -196 -85t-77 -215t82 -218l303 493q-51 25 -112 25zM680 355q0 136 -98 225l-308 -498q59 -35 134 -35q119 0 195.5 86t76.5 222zM758 346q0 -154 -96.5 -260t-253.5 -106q-90 0 -172 40l-50 -79h-82l74 120q-121 103 -121 271t96.5 273.5t254.5 105.5
q74 0 149 -31l64 104h88l-88 -141q137 -104 137 -297z" />
    <glyph glyph-name="ucircumflex" unicode="&#xfb;" horiz-adv-x="798" 
d="M356 -18q-250 0 -250 323v391h80v-377q0 -268 189 -268q88 0 163 62t74 161v422h80v-526q0 -76 35 -168l-76 -16q-25 70 -33 135q-90 -139 -262 -139zM428 963l141 -160h-75l-95 106l-94 -106h-76l142 160h57z" />
    <glyph glyph-name="udieresis" unicode="&#xfc;" horiz-adv-x="798" 
d="M356 -18q-250 0 -250 323v391h80v-377q0 -268 189 -268q88 0 163 62t74 161v422h80v-526q0 -76 35 -168l-76 -16q-25 70 -33 135q-90 -139 -262 -139zM588 864q0 -27 -18 -44t-46 -17q-27 0 -44 17t-17 44t17 45q17 19 44 19q28 0 46 -18t18 -46zM334 864q0 -27 -18 -44
t-46 -17q-27 0 -44 17t-17 44t17 45q17 19 44 19q28 0 46 -18t18 -46z" />
    <glyph glyph-name="thorn" unicode="&#xfe;" horiz-adv-x="884" 
d="M745 348q0 135 -74.5 217t-197.5 82q-186 0 -254 -170q-16 -41 -16 -82v-121q0 -20 10 -61q31 -70 99 -117t174 -47t182.5 82t76.5 217zM821 344q0 -162 -102 -262t-262 -100t-254 127v-396h-78v1250h78v-394q104 141 284 142q147 0 241 -102q94 -103 93 -265z" />
    <glyph glyph-name="ydieresis" unicode="&#xff;" horiz-adv-x="690" 
d="M377 0q-121 -272 -322 -319l-18 63q174 39 264 279q0 6 -6 24l-289 649h86l260 -590l244 590h88zM535 864q-1 -27 -19 -44t-45 -17t-44 17t-17 44t17 45q17 19 44 19t45 -18t19 -46zM281 864q-1 -27 -19 -44t-45 -17t-44 17t-17 44t17 45q17 19 44 19t45 -18t19 -46z" />
    <glyph glyph-name="Abreve" unicode="&#x102;" horiz-adv-x="819" 
d="M594 381l-184 520l-187 -520h371zM819 0h-88l-113 313h-419l-111 -313h-88l369 989h82zM410 1130q57 0 88 37q16 16 24 39h70q-10 -55 -56 -97t-126 -42t-136 49q-37 35 -49 90h72q26 -76 113 -76z" />
    <glyph glyph-name="abreve" unicode="&#x103;" horiz-adv-x="704" 
d="M518 225v140q-381 0 -381 -177q0 -68 41 -104t103 -35q162 0 227 137q10 23 10 39zM53 174q0 260 453 260h12v12q0 68 -31 119q-47 82 -159 82q-72 0 -222 -47l-10 74q115 37 238 37q264 0 264 -291v-250q0 -86 25 -170l-72 -14l-29 112q-94 -117 -248 -116
q-90 0 -156 51t-65 141zM240 928q26 -76 112 -76q57 0 88 37q16 16 25 39h70q-11 -55 -57 -97q-46 -43 -126 -43t-126 42t-58 98h72z" />
    <glyph glyph-name="Cacute" unicode="&#x106;" horiz-adv-x="831" 
d="M510 -14q-199 0 -331 142t-132 361t132 359t331 141q158 0 266 -51l-24 -66q-112 48 -254 48t-256 -120t-113 -313q0 -193 114 -313t256 -119q142 0 253 47l24 -65q-109 -51 -266 -51zM387 1077h-63l102 187l80 -21z" />
    <glyph glyph-name="cacute" unicode="&#x107;" horiz-adv-x="677" 
d="M424 -18q-172 0 -270 99t-99 265q1 166 99 265t270 100q127 0 215 -49l-29 -66q-76 49 -196 49t-200 -80q-81 -80 -81 -219t81 -219q80 -80 200 -80t196 49l29 -65q-88 -49 -215 -49zM311 799h-63l102 186l80 -20z" />
    <glyph glyph-name="Ccaron" unicode="&#x10c;" horiz-adv-x="831" 
d="M510 -14q-199 0 -331 142t-132 361t132 359t331 141q158 0 266 -51l-24 -66q-112 48 -254 48t-256 -120t-113 -313q0 -193 114 -313t256 -119q142 0 253 47l24 -65q-109 -51 -266 -51zM510 1065h-57l-142 160h76l94 -107l94 107h76z" />
    <glyph glyph-name="ccaron" unicode="&#x10d;" horiz-adv-x="677" 
d="M424 -18q-172 0 -270 99t-99 265q1 166 99 265t270 100q127 0 215 -49l-29 -66q-76 49 -196 49t-200 -80q-81 -80 -81 -219t81 -219q80 -80 200 -80t196 49l29 -65q-88 -49 -215 -49zM436 786h-57l-141 160h75l95 -106l94 106h76z" />
    <glyph glyph-name="Dcroat" unicode="&#x110;" horiz-adv-x="882" 
d="M743 508q0 197 -85 302t-232 105q-94 0 -236 -16v-371h310v-67h-310v-387q102 -12 226 -13q327 1 327 447zM823 498q0 -236 -86 -359q-102 -147 -346 -147q-92 0 -280 18v451h-99v67h99v433q188 25 321 24q184 0 287.5 -125.5t103.5 -361.5z" />
    <glyph glyph-name="dcroat" unicode="&#x111;" horiz-adv-x="821" 
d="M635 279v116q0 113 -76.5 182.5t-184.5 69.5t-173.5 -82t-65.5 -211q0 -305 258 -305q102 0 172 66t70 164zM813 872h-98v-702q0 -117 6 -170h-74q-4 53 -4 123q-94 -141 -252 -141t-246 103t-88 264t84 261.5t230 100.5q176 0 264 -148v309h-266v68h266v94h80v-94h98
v-68z" />
    <glyph glyph-name="Gbreve" unicode="&#x11e;" horiz-adv-x="870" 
d="M784 487v-467q-16 12 -43 13l-120 -22q-121 -22 -162 -21q-186 0 -299 136t-113 358t119 362t328 139q150 0 262 -49l-25 -66q-123 47 -242 48q-154 0 -257 -121t-103 -316t89 -311t253 -115q129 0 236 51v316h-248v65h325zM434 1130q57 0 88 37q16 16 25 39h69
q-10 -55 -56 -97t-126 -42t-126 42t-58 97h72q26 -76 112 -76z" />
    <glyph glyph-name="gbreve" unicode="&#x11f;" horiz-adv-x="636" 
d="M145 451q-1 -78 53 -125t124 -47t120 47q52 47 52 123q0 75 -46 131t-130 56t-128 -53q-45 -54 -45 -132zM563 456q-1 -104 -71 -172t-175 -67q-63 0 -108 23q-12 -31 -12 -60q0 -53 165 -100q197 -55 197 -201q0 -88 -63 -144q-64 -57 -180 -57t-205 56l28 65
q88 -51 170 -51t131 35t49 90q0 98 -161 152q-98 31 -135 55q-63 39 -64 100q0 37 21 99q-76 81 -76 183t70 170t163 66h273v-65l-101 10q84 -83 84 -187zM317 852q57 0 89 37q16 16 24 39h70q-10 -55 -56 -97q-46 -43 -126 -43t-127 42q-46 42 -58 98h72q26 -76 112 -76z
" />
    <glyph glyph-name="Idotaccent" unicode="&#x130;" horiz-adv-x="301" 
d="M190 0h-79v975h79v-975zM248 1106q0 -29 -20 -48q-20 -20 -51 -20q-30 0 -49 20t-19 48t19 50t49 22q31 0 51 -22t20 -50z" />
    <glyph glyph-name="dotlessi" unicode="&#x131;" horiz-adv-x="292" 
d="M184 0h-78v696h78v-696z" />
    <glyph glyph-name="Lslash" unicode="&#x141;" horiz-adv-x="739" 
d="M682 0h-559v397l-68 -20l-18 63l86 27v508h80v-481l444 141v-76l-444 -135v-356h479v-68z" />
    <glyph glyph-name="lslash" unicode="&#x142;" horiz-adv-x="428" 
d="M203 381q0 -152 26 -217q39 -104 160 -109l-8 -69q-258 12 -258 364v47l-68 -20l-18 63l86 27v567h80v-540l168 55v-72l-168 -55v-41z" />
    <glyph glyph-name="OE" unicode="&#x152;" horiz-adv-x="1456" 
d="M498 922q-164 0 -268.5 -128t-104.5 -308.5t104.5 -308.5t268.5 -128q117 0 210 67.5t140 180.5v358q-14 100 -117 183q-109 84 -233 84zM1378 68v-68h-530v152q-129 -172 -340 -172t-337 143t-126 362.5t126 362.5t337 143t340 -172v156h530v-68h-450v-358h401v-68h-401
v-413h450z" />
    <glyph glyph-name="oe" unicode="&#x153;" horiz-adv-x="1390" 
d="M1020 647q-102 0 -172 -66.5t-86 -172.5h489q-4 104 -66.5 171.5t-164.5 67.5zM408 643q-120 0 -196.5 -85t-76.5 -212t77 -213t195 -86t194.5 85t78.5 212t-75 213t-197 86zM1036 -18q-225 0 -321 184q-92 -186 -307 -186q-158 0 -254.5 106.5t-96.5 260t96.5 259
t254.5 105.5q221 0 311 -191q88 190 309 191q293 0 299 -367h-569q0 -145 80 -219t204 -74t246 47l6 -67q-119 -49 -258 -49z" />
    <glyph glyph-name="Scedilla" unicode="&#x15e;" horiz-adv-x="731" 
d="M659 256q0 -113 -79 -186q-60 -58 -152 -78l-43 -62q102 -25 102 -96q0 -119 -143 -119q-49 0 -98 27l20 45q43 -20 80 -20q78 0 78 57q0 51 -129 61l63 97q-15 -1 -30 0q-160 0 -269 73l33 70q100 -76 230 -76t194 54q66 55 66 141t-50 136t-167 87q-272 88 -273 274
q0 109 84 181t220 72t222 -52q-18 -35 -34 -63q-88 47 -197 47t-164 -54t-55 -120q0 -135 217 -209q141 -49 207 -111t67 -176z" />
    <glyph glyph-name="scedilla" unicode="&#x15f;" horiz-adv-x="589" 
d="M514 184q0 -88 -67 -145q-44 -38 -110 -51l-37 -51q92 -22 93 -86q0 -107 -129 -107q-44 0 -89 24l19 40q39 -18 71 -18q70 0 70 51q0 46 -116 56l56 85h-13q-102 0 -196 55l30 65q98 -53 172 -53q172 0 172 129q0 100 -161 150q-186 57 -187 188q0 80 60 137t170 57
q109 0 172 -46l-33 -66q-61 49 -141 49t-116 -35t-36 -86q0 -82 160 -137q186 -64 186 -205z" />
    <glyph glyph-name="Scaron" unicode="&#x160;" horiz-adv-x="720" 
d="M655 256q0 -113 -80 -186q-91 -88 -251 -88t-269 73l33 70q100 -76 230 -76t194 54q66 55 66 141t-50 136t-168 87q-272 88 -272 274q0 109 84 181t220 72t222 -52q-18 -35 -34 -63q-88 47 -197 47t-164 -54t-55 -120q0 -135 217 -209q141 -49 207 -111t67 -176z
M389 1065h-57l-142 160h76l94 -107l95 107h75z" />
    <glyph glyph-name="scaron" unicode="&#x161;" horiz-adv-x="577" 
d="M508 184q0 -88 -67 -145t-177 -57t-205 55l31 65q98 -53 172 -53q172 0 172 129q0 100 -162 150q-186 57 -186 188q0 80 60 137t169 57t172 -46l-32 -66q-61 49 -141 49t-116 -35t-36 -86q0 -82 160 -137q186 -64 186 -205zM317 786h-57l-141 160h76l94 -106l94 106h76z
" />
    <glyph glyph-name="Ydieresis" unicode="&#x178;" horiz-adv-x="782" 
d="M428 0h-78v428l-336 547h92l283 -477l283 477h92l-336 -545v-430zM582 1137q0 -27 -18 -44t-46 -17q-27 0 -44 16q-17 18 -17 45t17 45t44 18q28 0 46 -18t18 -45zM328 1137q0 -27 -18 -44t-46 -17q-27 0 -44 16q-17 18 -17 45t17 45t44 18q28 0 46 -18t18 -45z" />
    <glyph glyph-name="Zcaron" unicode="&#x17d;" horiz-adv-x="868" 
d="M45 0v53l662 854h-621l12 68h711v-55l-659 -852h686l-17 -68h-774zM463 1065h-57l-142 160h76l94 -107l94 107h76z" />
    <glyph glyph-name="zcaron" unicode="&#x17e;" horiz-adv-x="657" 
d="M31 0v49l491 582h-467l13 65h555l-2 -55l-490 -575h502l-17 -66h-585zM356 786h-57l-141 160h75l95 -106l94 106h76z" />
    <glyph glyph-name="florin" unicode="&#x192;" horiz-adv-x="815" 
d="M707 879q-160 0 -220 -261l-12 -53h201l-12 -63h-201l-70 -322q-72 -328 -317 -327q-78 0 -111 32l35 58q39 -23 96 -23q160 0 217 260l70 322h-117l13 63h118l13 53q76 328 317 328q78 0 111 -33l-35 -57q-39 23 -96 23z" />
    <glyph glyph-name="Ohorn" unicode="&#x1a0;" horiz-adv-x="995" 
d="M870 485.5q0 180.5 -104 308.5t-268 128t-268.5 -128t-104.5 -308.5t104.5 -308.5t268.5 -128t268 128t104 308.5zM950 482q0 -216 -126 -359t-326.5 -143t-326.5 143t-126 362.5t125.5 362.5t315.5 143t313 -117q86 92 86 193h65q0 -45 -32 -111t-87 -116
q119 -142 119 -358z" />
    <glyph glyph-name="ohorn" unicode="&#x1a1;" horiz-adv-x="815" 
d="M680 346q0 127 -77 212t-195.5 85t-195.5 -85t-77 -212t77 -213t195.5 -86t195.5 86t77 213zM758 338q0 -146 -96.5 -252t-254 -106t-254 106.5t-96.5 260t96.5 259t244.5 105.5t245 -88q74 70 80 192h68q-4 -125 -115 -227q82 -104 82 -250z" />
    <glyph glyph-name="Uhorn" unicode="&#x1af;" horiz-adv-x="954" 
d="M844 412q0 -430 -366.5 -430t-366.5 430v563h79v-561q0 -193 79 -279t209 -86t209 86t77 279v561h80v-90q92 80 98 182h66q-18 -145 -164 -244v-411z" />
    <glyph glyph-name="uhorn" unicode="&#x1b0;" horiz-adv-x="763" 
d="M356 -18q-250 0 -250 323v391h80v-377q0 -268 189 -268q88 0 163 62t74 161v422h80v-84q82 78 90 203h66q-14 -168 -156 -260v-385q0 -76 35 -168l-76 -16q-25 70 -33 135q-90 -139 -262 -139z" />
    <glyph glyph-name="circumflex" unicode="&#x2c6;" horiz-adv-x="434" 
d="M246 963l141 -160h-76l-94 106l-94 -106h-76l141 160h58z" />
    <glyph glyph-name="caron" unicode="&#x2c7;" horiz-adv-x="434" 
d="M246 786h-58l-141 160h76l94 -106l94 106h76z" />
    <glyph glyph-name="breve" unicode="&#x2d8;" horiz-adv-x="618" 
d="M293 852q72 0 102 37q16 16 25 39h69q-10 -55 -56 -97t-126 -42.5t-126 41.5t-58 98h72q26 -76 98 -76z" />
    <glyph glyph-name="dotaccent" unicode="&#x2d9;" horiz-adv-x="618" 
d="M379 1106q0 -29 -20.5 -48.5t-50.5 -19.5t-49 19.5t-19 48.5t19 50.5t49 21.5t50.5 -21.5t20.5 -50.5z" />
    <glyph glyph-name="ring" unicode="&#x2da;" horiz-adv-x="618" 
d="M397 901q0 37 -25.5 62.5t-63.5 25.5t-62.5 -25.5t-24.5 -62.5t24.5 -61.5t62.5 -24.5t63.5 24.5t25.5 61.5zM457 903q0 -61 -43.5 -105t-105.5 -44t-106 44t-44 105t44 106.5t105 45.5t105.5 -45.5t44.5 -106.5z" />
    <glyph glyph-name="ogonek" unicode="&#x2db;" horiz-adv-x="618" 
d="M164 -172q0 64 37 180h82q-39 -100 -39 -164q0 -88 80 -94q61 0 120 31l2 -74q-76 -31 -144 -31q-69 0 -103.5 44t-34.5 108z" />
    <glyph glyph-name="tilde" unicode="&#x2dc;" horiz-adv-x="434" 
d="M137 866q-34 0 -39 -65h-51q2 49 21.5 90t57.5 41t91 -31t76 -31q45 0 49 66h53q-2 -53 -27.5 -90t-61.5 -37t-94.5 28.5t-74.5 28.5z" />
    <glyph glyph-name="hungarumlaut" unicode="&#x2dd;" horiz-adv-x="571" 
d="M141 676h-55l121 330h96zM319 676h-55l121 330h96z" />
    <glyph glyph-name="gravecomb" unicode="&#x300;" 
d="M-115 799h-63l-119 166l80 20z" />
    <glyph glyph-name="acutecomb" unicode="&#x301;" 
d="M-254 799h-63l102 186l80 -20z" />
    <glyph glyph-name="tildecomb" unicode="&#x303;" 
d="M-139 803q-34 0 -87.5 33.5t-71.5 33.5q-19 0 -33.5 -18t-16.5 -53h-51q2 61 29.5 92t60.5 31q43 0 97 -34t83 -34q35 0 41 72h51q-4 -123 -102 -123z" />
    <glyph glyph-name="hookabovecomb" unicode="&#x309;" 
d="M-266 965q0 59 -72 59q-53 0 -92 -57l-39 30q45 82 141 82q55 0 90 -29.5t35 -88.5t-57 -104.5t-57 -70.5h-64q2 53 58.5 94.5t56.5 84.5z" />
    <glyph glyph-name="dotbelowcomb" unicode="&#x323;" 
d="M-100 -160q0 -22 -16.5 -39.5t-42.5 -17.5t-43 17.5t-17 39.5t17.5 41t43.5 19t42 -19t16 -41z" />
    <glyph glyph-name="uni0E00" unicode="&#xe00;" 
 />
    <glyph glyph-name="uni0E01" unicode="&#xe01;" horiz-adv-x="790" 
d="M676 0h-74v535q0 100 -62.5 159.5t-146.5 59.5t-149.5 -39t-89.5 -101q121 -10 165 -90q-49 -10 -85.5 -54t-36.5 -97v-373h-74v371q0 121 106 164q-68 33 -155 22q16 115 103 188.5t213 73.5t206 -73.5t80 -202.5v-543z" />
    <glyph glyph-name="uni0E02" unicode="&#xe02;" horiz-adv-x="774" 
d="M227 587.5q0 28.5 -18.5 47t-47 18.5t-47 -18.5t-18.5 -47t18.5 -47t47 -18.5t47 18.5t18.5 47zM659 170q0 -186 -186 -186t-186 186v195q0 51 51 139t51 136t-40 84t-97 36q-90 0 -137 -60q18 8 59 8t75 -33.5t34 -85.5t-34 -88t-92 -36t-92 47t-34 119t57.5 130
t155.5 58t156.5 -45.5t58.5 -113.5t-49.5 -164.5t-49.5 -141.5v-190q0 -115 113 -115t113 115v639h73v-633z" />
    <glyph glyph-name="uni0E03" unicode="&#xe03;" horiz-adv-x="782" 
d="M236 510q0 29 -18.5 47t-47.5 18t-47.5 -18t-18.5 -47t18.5 -47.5t47.5 -18.5t47.5 18.5t18.5 47.5zM668 170q0 -186 -186 -186t-187 186v129q0 66 61.5 165t61.5 163q0 106 -78 123l-72 -86l-73 84q-66 -45 -89 -119q29 12 77 12t83 -38t35 -96t-38.5 -95t-100.5 -37
t-97 54t-35 135t52 161q51 80 135 96l51 -71l56 71q74 -8 118 -67q44 -60 43 -128q0 -68 -58 -171t-58 -162v-129q0 -115 112.5 -115t112.5 115v639h74v-633z" />
    <glyph glyph-name="uni0E04" unicode="&#xe04;" horiz-adv-x="804" 
d="M457 503.5q0 26.5 -18.5 45t-45 18.5t-45 -18.5t-18.5 -45t18.5 -45t45 -18.5t45 18.5t18.5 45zM690 0h-74v551q0 98 -72.5 150.5t-165.5 52.5t-164 -64.5t-71 -159.5q0 -46 20 -122t21 -89q18 117 64 199q59 106 149 107q51 0 84 -33t33 -86t-35 -89t-87 -36t-93 49
q-29 -43 -61 -132t-31 -165v-133h-74v188q0 59 -32.5 168t-32.5 166q0 133 90 215t220 82t221 -66.5t91 -195.5v-557z" />
    <glyph glyph-name="uni0E05" unicode="&#xe05;" horiz-adv-x="804" 
d="M457 458.5q0 26.5 -18.5 45t-45 18.5t-45 -18.5t-18.5 -45t18.5 -45t45 -18.5t45 18.5t18.5 45zM690 0h-74v573q-2 141 -137 175l-98 -111l-109 113q-66 -36 -96 -98t-31 -120q0 -58 39 -233q55 279 209 279q53 0 86 -33t33 -85t-34 -87t-92 -35t-97 47q-27 -29 -53 -113
t-25 -161v-111h-74v164q0 63 -34.5 182t-34.5 180q0 236 223 297l90 -104l82 104q225 -45 227 -245v-578z" />
    <glyph glyph-name="uni0E06" unicode="&#xe06;" horiz-adv-x="835" 
d="M236 510q0 29 -18.5 47t-47.5 18t-47.5 -18t-18.5 -47t18.5 -47.5t47.5 -18.5t47.5 18.5t18.5 47.5zM721 0h-74q-88 168 -250 203q29 -33 29 -85t-40 -93t-100 -41t-100.5 41t-40.5 100t41 99t101 40h8v35q0 66 61.5 165t61.5 163q0 106 -78 123l-72 -86l-73 84
q-66 -45 -89 -119q29 12 77 12t83 -38t35 -96t-38.5 -95t-100.5 -37t-97 54t-35 135t52 161q51 80 135 96l51 -71l56 71q74 -8 117.5 -64.5t43.5 -127.5t-58 -174t-58 -162v-31q182 -20 278 -151v692h74v-803zM358 125q0 29 -21.5 50.5t-50 21.5t-50 -21.5t-21.5 -50.5
t21.5 -50.5t50 -21.5t50 21.5t21.5 50.5z" />
    <glyph glyph-name="uni0E07" unicode="&#xe07;" horiz-adv-x="602" 
d="M420 686q0 29 -20.5 49.5t-49 20.5t-49 -20.5t-20.5 -49.5t20.5 -49.5t49 -20.5t49 20.5t20.5 49.5zM487 0h-73l-381 426l41 47l340 -369v459q-29 -14 -74 -14t-85 40t-40 96t38.5 95t100.5 39t98 -41t35 -96v-682z" />
    <glyph glyph-name="uni0E08" unicode="&#xe08;" horiz-adv-x="751" 
d="M322 428q0 27 -18.5 45.5t-45.5 18.5t-44 -18.5t-17 -45.5t17 -44t44 -17t45.5 17t18.5 44zM637 133q0 -152 -145 -151q-115 0 -132 114l-34 230q-31 -18 -76 -18t-80 34.5t-35 86.5t35 88t83 36t83 -29.5t43 -74.5l59 -349q8 -51 58 -51q68 0 67 74v481q0 80 -63.5 114
t-151.5 34t-148.5 -39t-74.5 -107h-76q10 86 87 150t214 63q287 0 287 -215v-471z" />
    <glyph glyph-name="uni0E09" unicode="&#xe09;" horiz-adv-x="772" 
d="M240 403.5q0 26.5 -17.5 44t-44 17.5t-44 -17.5t-17.5 -44t17.5 -44t44 -17.5t44 17.5t17.5 44zM635 114q0 28 -19.5 47t-47.5 19t-48 -19t-20 -47t20 -48.5t48 -20.5t47.5 20.5t19.5 48.5zM694 113q0 -53 -35 -90t-91 -37t-93 36.5t-37 90.5q0 18 2 26
q-117 -49 -178 -139h-92v190q0 59 14 91h-8q-51 0 -87 35.5t-36 87.5t36 88t88 36t88 -36t36 -82t-28.5 -104t-28.5 -103v-131q68 98 223 145q117 53 117 176v205q0 72 -68 113t-150 41t-152 -40t-85 -110h-76q6 86 87 152t216 66t218 -57q83 -56 83 -167v-207
q0 -98 -55 -153q92 -29 92 -123z" />
    <glyph glyph-name="uni0E0A" unicode="&#xe0a;" horiz-adv-x="778" 
d="M227 587.5q0 28.5 -18.5 47t-47 18.5t-47 -18.5t-18.5 -47t18.5 -47t47 -18.5t47 18.5t18.5 47zM664 170q0 -186 -188 -186t-189 186v195q0 51 51 139t51 136t-40 84t-97 36q-90 0 -137 -60q18 8 59 8t75 -33.5t34 -85.5t-34 -88t-92 -36t-92 47t-34 119t57.5 130
t155.5 58t156.5 -45.5t58.5 -113.5t-49.5 -164.5t-49.5 -141.5v-190q0 -115 115 -115t115 115v330q0 90 -88 120q4 12 4 48q113 47 119 190h77q-6 -78 -42.5 -135.5t-75.5 -77.5q80 -31 80 -137v-332z" />
    <glyph glyph-name="uni0E0B" unicode="&#xe0b;" horiz-adv-x="786" 
d="M672 170q0 -186 -188 -186t-189 186v129q0 66 61.5 165t61.5 163q0 106 -78 123l-72 -86l-73 84q-66 -45 -89 -119q29 12 77 12t83 -38t35 -96t-38.5 -95t-100.5 -37t-97 54t-35 135t52 161q51 80 135 96l51 -71l56 71q74 -8 118 -67q44 -60 43 -128q0 -68 -58 -171
t-58 -162v-127q0 -117 114.5 -117t114.5 115v330q0 90 -82 118q2 18 -2 50q113 47 119 190h78q-6 -78 -43 -135.5t-76 -77.5q80 -31 80 -137v-332zM236 510q0 29 -18.5 47t-47.5 18t-47.5 -18t-18.5 -47t18.5 -47.5t47.5 -18.5t47.5 18.5t18.5 47.5z" />
    <glyph glyph-name="uni0E0C" unicode="&#xe0c;" horiz-adv-x="1062" 
d="M307 116.5q0 28.5 -20.5 49t-49 20.5t-48 -20.5t-19.5 -49t19.5 -48t48 -19.5t49 19.5t20.5 48zM645 116.5q0 28.5 -20.5 49t-49 20.5t-48 -20.5t-19.5 -49t19.5 -48t48 -19.5t49 19.5t20.5 48zM948 0h-76q-49 76 -163 143q4 -16 4 -26q0 -55 -36 -95t-95 -40t-99.5 40
t-40.5 94t36 93t87 43v291q0 211 -211 211q-66 0 -124 -40t-80 -102q115 -8 163 -90q-49 -10 -86 -53t-37 -96v-129q18 8 60 8t82.5 -40t40.5 -95.5t-38 -95t-97.5 -39.5t-97.5 40t-38 84t15 70v195q0 111 106 161q-78 31 -162 23q18 115 101.5 189.5t203.5 74.5
t196.5 -70.5t76.5 -197.5v-307q168 -57 235 -148v707h74v-803z" />
    <glyph glyph-name="uni0E0D" unicode="&#xe0d;" horiz-adv-x="1062" 
d="M948 168q0 -184 -200 -184t-199 186v373q0 211 -199 211q-66 0 -122 -39t-78 -103q115 -8 163 -90q-49 -10 -86 -53t-37 -96v-133q27 12 73 12t85 -39t39 -94.5t-31.5 -96t-97.5 -40.5t-103.5 37.5t-37.5 101.5v250q0 111 106 161q-78 31 -162 23q18 115 99.5 189.5
t201.5 74.5t190.5 -69.5t70.5 -198.5v-387q0 -115 126 -115t125 115v639h74v-635zM322 116.5q0 28.5 -20.5 49t-49.5 20.5t-48.5 -20.5t-19.5 -49t19.5 -48t48.5 -19.5t49.5 19.5t20.5 48zM680 -172.5q0 22.5 -16.5 39t-39 16.5t-39 -16.5t-16.5 -39t16.5 -38.5t39 -16
t39 16t16.5 38.5zM725 -350q-82 0 -147.5 51t-65.5 127q0 45 33 78t79 33t78.5 -33t32.5 -78q0 -76 -71 -104q25 -14 59 -15q176 0 180 221h76q-4 -123 -64.5 -201.5t-189.5 -78.5z" />
    <glyph glyph-name="uni0E0E" unicode="&#xe0e;" horiz-adv-x="870" 
d="M252 116.5q0 28.5 -20.5 49t-49 20.5t-48 -20.5t-19.5 -49t19.5 -48t48 -19.5t49 19.5t20.5 48zM326 -254q-92 0 -93 -65q0 -63 68 -64q72 0 72 92q0 15 -4 31q-18 6 -43 6zM756 -440h-82q-16 49 -93 98t-139 66v-15q0 -66 -38 -112t-102 -46t-99 36t-35 94t45 95.5
t109 37.5q10 0 53 -7q8 76 76 115l55 -33q-61 -39 -64 -98q164 -57 240 -137v878q0 100 -62.5 161t-146.5 61t-148.5 -40t-88.5 -102q109 -10 165 -90q-111 -37 -110 -149q0 -81 13 -141t13 -114t-39.5 -94t-95 -40t-94.5 38.5t-39 94t39 95.5t94 40q23 0 49 -10
q-12 94 -12 143q0 94 82 147q-55 25 -95 25t-52 -2q10 115 99 189.5t214 74.5t207 -74.5t82 -203.5v-981z" />
    <glyph glyph-name="uni0E0F" unicode="&#xe0f;" horiz-adv-x="870" 
d="M252 116.5q0 28.5 -20.5 49t-49 20.5t-48 -20.5t-19.5 -49t19.5 -48t48 -19.5t49 19.5t20.5 48zM756 -440h-82l-111 125l-90 -123l-113 123q-2 -63 -40 -99.5t-96 -36.5t-92 37t-34 93t39 92t87 36t77 -14q4 72 84 119l55 -33q-70 -43 -73 -115l100 -106l96 129l119 -133
v878q0 100 -62.5 161t-146.5 61t-148.5 -40t-88.5 -102q109 -10 165 -90q-111 -37 -110 -149q0 -81 13 -141t13 -114t-39.5 -94t-95 -40t-94.5 38.5t-39 94t39 95.5t94 40q23 0 49 -10q-12 94 -12 143q0 94 82 147q-55 25 -95 25t-52 -2q10 115 99 189.5t214 74.5t207 -74.5
t82 -203.5v-981zM240 -256q-80 0 -80 -70q0 -61 65 -61q76 0 76 113q-18 18 -61 18z" />
    <glyph glyph-name="uni0E10" unicode="&#xe10;" horiz-adv-x="702" 
d="M258 378.5q0 22.5 -16.5 39t-39 16.5t-37.5 -16.5t-15 -39t15 -37.5t37.5 -15t39 15t16.5 37.5zM483 -252q49 0 49 46t-49 46t-49 -46t49 -46zM106 -393q70 0 70 65q0 11 -4 27q-20 14 -79 12t-58 -51q1 -53 71 -53zM586 -442h-80l-88 55l-90 -53l-92 112q-2 -57 -41 -90
t-93 -33q-131 2 -131 117q0 49 40.5 76t92.5 27t76 -11q12 84 90 125l56 -30q-84 -41 -86 -121l90 -105l88 45l98 -61v92q-10 -2 -43 -2t-63.5 27.5t-30.5 66.5t30.5 66.5t72.5 27.5t73 -25.5t31 -68.5v-237zM580 162q0 -180 -163 -180t-163 180v104q-22 -8 -62 -8t-75 34
t-35 86t35 88t87 36t88 -32t36 -89v-225q0 -106 88 -107q90 0 90 107v297q0 49 -199 98q-119 31 -254 49q6 94 71.5 156.5t174.5 62.5q43 0 115.5 -22.5t116.5 -22.5t55 45l63 -14q-33 -106 -119 -107q-45 0 -123.5 25t-122.5 25t-88 -28t-49 -65q205 -41 291 -73
q141 -51 142 -123v-297z" />
    <glyph glyph-name="uni0E11" unicode="&#xe11;" horiz-adv-x="944" 
d="M236 510q0 29 -18.5 47t-47.5 18t-47.5 -18t-18.5 -47t18.5 -47.5t47.5 -18.5t47.5 18.5t18.5 47.5zM829 0h-73v655q0 92 -60 93q-23 0 -49 -54l-260 -694h-92v299q0 66 55.5 165t55.5 163q0 111 -66 123l-72 -86l-73 84q-66 -45 -89 -119q29 12 77 12t83 -38t35 -96
t-38.5 -95t-100.5 -37t-97 54t-35 135t51.5 161t135.5 96l51 -71l56 71q150 -18 149 -200q0 -63 -52 -168t-52 -170l-9 -174q23 86 50 153l168 443q43 115 124 114q127 0 127 -164v-655z" />
    <glyph glyph-name="uni0E12" unicode="&#xe12;" horiz-adv-x="1089" 
d="M672 116.5q0 28.5 -20.5 49t-49.5 20.5t-48 -20.5t-19 -49t19 -48t48 -19.5t49.5 19.5t20.5 48zM432 454.5q0 28.5 -18.5 47t-47 18.5t-46 -18.5t-17.5 -47t17.5 -46t46 -17.5t47 17.5t18.5 46zM975 0h-74q-53 88 -166 145q4 -12 4 -28q0 -53 -36.5 -93t-98 -40t-98.5 40
t-37 94t36 93t87 43v278q0 147 -94 209l-131 -118l-121 120q-47 -31 -77 -92t-30 -121t42 -172t44 -182q15 35 65 82t68 74q-51 6 -80.5 40t-29.5 83t34.5 83.5t86 34.5t121 -68.5t-94.5 -239.5t-170 -265h-73v186q0 61 -43 169.5t-43 186.5t50 164t142 111l111 -117
l110 119q90 -16 138.5 -98t48.5 -180v-297q168 -57 235 -138v697h74v-803z" />
    <glyph glyph-name="uni0E13" unicode="&#xe13;" horiz-adv-x="1112" 
d="M973 114.5q0 28.5 -20.5 49t-49.5 20.5t-49 -20.5t-20 -49t20 -49t49 -20.5t49.5 20.5t20.5 49zM322 116.5q0 28.5 -20.5 49t-49.5 20.5t-48.5 -20.5t-19.5 -49t19.5 -48t48.5 -19.5t49.5 19.5t20.5 48zM1040 115q0 -57 -39 -95t-97 -38t-97 37.5t-39 95.5v12
q-74 -29 -131 -127h-88v543q0 211 -199 211q-66 0 -122 -39t-78 -103q115 -8 163 -90q-49 -10 -86 -53t-37 -96v-133q27 12 73 12t85 -39t39 -96t-38 -96t-97 -39t-97 39.5t-38 99.5v250q0 111 106 161q-78 31 -162 23q18 115 99.5 189.5t201.5 74.5t190.5 -69.5
t70.5 -198.5v-453q47 62 139 106t110 58q51 45 52 137v404h73v-400q0 -123 -39 -161q82 -35 82 -127z" />
    <glyph glyph-name="uni0E14" unicode="&#xe14;" horiz-adv-x="800" 
d="M444 501.5q0 26.5 -18 45t-45 18.5t-45.5 -18.5t-18.5 -45t18.5 -45t45.5 -18.5t45 18.5t18 45zM686 0h-74v532q0 221 -235 222q-94 0 -166 -64.5t-72 -159.5q0 -59 33 -160.5t33 -149.5t-4 -62q25 53 78 111t102 112q-51 0 -86 35t-35 86t35 86t86 35t86 -35t35 -86
q0 -98 -144.5 -250t-150.5 -252h-74v184q0 59 -33.5 169t-33.5 167q0 139 92 219t231 80t218 -74.5t79 -201.5v-543z" />
    <glyph glyph-name="uni0E15" unicode="&#xe15;" horiz-adv-x="800" 
d="M449 456.5q0 26.5 -18.5 45t-45.5 18.5t-45 -18.5t-18 -45t18 -45t45 -18.5t45.5 18.5t18.5 45zM686 0h-74v532q0 152 -98 211l-131 -120l-139 120q-102 -66 -103 -213q0 -63 33 -174.5t33 -193.5q20 41 82.5 92t83.5 82q-47 4 -79 37t-32 83t34 84.5t85 34.5t86 -34.5
t35 -85.5q0 -94 -143.5 -225.5t-149.5 -229.5h-74v184q0 59 -34.5 169.5t-34.5 188.5t49 165t141 112l127 -112l117 112q90 -16 138 -98t48 -178v-543z" />
    <glyph glyph-name="uni0E16" unicode="&#xe16;" horiz-adv-x="774" 
d="M315 116.5q0 28.5 -20.5 49t-49 20.5t-48 -20.5t-19.5 -49t19.5 -48t48 -19.5t49 19.5t20.5 48zM659 0h-73v535q0 104 -61 161.5t-147 57.5t-149 -40t-88 -102q125 -10 162 -88q-47 -10 -84 -54t-37 -95v-133q33 14 76 14t83 -40t40 -99t-39 -96t-97 -37t-97 38.5
t-39 96.5v254q0 111 104 162q-55 23 -160 22q16 113 106.5 187.5t214.5 74.5t204.5 -73.5t80.5 -202.5v-543z" />
    <glyph glyph-name="uni0E17" unicode="&#xe17;" horiz-adv-x="880" 
d="M240 684q0 29 -20.5 49.5t-49.5 20.5t-49.5 -20.5t-20.5 -49.5t20.5 -49.5t49.5 -20.5t49.5 20.5t20.5 49.5zM766 0h-74v655q0 92 -59 93q-37 0 -64 -54l-260 -694h-78v563q-27 -14 -71 -14t-84.5 40t-40.5 95t40 95t95 40t95 -40t40 -95v-401q-4 -94 -10 -136
q12 41 37 115l166 443q43 115 141 114q127 0 127 -164v-655z" />
    <glyph glyph-name="uni0E18" unicode="&#xe18;" horiz-adv-x="686" 
d="M567 156q0 -170 -225 -170t-225 170v319h73v-323q0 -100 152 -100.5t152 100.5v303q0 49 -199 98q-121 31 -254 49q6 92 66.5 154.5t164.5 62.5q47 0 123 -22.5t119 -22.5t51 47l64 -14q-31 -100 -117 -100q-45 0 -124 23.5t-121 23.5t-84 -29t-48 -68q221 -45 273 -61
q160 -53 159 -135v-305z" />
    <glyph glyph-name="uni0E19" unicode="&#xe19;" horiz-adv-x="860" 
d="M721 118.5q0 28.5 -20.5 49t-49 20.5t-49 -20.5t-20.5 -49t20.5 -49t49 -20.5t49 20.5t20.5 49zM240 684q0 29 -20.5 49.5t-49.5 20.5t-49.5 -20.5t-20.5 -49.5t20.5 -49.5t49.5 -20.5t49.5 20.5t20.5 49.5zM786 117q0 -55 -39.5 -94t-95 -39t-94.5 38.5t-39 94.5v14
q-127 -51 -196 -131h-91v563q-27 -14 -71 -14t-84.5 40t-40.5 95t40 95t95 40t95 -40t40 -95v-604q41 45 152 95t145 79q70 55 70 141v408h73v-418q0 -98 -45 -143q86 -35 86 -125z" />
    <glyph glyph-name="uni0E1A" unicode="&#xe1a;" horiz-adv-x="876" 
d="M240 684q0 29 -20.5 49.5t-49.5 20.5t-49.5 -20.5t-20.5 -49.5t20.5 -49.5t49.5 -20.5t49.5 20.5t20.5 49.5zM762 174q0 -190 -265 -190t-266 190v389q-27 -14 -71 -14t-84.5 40t-40.5 95t40 95t95 40t95 -40t40 -95v-504q-1 -129 191 -129t192 129v623h74v-629z" />
    <glyph glyph-name="uni0E1B" unicode="&#xe1b;" horiz-adv-x="876" 
d="M240 684q0 29 -20.5 49.5t-49.5 20.5t-49.5 -20.5t-20.5 -49.5t20.5 -49.5t49.5 -20.5t49.5 20.5t20.5 49.5zM762 174q0 -190 -265 -190t-266 190v389q-27 -14 -71 -14t-84.5 40t-40.5 95t40 95t95 40t95 -40t40 -95v-504q-1 -129 191 -129t192 129v965h74v-971z" />
    <glyph glyph-name="uni0E1C" unicode="&#xe1c;" horiz-adv-x="780" 
d="M289 684q0 29 -20.5 49.5t-49.5 20.5t-49 -20.5t-20 -49.5t20 -49.5t49 -20.5t49.5 20.5t20.5 49.5zM666 0h-82l-211 324l-209 -324h-82v684q0 55 39 95t95 40t96 -40t40 -94t-39 -95t-82 -41t-75 14v-452l188 290h55l193 -290v692h74v-803z" />
    <glyph glyph-name="uni0E1D" unicode="&#xe1d;" horiz-adv-x="780" 
d="M289 684q0 29 -20.5 49.5t-49.5 20.5t-49 -20.5t-20 -49.5t20 -49.5t49 -20.5t49.5 20.5t20.5 49.5zM666 0h-82l-211 324l-209 -324h-82v684q0 55 39 95t95 40t96 -40t40 -94t-39 -95t-82 -41t-75 14v-452l188 290h55l193 -290v1034h74v-1145z" />
    <glyph glyph-name="uni0E1E" unicode="&#xe1e;" horiz-adv-x="915" 
d="M240 684q0 29 -20.5 49.5t-49.5 20.5t-49.5 -20.5t-20.5 -49.5t20.5 -49.5t49.5 -20.5t49.5 20.5t20.5 49.5zM801 0h-90l-195 711l-194 -711h-91v563q-27 -14 -71 -14t-84.5 40t-40.5 95t40 95t95 40t95 -40t40 -95v-428q0 -51 -10 -143q14 68 37 149l149 541h70
l149 -541q23 -82 37 -149q-10 92 -10 143v547h74v-803z" />
    <glyph glyph-name="uni0E1F" unicode="&#xe1f;" horiz-adv-x="915" 
d="M240 684q0 29 -20.5 49.5t-49.5 20.5t-49.5 -20.5t-20.5 -49.5t20.5 -49.5t49.5 -20.5t49.5 20.5t20.5 49.5zM801 0h-90l-195 711l-194 -711h-91v563q-27 -14 -71 -14t-84.5 40t-40.5 95t40 95t95 40t95 -40t40 -95v-428q0 -51 -10 -143q14 68 37 149l149 541h70
l149 -541q23 -82 37 -149q-10 92 -10 143v889h74v-1145z" />
    <glyph glyph-name="uni0E20" unicode="&#xe20;" horiz-adv-x="870" 
d="M252 116.5q0 28.5 -20.5 49t-49 20.5t-48 -20.5t-19.5 -49t19.5 -48t48 -19.5t49 19.5t20.5 48zM756 0h-74v532q0 100 -62.5 161t-146.5 61t-148.5 -40t-88.5 -102q109 -10 165 -90q-111 -37 -110 -149q0 -81 13 -141t13 -114t-35.5 -94t-95.5 -40t-98.5 38.5t-38.5 94
t39 95.5t94 40q23 0 49 -10q-12 94 -12 143q0 94 82 147q-55 25 -95 25t-52 -2q10 115 99 189.5t214 74.5t207 -74.5t82 -203.5v-541z" />
    <glyph glyph-name="uni0E21" unicode="&#xe21;" horiz-adv-x="819" 
d="M240 684q0 29 -20.5 49.5t-49.5 20.5t-49.5 -20.5t-20.5 -49.5t20.5 -49.5t49.5 -20.5t49.5 20.5t20.5 49.5zM264 127q0 31 -22.5 53.5t-53 22.5t-53 -22.5t-22.5 -53.5t22.5 -53.5t53 -22.5t53 22.5t22.5 53.5zM705 0h-80q-160 123 -299 162q6 -18 6 -37q0 -59 -42 -100
t-101.5 -41t-100.5 41t-41 100t41 101t100 42q23 0 43 -6v301q-27 -14 -71 -14t-84.5 40t-40.5 95t40 95t95 40t95 -40t40 -95v-442q203 -72 326 -166v727h74v-803z" />
    <glyph glyph-name="uni0E22" unicode="&#xe22;" horiz-adv-x="768" 
d="M324 702.5q0 28.5 -18.5 47t-47.5 18.5t-46 -18.5t-17 -47.5q0 -63 63 -63q29 0 47.5 17.5t18.5 46zM653 182q1 -198 -277 -198t-278 198v105q0 47 28 90t69 59q-109 47 -109 203q0 80 46 130t112 50t99.5 -34.5t33.5 -82t-30.5 -81t-96.5 -33.5t-96 67q-2 -5 -2 -47
t35.5 -89.5t93.5 -47.5h116v-70h-118q-45 0 -76 -32.5t-31 -85.5v-95q0 -137 204 -137t204 137v615h73v-621z" />
    <glyph glyph-name="uni0E23" unicode="&#xe23;" horiz-adv-x="659" 
d="M455 118.5q0 28.5 -20.5 49t-49.5 20.5t-49.5 -20.5t-20.5 -49t20.5 -49t49.5 -20.5t49.5 20.5t20.5 49zM520 119q0 -55 -37 -95t-95 -40t-98 39.5t-40 95t40 95.5t85 40t71 -14v215q0 84 -395 147q12 217 199 217q43 0 122 -21.5t113 -21.5q20 0 39 47l64 -16
q-31 -98 -105 -98q-43 0 -123.5 22.5t-119.5 22.5t-71 -32t-34 -65q131 -23 258 -67.5t127 -128.5v-342z" />
    <glyph glyph-name="uni0E24" unicode="&#xe24;" horiz-adv-x="774" 
d="M315 116.5q0 28.5 -20.5 49t-49 20.5t-48 -20.5t-19.5 -49t19.5 -48t48 -19.5t49 19.5t20.5 48zM659 -410h-73v945q0 104 -61 161.5t-147 57.5t-149 -40t-88 -102q125 -10 162 -88q-47 -10 -84 -54t-37 -95v-133q33 14 76 14t83 -40t40 -97.5t-40 -96t-97.5 -38.5
t-96 38.5t-38.5 96.5v254q0 111 104 162q-55 23 -160 22q16 113 106.5 187.5t214.5 74.5t204.5 -73.5t80.5 -202.5v-953z" />
    <glyph glyph-name="uni0E25" unicode="&#xe25;" horiz-adv-x="780" 
d="M307 116.5q0 28.5 -20.5 49t-49 20.5t-48 -20.5t-19.5 -49t19.5 -48t48 -19.5t49 19.5t20.5 48zM666 0h-74v350q0 72 -70 111t-152 39q-83 0 -140.5 -44t-57.5 -114v-102q29 14 77 14t87 -40t39 -95.5t-39 -95t-99 -39.5t-99.5 41t-39.5 96v221q0 102 79 166t203 63
q124 0 212 -82v101q0 74 -73 119t-157 45t-156 -39q-73 -39 -91 -109h-72q13 94 107 154t212 59t210 -61q93 -60 94 -172v-586z" />
    <glyph glyph-name="uni0E26" unicode="&#xe26;" horiz-adv-x="870" 
d="M252 116.5q0 28.5 -20.5 49t-49 20.5t-48 -20.5t-19.5 -49t19.5 -48t48 -19.5t49 19.5t20.5 48zM756 -410h-74v942q0 100 -62.5 161t-146.5 61t-148.5 -40t-88.5 -102q109 -10 165 -90q-111 -37 -110 -149q0 -81 13 -141t13 -114t-39.5 -94t-95 -40t-94.5 38.5t-39 94
t39 95.5t94 40q23 0 49 -10q-12 94 -12 143q0 94 82 147q-55 25 -95 25t-52 -2q10 115 99 189.5t214 74.5t207 -74.5t82 -203.5v-951z" />
    <glyph glyph-name="uni0E27" unicode="&#xe27;" horiz-adv-x="686" 
d="M506 118.5q0 28.5 -20.5 49t-49 20.5t-49 -20.5t-20.5 -49t20.5 -49t49 -20.5t49 20.5t20.5 49zM571 119q0 -55 -39.5 -95t-95 -40t-95.5 39.5t-40 95t40 95.5t85 40t72 -14v331q0 182 -203 183q-160 0 -199 -148h-76q45 213 279 213q117 0 194.5 -61.5t77.5 -173.5v-465
z" />
    <glyph glyph-name="uni0E28" unicode="&#xe28;" horiz-adv-x="804" 
d="M455 501.5q0 26.5 -18.5 45t-45 18.5t-45 -18.5t-18.5 -45t18.5 -45t45 -18.5t45 18.5t18.5 45zM143 530q0 -46 20 -122t21 -89q39 209 140 287l161 127q-49 21 -125 21t-146.5 -64.5t-70.5 -159.5zM690 0h-74v551q0 90 -71 145q-14 -12 -105 -80q72 -29 72 -114
q0 -49 -35 -84t-90 -35t-90 47q-29 -43 -59 -132t-31 -165v-133h-74v188q0 59 -32.5 168t-32.5 166q0 133 90 215t225 82q86 0 162 -35q74 66 78 97h94q-8 -49 -111 -136q84 -68 84 -188v-557z" />
    <glyph glyph-name="uni0E29" unicode="&#xe29;" horiz-adv-x="897" 
d="M240 684q0 29 -20.5 49.5t-49.5 20.5t-49.5 -20.5t-20.5 -49.5t20.5 -49.5t49.5 -20.5t49.5 20.5t20.5 49.5zM543 491.5q0 22.5 -17.5 40t-40 17.5t-39 -17.5t-16.5 -40t16.5 -39t39 -16.5t40 16.5t17.5 39zM782 174q0 -190 -275 -190t-276 190v389q-27 -14 -71 -14
t-84.5 40t-40.5 95t40 95t95 40t95 -40t40 -95v-504q0 -129 202 -129t202 129v150q-61 -14 -101 -15q-94 0 -163.5 51.5t-69.5 125.5q0 47 32.5 78.5t78.5 31.5t79 -31.5t33 -78.5q0 -72 -72 -105q25 -14 81 -14t102 20v410h73v-369q49 37 80 94l45 -39q-29 -55 -125 -131
v-184z" />
    <glyph glyph-name="uni0E2A" unicode="&#xe2a;" horiz-adv-x="780" 
d="M307 116.5q0 28.5 -20.5 49t-49 20.5t-48 -20.5t-19.5 -49t19.5 -48t48 -19.5t49 19.5t20.5 48zM592 590q0 29 -19 65q-57 -61 -122 -110q86 -21 141 -72v117zM666 0h-74v334q0 72 -70 111t-152 39q-83 0 -140.5 -44.5t-57.5 -113.5v-86q29 14 77 14t87 -40t39 -95.5
t-39 -95t-99 -39.5t-99.5 41t-39.5 96v205q0 102 79 166t185 63h13q92 76 155 147q-76 52 -164 52t-160 -39q-73 -39 -91 -109h-72q13 94 107 154t210.5 59.5t210.5 -59.5q43 49 56 114h73q-14 -82 -77 -161q43 -55 43 -127v-586z" />
    <glyph glyph-name="uni0E2B" unicode="&#xe2b;" horiz-adv-x="874" 
d="M729 684q0 29 -20.5 49.5t-49 20.5t-49 -20.5t-20.5 -49.5t20.5 -49.5t49 -20.5t49 20.5t20.5 49.5zM240 684q0 29 -20.5 49.5t-49.5 20.5t-49.5 -20.5t-20.5 -49.5t20.5 -49.5t49.5 -20.5t49.5 20.5t20.5 49.5zM760 0h-74v442q0 94 -49 95q-31 0 -74 -72l-264 -465h-68
v563q-27 -14 -71 -14t-84.5 40t-40.5 95t40 95t95 40t95 -40t40 -95v-444q0 -18 -10 -127q25 51 45 90l166 305q29 51 67 72q-49 39 -49 99t40 100t95.5 40t95.5 -40.5t40 -106.5t-68 -105q33 -35 33 -125v-442z" />
    <glyph glyph-name="uni0E2C" unicode="&#xe2c;" horiz-adv-x="929" 
d="M750 684q0 29 -20.5 49.5t-49.5 20.5t-49.5 -20.5t-20.5 -49.5t20.5 -49.5t49.5 -20.5t49.5 20.5t20.5 49.5zM240 684q0 29 -20.5 49.5t-49.5 20.5t-49.5 -20.5t-20.5 -49.5t20.5 -49.5t49.5 -20.5t49.5 20.5t20.5 49.5zM815 0h-90l-205 399l-205 -399h-84v563
q-27 -14 -71 -14t-84.5 40t-40.5 95t40 95t95 40t95 -40t40 -95v-483q0 -33 -6 -101q12 35 35 88l151 287h70l152 -287q6 -14 38 -88q-4 66 -4 101v362q-27 -14 -71 -14t-84.5 40t-40.5 95t40 95t84 40t72 -16q41 18 52 80h94q-18 -76 -90 -131q18 -37 18 -68v-684z" />
    <glyph glyph-name="uni0E2D" unicode="&#xe2d;" horiz-adv-x="792" 
d="M403.5 -16q-270.5 0 -270.5 190v252q0 55 40 95t95.5 40t95 -40t39.5 -95t-36.5 -95t-84.5 -40t-75 14v-115q0 -139 199 -139t198 139v381q0 87 -69 135t-159 48t-162 -41q-73 -41 -87 -107h-74q20 96 107.5 154.5t211.5 58.5q124 1 215 -61t91 -174v-410
q-4 -190 -274.5 -190zM338 426q0 29 -20.5 49.5t-49 20.5t-49 -20.5t-20.5 -49.5t20.5 -49.5t49 -20.5t49 20.5t20.5 49.5z" />
    <glyph glyph-name="uni0E2E" unicode="&#xe2e;" horiz-adv-x="761" 
d="M303 372.5q0 28.5 -20.5 49t-49 20.5t-49 -20.5t-20.5 -49t20.5 -49t49 -20.5t49 20.5t20.5 49zM348 758q-68 0 -134 -23t-64 -63q0 -57 156 -57t253 49q-23 39 -83 66.5t-128 27.5zM647 182q0 -198 -274 -198t-275 198v191q0 55 40 95t95.5 40t95.5 -40t40 -95.5
t-35.5 -95t-85.5 -39.5t-76 14v-62q0 -139 201 -139t200 142v415q-88 -59 -270 -59q-227 0 -227 123q0 78 102 119q78 31 176 30q156 0 248 -100q33 55 35 100h78q-14 -84 -82 -159q14 -29 14 -82v-398z" />
    <glyph glyph-name="uni0E2F" unicode="&#xe2f;" horiz-adv-x="800" 
d="M301 690.5q0 26.5 -17.5 44t-44 17.5t-43 -17.5t-16.5 -44t16.5 -43t43 -16.5t44 16.5t17.5 43zM682 0h-74v670q0 63 -63 67q-72 -201 -238 -200q-96 0 -146 42t-50 102t38.5 99t92 39t92.5 -39t39 -88t-29 -84q113 39 141 195h74q123 0 123 -127v-676z" />
    <glyph glyph-name="uni0E30" unicode="&#xe30;" horiz-adv-x="731" 
d="M256 211q0 29 -18.5 47t-47 18t-46 -18t-17.5 -47t17.5 -46.5t46 -17.5t47 17.5t18.5 46.5zM342 31q-116 0 -188 39q-90 47 -91 141q0 53 39 92t92.5 39t92.5 -39t39 -101t-60 -100q33 -8 51 -8q111 4 168.5 73t61.5 181h74q-4 -139 -83.5 -228t-195.5 -89zM256 645
q0 29 -18.5 47.5t-47 18.5t-46 -18.5t-17.5 -47.5t17.5 -46t46 -17t47 17t18.5 46zM342 465q-116 0 -188 39q-90 47 -91 141q0 53 39 92t92.5 39t92.5 -39t39 -101t-60 -99q33 -8 51 -9q111 4 168.5 73t61.5 181h74q-4 -139 -83.5 -228t-195.5 -89z" />
    <glyph glyph-name="uni0E31" unicode="&#xe31;" 
d="M-285 1132.5q0 28.5 -19.5 48t-46 19.5t-47 -19.5t-20.5 -48t20.5 -47t47 -18.5t46 18.5t19.5 47zM-210 950q-128 0 -199.5 49.5t-71.5 128.5q0 53 39 92.5t92 39.5t92 -38t39 -100t-62 -102q29 -6 76 -6q100 2 166 80q57 72 62 174h77q-2 -139 -92 -228.5t-218 -89.5z
" />
    <glyph glyph-name="uni0E32" unicode="&#xe32;" horiz-adv-x="647" 
d="M532 0h-73v612q0 61 -46 101.5t-122 40.5t-119 -48.5t-47 -103.5h-76q2 86 68.5 151.5t178.5 65.5t174 -57t62 -152v-610z" />
    <glyph glyph-name="uni0E33" unicode="&#xe33;" horiz-adv-x="647" 
d="M-86 1102q0 37 -26.5 63.5t-62.5 26.5t-62.5 -26.5t-26.5 -63.5t26.5 -62.5t62.5 -25.5t62.5 25.5t26.5 62.5zM-18 1101.5q0 -65.5 -45.5 -110.5t-111 -45t-111.5 45t-46 110.5t46 112t111.5 46.5t111 -46.5t45.5 -112zM532 0h-73v612q0 61 -46 101.5t-122 40.5
t-119 -48.5t-47 -103.5h-76q2 86 68.5 151.5t178.5 65.5t174 -57t62 -152v-610z" />
    <glyph glyph-name="uni0E34" unicode="&#xe34;" 
d="M-422 1176q-150 0 -201 -109q43 6 97 6q197 0 344 -63q-90 166 -240 166zM-545 1016q-74 0 -162 -12q3 106 85 168t190 63q277 0 330 -303q-236 84 -443 84z" />
    <glyph glyph-name="uni0E35" unicode="&#xe35;" 
d="M-422 1176q-150 0 -201 -109q43 6 97 6q197 0 344 -63q-90 166 -240 166zM-545 1016q-74 0 -162 -12q3 106 85 168t190 63q164 0 250 -109v199h67v-338q9 -26 13 -55q-236 84 -443 84z" />
    <glyph glyph-name="uni0E36" unicode="&#xe36;" 
d="M-94 1214.5q0 22.5 -15.5 38t-38 15.5t-38 -15.5t-15.5 -38t15.5 -38t38 -15.5t38 15.5t15.5 38zM-422 1176q-150 0 -201 -109q43 6 97 6q197 0 344 -63q-90 166 -240 166zM-545 1016q-74 0 -162 -12q3 106 85 168t192 63q110 0 188 -53q-6 16 -6 44t30 58.5t71 30.5
t70.5 -30t29.5 -70.5t-29.5 -70.5t-70.5 -30q-10 0 -27 4q52 -71 72 -186q-236 84 -443 84z" />
    <glyph glyph-name="uni0E37" unicode="&#xe37;" 
d="M-422 1176q-150 0 -201 -109q43 6 97 6q197 0 344 -63q-90 166 -240 166zM-545 1016q-74 0 -162 -12q3 106 85 168t190 63q47 0 86 -8v98h67v-123q57 -27 97 -76v199h67v-338q9 -26 13 -55q-236 84 -443 84z" />
    <glyph glyph-name="uni0E38" unicode="&#xe38;" 
d="M-170 -204.5q0 22.5 -15.5 37.5t-38 15t-37.5 -15t-15 -37.5t15 -38t37.5 -15.5t38 15.5t15.5 38zM-115 -475h-71v166q-16 -6 -49 -6t-65 31.5t-32 76.5t32 77t77 32t76.5 -32t31.5 -77v-268z" />
    <glyph glyph-name="uni0E39" unicode="&#xe39;" 
d="M-385 -204.5q0 22.5 -15.5 37.5t-38 15t-38 -15t-15.5 -37.5t15.5 -38t38 -15.5t38 15.5t15.5 38zM-115 -375q0 -127 -143 -127t-143 123v70q-16 -6 -49 -6t-65 31.5t-32 76.5t32 77t77 32t76.5 -32t31.5 -77v-184q0 -47 71 -47t71 47v285h73v-269z" />
    <glyph glyph-name="uni0E3A" unicode="&#xe3a;" 
d="M-98 -141.5q0 -22.5 -15.5 -39t-38 -16.5t-39 16.5t-16.5 39t16.5 38t39 15.5t38 -15.5t15.5 -38z" />
    <glyph glyph-name="uni0E3F" unicode="&#xe3f;" horiz-adv-x="841" 
d="M575 715q0 77 -70 113t-138 36t-136 -14v-303h144q94 0 147 46t53 122zM612 295q0 94 -74 139t-186 45h-121v-358q39 -10 129 -10t162 41q90 49 90 143zM686 299q0 -215 -264 -248v-172h-68v166h-32q-76 0 -168 18v840q115 27 186 27h14v141h68v-145q229 -31 229 -217
q0 -137 -131 -195q62 -23 114 -79t52 -136z" />
    <glyph glyph-name="uni0E40" unicode="&#xe40;" horiz-adv-x="415" 
d="M317 127q0 29 -20.5 49.5t-49 20.5t-49 -20.5t-20.5 -49.5t20.5 -49.5t49 -20.5t49 20.5t20.5 49.5zM385 127q0 -57 -40 -98t-100 -41q-61 0 -99 42t-37 97v692h73v-571q29 16 76 16t87 -40t40 -97z" />
    <glyph glyph-name="uni0E41" unicode="&#xe41;" horiz-adv-x="772" 
d="M672 127q0 29 -20.5 49.5t-49.5 20.5t-49.5 -20.5t-20.5 -49.5t20.5 -49.5t49.5 -20.5t49.5 20.5t20.5 49.5zM739 127q0 -57 -40 -98t-100 -41t-98 42t-38 97v692h74v-571q29 16 75 16t86.5 -40t40.5 -97zM317 127q0 29 -20.5 49.5t-49 20.5t-49 -20.5t-20.5 -49.5
t20.5 -49.5t49 -20.5t49 20.5t20.5 49.5zM385 127q0 -57 -40 -98t-100 -41q-61 0 -99 42t-37 97v692h73v-571q29 16 76 16t87 -40t40 -97z" />
    <glyph glyph-name="uni0E42" unicode="&#xe42;" horiz-adv-x="485" 
d="M455 123q0 -57 -41 -98t-103 -41q-63 0 -99 42t-36 97v852q0 57 -88 110.5t-168 55.5q10 193 189 192q33 0 106.5 -31.5t97.5 -31.5q37 0 45 51l62 -16q-29 -102 -96 -103q-33 0 -110 34t-112 34q-90 0 -96 -76q244 -72 244 -227v-723q30 16 76 16t87.5 -40t41.5 -97z
M387 123q0 29 -21.5 49.5t-49.5 20.5t-48 -20.5t-20 -49.5t19.5 -49.5t48 -20.5t50 20.5t21.5 49.5z" />
    <glyph glyph-name="uni0E43" unicode="&#xe43;" horiz-adv-x="495" 
d="M84 1128.5q0 22.5 -15.5 40t-42 17.5t-42 -17.5t-15.5 -40t15.5 -40t42 -17.5t42 17.5t15.5 40zM397 123q0 29 -21.5 49.5t-49.5 20.5t-48 -20.5t-20 -49.5t19.5 -49.5t48 -20.5t50 20.5t21.5 49.5zM465 123q0 -57 -41.5 -98t-101.5 -41t-98 42t-38 97v838q0 35 31 109
t31 112t-35 71t-99 33t-104 -47q55 8 92 -24.5t37 -82.5t-32.5 -83t-77.5 -33t-80 32.5t-35 107.5t59.5 132.5t146.5 57.5t145.5 -46.5t58.5 -117.5q0 -43 -32 -119t-32 -117v-702q29 16 76 16t88 -40t41 -97z" />
    <glyph glyph-name="uni0E44" unicode="&#xe44;" horiz-adv-x="499" 
d="M399 123q0 29 -20.5 49.5t-49 20.5t-49 -20.5t-20.5 -49.5t20.5 -49.5t49 -20.5t49 20.5t20.5 49.5zM469 123q0 -57 -41.5 -98t-101.5 -41t-98 42t-38 97v1108l-147 -213l-68 24q-10 137 -47 320h64q33 -178 39 -268l168 247q27 -2 46 -24.5t19 -46.5v-1026q29 16 76 16
t88 -40t41 -97z" />
    <glyph glyph-name="uni0E45" unicode="&#xe45;" horiz-adv-x="419" 
d="M305 -410h-74v1022q0 61 -46 101.5t-122 40.5t-118.5 -48.5t-46.5 -103.5h-76q2 86 68 151.5t178 65.5t174.5 -57t62.5 -152v-1020z" />
    <glyph glyph-name="uni0E46" unicode="&#xe46;" horiz-adv-x="817" 
d="M332 520.5q0 26.5 -17.5 44t-44 17.5t-43 -17.5t-16.5 -44t16.5 -43t43 -16.5t44 16.5t17.5 43zM684 -348h-76v962q0 104 -94 162l-96 -74l-113 76q-86 -37 -98 -151q31 20 73 20t79.5 -37t37.5 -90t-36.5 -89t-94.5 -36t-98.5 47t-42.5 142q-6 203 188 262l101 -68
l94 68q176 -68 176 -232v-962z" />
    <glyph glyph-name="uni0E47" unicode="&#xe47;" 
d="M-164 1046.5q0 18.5 -13 32t-31.5 13.5t-32 -13.5t-13.5 -32t13.5 -32t32 -13.5t31.5 13.5t13 32zM-111 1044q0 -42 -31.5 -71t-72.5 -29q-86 0 -197 88q-55 -18 -104 -90q-82 51 -82 160q0 160 174 160h135q100 0 107 147h69q0 -88 -45 -147.5t-133 -59.5h-141
q-98 0 -98 -94q0 -45 22 -80q51 57 105 66q35 -31 100 -74q-2 16 -2 42t27.5 53.5t68.5 27.5t69.5 -28.5t28.5 -70.5z" />
    <glyph glyph-name="uni0E48" unicode="&#xe48;" 
d="M-115 1393h-67v227h67v-227z" />
    <glyph glyph-name="uni0E49" unicode="&#xe49;" 
d="M-231 1607.5q0 20.5 -13.5 35t-34 14.5t-35 -14.5t-14.5 -35t14.5 -33.5t35 -13t34 13t13.5 33.5zM-375 1386v39q68 29 96 80q-41 0 -71.5 30t-30.5 73t31 73.5t73 30.5t70.5 -28.5t32.5 -75.5q0 -102 -92 -168q244 20 276 252h76q-29 -176 -152 -248q-98 -57 -272 -58
h-37z" />
    <glyph glyph-name="uni0E4A" unicode="&#xe4a;" 
d="M-336 1591q31 0 60.5 -30.5t29.5 -73.5t-29.5 -73t-77.5 -30t-77 35t-29 103t48.5 126t113.5 58l49 -61l45 61q61 -2 97 -42t36 -108t-45 -114q47 4 92 66t46 180h65q-6 -305 -295 -306v45q82 41 82 121t-68 101l-57 -64l-57 64q-20 -3 -46 -21t-34 -45q20 8 51 8z
M-301 1484.5q0 20.5 -13.5 35t-34 14.5t-34.5 -14.5t-14 -35t14 -33.5t34.5 -13t34 13t13.5 33.5z" />
    <glyph glyph-name="uni0E4B" unicode="&#xe4b;" 
d="M-8 1473h-109v-80h-63v80h-109v57h109v88h63v-88h109v-57z" />
    <glyph glyph-name="uni0E4C" unicode="&#xe4c;" 
d="M-203 1392.5q0 20.5 -15 37t-37 16.5t-37 -16.5t-15 -37t15.5 -37t36.5 -16.5t36.5 16.5t15.5 37zM-152 1394q0 -44 -30.5 -74t-74.5 -30t-76 30t-32 75q0 135 140 174l90 26q49 16 49 58h63q-6 -66 -65 -94q-33 -17 -91 -29t-73 -29q43 -4 71.5 -33.5t28.5 -73.5z" />
    <glyph glyph-name="uni0E4D" unicode="&#xe4d;" 
d="M-86 1102q0 37 -26.5 63.5t-62.5 26.5t-62.5 -26.5t-26.5 -63.5t26.5 -62.5t62.5 -25.5t62.5 25.5t26.5 62.5zM-18 1101.5q0 -65.5 -45.5 -110.5t-111 -45t-111.5 45t-46 110.5t46 112t111.5 46.5t111 -46.5t45.5 -112z" />
    <glyph glyph-name="uni0E4E" unicode="&#xe4e;" 
d="M-158 1319q-94 0 -94 -66t102 -77l-18 -48q-82 26 -130 -8.5t-48 -64.5q0 -55 92 -56q27 0 66 17l2 -51q-38 -17 -92 -17t-91 30t-37 80t41 85t93 35q-41 27 -41 77q0 119 157 119q56 0 93 -14l-19 -51q-35 10 -76 10z" />
    <glyph glyph-name="uni0E4F" unicode="&#xe4f;" horiz-adv-x="921" 
d="M807 332q0 -143 -101.5 -243.5t-245.5 -100.5t-244.5 100t-100.5 244t99.5 246t243.5 102t246.5 -102.5t102.5 -245.5zM735 334q0 115 -80 194.5t-194.5 79.5t-194.5 -79.5t-80 -195.5t79 -196t195 -80t195.5 81t79.5 196zM664 334q0 -84 -59.5 -144.5t-143.5 -60.5
t-143.5 60.5t-59.5 144.5t59.5 143.5t143.5 59.5t143.5 -59.5t59.5 -143.5zM592 333q0 54 -38 93t-93 39t-93 -39t-38 -93t38 -92t93 -38t93 38t38 92z" />
    <glyph glyph-name="uni0E50" unicode="&#xe50;" horiz-adv-x="919" 
d="M760 294.5q0 104.5 -83 175.5t-220.5 71t-220 -71t-82.5 -175.5t82.5 -174t220 -69.5t220.5 69.5t83 174zM842 295q0 -131 -104.5 -220t-278.5 -89t-277.5 89t-103.5 220t103.5 220t277.5 89t278.5 -89t104.5 -220z" />
    <glyph glyph-name="uni0E51" unicode="&#xe51;" horiz-adv-x="919" 
d="M530 272.5q0 34.5 -22.5 57t-57 22.5t-56 -22.5t-21.5 -57t21.5 -56t56 -21.5t57 21.5t22.5 56zM846 236q0 -168 -101 -275h-90q117 96 117 279q0 131 -86 215t-226 84t-226.5 -74.5t-86.5 -182.5t57.5 -170.5t147.5 -62.5q117 0 166 107q-100 -43 -153.5 8t-53.5 109
t43 97.5t106 39.5t101.5 -47t38.5 -131t-64 -166t-193 -82q-128 0 -199 86t-70 204q0 154 107.5 241t256.5 87q197 0 302.5 -99t105.5 -267z" />
    <glyph glyph-name="uni0E52" unicode="&#xe52;" horiz-adv-x="919" 
d="M444 323q0 28 -19 47t-47 19t-48.5 -19.5t-20.5 -47.5t20.5 -48t48.5 -20t47 20.5t19 48.5zM850 299q0 -324 -367 -324q-397 0 -397 310v524q0 59 -53 61v72q125 -10 125 -133v-535q0 -231 327 -231q293 0 293 246q0 125 -26 186t-66 61q-39 0 -66.5 -34.5t-31.5 -83.5
h-47q-16 121 -103 121q-98 0 -112 -99q14 8 58 8t82 -37.5t38 -89t-39 -89t-93 -37.5t-93 47t-39 137t50 156.5t143 66.5t132 -98q33 98 112 98t126 -76t47 -227z" />
    <glyph glyph-name="uni0E53" unicode="&#xe53;" horiz-adv-x="919" 
d="M315 131q0 33 -22.5 55.5t-55 22.5t-55 -22.5t-22.5 -55.5t22.5 -55.5t55 -22.5t55 22.5t22.5 55.5zM850 0h-72v385q0 70 -31.5 113t-81.5 43t-87 -51.5t-37 -112.5v-377h-76v379q0 61 -51.5 111.5t-119.5 50.5t-109 -70q-42 -70 -42 -178q0 -35 7 -70q31 43 91 43
t99 -41t39 -96t-38.5 -94t-110.5 -39t-116 77t-44 201q0 328 239 328q139 0 193 -129q47 129 160 129q86 0 137 -56.5t51 -154.5v-391z" />
    <glyph glyph-name="uni0E54" unicode="&#xe54;" horiz-adv-x="919" 
d="M59 289q0 148 105.5 232.5t291.5 84.5t255 31q131 61 157 211h70q-47 -215 -207 -279q-78 -31 -287 -30q-303 0 -303 -265q0 -106 53.5 -167.5t159.5 -61.5t211 31q-248 66 -243 229q2 57 41 93t97 36t96 -38t38 -89t-28.5 -90t-71.5 -47q52 -37 130 -54q189 -42 263 -79
l-37 -60q-111 49 -170 49q-58 0 -160 -20t-180 -22q-129 -4 -205 76.5t-76 228.5zM535 300q0 32 -21.5 54.5t-54.5 22.5t-54.5 -23.5t-21.5 -55.5t22.5 -54.5t53 -22.5t53.5 23.5t23 55.5z" />
    <glyph glyph-name="uni0E55" unicode="&#xe55;" horiz-adv-x="919" 
d="M59 289q0 148 105.5 232.5t286.5 84.5q-80 35 -80 121q0 55 39 94t93 39t93 -39t39 -94q0 -84 -78 -119q109 8 154 29q131 61 157 211h70q-47 -215 -207 -279q-78 -31 -287 -30q-303 0 -303 -265q0 -106 53.5 -167.5t159.5 -61.5t211 31q-248 66 -243 229q2 57 41 93
t97 36t96 -38t38 -89t-28.5 -90t-71.5 -47q52 -37 130 -54q189 -42 263 -79l-37 -60q-111 49 -170 49q-58 0 -160 -20t-180 -22q-129 -4 -205 76.5t-76 228.5zM535 300q0 32 -21.5 54.5t-54.5 22.5t-54.5 -23.5t-21.5 -55.5t22.5 -54.5t53 -22.5t53.5 23.5t23 55.5zM573 727
q0 29 -21.5 50.5t-50 21.5t-49 -21.5t-20.5 -49.5t21.5 -49.5t49.5 -21.5t49 20.5t21 49.5z" />
    <glyph glyph-name="uni0E56" unicode="&#xe56;" horiz-adv-x="919" 
d="M362 174q0 35 -22.5 57.5t-57 22.5t-56 -22.5t-21.5 -57.5t21.5 -56.5t56 -21.5t57 21.5t22.5 56.5zM145 174q0 59 40.5 98t98.5 39t97 -39.5t39 -107.5t-64 -107q61 -8 117 -8q156 2 234.5 63.5t78.5 198.5q0 102 -81.5 165t-219.5 63q-219 0 -329 -154
q-12 311 -119 463h88q78 -143 80 -332q109 86 279 86t274 -75t104 -212q2 -332 -407 -331q-150 0 -230 52t-80 138z" />
    <glyph glyph-name="uni0E57" unicode="&#xe57;" horiz-adv-x="919" 
d="M858 446q0 -291 -83 -370.5t-195 -79.5h-11q78 207 78 352q0 193 -106 193q-41 0 -71 -51.5t-30 -112.5v-96h-78v98q0 59 -36.5 110.5t-85.5 51.5t-84 -67.5t-35 -144.5t6 -108q31 45 91 45t100 -41t40 -97t-41 -95t-96 -39q-82 0 -127 72t-45 214t54.5 232t142.5 90
q113 0 155 -129q31 129 144 129q174 0 174 -254q0 -137 -51 -266q123 29 123 334q0 354 26 432h76q-37 -90 -35 -330v-72zM301 130q0 34 -24.5 55.5t-55.5 21.5t-53.5 -23.5t-22.5 -54.5t24.5 -54.5t54.5 -23.5t53.5 22.5t23.5 56.5z" />
    <glyph glyph-name="uni0E58" unicode="&#xe58;" horiz-adv-x="919" 
d="M793 243.5q0 30.5 -22.5 53t-53.5 22.5t-53.5 -22.5t-22.5 -53t22.5 -53t53.5 -22.5t53.5 22.5t22.5 53zM143 299q0 -147 50 -197q84 115 190 154q29 -55 113 -127t155 -72q72 0 111 56q-37 -6 -45 -7q-57 0 -97 40t-40 97.5t39.5 97.5t97 40t97.5 -40t40 -97
q0 -254 -203 -254q-150 0 -286 176q-27 -12 -87.5 -82t-68.5 -102q-143 72 -143 309q0 311 370 311l154 -8q88 0 135 45t47 174v35h72v-41q0 -285 -244 -285l-180 8q-137 0 -207 -63.5t-70 -167.5z" />
    <glyph glyph-name="uni0E59" unicode="&#xe59;" horiz-adv-x="919" 
d="M432 127q0 31 -22.5 53.5t-53 22.5t-53 -22.5t-22.5 -53.5t22.5 -53.5t53 -22.5t53 22.5t22.5 53.5zM223 140q0 42 39 82t94.5 40t95.5 -40t40 -95t-40 -94t-96 -39q-147 -2 -225 81t-78 219t78 223t193 87t188 -102q8 100 80 100q18 0 70.5 -31.5t74.5 -31.5
q66 -1 66 113t-17 196h62q16 -104 16 -186q0 -188 -110 -189q-23 0 -85.5 33t-68.5 33q-31 0 -41 -76q14 -82 86 -197q94 -139 209 -233l-39 -56q-91 73 -189 213t-137 240q-14 37 -61.5 73t-111.5 37t-126.5 -73t-62.5 -182q14 -152 104 -209q-8 22 -8 64z" />
    <glyph glyph-name="uni0E5A" unicode="&#xe5a;" horiz-adv-x="1069" 
d="M301 690.5q0 26.5 -17.5 44t-44 17.5t-43 -17.5t-16.5 -44t16.5 -43t43 -16.5t44 16.5t17.5 43zM954 0h-73v670q0 63 -64 67q-45 -135 -135 -180v-557h-74v670q0 63 -63 67q-72 -201 -238 -200q-96 0 -146 42t-50 102t38.5 99t92 39t92.5 -39t39 -88t-29 -84
q113 39 141 195h74q123 0 123 -127v-31q55 53 76 158h73q123 0 123 -127v-676z" />
    <glyph glyph-name="uni0E5B" unicode="&#xe5b;" horiz-adv-x="1427" 
d="M496 376.5q0 22.5 -17.5 40t-40 17.5t-40 -17.5t-17.5 -40t17.5 -40t40 -17.5t40 17.5t17.5 40zM1360 367h10q-40 -23 -96 -23t-107 51q-12 -98 -57 -112q-18 1 -44 77t-40 91q0 -188 -55 -189q-12 0 -36 78t-42 100q-12 -201 -78 -200q-12 0 -38 90t-40 110
q0 -391 -305 -391q-127 0 -200.5 88t-73.5 240t63.5 235.5t166.5 83.5t156.5 -56t53.5 -150t-39 -160t-121 -66q-45 0 -77.5 34t-32.5 80t31.5 78.5t81.5 32.5t85 -40v4q4 20 4 49q0 131 -124 131q-84 0 -129.5 -72.5t-45.5 -190.5t56.5 -185.5t144.5 -67.5q121 0 185.5 88
t64.5 250q0 63 -6 96q115 -23 153 -217q33 107 2 213q86 -25 150 -178q10 51 10 72t-10 79q88 -25 131 -172q33 45 14 127q10 -2 84 -55t150 -53zM461 661.5q0 8.5 -10 8.5h-11v-29h4v12h7q10 0 10 8.5zM471 670h-4v-29h4v10l4 4l6 -14h6l-10 16l10 13h-6l-10 -15v15z
M352 641v29h-4v-13h-14v13h-4v-29h4v14h14v-14h4zM430 662h4q0 8 -9 8t-9 -8q6 -6 16 -13q0 -6 -6 -6t-6 8h-4q0 -10 10 -10t10 8q-6 6 -16 13q0 6 6 6q4 -4 4 -6zM326 651h-4q0 -8 -8.5 -8t-8.5 12.5t7 12.5t10 -9h4q-4 10 -13 11q-12 0 -12 -14.5t12.5 -14.5t12.5 10z
M377 641v4h-15v25h-4v-29h19zM457 661.5q0 -6.5 -6 -6.5h-7v13h7q6 0 6 -6.5zM401 661.5q0 8.5 -10 8.5h-10v-29h4v12h6q10 0 10 8.5zM397 661.5q0 -6.5 -6 -6.5h-6v13h6q6 0 6 -6.5z" />
    <glyph glyph-name="zerowidthnonjoiner" unicode="&#x200c;" 
d="M31 -315h-60v1099h60v-1099z" />
    <glyph glyph-name="zerowidthjoiner" unicode="&#x200d;" 
d="M31 -315h-60v917l-41 -41l-34 35l75 76l-75 80l36 32l68 -75l70 75l36 -32l-75 -80l75 -76l-36 -35l-39 41v-917z" />
    <glyph glyph-name="lefttorightmark" unicode="&#x200e;" 
d="M31 -315h-60v1028h258l-34 37l32 32l107 -106l-107 -107l-32 35l34 37h-198v-956z" />
    <glyph glyph-name="righttoleftmark" unicode="&#x200f;" 
d="M31 713v-1028h-60v956h-198l34 -37l-32 -35l-107 107l107 106q11 -16 32 -32l-34 -37h258z" />
    <glyph glyph-name="endash" unicode="&#x2013;" horiz-adv-x="737" 
d="M692 338h-649v68h649v-68z" />
    <glyph glyph-name="emdash" unicode="&#x2014;" horiz-adv-x="1474" 
d="M1423 338h-1378v68h1378v-68z" />
    <glyph glyph-name="quoteleft" unicode="&#x2018;" horiz-adv-x="505" 
d="M305 762q0 -31 -22.5 -54.5t-54.5 -23.5t-55 23.5t-23 56.5q0 123 79 217q45 53 84 74l31 -35q-115 -74 -123 -184l10 2q29 0 51.5 -22.5t22.5 -53.5z" />
    <glyph glyph-name="quoteright" unicode="&#x2019;" horiz-adv-x="505" 
d="M344 950q0 -123 -78 -217q-47 -53 -86 -74l-30 35q115 74 122 185l-10 -2q-29 0 -51.5 22.5t-22.5 52.5t22.5 54t55.5 24t55.5 -22.5t22.5 -57.5z" />
    <glyph glyph-name="quotesinglbase" unicode="&#x201a;" horiz-adv-x="505" 
d="M344 63q0 -123 -78 -217q-47 -53 -86 -73l-30 34q115 74 122 185q-8 -2 -28 -2t-38 23t-18 53t22.5 53.5t55.5 23.5t55.5 -22.5t22.5 -57.5z" />
    <glyph glyph-name="quotedblleft" unicode="&#x201c;" horiz-adv-x="757" 
d="M315 762q0 -31 -22.5 -54.5t-54.5 -23.5t-55 23.5t-23 56.5q0 123 80 217q45 53 84 74l30 -35q-115 -74 -123 -184l11 2q29 0 51 -22.5t22 -53.5zM553 762q0 -31 -22.5 -54.5t-54.5 -23.5t-55.5 23.5t-23.5 56.5q0 123 80 217q45 53 84 74l31 -35q-115 -74 -123 -184
l10 2q29 0 51.5 -22.5t22.5 -53.5z" />
    <glyph glyph-name="quotedblright" unicode="&#x201d;" horiz-adv-x="757" 
d="M592 950q0 -123 -78 -217q-47 -53 -86 -74l-31 35q115 74 123 185l-10 -2q-29 0 -51.5 22.5t-22.5 52.5t22.5 54t55.5 24t55.5 -22.5t22.5 -57.5zM354 950q0 -123 -78 -217q-47 -53 -86 -74l-30 35q115 74 123 185l-11 -2q-29 0 -51 22.5t-22 52.5t22.5 54t54.5 24
t55 -22.5t23 -57.5z" />
    <glyph glyph-name="quotedblbase" unicode="&#x201e;" horiz-adv-x="757" 
d="M592 63q0 -123 -78 -217q-47 -53 -86 -73l-31 34q115 74 123 185q-8 -2 -28 -2t-38 23t-18 53t22.5 53.5t55.5 23.5t55.5 -22.5t22.5 -57.5zM354 63q0 -123 -78 -217q-47 -53 -86 -73l-30 34q115 74 123 185q-8 -2 -29 -2t-38 23t-17 53t22.5 53.5t54.5 23.5t55 -22.5
t23 -57.5z" />
    <glyph glyph-name="dagger" unicode="&#x2020;" horiz-adv-x="765" 
d="M420 -70h-74v670l-266 -8v67l266 -8v320h74v-320l266 8v-67l-266 8v-670z" />
    <glyph glyph-name="daggerdbl" unicode="&#x2021;" horiz-adv-x="765" 
d="M420 -70h-74v308l-266 -9v68l266 -8v311l-266 -8v67l266 -8v320h74v-320l266 8v-67l-266 8v-311l266 8v-68l-266 9v-308z" />
    <glyph glyph-name="bullet" unicode="&#x2022;" horiz-adv-x="442" 
d="M393 409q0 -71 -50 -121t-121.5 -50t-122 50t-50.5 121.5t49 122t122 50.5t123 -51t50 -122z" />
    <glyph glyph-name="ellipsis" unicode="&#x2026;" horiz-adv-x="980" 
d="M889 57.5q0 -28.5 -21.5 -49t-50.5 -20.5t-49 20.5t-20 49t20 50t49 21.5t50.5 -21.5t21.5 -50zM563 57.5q0 -28.5 -21.5 -49t-50 -20.5t-49 20.5t-20.5 49t20.5 50t49 21.5t50 -21.5t21.5 -50zM236 57.5q0 -28.5 -21.5 -49t-50.5 -20.5t-49.5 20.5t-20.5 49t20.5 50
t49.5 21.5t50.5 -21.5t21.5 -50z" />
    <glyph glyph-name="perthousand" unicode="&#x2030;" horiz-adv-x="1697" 
d="M1044 284.5q0 225.5 -145 225.5t-145 -225.5t145 -225.5t145 225.5zM1118 284.5q0 -290.5 -219 -290.5t-219 290.5t219 290.5t219 -290.5zM1552 284.5q0 225.5 -145 225.5t-145 -225.5t145 -225.5t145 225.5zM434 684q0 225 -145.5 225t-145.5 -225t145.5 -225t145.5 225
zM508 684q0 -291 -219 -291t-219 291t219 291t219 -291zM1626 284.5q0 -290.5 -219 -290.5t-219 290.5t219 290.5t219 -290.5zM848 975h70l-594 -993h-70z" />
    <glyph glyph-name="minute" unicode="&#x2032;" horiz-adv-x="256" 
d="M86 760h-55l78 215h112z" />
    <glyph glyph-name="second" unicode="&#x2033;" horiz-adv-x="438" 
d="M268 760h-55l78 215h112zM86 760h-55l78 215h112z" />
    <glyph glyph-name="guilsinglleft" unicode="&#x2039;" horiz-adv-x="374" 
d="M250 98l-227 264l225 271h86l-225 -271l227 -264h-86z" />
    <glyph glyph-name="guilsinglright" unicode="&#x203a;" horiz-adv-x="374" 
d="M125 98h-86l227 264l-225 271h86l225 -271z" />
    <glyph glyph-name="fraction" unicode="&#x2044;" horiz-adv-x="331" 
d="M0 0h-74l406 975h74z" />
    <glyph glyph-name="franc" unicode="&#x20a3;" horiz-adv-x="737" 
d="M477 193h-274v-193h-80v193h-150v63h150v719h551v-68h-471v-370h440v-68h-440v-213h274v-63z" />
    <glyph glyph-name="dong" unicode="&#x20ab;" horiz-adv-x="821" 
d="M768 -221h-721v63h721v-63zM635 279v116q0 113 -76.5 182.5t-184.5 69.5t-173.5 -82t-65.5 -211q0 -305 258 -305q102 0 172 66t70 164zM813 872h-98v-702q0 -117 6 -170h-74q-4 53 -4 123q-94 -141 -252 -141t-246 103t-88 264t84 261.5t230 100.5q176 0 264 -148v309
h-266v68h266v94h80v-94h98v-68z" />
    <glyph glyph-name="Euro" unicode="&#x20ac;" horiz-adv-x="831" 
d="M512 -14q-156 0 -272.5 87t-163.5 234h-76v66h57q-10 61 -10 112t6 95h-53v65h68q43 156 162.5 250t278.5 94t267 -51l-24 -66q-111 48 -236 48t-224 -74t-140 -201h514v-65h-531q-6 -42 -6 -98t12 -109h525v-66h-506q45 -117 142 -184.5t218 -67.5t232 47l24 -65
q-108 -51 -264 -51z" />
    <glyph glyph-name="uni2113" unicode="&#x2113;" horiz-adv-x="428" 
d="M303 748q0 45 -9 75.5t-38 30.5q-41 0 -41 -109v-217q88 81 88 220zM145 137v266l-63 -43l-37 58l100 69v258q0 172 107 173q57 0 87 -42t30 -114q0 -218 -154 -318v-309q0 -66 41 -65q37 0 111 51v-76q-91 -51 -134 -51q-88 0 -88 143z" />
    <glyph glyph-name="trademark" unicode="&#x2122;" horiz-adv-x="1034" 
d="M999 496h-63l-25 405l-159 -405h-45l-160 405l-25 -405h-63l35 512h67l168 -433l168 433h68zM446 950h-178v-454h-61v454h-178v58h417v-58z" />
    <glyph glyph-name="Ohm" unicode="&#x2126;" horiz-adv-x="927" 
d="M854 0h-311v236q207 98 207 309q0 133 -81 217t-206 84t-206 -84t-81 -217q0 -211 207 -309v-236h-311v68h237v120q-82 33 -147.5 130.5t-65.5 220.5q0 180 100.5 278t266.5 98t266 -98t100 -278q0 -123 -65.5 -220.5t-147.5 -130.5v-120h238v-68z" />
    <glyph glyph-name="estimated" unicode="&#x212e;" horiz-adv-x="641" 
d="M326 -14q-263 0 -263 424q0 186 76 281t193 95t179 -101t67 -288h-433q8 -344 181 -344q61 0 105 41t58 117h76q-49 -225 -239 -225zM504 457q-20 262 -178 262q-157 0 -179 -262h357z" />
    <glyph glyph-name="onethird" unicode="&#x2153;" horiz-adv-x="1097" 
d="M1051 207q0 -94 -61.5 -150.5t-157.5 -58.5t-150 41l31 65q47 -38 115 -38t111.5 38.5t43.5 100.5q0 90 -86 90q-57 0 -90 -29l-29 51q102 72 115 82q47 39 47 78t-68 39q-92 0 -118 -90l-60 31q55 127 184.5 127t129.5 -107q0 -37 -29 -76t-64 -53q136 -20 136 -141z
M338 381h-250v49h90v412l-78 -68l-39 49l146 129q43 -4 43 -57v-465h88v-49zM299 -18h-68l582 974h68z" />
    <glyph glyph-name="twothirds" unicode="&#x2154;" horiz-adv-x="1097" 
d="M334 813q0 88 -88 88q-98 0 -109 -113l-69 13q8 78 55 121t119 43t118 -40t46 -118q0 -79 -98 -179t-173 -184h277l-9 -63h-370q4 84 141 215q55 51 107.5 106.5t52.5 110.5zM1051 207q0 -94 -61.5 -150.5t-157.5 -58.5t-150 41l31 65q47 -38 115 -38t111.5 38.5
t43.5 100.5q0 90 -86 90q-57 0 -90 -29l-29 51q102 72 115 82q47 39 47 78t-68 39q-92 0 -118 -90l-60 31q55 127 184.5 127t129.5 -107q0 -37 -29 -76t-64 -53q136 -20 136 -141zM299 -18h-68l582 974h68z" />
    <glyph glyph-name="uni2155" unicode="&#x2155;" horiz-adv-x="1097" 
d="M981 190q0 60 -39 88.5t-86 28.5t-78 -41l-43 -2l19 305h280l-8 -63h-205l-10 -133q14 4 17 4h40q82 0 132.5 -52t50.5 -136t-63.5 -143.5t-161.5 -59.5t-154 57l28 51q136 -82 208.5 -23t72.5 119zM338 381h-250v49h90v412l-78 -68l-39 49l146 129q43 -4 43 -57v-465h88
v-49zM299 -18h-68l582 974h68z" />
    <glyph glyph-name="uni2156" unicode="&#x2156;" horiz-adv-x="1097" 
d="M334 813q0 88 -88 88q-98 0 -109 -113l-69 13q8 78 55 121t119 43t118 -40t46 -118q0 -79 -98 -179t-173 -184h277l-9 -63h-370q4 84 141 215q55 51 107.5 106.5t52.5 110.5zM981 190q0 60 -39 88.5t-86 28.5t-78 -41l-43 -2l19 305h280l-8 -63h-205l-10 -133q14 4 17 4
h40q82 0 132.5 -52t50.5 -136t-63.5 -143.5t-161.5 -59.5t-154 57l28 51q136 -82 208.5 -23t72.5 119zM299 -18h-68l582 974h68z" />
    <glyph glyph-name="uni2157" unicode="&#x2157;" horiz-adv-x="1097" 
d="M440 586q0 -94 -61.5 -150.5t-156.5 -58.5t-150 41l30 65q47 -39 116 -39t112 39t43 101q0 90 -86 90q-57 0 -90 -29l-29 51q102 72 115 82q47 39 47 78t-68 39q-92 0 -119 -90l-59 31q55 127 184 127t129 -107q0 -37 -28.5 -76t-63.5 -53q135 -20 135 -141zM981 190
q0 60 -39 88.5t-86 28.5t-78 -41l-43 -2l19 305h280l-8 -63h-205l-10 -133q14 4 17 4h40q82 0 132.5 -52t50.5 -136t-63.5 -143.5t-161.5 -59.5t-154 57l28 51q136 -82 208.5 -23t72.5 119zM299 -18h-68l582 974h68z" />
    <glyph glyph-name="uni2158" unicode="&#x2158;" horiz-adv-x="1097" 
d="M367 528v-127h-72v127h-229q2 137 77 281q90 174 224 178v-391h90l-4 -68h-86zM295 596v303q-57 -49 -103 -143t-51 -160h154zM981 190q0 60 -39 88.5t-86 28.5t-78 -41l-43 -2l19 305h280l-8 -63h-205l-10 -133q14 4 17 4h40q82 0 132.5 -52t50.5 -136t-63.5 -143.5
t-161.5 -59.5t-154 57l28 51q136 -82 208.5 -23t72.5 119zM299 -18h-68l582 974h68z" />
    <glyph glyph-name="uni2159" unicode="&#x2159;" horiz-adv-x="1097" 
d="M963 177q0 54 -30 91t-81 37t-83 -37t-32 -91t32 -89t84 -35t81 35t29 89zM1032 182q0 -86 -46 -139t-134 -53t-137 62t-49 151q0 141 92 252.5t233 134.5l2 -55q-86 -25 -150 -83t-91 -124q42 37 112 37t119 -48.5t49 -134.5zM338 381h-250v49h90v412l-78 -68l-39 49
l146 129q43 -4 43 -57v-465h88v-49zM276 -18h-67l582 974h67z" />
    <glyph glyph-name="uni215A" unicode="&#x215a;" horiz-adv-x="1097" 
d="M365 576q0 60 -39 88t-86 28t-78 -41l-43 -2l18 305h281l-8 -63h-205l-10 -133q14 4 17 4h40q82 0 132 -52t50 -136t-63.5 -143.5t-161.5 -59.5t-154 57l29 51q68 -41 127 -41t106.5 39t47.5 99zM963 177q0 54 -30 91t-81 37t-83 -37t-32 -91t32 -89t84 -35t81 35t29 89z
M1032 182q0 -86 -46 -139t-134 -53t-137 62t-49 151q0 141 92 252.5t233 134.5l2 -55q-86 -25 -150 -83t-91 -124q42 37 112 37t119 -48.5t49 -134.5zM276 -18h-67l582 974h67z" />
    <glyph glyph-name="oneeighth" unicode="&#x215b;" horiz-adv-x="1097" 
d="M1022 420q0 -72 -66 -111q84 -47 84 -139t-48 -137t-133 -45t-134 45t-49 133t86 143q-68 37 -68 110t45 114.5t119 41.5t119 -41.5t45 -113.5zM954 430q0 29 -25.5 54.5t-70.5 25.5t-70.5 -25.5t-25.5 -55.5q0 -63 96 -89q45 10 70.5 35.5t25.5 54.5zM973 153
q0 44 -29 79.5t-86 39.5q-57 -4 -86 -38.5t-29 -79.5t32 -73t82 -28t83 28t33 72zM338 381h-250v49h90v412l-78 -68l-39 49l146 129q43 -4 43 -57v-465h88v-49zM276 -18h-67l582 974h67z" />
    <glyph glyph-name="threeeighths" unicode="&#x215c;" horiz-adv-x="1097" 
d="M1022 420q0 -72 -66 -111q84 -47 84 -139t-48 -137t-133 -45t-134 45t-49 133t86 143q-68 37 -68 110t45 114.5t119 41.5t119 -41.5t45 -113.5zM954 430q0 29 -25.5 54.5t-70.5 25.5t-70.5 -25.5t-25.5 -55.5q0 -63 96 -89q45 10 70.5 35.5t25.5 54.5zM973 153
q0 44 -29 79.5t-86 39.5q-57 -4 -86 -38.5t-29 -79.5t32 -73t82 -28t83 28t33 72zM440 586q0 -94 -61.5 -150.5t-156.5 -58.5t-150 41l30 65q47 -39 116 -39t112 39t43 101q0 90 -86 90q-57 0 -90 -29l-29 51q102 72 115 82q47 39 47 78t-68 39q-92 0 -119 -90l-59 31
q55 127 184 127t129 -107q0 -37 -28.5 -76t-63.5 -53q135 -20 135 -141zM276 -18h-67l582 974h67z" />
    <glyph glyph-name="fiveeighths" unicode="&#x215d;" horiz-adv-x="1097" 
d="M1022 420q0 -72 -66 -111q84 -47 84 -139t-48 -137t-133 -45t-134 45t-49 133t86 143q-68 37 -68 110t45 114.5t119 41.5t119 -41.5t45 -113.5zM954 430q0 29 -25.5 54.5t-70.5 25.5t-70.5 -25.5t-25.5 -55.5q0 -63 96 -89q45 10 70.5 35.5t25.5 54.5zM973 153
q0 44 -29 79.5t-86 39.5q-57 -4 -86 -38.5t-29 -79.5t32 -73t82 -28t83 28t33 72zM365 576q0 60 -39 88t-86 28t-78 -41l-43 -2l18 305h281l-8 -63h-205l-10 -133q14 4 17 4h40q82 0 132 -52t50 -136t-63.5 -143.5t-161.5 -59.5t-154 57l29 51q68 -41 127 -41t106.5 39
t47.5 99zM276 -18h-67l582 974h67z" />
    <glyph glyph-name="seveneighths" unicode="&#x215e;" horiz-adv-x="1097" 
d="M1022 420q0 -72 -66 -111q84 -47 84 -139t-48 -137t-133 -45t-134 45t-49 133t86 143q-68 37 -68 110t45 114.5t119 41.5t119 -41.5t45 -113.5zM954 430q0 29 -25.5 54.5t-70.5 25.5t-70.5 -25.5t-25.5 -55.5q0 -63 96 -89q45 10 70.5 35.5t25.5 54.5zM973 153
q0 44 -29 79.5t-86 39.5q-57 -4 -86 -38.5t-29 -79.5t32 -73t82 -28t83 28t33 72zM291 379h-76q2 147 45 268t123 242h-293l31 67h358l-10 -65q-78 -106 -128 -222t-50 -290zM276 -18h-67l582 974h67z" />
    <glyph glyph-name="partialdiff" unicode="&#x2202;" horiz-adv-x="649" 
d="M465 508q-152 0 -236 -91t-84 -217t111 -126t184 170q58 131 64 262q-14 2 -39 2zM590 578q0 -215 -68 -373q-94 -215 -291 -215q-73 0 -123 56t-51 161q0 178 122 275t286 98q27 0 41 -2q-4 272 -113 272q-90 0 -137 -141l-68 39q74 180 203 180q199 0 199 -350z" />
    <glyph glyph-name="Delta" unicode="&#x2206;" horiz-adv-x="970" 
d="M971 0h-971l485 967zM840 72l-355 710l-354 -710h709z" />
    <glyph glyph-name="product" unicode="&#x220f;" horiz-adv-x="913" 
d="M803 -113h-80v1020h-533v-1020h-79v1088h692v-1088z" />
    <glyph glyph-name="summation" unicode="&#x2211;" horiz-adv-x="841" 
d="M813 -113h-762v93l408 466l-408 441v88h731v-68h-647l402 -436v-53l-402 -463h678v-68z" />
    <glyph glyph-name="minus" unicode="&#x2212;" horiz-adv-x="841" 
d="M729 338h-616v68h616v-68z" />
    <glyph glyph-name="radical" unicode="&#x221a;" horiz-adv-x="716" 
d="M47 471v57h160l135 -448l303 887h72l-346 -987h-64l-155 491h-105z" />
    <glyph glyph-name="infinity" unicode="&#x221e;" horiz-adv-x="1265" 
d="M1094 440q0 70 -45 118t-122 48t-144.5 -54t-104.5 -120q142 -156 236 -156t137 47t43 117zM1157 440q0 -98 -58.5 -159.5t-174.5 -61.5q-145 0 -299 187q-123 -186 -281 -187q-106 0 -170.5 63.5t-64.5 161.5t58 160t183 62t289 -185q127 184 283 185q106 0 170.5 -64
t64.5 -162zM172 444q0 -70 45 -117.5t122 -47.5t144.5 54t104.5 120q-142 155 -236 155t-137 -47t-43 -117z" />
    <glyph glyph-name="integral" unicode="&#x222b;" horiz-adv-x="495" 
d="M4 -211q-49 0 -84 10l10 66q25 -10 72 -8q86 6 107 110l131 838q27 182 190 182q43 0 72 -6l-15 -63q-9 2 -51 2t-78 -26t-47 -93l-131 -824q-31 -188 -176 -188z" />
    <glyph glyph-name="approxequal" unicode="&#x2248;" horiz-adv-x="841" 
d="M750 354v-12q0 -94 -48 -141t-120 -47t-163 66.5t-163 66.5q-96 0 -100 -133h-64v16q0 86 48 135t121 49t166 -64.5t167 -64.5q88 0 92 129h64zM750 627v-13q0 -94 -48 -141t-120 -47t-163 66.5t-163 66.5q-96 0 -100 -133h-64v16q0 86 48 135.5t121 49.5t166 -64.5
t167 -64.5q88 0 92 129h64z" />
    <glyph glyph-name="notequal" unicode="&#x2260;" horiz-adv-x="841" 
d="M729 276v-67h-358l-111 -227h-78l111 227h-180v67h213l96 199h-309v68h342l88 182h84l-90 -182h192v-68h-225l-98 -199h323z" />
    <glyph glyph-name="lessequal" unicode="&#x2264;" horiz-adv-x="841" 
d="M674 115l-514 243v97l514 243v-77l-443 -215l443 -216v-75zM723 33h-606v61h606v-61z" />
    <glyph glyph-name="greaterequal" unicode="&#x2265;" horiz-adv-x="841" 
d="M674 358l-514 -243v75l442 216l-442 215v77l514 -243v-97zM723 33h-606v61h606v-61z" />
    <glyph glyph-name="lozenge" unicode="&#x25ca;" horiz-adv-x="790" 
d="M655 406l-260 372l-260 -372l260 -373zM723 406l-285 -406h-86l-284 406l284 409h86z" />
    <glyph glyph-name="dottedcircle" unicode="&#x25cc;" horiz-adv-x="819" 
d="M548.5 145q26.5 0 26.5 -26.5t-10 -37.5t-26.5 -11t-27.5 11t-11 27.5t11 26.5t37.5 10zM657.5 217q26.5 0 26.5 -26.5t-10 -38t-26.5 -11.5t-28 11.5t-11.5 28t11.5 26.5t38 10zM756 292.5q0 -16.5 -10.5 -27.5t-27 -11t-27.5 11t-11 27.5t11 27t27.5 10.5t27 -10.5
t10.5 -27zM242 118.5q0 26.5 26.5 26.5t37.5 -10t11 -26.5t-11 -27.5t-27.5 -11t-26.5 11t-10 37.5zM209 180.5q0 -16.5 -11.5 -28t-27.5 -11.5t-26.5 11.5t-10.5 28t10.5 26.5t26.5 10t27.5 -10t11.5 -26.5zM137 292.5q0 -16.5 -11 -27.5t-27.5 -11t-27 11t-10.5 27.5
t10.5 27t27 10.5t27.5 -10.5t11 -27zM573 729q0 -16 -10 -26.5t-26.5 -10.5t-27.5 10.5t-11 26.5t11 27.5t27.5 11.5t26.5 -11.5t10 -27.5zM682 647.5q0 -26.5 -26.5 -26.5t-38 10t-11.5 26.5t11.5 27.5t28 11t26.5 -11t10 -37.5zM754 544.5q0 -16.5 -10.5 -26.5t-27 -10
t-27.5 10t-11 26.5t11 28t27.5 11.5t27 -11.5t10.5 -28zM317 729q0 -16 -11 -26.5t-27.5 -10.5t-26.5 10.5t-10 26.5t10 27.5t26.5 11.5t27.5 -11.5t11 -27.5zM209 657.5q0 -16.5 -11.5 -26.5t-27.5 -10t-26.5 10t-10.5 26.5t10.5 27.5t26.5 11t27.5 -11t11.5 -27.5z
M137 544.5q0 -16.5 -11 -26.5t-27.5 -10t-27 10t-10.5 26.5t10.5 28t27 11.5t27.5 -11.5t11 -28zM733.5 383q-26.5 0 -26.5 26.5t10 38t26.5 11.5t27.5 -11.5t11 -28t-11 -26.5t-37.5 -10zM61.5 383q-26.5 0 -26.5 26.5t10 38t26.5 11.5t28 -11.5t11.5 -28t-11.5 -26.5
t-38 -10zM446 84q0 -16 -11 -27.5t-27.5 -11.5t-27.5 11.5t-11 27.5t11 27.5t27.5 11.5t27.5 -11.5t11 -27.5zM446 753.5q0 -16.5 -11 -27.5t-27.5 -11t-27.5 11t-11 27.5t11 28t27.5 11.5t27.5 -11.5t11 -28z" />
    <glyph glyph-name="uni0E10.alt1" unicode="&#xf700;" horiz-adv-x="688" 
d="M258 378.5q0 22.5 -16.5 39t-39 16.5t-37.5 -16.5t-15 -39t15 -37.5t37.5 -15t39 15t16.5 37.5zM580 162q0 -180 -163 -180t-163 180v104q-22 -8 -62 -8t-75 34t-35 86t35 88t87 36t88 -32t36 -89v-225q0 -106 88 -107q90 0 90 107v297q0 49 -199 98q-119 31 -254 49
q6 94 71.5 156.5t174.5 62.5q43 0 115.5 -22.5t116.5 -22.5t55 45l63 -14q-33 -106 -119 -107q-45 0 -123.5 25t-122.5 25t-88 -28t-49 -65q205 -41 291 -73q141 -51 142 -123v-297z" />
    <glyph glyph-name="uni0E34.alt1" unicode="&#xf701;" 
d="M-590 1176q-150 0 -201 -109q43 6 97 6q197 0 344 -63q-90 166 -240 166zM-713 1016q-74 0 -161 -12q2 106 84 168t190 63q277 0 330 -303q-236 84 -443 84z" />
    <glyph glyph-name="uni0E35.alt1" unicode="&#xf702;" 
d="M-590 1176q-150 0 -201 -109q43 6 97 6q197 0 344 -63q-90 166 -240 166zM-713 1016q-74 0 -161 -12q2 106 84 168t190 63q164 0 250 -109v199h67v-338q9 -26 13 -55q-236 84 -443 84z" />
    <glyph glyph-name="uni0E36.alt1" unicode="&#xf703;" 
d="M-262 1214.5q0 22.5 -15.5 38t-38 15.5t-38 -15.5t-15.5 -38t15.5 -38t38 -15.5t38 15.5t15.5 38zM-590 1176q-150 0 -201 -109q43 6 97 6q197 0 344 -63q-90 166 -240 166zM-713 1016q-74 0 -161 -12q2 106 84 168t192 63q110 0 188 -53q-6 16 -6 44t30 58.5t71 30.5
t70.5 -30t29.5 -70.5t-29.5 -70.5t-70.5 -30q-10 0 -27 4q52 -71 72 -186q-236 84 -443 84z" />
    <glyph glyph-name="uni0E37.alt1" unicode="&#xf704;" 
d="M-713 1016q-74 0 -161 -12q2 106 84 168t190 63q47 0 86 -8v98h68v-123q57 -27 96 -76v199h67v-338q9 -26 13 -55q-236 84 -443 84zM-590 1176q-150 0 -201 -109q43 6 97 6q197 0 344 -63q-90 166 -240 166z" />
    <glyph glyph-name="uni0E48.alt1" unicode="&#xf705;" 
d="M-332 963h-76v294h76v-294z" />
    <glyph glyph-name="uni0E49.alt1" unicode="&#xf706;" 
d="M-442 1200.5q0 22.5 -15.5 37.5t-38 15t-38 -15t-15.5 -37.5t15.5 -38t38 -15.5t38 15.5t15.5 38zM-561 952h-41v43q80 33 110 95q-117 14 -116 116q0 45 32.5 75t80.5 30t78 -33t30 -82q0 -115 -94 -184q274 20 307 280h84q-31 -195 -168 -274q-113 -66 -303 -66z" />
    <glyph glyph-name="uni0E4A.alt1" unicode="&#xf707;" 
d="M-524 1079.5q0 22.5 -14.5 36.5t-35 14t-36 -14t-15.5 -36.5t15.5 -36t36 -13.5t35 13.5t14.5 36zM-426 973v47q84 41 84 126t-70 103l-61 -65l-59 67q-18 -2 -47 -23.5t-35 -41.5q29 4 36 4q111 -6 111 -111q-10 -104 -108 -104q-55 0 -85 39.5t-30 105.5t51 128.5
t119 62.5l49 -66l49 66q63 -2 100 -44t37 -112t-45 -121q47 4 94 71t48 187h69q-10 -319 -307 -319z" />
    <glyph glyph-name="uni0E4B.alt1" unicode="&#xf708;" 
d="M-276 1077h-117v-114h-70v114h-117v56h117v108h70v-108h117v-56z" />
    <glyph glyph-name="uni0E4C.alt1" unicode="&#xf709;" 
d="M-354 1073.5q0 22.5 -16.5 38.5t-39 16t-39 -16t-16.5 -38.5t16.5 -39t39 -16.5t39 16.5t16.5 39zM-301 1074q0 -46 -32 -77.5t-79 -31.5t-79.5 31.5t-32.5 78.5q0 143 145 182l96 29q51 18 52 62h65q-6 -70 -67 -101q-35 -19 -97 -31t-76 -28q45 -4 75 -36t30 -78z" />
    <glyph glyph-name="uni0E48.alt2" unicode="&#xf70a;" 
d="M-115 983h-75v295h75v-295z" />
    <glyph glyph-name="uni0E49.alt2" unicode="&#xf70b;" 
d="M-313 1224.5q0 22.5 -15.5 38t-38 15.5t-38 -15.5t-15.5 -38t15.5 -38t38 -15.5t38 15.5t15.5 38zM-473 977v43q80 33 111 94q-117 14 -117 117q0 45 32.5 74.5t80.5 29.5t78 -32.5t30 -81.5q0 -115 -94 -185q274 20 307 281h84q-31 -195 -168 -275q-113 -66 -303 -65
h-41z" />
    <glyph glyph-name="uni0E4A.alt2" unicode="&#xf70c;" 
d="M-422 1060.5q0 22.5 -14.5 37t-35 14.5t-35.5 -14.5t-15 -37t15 -35.5t35.5 -13t35 13t14.5 35.5zM-240 1139q0 74 -69 92l-62 -66l-59 68q-18 -2 -47 -23.5t-35 -42.5q29 4 37 4q111 -6 110.5 -110.5t-108.5 -104.5q-55 0 -85 39t-30 106t51.5 129t118.5 62l49 -65
l50 65q63 -2 100 -44t37 -112t-45 -120q47 4 94 70t47 188h70q-10 -319 -308 -320v47q84 41 84 138z" />
    <glyph glyph-name="uni0E4B.alt2" unicode="&#xf70d;" 
d="M2 1090h-117v-115h-73v115h-117v61h117v109h73v-109h117v-61z" />
    <glyph glyph-name="uni0E4C.alt2" unicode="&#xf70e;" 
d="M-213 1073.5q0 22.5 -16.5 38.5t-39 16t-39 -16t-16.5 -38.5t16.5 -39t39 -16.5t39 16.5t16.5 39zM-160 1074q0 -46 -31.5 -77.5t-78.5 -31.5t-80 31.5t-33 78.5q0 143 145 182l97 29q51 18 51 62h65q-6 -70 -67 -101q-35 -18 -98 -33q-59 -10 -74 -26q45 -4 74.5 -36
t29.5 -78z" />
    <glyph glyph-name="uni0E0D.alt1" unicode="&#xf70f;" horiz-adv-x="1048" 
d="M948 168q0 -184 -200 -184t-199 186v373q0 211 -199 211q-66 0 -122 -39t-78 -103q115 -8 163 -90q-49 -10 -86 -53t-37 -96v-133q27 12 73 12t85 -39t39 -94.5t-31.5 -96t-97.5 -40.5t-103.5 37.5t-37.5 101.5v250q0 111 106 161q-78 31 -162 23q18 115 99.5 189.5
t201.5 74.5t190.5 -69.5t70.5 -198.5v-387q0 -115 126 -115t125 115v639h74v-635zM322 116.5q0 28.5 -20.5 49t-49.5 20.5t-48.5 -20.5t-19.5 -49t19.5 -48t48.5 -19.5t49.5 19.5t20.5 48z" />
    <glyph glyph-name="uni0E31.alt1" unicode="&#xf710;" 
d="M-504 1130.5q0 28.5 -19.5 48t-46 19.5t-47 -19.5t-20.5 -48t20.5 -47t47 -18.5t46 18.5t19.5 47zM-429 948q-128 0 -199.5 49.5t-71.5 128.5q0 53 38.5 92t92 39t92.5 -37.5t39 -99.5t-62 -102q29 -6 76 -6q100 2 166 80q57 72 61 174h78q-2 -139 -92 -228.5t-218 -89.5
z" />
    <glyph glyph-name="uni0E4D.alt1" unicode="&#xf711;" 
d="M-375 1102q0 37 -26.5 63.5t-62.5 26.5t-62.5 -26.5t-26.5 -63.5t26.5 -62.5t62.5 -25.5t62.5 25.5t26.5 62.5zM-307 1101.5q0 -65.5 -45 -110.5t-110.5 -45t-112 45t-46.5 110.5t46.5 112t112 46.5t110.5 -46.5t45 -112z" />
    <glyph glyph-name="uni0E47.alt1" unicode="&#xf712;" 
d="M-326 1046.5q0 18.5 -13 32t-31.5 13.5t-32 -13.5t-13.5 -32t13.5 -32t32 -13.5t31.5 13.5t13 32zM-272 1044q0 -42 -32 -71t-73 -29q-86 0 -196 88q-55 -18 -105 -90q-82 51 -82 160q0 160 174 160h135q100 0 107 147h70q0 -88 -45.5 -147.5t-133.5 -59.5h-141
q-98 0 -98 -94q0 -45 22 -80q51 57 105 66q35 -31 100 -74q-2 16 -2 42t27.5 53.5t68.5 27.5t70 -28.5t29 -70.5z" />
    <glyph glyph-name="uni0E48.alt3" unicode="&#xf713;" 
d="M-283 1393h-67v227h67v-227z" />
    <glyph glyph-name="uni0E49.alt3" unicode="&#xf714;" 
d="M-446 1607.5q0 20.5 -13.5 35t-34 14.5t-35 -14.5t-14.5 -35t14.5 -33.5t35 -13t34 13t13.5 33.5zM-590 1386v39q68 29 96 80q-41 0 -71.5 30t-30.5 73t30.5 73.5t72.5 30.5t71 -28.5t33 -75.5q0 -102 -92 -168q244 20 276 252h76q-29 -176 -152 -248q-98 -57 -272 -58
h-37z" />
    <glyph glyph-name="uni0E4A.alt3" unicode="&#xf715;" 
d="M-594 1591q31 0 60.5 -30.5t29.5 -73.5t-29.5 -73t-77.5 -30t-77 35t-29 103t48 126t114 58l49 -61l45 61q61 -2 97 -42t36 -108t-45 -114q47 4 92 66t45 180h66q-6 -305 -295 -306v45q82 41 82 121t-68 101l-57 -64l-57 64q-20 -3 -46 -21t-34 -45q20 8 51 8z
M-559 1484.5q0 20.5 -13.5 35t-34 14.5t-34.5 -14.5t-14 -35t14 -33.5t34.5 -13t34 13t13.5 33.5z" />
    <glyph glyph-name="uni0E4B.alt3" unicode="&#xf716;" 
d="M-176 1473h-109v-80h-63v80h-109v57h109v88h63v-88h109v-57z" />
    <glyph glyph-name="uni0E4C.alt3" unicode="&#xf717;" 
d="M-307 1407q0 23 -16.5 39t-39 16t-39 -16t-16.5 -39t16.5 -39t39 -16t39 16t16.5 39zM-254 1408q0 -46 -31.5 -78t-79 -32t-80 32t-32.5 79q0 143 145 182l96 29q51 18 52 61h65q-6 -70 -67 -100q-34 -19 -96 -31t-76 -28q45 -4 74.5 -36t29.5 -78z" />
    <glyph glyph-name="uni0E38.alt1" unicode="&#xf718;" 
d="M-170 -608.5q0 22.5 -15.5 38t-38 15.5t-37.5 -15.5t-15 -38t15 -38t37.5 -15.5t38 15.5t15.5 38zM-115 -862h-71v149q-16 -6 -49 -6t-65 32t-32 77t32 76.5t77 31.5t76.5 -31.5t31.5 -76.5v-252z" />
    <glyph glyph-name="uni0E39.alt1" unicode="&#xf719;" 
d="M-385 -610.5q0 22.5 -15.5 38t-38 15.5t-38 -15.5t-15.5 -38t15.5 -38t38 -15.5t38 15.5t15.5 38zM-115 -735q0 -127 -143 -127t-143 123v24q-16 -6 -49 -6t-65 32t-32 77t32 76.5t77 31.5t76.5 -31.5t31.5 -76.5v-140q0 -47 71 -47t71 47v240h73v-223z" />
    <glyph glyph-name="uni0E3A.alt1" unicode="&#xf71a;" 
d="M-98 -557.5q0 -22.5 -15.5 -38.5t-38 -16t-39 16t-16.5 38.5t16.5 38t39 15.5t38 -15.5t15.5 -38z" />
    <glyph glyph-name="uni0E0E.alt1" unicode="&#xf71b;" horiz-adv-x="870" 
d="M252 117q0 29 -20 49t-50 20q-29 0 -48 -20t-19 -49t19 -48t48 -19q30 0 50 18q20 20 20 49zM326 -254q-92 0 -93 -65q0 -63 68 -64q72 0 72 92q0 15 -4 31q-18 6 -43 6zM756 -440h-82q-16 49 -93 98t-139 66v-15q0 -65 -39 -111t-102 -46t-98 35q-35 36 -35 94
q0 57 45 95t109 38q10 0 53 -7q8 76 76 115l55 -33q-61 -39 -64 -98q164 -57 240 -137v878q0 100 -62 160t-146 62q-84 0 -150 -40q-64 -40 -88 -102q109 -10 165 -90q-111 -37 -110 -149q0 -81 13 -141t13 -114q1 -54 -39 -94t-96 -40t-94 39q-39 39 -39 94t39 95t94 40
q23 0 49 -10q-12 94 -12 143q0 94 82 147q-55 25 -95 25t-52 -2q10 115 99 189t214 75q125 0 207 -75t82 -203v-981z" />
    <glyph glyph-name="uni0E0F.alt1" unicode="&#xf71c;" horiz-adv-x="870" 
d="M252 117q0 29 -20 49t-50 20q-29 0 -48 -20t-19 -49t19 -48t48 -19q30 0 50 18q20 20 20 49zM756 -440h-82l-111 125l-90 -123l-113 123q-2 -63 -41 -99t-96 -37q-57 0 -91 37t-34 93q0 57 39 93t87 36t77 -15q4 72 84 119l55 -33q-70 -43 -73 -115l100 -106l96 129
l119 -133v878q0 100 -62 160t-146 62q-84 0 -150 -40q-64 -40 -88 -102q109 -10 165 -90q-111 -37 -110 -149q0 -81 13 -141t13 -114q1 -54 -39 -94t-96 -40t-94 39q-39 39 -39 94t39 95t94 40q23 0 49 -10q-12 94 -12 143q0 94 82 147q-55 25 -95 25t-52 -2q10 115 99 189
t214 75q125 0 207 -75t82 -203v-981zM240 -256q-80 0 -80 -70q0 -61 65 -61q76 0 76 113q-18 18 -61 18z" />
    <glyph glyph-name="uni0E2C.alt1" unicode="&#xf71d;" horiz-adv-x="929" 
d="M750 684q0 29 -20 49q-20 21 -50 21q-29 0 -49 -20q-21 -20 -21 -50q0 -29 20 -49q20 -21 50 -21t50 20t20 50zM240 684q0 29 -20 49q-20 21 -50 21q-29 0 -49 -20q-21 -20 -21 -50q0 -29 20 -49q20 -21 50 -21t50 20t20 50zM815 0h-90l-205 399l-205 -399h-84v563
q-27 -14 -71 -14t-85 40q-40 40 -40 95t40 95t95 40t95 -40t40 -95v-483q0 -33 -6 -101q12 35 35 88l151 287h70l152 -287q6 -14 38 -88q-4 66 -4 101v362q-27 -14 -71 -14t-85 40q-40 40 -40 95t40 95t84 40t72 -16q41 18 52 80h94q-18 -76 -90 -131q18 -37 18 -68v-684z
" />
    <glyph glyph-name="uni0E33.alt1" horiz-adv-x="647" 
d="M532 0h-73v612q0 62 -46 102t-122 40t-119 -48t-47 -104h-76q2 86 69 152q66 66 178 66t174 -58q62 -57 62 -152v-610zM-375 1102q-1 38 -27 64t-62 26t-62 -27t-27 -63q0 -36 27 -63q26 -25 62 -25t63 25q26 26 26 63zM-307 1102q0 -66 -45 -111t-111 -45q-65 0 -111 45
t-47 111q1 66 47 112t112 46t110 -46q45 -46 45 -112z" />
    <glyph glyph-name="glyph97" 
 />
    <glyph glyph-name="CR.001" horiz-adv-x="442" 
 />
    <glyph glyph-name="uni0E4E.alt1" 
d="M-344 1319q-94 0 -94 -66t102 -77l-18 -48q-82 26 -130 -8.5t-48 -64.5q0 -55 92 -56q27 0 65 17l2 -51q-39 -17 -92 -17t-90 30t-37 80t41 85t92 35q-41 27 -41 77q0 119 158 119q55 0 92 -14l-18 -51q-35 10 -76 10z" />
    </font>
</defs>
</svg>
