<svg version="1.1" viewBox="0 0 445.823 445.823" xmlns="http://www.w3.org/2000/svg" xmlns:xlink="http://www.w3.org/1999/xlink" id="Capa_1" overflow="hidden"><style>
.MsftOfcThm_Background1_lumMod_50_Fill {
 fill:#7F7F7F; 
}
</style>
<g><path d=" M 428.34 422.512 L 17.483 422.512 C 7.867 422.512 0 414.645 0 405.029 L 0 40.794 C 0 31.178 7.867 23.311 17.483 23.311 C 27.099 23.311 34.966 31.178 34.966 40.794 L 34.966 387.546 L 428.34 387.546 C 437.956 387.546 445.823 395.413 445.823 405.029 C 445.823 414.645 437.956 422.512 428.34 422.512 Z M 206.594 139.866 C 199.601 134.33 189.402 135.204 183.283 141.614 L 73.43 257.296 C 66.728 264.289 67.019 275.362 74.013 282.064 C 77.51 285.269 81.589 286.726 85.96 286.726 C 90.622 286.726 95.284 284.978 98.781 281.19 L 197.853 176.873 L 260.793 225.243 C 267.786 230.779 277.985 229.905 284.104 223.203 L 407.944 91.787 L 407.944 169.005 C 407.944 178.621 415.811 186.488 425.427 186.488 C 435.043 186.488 442.91 178.621 442.91 169.005 L 442.91 49.536 C 442.91 39.92 435.043 32.053 425.427 32.053 L 308.871 32.053 C 299.255 32.053 291.388 39.92 291.388 49.536 C 291.388 59.152 299.255 67.019 308.871 67.019 L 383.175 67.019 L 269.534 188.237 L 206.594 139.866 Z" stroke="none" stroke-width="1" stroke-linecap="butt" stroke-dasharray="" stroke-dashoffset="1" fill="#7F7F7F" fill-opacity="1"/></g><g></g><g></g><g></g><g></g><g></g><g></g><g></g><g></g><g></g><g></g><g></g><g></g><g></g><g></g><g></g></svg>