<svg version="1.1" viewBox="0 0 395.83 395.83" xmlns="http://www.w3.org/2000/svg" xmlns:xlink="http://www.w3.org/1999/xlink" id="Layer_1" overflow="hidden"><style>
.MsftOfcThm_Background1_lumMod_50_Fill {
 fill:#7F7F7F; 
}
</style>
<g><g><g><path d=" M 245.372 142.865 L 256.572 142.865 C 260.972 142.865 264.572 139.265 264.572 134.865 C 264.572 130.465 260.972 126.865 256.572 126.865 L 245.372 126.865 C 240.972 126.865 237.372 130.465 237.372 134.865 C 237.372 139.265 240.972 142.865 245.372 142.865 Z" stroke="none" stroke-width="1" stroke-linecap="butt" stroke-dasharray="" stroke-dashoffset="1" fill="#7F7F7F" fill-opacity="1"/><path d=" M 394.172 338.465 L 384.172 314.065 C 380.972 306.865 373.772 302.065 365.772 302.065 L 356.972 302.065 L 356.972 142.865 L 374.172 142.865 C 381.772 142.865 388.172 137.665 389.772 130.465 C 391.372 123.265 387.772 115.665 380.972 112.465 L 214.572 33.665 C 204.172 28.465 191.772 28.465 180.572 33.665 L 13.372 112.465 C 6.572 115.665 2.972 122.865 4.572 130.465 C 6.172 138.065 12.572 143.265 20.172 143.265 L 36.972 143.265 L 36.972 302.465 L 29.772 302.465 C 21.772 302.465 14.572 307.265 11.372 314.465 L 1.372 338.465 C -1.028 344.865 -0.228 351.665 3.372 357.265 C 6.972 362.865 13.372 366.065 19.772 366.065 L 375.772 366.065 C 382.172 366.065 388.572 362.865 392.172 357.265 C 396.172 352.065 396.972 344.865 394.172 338.465 Z M 20.572 126.865 L 187.372 48.065 C 194.172 44.865 201.372 44.865 207.772 48.065 L 374.572 126.865 L 348.972 126.865 C 344.572 126.865 340.972 130.465 340.972 134.865 C 340.972 135.665 340.972 136.065 341.372 136.465 C 341.372 136.865 340.972 137.665 340.972 138.065 L 340.972 302.065 L 308.972 302.065 L 308.972 190.865 C 308.972 173.265 294.572 158.865 276.972 158.865 C 259.372 158.865 244.972 173.265 244.972 190.865 L 244.972 302.465 L 228.972 302.465 L 228.972 190.865 C 228.972 173.265 214.572 158.865 196.972 158.865 C 179.372 158.865 164.972 173.265 164.972 190.865 L 164.972 302.465 L 148.972 302.465 L 148.972 190.865 C 148.972 173.265 134.572 158.865 116.972 158.865 C 99.372 158.865 84.972 173.265 84.972 190.865 L 84.972 302.465 L 52.972 302.465 L 52.972 142.865 L 209.372 142.865 C 213.772 142.865 217.372 139.265 217.372 134.865 C 217.372 130.465 213.772 126.865 209.372 126.865 L 20.572 126.865 Z M 292.972 190.865 L 292.972 302.465 L 260.972 302.465 L 260.972 190.865 C 260.972 182.065 268.172 174.865 276.972 174.865 C 285.772 174.865 292.972 182.065 292.972 190.865 Z M 212.972 190.865 L 212.972 302.465 L 180.972 302.465 L 180.972 190.865 C 180.972 182.065 188.172 174.865 196.972 174.865 C 205.772 174.865 212.972 182.065 212.972 190.865 Z M 132.972 190.865 L 132.972 302.465 L 100.972 302.465 L 100.972 190.865 C 100.972 182.065 108.172 174.865 116.972 174.865 C 125.772 174.865 132.972 182.065 132.972 190.865 Z M 378.972 348.465 C 378.572 348.865 377.372 350.465 375.772 350.465 L 19.772 350.465 C 17.772 350.465 16.972 349.265 16.572 348.465 C 16.172 348.065 15.372 346.465 16.172 344.465 L 26.172 320.865 C 26.972 319.265 28.572 318.465 30.172 318.465 L 366.172 318.465 C 367.772 318.465 369.372 319.265 370.172 320.865 L 380.172 344.865 C 380.172 346.465 379.372 348.065 378.972 348.465 Z" stroke="none" stroke-width="1" stroke-linecap="butt" stroke-dasharray="" stroke-dashoffset="1" fill="#7F7F7F" fill-opacity="1"/></g></g></g><g></g><g></g><g></g><g></g><g></g><g></g><g></g><g></g><g></g><g></g><g></g><g></g><g></g><g></g><g></g></svg>