<?xml version="1.0" encoding="utf-8"?>
<!-- Generator: Adobe Illustrator 21.0.2, SVG Export Plug-In . SVG Version: 6.00 Build 0)  -->
<svg version="1.1" id="Capa_1" xmlns="http://www.w3.org/2000/svg" xmlns:xlink="http://www.w3.org/1999/xlink" x="0px" y="0px"
	 viewBox="0 0 480 480" style="enable-background:new 0 0 480 480;" xml:space="preserve">
<style type="text/css">
	.st0{fill:#FFFFFF;}
</style>
<g>
	<g>
		<path class="st0" d="M424,0H104c-4.4,0-8,3.6-8,8v40H56c-4.4,0-8,3.6-8,8v416c0,4.4,3.6,8,8,8h320c4.4,0,8-3.6,8-8v-40h40
			c4.4,0,8-3.6,8-8V8C432,3.6,428.4,0,424,0z M368,464H64V64h240v56c0,4.4,3.6,8,8,8h56V464z M320,112V75.3l36.7,36.7H320z M416,416
			h-32V120c0-2.2-0.9-4.2-2.4-5.7l-64-64c-1.4-1.5-3.4-2.4-5.7-2.4H112V16h304V416z"/>
	</g>
</g>
<g>
	<g>
		<path class="st0" d="M333.6,186.3c-16.4-16.4-42.9-16.4-59.3,0l-136,136c-1,1-1.8,2.3-2.1,3.7l-15.5,61.8l-6.4,6.4l11.3,11.3
			l6.4-6.4l61.8-15.5c1.4-0.4,2.7-1.1,3.7-2.1l136-136c7.9-7.9,12.3-18.5,12.3-29.7S341.6,194.3,333.6,186.3z M244,239.3l12.7,12.7
			L168,340.7L155.3,328L244,239.3z M139,381l9.3-37.4l28,28L139,381z M192,364.7L179.3,352l88.7-88.7l12.7,12.7L192,364.7z
			 M292,264.7L255.3,228l8.7-8.7l36.7,36.7L292,264.7z M322.3,234.3L312,244.7L275.3,208l10.3-10.3c10.1-10.1,26.6-10.1,36.7,0
			c4.9,4.9,7.6,11.4,7.6,18.3S327.2,229.4,322.3,234.3z"/>
	</g>
</g>
<g>
	<g>
		<rect x="120" y="416" class="st0" width="192" height="16"/>
	</g>
</g>
<g>
	<g>
		
			<rect x="94.3" y="160" transform="matrix(0.5547 -0.8321 0.8321 0.5547 -72.0818 201.2987)" class="st0" width="115.4" height="16"/>
	</g>
</g>
<g>
	<g>
		<path class="st0" d="M192,168c-13.2,0-24,10.8-24,24s10.8,24,24,24s24-10.8,24-24S205.2,168,192,168z M192,200c-4.4,0-8-3.6-8-8
			s3.6-8,8-8s8,3.6,8,8S196.4,200,192,200z"/>
	</g>
</g>
<g>
	<g>
		<path class="st0" d="M112,120c-13.2,0-24,10.8-24,24s10.8,24,24,24s24-10.8,24-24S125.2,120,112,120z M112,152c-4.4,0-8-3.6-8-8
			s3.6-8,8-8s8,3.6,8,8S116.4,152,112,152z"/>
	</g>
</g>
</svg>
