<?xml version="1.0" encoding="utf-8"?>
<!-- Generator: Adobe Illustrator 21.0.2, SVG Export Plug-In . SVG Version: 6.00 Build 0)  -->
<svg version="1.1" id="Layer_1" xmlns="http://www.w3.org/2000/svg" xmlns:xlink="http://www.w3.org/1999/xlink" x="0px" y="0px"
	 viewBox="0 0 512 512" style="enable-background:new 0 0 512 512;" xml:space="preserve">
<style type="text/css">
	.st0{fill:#FFFFFF;}
</style>
<g>
	<g>
		<g>
			<path class="st0" d="M281.6,34.1h-51.2c-23.5,0-42.7,19.1-42.7,42.7c0,4.7,3.8,8.5,8.5,8.5c4.7,0,8.5-3.8,8.5-8.5
				c0-14.1,11.5-25.6,25.6-25.6h51.2c14.1,0,25.6,11.5,25.6,25.6c0,4.7,3.8,8.5,8.5,8.5s8.5-3.8,8.5-8.5
				C324.3,53.3,305.1,34.1,281.6,34.1z"/>
			<path class="st0" d="M469.3,102.4H42.7C19.1,102.4,0,121.5,0,145.1v51.2c0,11.6,6.9,20.9,17.1,24.3v248.8
				c0,23.5,19.1,42.7,42.7,42.7h392.5c23.5,0,42.7-19.1,42.7-42.7V247.5c0-4.7-3.8-8.5-8.5-8.5s-8.5,3.8-8.5,8.5v221.9
				c0,14.1-11.5,25.6-25.6,25.6H59.7c-14.1,0-25.6-11.5-25.6-25.6v-256c0-4.7-3.8-8.5-8.5-8.5c-5.3,0-8.5-3.3-8.5-8.5v-51.2
				c0-14.1,11.5-25.6,25.6-25.6h426.7c14.1,0,25.6,11.5,25.6,25.6v51.2c0,5.2-3.4,8.5-8.5,8.5h-42.7v-34.1c0-9.4-7.7-17.1-17.1-17.1
				h-17.1c-9.4,0-17.1,7.7-17.1,17.1v34.1H119.5v-34.1c0-9.4-7.7-17.1-17.1-17.1H85.3c-9.4,0-17.1,7.7-17.1,17.1v34.1h-8.2
				c-4.7,0-8.5,3.8-8.5,8.5c0,4.7,3.8,8.5,8.5,8.5h16.7c4.7,0,8.5-3.8,8.5-8.5v-42.7h17.1v42.7c0,4.7,3.8,8.5,8.5,8.5h290.1
				c4.7,0,8.5-3.8,8.5-8.5v-42.7h17.1v42.7c0,4.7,3.8,8.5,8.5,8.5h51.2c14.6,0,25.6-11,25.6-25.6v-51.2
				C512,121.5,492.9,102.4,469.3,102.4z"/>
			<path class="st0" d="M162.1,85.3c4.7,0,8.5-3.8,8.5-8.5c0-30.7,29-59.7,59.7-59.7h51.2c31.3,0,59.7,28.5,59.7,59.7
				c0,4.7,3.8,8.5,8.5,8.5c4.7,0,8.5-3.8,8.5-8.5c0-40.9-35.9-76.8-76.8-76.8h-51.2c-40.2,0-76.8,36.6-76.8,76.8
				C153.6,81.5,157.4,85.3,162.1,85.3z"/>
			<path class="st0" d="M230.4,443.7h51.2c4.7,0,8.5-3.8,8.5-8.5v-42.7h42.7c4.7,0,8.5-3.8,8.5-8.5v-51.2c0-4.7-3.8-8.5-8.5-8.5
				h-42.7v-42.7c0-4.7-3.8-8.5-8.5-8.5h-51.2c-4.7,0-8.5,3.8-8.5,8.5v42.7h-42.7c-4.7,0-8.5,3.8-8.5,8.5V384c0,4.7,3.8,8.5,8.5,8.5
				h42.7v42.7C221.9,439.9,225.7,443.7,230.4,443.7z M187.7,375.5v-34.1h42.7c4.7,0,8.5-3.8,8.5-8.5v-42.7h34.1v42.7
				c0,4.7,3.8,8.5,8.5,8.5h42.7v34.1h-42.7c-4.7,0-8.5,3.8-8.5,8.5v42.7h-34.1V384c0-4.7-3.8-8.5-8.5-8.5H187.7z"/>
			<path class="st0" d="M401.1,238.9c-4.7,0-8.5,3.8-8.5,8.5v8.5c0,9.4,7.7,17.1,17.1,17.1h17.1c9.4,0,17.1-7.7,17.1-17.1v-8.5
				c0-4.7-3.8-8.5-8.5-8.5s-8.5,3.8-8.5,8.5v8.5h-17.1v-8.5C409.6,242.8,405.8,238.9,401.1,238.9z"/>
			<path class="st0" d="M76.8,238.9c-4.7,0-8.5,3.8-8.5,8.5v8.5c0,9.4,7.7,17.1,17.1,17.1h17.1c9.4,0,17.1-7.7,17.1-17.1v-8.5
				c0-4.7-3.8-8.5-8.5-8.5s-8.5,3.8-8.5,8.5v8.5H85.3v-8.5C85.3,242.8,81.5,238.9,76.8,238.9z"/>
		</g>
	</g>
</g>
</svg>
