<svg xmlns="http://www.w3.org/2000/svg" viewBox="17086 9145.922 81.283 123.856">
  <defs>
    <style>
      .cls-1 {
        fill: #83c8e6;
      }

      .cls-2 {
        fill: #5ca1bf;
      }
    </style>
  </defs>
  <g id="Question_Mark" data-name="Question Mark" transform="translate(16293 8865)">
    <g id="Group_2148" data-name="Group 2148" transform="translate(826.232 338.049)">
      <path id="Path_633" data-name="Path 633" class="cls-1" d="M49.69,71.824,33.065,73.718l-.21-1.684a18.367,18.367,0,0,1,.21-6.944,16.743,16.743,0,0,1,2.315-5.261c1.052-1.684,3.577-4.419,7.576-8.628,2.1-2.1,3.157-4,2.946-5.682a5,5,0,0,0-1.894-3.577c-1.052-.842-2.525-1.052-4.419-.842a6.058,6.058,0,0,0-4.84,2.736c-1.052,1.473-1.684,4-1.684,7.365l-17.256-.21q-.316-9.47,5.051-15.783c3.577-4.209,9.259-6.944,17.467-7.786,6.313-.631,11.574,0,15.783,2.315,5.682,2.946,8.839,7.365,9.68,13.468a14.782,14.782,0,0,1-1.263,7.365c-1.052,2.525-3.577,5.682-7.365,9.47-2.736,2.736-4.419,4.84-4.84,6.313A10.577,10.577,0,0,0,49.69,71.824ZM33.065,78.137l17.887-2.1,1.894,15.783-17.887,2.1Z" transform="translate(-15.792 -27.19)"/>
    </g>
    <g id="Group_2149" data-name="Group 2149" transform="translate(793 280.922)">
      <path id="Path_634" data-name="Path 634" class="cls-2" d="M29.462,59.085,9.891,51.3l.842-1.894a21.153,21.153,0,0,1,4.419-7.576,20.466,20.466,0,0,1,5.682-4.419,134.7,134.7,0,0,1,13.679-5.051c3.577-1.263,5.892-2.736,6.524-4.63a5.349,5.349,0,0,0,0-5.051c-.631-1.473-2.1-2.736-4.419-3.577a8.019,8.019,0,0,0-6.945,0c-2.315,1.052-4.419,3.367-6.313,7.155l-19.15-10.1Q9.575,5.423,19.361,1.635c6.313-2.525,14.31-2.1,23.99,1.684,7.365,2.946,12.837,6.944,16.2,11.785,4.63,6.734,5.471,13.468,2.736,20.623a16.283,16.283,0,0,1-5.682,7.365c-2.736,2.1-7.365,4-13.889,6.1-4.63,1.473-7.576,2.736-9.259,4A16.072,16.072,0,0,0,29.462,59.085ZM7.365,56.35,28.2,64.557,20.834,83.075,0,74.658Z" transform="translate(0 -0.044)"/>
    </g>
  </g>
</svg>
