<svg xmlns="http://www.w3.org/2000/svg" viewBox="17691 9189 56 56">
  <path id="Path_5850" data-name="Path 5850" d="M54.133,30.8H49.467V26.133a2.8,2.8,0,0,0-1.91-2.642c-.384-7.975-6.6-14.587-14.89-16.429V6.533a2.8,2.8,0,0,0-2.8-2.8h-.933V.933a.933.933,0,1,0-1.867,0v2.8h-.933a2.8,2.8,0,0,0-2.8,2.8v.529C15.045,8.9,8.827,15.516,8.443,23.492a2.8,2.8,0,0,0-1.91,2.642V30.8H1.867A1.869,1.869,0,0,0,0,32.667v4.667a2.8,2.8,0,0,0,1.867,2.628V50.4A1.869,1.869,0,0,0,0,52.267v2.8A.933.933,0,0,0,.933,56H55.067A.933.933,0,0,0,56,55.067v-2.8A1.869,1.869,0,0,0,54.133,50.4V39.961A2.8,2.8,0,0,0,56,37.333V32.667A1.869,1.869,0,0,0,54.133,30.8ZM45.68,23.333H40.1c-.2-5.685-2.235-10.672-5.264-13.7C40.924,11.914,45.276,17.156,45.68,23.333Zm-27.917,0c.3-7.834,4.277-14.156,9.3-14.86v14.86ZM28.933,8.473c5.025.7,9.006,7.026,9.3,14.86h-9.3ZM25.2,6.533a.935.935,0,0,1,.933-.933h3.733a.935.935,0,0,1,.933.933v.2a21.591,21.591,0,0,0-2.8-.2,21.59,21.59,0,0,0-2.8.2Zm-4.037,3.1c-3.029,3.032-5.06,8.018-5.264,13.7H10.32C10.724,17.156,15.076,11.914,21.163,9.63ZM9.333,25.2H46.667a.935.935,0,0,1,.933.933v.933H8.4v-.933a.935.935,0,0,1,.933-.933ZM8.4,28.933H47.6V30.8H8.4ZM1.867,32.667H54.133v1.867H1.867Zm46.667,7.295V50.4h-5.6V39.961A2.8,2.8,0,0,0,44.8,37.333V36.4h1.867v.933a2.8,2.8,0,0,0,1.867,2.628ZM30.8,50.4V39.961a2.8,2.8,0,0,0,1.867-2.628V36.4h2.8v.933a2.8,2.8,0,0,0,1.867,2.628V50.4Zm-12.133,0V39.961a2.8,2.8,0,0,0,1.867-2.628V36.4h2.8v.933A2.8,2.8,0,0,0,25.2,39.961V50.4Zm-11.2,0V39.961a2.8,2.8,0,0,0,1.867-2.628V36.4H11.2v.933a2.8,2.8,0,0,0,1.867,2.628V50.4Zm-5.6-13.067V36.4h5.6v.933a.935.935,0,0,1-.933.933H2.8a.935.935,0,0,1-.933-.933Zm15.867.933H14a.935.935,0,0,1-.933-.933V36.4h5.6v.933A.935.935,0,0,1,17.733,38.267Zm-2.8,1.867H16.8V50.4H14.933Zm14.933-1.867H26.133a.935.935,0,0,1-.933-.933V36.4h5.6v.933A.935.935,0,0,1,29.867,38.267Zm-2.8,1.867h1.867V50.4H27.067ZM42,38.267H38.267a.935.935,0,0,1-.933-.933V36.4h5.6v.933A.935.935,0,0,1,42,38.267Zm-2.8,1.867h1.867V50.4H39.2Zm-35.467,0H5.6V50.4H3.733Zm50.4,14H1.867V52.267H54.133ZM50.4,50.4V40.133h1.867V50.4Zm3.733-13.067a.935.935,0,0,1-.933.933H49.467a.935.935,0,0,1-.933-.933V36.4h5.6Z" transform="translate(17691 9189)"/>
</svg>
