<svg xmlns="http://www.w3.org/2000/svg" viewBox="16974 11456 56 56">
  <defs>
    <style>
      .cls-1 {
        fill: #fff;
      }
    </style>
  </defs>
  <path id="Path_5913" data-name="Path 5913" class="cls-1" d="M39.727,5A13.43,13.43,0,1,0,53.091,18.43,13.416,13.416,0,0,0,39.727,5Zm0,2.558A10.872,10.872,0,1,1,28.909,18.43,10.826,10.826,0,0,1,39.727,7.558ZM39.588,10.1a1.277,1.277,0,0,0-1.134,1.3v.7a3.859,3.859,0,0,0-3.182,3.777c0,2.18,2.033,3.837,4.455,3.837,1.419,0,1.909.625,1.909,1.279,0,.825-.321,1.279-1.273,1.279H36.545a1.279,1.279,0,0,0,0,2.558h1.909v.64a1.273,1.273,0,1,0,2.546,0v-.7a3.861,3.861,0,0,0,3.182-3.777c0-2.18-2.033-3.837-4.455-3.837-1.419,0-1.909-.625-1.909-1.279,0-.825.321-1.279,1.273-1.279h3.818a1.279,1.279,0,0,0,0-2.558H41V11.4a1.282,1.282,0,0,0-.413-.971A1.269,1.269,0,0,0,39.588,10.1ZM7.153,34.14A1.277,1.277,0,0,0,6,35.419V58.442a1.276,1.276,0,0,0,1.273,1.279h8.909a1.276,1.276,0,0,0,1.273-1.279V54.525a53.91,53.91,0,0,0,5.588,3.9A21.168,21.168,0,0,0,34,61c5.254,0,11.357-2.855,16.287-5.616A91.243,91.243,0,0,0,58.9,49.908l.04-.04A8.126,8.126,0,0,0,61.2,47.91a4.894,4.894,0,0,0,.8-2.9,3.409,3.409,0,0,0-.994-2.4,4.579,4.579,0,0,0-1.889-1.079,9.428,9.428,0,0,0-2.844-.36,10.9,10.9,0,0,0-4.594,1.4,16.334,16.334,0,0,0-1.472.8,4.45,4.45,0,0,0-4.116-2.838H34.457c-3.606-3.212-9.713-3.764-17-3.817v-1.3a1.276,1.276,0,0,0-1.273-1.279H7.273Q7.213,34.137,7.153,34.14ZM8.545,36.7h6.364v1.179q0,.05,0,.1v14.07a1.285,1.285,0,0,0,0,.14v4.976H8.545Zm8.909,2.6c7.374.091,13.174.929,15.651,3.418a1.27,1.27,0,0,0,.895.38H46.091a1.919,1.919,0,0,1,0,3.837H27.636a1.279,1.279,0,0,0,0,2.558H46.091a4.424,4.424,0,0,0,4.2-3.258,1.27,1.27,0,0,0,.3-.14s.968-.612,2.207-1.219a11.006,11.006,0,0,1,3.48-1.139,7.813,7.813,0,0,1,2.088.26,2.325,2.325,0,0,1,.875.44.649.649,0,0,1,.219.58,2.038,2.038,0,0,1-.318,1.4,7.032,7.032,0,0,1-1.67,1.359l-.04.04a85.451,85.451,0,0,1-8.372,5.356C44.279,55.84,38.292,58.442,34,58.442c-4.6,0-7.344-.892-9.724-2.238-2.212-1.25-4.188-3.01-6.821-4.836Z" transform="translate(16968 11451)"/>
</svg>
