<?xml version="1.0" encoding="utf-8"?>
<!-- Generator: Adobe Illustrator 21.0.2, SVG Export Plug-In . SVG Version: 6.00 Build 0)  -->
<svg version="1.1" id="Layer_1" xmlns="http://www.w3.org/2000/svg" xmlns:xlink="http://www.w3.org/1999/xlink" x="0px" y="0px"
	 viewBox="0 0 500 500" style="enable-background:new 0 0 500 500;" xml:space="preserve">
<style type="text/css">
	.st0{fill:#FFFFFF;}
</style>
<path id="Combined-Shape" class="st0" d="M378,194.5c22.5,0.1,40.7,18.5,40.5,41.1c0,0.7,0,1.3-0.1,2v120.2
	c-1.3,59.3-50,106.7-109.3,106.2h-33.4c-34.9-0.5-67.6-17.2-88.6-45.1c-14.7-21.5-98.7-147.8-99.7-149.3c-5.8-9.1-7.5-20.2-4.6-30.6
	c3-10.5,9.6-19.5,18.7-25.5c9.1-6,20.1-8.5,30.9-7c10.7,1.6,20.2,7.6,26.3,16.5l20.8,31.1V77.4c0.6-23.5,20.2-42,43.6-41.4
	c22.6,0.6,40.8,18.8,41.4,41.4v95.2c3.2-0.6,6.4-0.9,9.6-1c12.5,0,24.3,5.5,32.4,15c6-3.4,12.8-5.1,19.7-5c13.4-0.1,26,6.3,33.9,17
	C365.8,196,371.8,194.6,378,194.5z M394.2,354.9h-0.5V237.1c0.8-9.2-6.1-17.2-15.2-18c-0.3,0-0.6,0-0.9-0.1
	c-3.8,0.1-7.5,1.3-10.6,3.5v36.1c0,6.7-5.4,12.1-12.1,12.1s-12.1-5.4-12.1-12.1v-40.1c-3-9.4-13-14.7-22.4-11.7
	c-2.2,0.7-4.2,1.8-5.9,3.2v42.6c0,6.7-5.4,12.1-12.1,12.1c-6.7,0-12.1-5.4-12.1-12.1v-45.6c-2.9-6.7-9.4-11-16.7-11
	c-3.4,0.1-6.7,0.9-9.6,2.5v51.1c0,6.7-5.4,12.1-12.2,12.1c-6.7,0-12.1-5.4-12.1-12.1V77.4c0-10.1-8.2-18.2-18.2-18.2
	c-10.1,0-18.2,8.2-18.2,18.2v216.9c0,5.3-3.5,10-8.6,11.5c-5.2,1.5-10.7-0.5-13.7-5l-43-64.6c-2.1-3.4-5.6-5.7-9.6-6h-2.5
	c-4,0.2-7.8,1.4-11.2,3.5c-4.2,2.6-7.3,6.7-8.6,11.5c-1.1,3.7-0.5,7.7,1.5,11c1,1.5,85,127.7,99.7,148.8
	c16.7,21.2,41.9,33.8,68.8,34.6h33.4c46.2,0.3,84-36.5,85-82.6V354.9z"/>
</svg>
