<svg xmlns="http://www.w3.org/2000/svg" viewBox="17710 9541.999 72 58">
  <defs>
    <style>
      .cls-1 {
        fill: #fff;
      }
    </style>
  </defs>
  <path id="Union_12" data-name="Union 12" class="cls-1" d="M-17974.639-8572.365c0-1.535.607-14.628,1.5-23.978h-.91a2.215,2.215,0,0,1-2.209-2.214v-10.6a27.468,27.468,0,0,1,5.568-16.589.66.66,0,0,1,.729-.226.656.656,0,0,1,.453.62v29.007c.9,9.35,1.5,22.442,1.5,23.978,0,2.408-1.49,4.364-3.32,4.364S-17974.639-8569.957-17974.639-8572.365Zm-62.338,0c0-1.661.7-16.924,1.744-26.259a3.59,3.59,0,0,0-1.7-3.464,6.327,6.327,0,0,1-3.064-5.433l.941-14.887a1.07,1.07,0,0,1,1.068-1.014,1.073,1.073,0,0,1,1.068,1.127l-.588,11.926a1.209,1.209,0,0,0,1.209,1.213,1.208,1.208,0,0,0,1.207-1.213l.295-11.926a1.166,1.166,0,0,1,1.154-1.127,1.153,1.153,0,0,1,1.154,1.127l.295,11.926a1.21,1.21,0,0,0,1.209,1.213,1.21,1.21,0,0,0,1.209-1.213l-.59-11.926a1.075,1.075,0,0,1,1.07-1.127,1.079,1.079,0,0,1,1.068,1.014l.914,14.868a6.359,6.359,0,0,1-3.064,5.438,3.607,3.607,0,0,0-1.7,3.478c1.041,9.349,1.742,24.6,1.742,26.259,0,2.408-1.488,4.364-3.318,4.364S-18036.977-8569.957-18036.977-8572.365Zm10.277-25.979a23.868,23.868,0,0,1,23.852-23.878,23.854,23.854,0,0,1,23.85,23.864,23.856,23.856,0,0,1-23.85,23.878A23.847,23.847,0,0,1-18026.7-8598.344Zm5.754-.014a18.13,18.13,0,0,0,18.1,18.119,18.133,18.133,0,0,0,18.1-18.119,18.128,18.128,0,0,0-18.1-18.123A18.126,18.126,0,0,0-18020.945-8598.357Zm4.85.014a13.267,13.267,0,0,1,13.248-13.261,13.267,13.267,0,0,1,13.246,13.261,13.262,13.262,0,0,1-13.246,13.266A13.263,13.263,0,0,1-18016.1-8598.344Z" transform="translate(35750 18168)"/>
</svg>
