<svg xmlns="http://www.w3.org/2000/svg" viewBox="17237 12371 80 72">
  <defs>
    <style>
      .cls-1 {
        fill: #5ca1bf;
      }
    </style>
  </defs>
  <path id="Path_5862" data-name="Path 5862" class="cls-1" d="M91.283,70.219,77.53,56.493a24.674,24.674,0,1,0-35.114,3.424L39.693,63.8l-6-5.138a1.571,1.571,0,0,0-2.446.533L25.912,70.719l-4.683-4.674a1.569,1.569,0,0,0-2.588.586L14.879,77.268v-60.2a1.568,1.568,0,0,0-3.137,0v68.87a1.566,1.566,0,0,0,1.57,1.565H82.32a1.565,1.565,0,1,0,0-3.13H71.354V80.717a1.568,1.568,0,0,0-3.137,0V84.37H52.534V80.717a1.568,1.568,0,0,0-3.137,0V84.37H33.714V80.717a1.568,1.568,0,0,0-3.137,0V84.37H15.694l5.076-14.354,4.514,4.5a1.569,1.569,0,0,0,2.532-.452l5.4-11.684L38.965,67.3a1.569,1.569,0,0,0,2.305-.29l3.67-5.231a24.687,24.687,0,0,0,30.469-2.97L89.064,72.433a1.567,1.567,0,0,0,2.219-2.214ZM58.3,62.569A21.418,21.418,0,0,1,46.755,59.19L63.4,35.473l1.482,10.718a1.568,1.568,0,0,0,3.107-.428l-1.871-13.53h0a2.51,2.51,0,0,0-.827-1.549,2.477,2.477,0,0,0-1.634-.61,2.593,2.593,0,0,0-.638.08L49.763,33.539a1.565,1.565,0,1,0,.778,3.032h0L60.6,34,44.238,57.321A21.513,21.513,0,1,1,58.3,62.569Z" transform="translate(17225.258 12355.5)"/>
</svg>
