<svg xmlns="http://www.w3.org/2000/svg" viewBox="17535.004 9339 56 56">
  <path id="Union_7" data-name="Union 7" d="M-21876.375-662.006a1.066,1.066,0,0,1-1.064-1.063,1.066,1.066,0,0,1,1.064-1.067h36.648a1.069,1.069,0,0,1,1.066,1.067,1.069,1.069,0,0,1-1.066,1.063Zm9.82-5.147a1.061,1.061,0,0,1-1.062-1.063v-.708a5.848,5.848,0,0,1,5.684-5.84v-35.3a18.561,18.561,0,0,0-10.16,3.94,11.338,11.338,0,0,1-3.756,2.028l7.09,15.347c.016.039.029.078.043.117v.164q0,.064,0,.128a8.628,8.628,0,0,1-4.25,7.677,8.657,8.657,0,0,1-8.785,0,8.63,8.63,0,0,1-4.248-7.677v-.292c.012-.039.027-.078.043-.117l6.99-15.312a17.666,17.666,0,0,1-4.3-1.573,1.062,1.062,0,0,1-.482-1.425,1.068,1.068,0,0,1,1.43-.483,11.5,11.5,0,0,0,4.857,1.526h.156c1.51-.039,2.576-.79,4-1.83a20.938,20.938,0,0,1,11.9-4.4,3.863,3.863,0,0,1,.9-4.863,3.877,3.877,0,0,1,4.959,0,3.86,3.86,0,0,1,.9,4.863,20.922,20.922,0,0,1,11.877,4.4c1.436,1.043,2.48,1.795,3.992,1.83h.158a11.651,11.651,0,0,0,4.855-1.526,1.068,1.068,0,0,1,1.428.483,1.062,1.062,0,0,1-.482,1.425,17.3,17.3,0,0,1-4.3,1.573l7.008,15.339a.446.446,0,0,1,.043.121v.163a.781.781,0,0,1,.066.105,8.635,8.635,0,0,1-8.643,8.378,8.634,8.634,0,0,1-8.639-8.378v-.292c.016-.039.027-.078.043-.117l7.01-15.347a11.348,11.348,0,0,1-3.758-2.028,18.526,18.526,0,0,0-10.184-3.948v35.307a5.85,5.85,0,0,1,5.684,5.84v.708a1.064,1.064,0,0,1-1.064,1.063Zm1.09-2.1h14.828a3.734,3.734,0,0,0-3.713-3.387h-7.395A3.73,3.73,0,0,0-21865.465-669.251Zm5.668-40.952v35.439h3.492V-710.2c-.562-.043-1.135-.043-1.748-.043S-21859.238-710.2-21859.8-710.2Zm21.1,28.393a6.517,6.517,0,0,0,6.428-5.439h-12.818A6.518,6.518,0,0,0-21838.7-681.811Zm-38.713-.043v.043a6.517,6.517,0,0,0,6.434-5.478h-12.824A6.515,6.515,0,0,0-21877.412-681.853Zm32.793-7.514h11.846l-5.926-13.042Zm-38.707,0h11.84l-5.926-13.042Zm23.529-24.772v.008a1.745,1.745,0,0,0,1.744,1.736,1.745,1.745,0,0,0,1.748-1.744,1.745,1.745,0,0,0-1.748-1.744A1.745,1.745,0,0,0-21859.8-714.139Z" transform="translate(39421.006 10057.006)"/>
</svg>
