<?xml version="1.0" encoding="utf-8"?>
<!-- Generator: Adobe Illustrator 21.0.2, SVG Export Plug-In . SVG Version: 6.00 Build 0)  -->
<svg version="1.1" id="Layer_1" xmlns="http://www.w3.org/2000/svg" xmlns:xlink="http://www.w3.org/1999/xlink" x="0px" y="0px"
	 viewBox="0 0 500 500" style="enable-background:new 0 0 500 500;" xml:space="preserve">
<style type="text/css">
	.st0{fill:#00AAE1;}
	.st1{fill:#0082D2;}
</style>
<g id="Group_2159" transform="translate(-21740 527)">
	<path id="Path_783" class="st0" d="M22062-517.2c-35.5-7.1-72.2-6.3-107.4,2.3l2.1,8.9c63.4-15.5,130.4-4.4,185.4,30.7l4.9-7.8
		c-23.4-14.8-49.2-25.6-76.2-32L22062-517.2z"/>
	<path id="Path_789" class="st1" d="M21755.8-286.9c1.6-27.9,7.5-55.4,17.3-81.6l9.3,3.5c-16.2,42.4-21,88.2-14.1,133l-9.8,1.6
		c-2.4-15.4-3.4-31-3-46.5C21754.6-280.9,21755.2-281.6,21755.8-286.9z"/>
</g>
</svg>
