<?xml version="1.0" encoding="utf-8"?>
<!-- Generator: Adobe Illustrator 21.0.2, SVG Export Plug-In . SVG Version: 6.00 Build 0)  -->
<svg version="1.1" id="Layer_1" xmlns="http://www.w3.org/2000/svg" xmlns:xlink="http://www.w3.org/1999/xlink" x="0px" y="0px"
	 viewBox="0 0 500 500" style="enable-background:new 0 0 500 500;" xml:space="preserve">
<style type="text/css">
	.st0{fill:#F8F8F8;}
	.st1{clip-path:url(#SVGID_2_);}
	.st2{fill:#FFDECC;}
	.st3{fill:#333333;}
	.st4{fill:#F6C5A0;}
	.st5{fill:#E3E3E3;}
	.st6{fill:#1A1A1A;}
	.st7{fill:#1B1B1B;}
	.st8{fill:#282828;}
	.st9{fill:#FFFFFF;}
	.st10{opacity:0.2;enable-background:new    ;}
	.st11{fill:#616161;}
	.st12{opacity:5.000000e-02;enable-background:new    ;}
	.st13{opacity:0.1;enable-background:new    ;}
	.st14{fill:#5CA1BF;}
	.st15{fill:#008CB4;}
</style>
<g id="Group_2151" transform="translate(8.939 758)">
	<circle id="Ellipse_258" class="st0" cx="267.5" cy="-502.4" r="196.9"/>
	<g>
		<g>
			<defs>
				<circle id="SVGID_1_" cx="267.5" cy="-502.4" r="182.1"/>
			</defs>
			<clipPath id="SVGID_2_">
				<use xlink:href="#SVGID_1_"  style="overflow:visible;"/>
			</clipPath>
			<g id="Group_1506" class="st1">
				<g id="Group_1505" transform="translate(552.55 1714.671)">
					<path id="Path_641" class="st2" d="M-313.6-2161.7c-66.8,29.3-86.9,44.9-94.9,52c-12.1,10.7-19,51.1-26.2,85.4h302.5
						c-7.2-34.3-14-74.5-26.2-85.4c-7.9-7-27.3-22.3-94.1-51.6L-313.6-2161.7z"/>
					<path id="Path_642" class="st3" d="M-313.6-2161.7c-66.8,29.3-86.9,44.9-94.9,52c-12.1,10.7-19,51.1-26.2,85.4h302.5
						c-7.2-34.3-14-74.5-26.2-85.4c-7.9-7-27.3-22.3-94.1-51.6L-313.6-2161.7z"/>
					<path id="Path_643" class="st4" d="M-315.8-2220.1v74.1c17.9,21.2,47,21.8,64.9,0v-74.1
						C-250.8-2260.1-315.8-2260.1-315.8-2220.1z"/>
					
						<ellipse id="Ellipse_259" transform="matrix(0.9498 -0.3127 0.3127 0.9498 685.8904 -220.7153)" class="st4" cx="-345.2" cy="-2248.7" rx="10.9" ry="18.8"/>
					
						<ellipse id="Ellipse_260" transform="matrix(0.3129 -0.9498 0.9498 0.3129 1983.4189 -1755.835)" class="st4" cx="-221.8" cy="-2248.8" rx="18.8" ry="10.9"/>
					<path id="Path_644" class="st5" d="M-283.2-2129.9c0,0-45.3,10.7-45.3,13.6c0,2.8,17.3,91.9,17.3,91.9h61.5l7-91.6
						L-283.2-2129.9z"/>
					<path id="Path_645" class="st6" d="M-315.8-2160.8v14.8l14,121.6h-24.1l-26.8-54.2l25.5-17l-31.2-14.6l28.7-44.4L-315.8-2160.8
						z"/>
					<path id="Path_646" class="st7" d="M-250.8-2160.6v14.6l-14.3,121.6h24.3l26.6-54.2l-25.4-17l31-14.6l-25.4-43L-250.8-2160.6z"
						/>
					<path id="Path_647" class="st8" d="M-297.2-2114.8l7.8,12.1h12.1l7.8-12.1l-13.9-15.1L-297.2-2114.8z"/>
					<path id="Path_648" class="st8" d="M-289.4-2102.7l-11.2,78.3h34.6l-11.2-78.3H-289.4z"/>
					<path id="Path_649" class="st9" d="M-315.8-2170.4l-2.8,11.1l7.9,57.5l27.6-27.9L-315.8-2170.4z"/>
					<path id="Path_650" class="st10" d="M-315.8-2184.3v2.3c0,0,16.5,19.6,32.4,20.4c15.9,0.8,32.6-19,32.6-19v-3.6"/>
					<g id="Group_1504" transform="translate(66.17 -0.005)">
						<path id="Path_651" class="st4" d="M-349.4-2353.1c-99.8,0-61.5,136.8-55.1,147.3c7.2,11.5,38.9,37.1,55.1,37.1
							s47.8-25.5,55.1-37.1C-287.9-2216.4-249.5-2353.1-349.4-2353.1z"/>
						<path id="Path_652" class="st11" d="M-304.7-2350c-33.8-26.5-85.8-10.7-101.6,11.4c-19.6,27.7-12.6,69.8-8.1,101.4v-0.2
							c0,0.3,0.2,0.6,0.2,0.9s0.6,0.9,0.8,1.2c0.2,0.3,1.4,0,1.9-0.2c0.2,0,0.2-0.3,0.2-0.5c0.2-2.8,0-8.3,0-8.4
							c-0.4-4.3-1.1-8.6-2-12.8c3.1-19.9,12.5-24.1,17.4-48.1l3.3-4.7c1.3-1.8,2.8-3.4,4.4-5c0.9-0.5,1.7-1.1,2.5-1.7
							c18.2-6.7,36.9,1.4,54,8.3c6.5,2.6,13.9,5.8,21.2,5.3c3.1-0.3,5.5-2.3,5.8-4.8c8.3,24.6,15,36,19,54c-0.6,3.1-1.1,6.3-1.4,9.5
							c0,0-0.2,5.6,0,8.4c0,0.2,0,0.3,0.2,0.5c0.5,0.2,1.6,0.5,1.9,0.2c0.3-0.4,0.6-0.8,0.8-1.2c0.2-1.1,0.4-2.3,0.5-3.4
							c0.2-1.6,0.5-3.3,0.6-5C-278.4-2264.3-268.7-2341.6-304.7-2350z"/>
					</g>
					<path id="Path_653" class="st9" d="M-250.8-2170.4l2.2,10.9l-7.5,58.3l-27.1-28.5L-250.8-2170.4z"/>
					<path id="Path_654" class="st12" d="M-315.8-2170.4l32.6,40.5l32.4-40.5v-1.1l-32.4,40.5l-32.6-40.5V-2170.4"/>
					<path id="Path_655" class="st13" d="M-289.4-2102.7h12.1l0.2,0.5h-12.3L-289.4-2102.7z"/>
				</g>
			</g>
		</g>
	</g>
</g>
<g id="Group_2159" transform="translate(-21740 527)">
	<path id="Path_784" class="st14" d="M22139.7-439c-64.7-47.1-153.9-54.9-227.4-12.4c-51.5,29.8-87.8,80.2-99.9,138.4l14.9,3.1
		c11.2-54,44.9-100.6,92.6-128.2c92.3-53.3,210.9-21.6,264.2,70.7c15.8,27.3,24.6,58.1,25.7,89.6l15.2-0.5
		c-2.1-58.5-28.7-113.4-73.2-151.3L22139.7-439z"/>
	<path id="Path_785" class="st15" d="M22184.1-151.9c20.6-29.1,33.3-63.1,36.9-98.6l-9.1-0.9c-10.6,107.9-106.8,186.8-214.7,176.2
		c-28-2.8-55.1-11.5-79.4-25.6l-4.5,8c88.9,51.8,202.3,29.7,265.4-51.5L22184.1-151.9z"/>
	<path id="Path_787" class="st15" d="M21824.3-292.2l-15.1-1.8c-3.8,32.6,0.3,65.7,11.9,96.4c3,7.2,3.3,9.6,5.9,14.1
		c2.7,5.8,5.6,11.5,8.8,17.1c13.8,24,32.2,44.9,54.2,61.7l9.3-12.2c-20.3-15.5-37.4-34.9-50.2-57.1
		C21828.3-209.7,21819.6-251.1,21824.3-292.2z"/>
</g>
</svg>
