<svg xmlns="http://www.w3.org/2000/svg" viewBox="16751.75 9263 56 56">
  <path id="Union_6" data-name="Union 6" d="M-19745.762,53.814l-9.482-9.425a1.293,1.293,0,0,1-.4-.924,1.3,1.3,0,0,1,.4-.924l1.127-1.12-2.986-2.964a22.67,22.67,0,0,1-15.119,5.735,22.763,22.763,0,0,1-16.113-6.593,22.5,22.5,0,0,1,0-31.967,22.972,22.972,0,0,1,32.229-.065,22.56,22.56,0,0,1,.928,31.044l2.986,2.967.729-.727a1.284,1.284,0,0,1,1.854,0l9.484,9.36a4.148,4.148,0,0,1,1.127,2.836,3.918,3.918,0,0,1-1.193,2.767,3.727,3.727,0,0,1-2.785,1.186A3.982,3.982,0,0,1-19745.762,53.814Zm-6.633-10.283,8.488,8.436a1.288,1.288,0,0,0,1.857,0,1.266,1.266,0,0,0,0-1.844l-8.488-8.436Zm-34.02-36.054a19.966,19.966,0,0,0,0,28.276,20.179,20.179,0,0,0,28.383,0,19.966,19.966,0,0,0,0-28.276,20.053,20.053,0,0,0-14.191-5.866A20.171,20.171,0,0,0-19786.414,7.477Zm25.73,2.636a16.483,16.483,0,0,0-23.145,0,1.286,1.286,0,0,1-1.855,0,1.266,1.266,0,0,1,0-1.844,19.135,19.135,0,0,1,26.924,0,1.269,1.269,0,0,1,0,1.844,1.307,1.307,0,0,1-.93.4A1.593,1.593,0,0,1-19760.684,10.113Z" transform="translate(36546.75 9264)"/>
</svg>
