<svg xmlns="http://www.w3.org/2000/svg" viewBox="17167 9193 220 248.001">
  <defs>
    <style>
      .cls-1 {
        fill: #ffdecc;
      }

      .cls-1, .cls-13, .cls-2, .cls-3, .cls-5, .cls-6, .cls-7, .cls-8, .cls-9 {
        fill-rule: evenodd;
      }

      .cls-2 {
        fill: #333;
      }

      .cls-3, .cls-4 {
        fill: #f6c5a0;
      }

      .cls-5 {
        fill: #e3e3e3;
      }

      .cls-6 {
        fill: #1a1a1a;
      }

      .cls-7 {
        fill: #1b1b1b;
      }

      .cls-8 {
        fill: #28a8e3;
      }

      .cls-9 {
        fill: #fff;
      }

      .cls-10 {
        opacity: 0.2;
      }

      .cls-11 {
        fill: #616161;
      }

      .cls-12 {
        opacity: 0.05;
      }

      .cls-13 {
        opacity: 0.1;
      }
    </style>
  </defs>
  <g id="Man_Illustration" data-name="Man Illustration" transform="translate(17167 9193.006)">
    <path id="Path_767" data-name="Path 767" class="cls-1" d="M88.023,129.8c-48.6,21.387-63.213,32.762-68.991,38C10.2,175.645,5.211,205.108,0,230.135H220c-5.211-25.027-10.2-54.377-19.032-62.34-5.778-5.119-19.825-16.268-68.424-37.654Z" transform="translate(0 17.859)"/>
    <path id="Path_768" data-name="Path 768" class="cls-2" d="M88.023,129.8c-48.6,21.387-63.213,32.762-68.991,38C10.2,175.645,5.211,205.108,0,230.135H220c-5.211-25.027-10.2-54.377-19.032-62.34-5.778-5.119-19.825-16.268-68.424-37.654Z" transform="translate(0 17.859)"/>
    <path id="Path_769" data-name="Path 769" class="cls-3" d="M76.3,94.952V149.1c13.028,15.471,34.212,15.926,47.24,0V94.952C123.54,65.716,76.3,65.716,76.3,94.952Z" transform="translate(10.137 10.048)"/>
    <path id="Path_5848" data-name="Path 5848" class="cls-4" d="M7.933-.01c4.381-.005,7.926,6.15,7.916,13.749S12.281,27.5,7.9,27.509-.026,21.358-.017,13.759,3.552,0,7.933-.01Z" transform="translate(53.214 73.494) rotate(-18.223)"/>
    <path id="Path_5849" data-name="Path 5849" class="cls-4" d="M13.759-.017c7.6-.009,13.755,3.535,13.749,7.916s-6.17,7.941-13.769,7.95S-.015,12.315-.01,7.933,6.16-.008,13.759-.017Z" transform="translate(142.968 94.652) rotate(-71.766)"/>
    <path id="Path_770" data-name="Path 770" class="cls-5" d="M101.066,150.2S68.1,158.049,68.1,160.1s12.575,67.118,12.575,67.118h44.748l5.1-66.89Z" transform="translate(9.047 20.666)"/>
    <path id="Path_771" data-name="Path 771" class="cls-6" d="M79.927,130.4v10.807l10.2,88.846H72.563L53.078,190.465l18.579-12.4L49,167.372,69.844,134.95Z" transform="translate(6.51 17.942)"/>
    <path id="Path_772" data-name="Path 772" class="cls-7" d="M119.222,130.5v10.693L108.8,230.039h17.673l19.372-39.588-18.466-12.4,22.544-10.693-18.466-31.4Z" transform="translate(14.454 17.956)"/>
    <path id="Path_773" data-name="Path 773" class="cls-8" d="M88.2,161.235l5.664,8.873H102.7l5.664-8.873L98.282,150.2Z" transform="translate(11.718 20.666)"/>
    <path id="Path_774" data-name="Path 774" class="cls-8" d="M94.157,167.7,86,224.921h25.149L102.993,167.7Z" transform="translate(11.425 23.074)"/>
    <path id="Path_775" data-name="Path 775" class="cls-9" d="M76.539,124.2,74.5,132.277l5.778,41.977,20.051-20.363Z" transform="translate(9.898 17.089)"/>
    <path id="Path_776" data-name="Path 776" class="cls-10" d="M76.3,115.3v1.706s12.008,14.334,23.563,14.9S123.54,118.03,123.54,118.03v-2.616" transform="translate(10.137 15.864)"/>
    <g id="Group_1573" data-name="Group 1573" transform="translate(59.231 -0.005)">
      <path id="Path_777" data-name="Path 777" class="cls-3" d="M102.972,6.9c-72.616,0-44.748,99.88-40.1,107.616,5.211,8.418,28.321,27.075,40.1,27.075s34.779-18.656,40.1-27.075C147.719,106.78,175.587,6.9,102.972,6.9Z" transform="translate(-52.089 0.956)"/>
      <path id="Path_778" data-name="Path 778" class="cls-11" d="M135.68,10.125C111.1-9.214,73.26,2.276,61.818,18.43c-14.274,20.249-9.176,50.964-5.891,74.057v-.114c0,.228.113.455.113.683s.453.683.566.91,1.02,0,1.359-.114c.113,0,.113-.228.113-.341.113-2.048,0-6.029,0-6.143a84.177,84.177,0,0,0-1.473-9.328c2.266-14.561,9.063-17.633,12.688-35.151l2.379-3.413a31.689,31.689,0,0,1,3.172-3.64,17.283,17.283,0,0,0,1.813-1.251c13.254-4.892,26.849,1.024,39.31,6.029,4.758,1.934,10.082,4.209,15.407,3.868a4.409,4.409,0,0,0,4.192-3.527c6,17.974,10.875,26.278,13.821,39.474a68.168,68.168,0,0,0-1.02,6.939s-.113,4.1,0,6.143a.419.419,0,0,0,.113.341c.34.114,1.133.341,1.359.114a6.354,6.354,0,0,0,.566-.91,18.966,18.966,0,0,0,.34-2.5c.113-1.138.34-2.389.453-3.64C154.825,72.693,161.849,16.268,135.68,10.125Z" transform="translate(-52.285 0.005)"/>
    </g>
    <path id="Path_779" data-name="Path 779" class="cls-9" d="M120.763,124.2l1.586,7.963-5.438,42.546L97.2,153.891Z" transform="translate(12.913 17.089)"/>
    <path id="Path_780" data-name="Path 780" class="cls-12" d="M76.3,124.3l23.677,29.577L123.54,124.3v-.8L99.977,153.077,76.3,123.5v.8" transform="translate(10.137 16.993)"/>
    <path id="Path_781" data-name="Path 781" class="cls-13" d="M93.2,167.7h8.836l.113.341H93.2Z" transform="translate(12.382 23.074)"/>
  </g>
</svg>
