<svg xmlns="http://www.w3.org/2000/svg" viewBox="17524 11456.001 55 55.998">
  <defs>
    <style>
      .cls-1 {
        fill: #fff;
      }
    </style>
  </defs>
  <path id="Union_13" data-name="Union 13" class="cls-1" d="M-16700.479-10135.026a22.049,22.049,0,0,1-10.26-3.115,1.149,1.149,0,0,1-.377-1.52,1.04,1.04,0,0,1,1.443-.4c.146.088.3.176.445.265.391.218.785.433,1.188.625.184.09.363.176.547.258l.143.062c.1.042.193.084.289.122a20.268,20.268,0,0,0,2.465.835c.439.117.881.223,1.33.311.205.042.416.084.621.118l.314.05.025,0a1.116,1.116,0,0,1,.117.013,19.791,19.791,0,0,0,2.688.177,20.559,20.559,0,0,0,2.7-.177l.094-.012c.051-.007.1-.016.154-.021.1-.017.209-.033.314-.055.205-.038.416-.075.625-.117.412-.084.822-.181,1.23-.294a20.083,20.083,0,0,0,2.469-.84c.105-.042.213-.088.32-.134-.025.01.18-.081.188-.085.188-.088.377-.176.563-.269.373-.185.738-.382,1.1-.583a1.037,1.037,0,0,1,1.443.395,1.146,1.146,0,0,1-.377,1.52c-.391.223-.785.437-1.189.634a21.977,21.977,0,0,1-9.592,2.259C-16699.8-10135-16700.141-10135.01-16700.479-10135.026Zm-1.789-2.38-.014,0Zm-5.209-1.5Zm29.475-2.422h-8.645a1.091,1.091,0,0,1-1.053-1.108v-2.741a4.874,4.874,0,0,1,1.619-3.753,4.526,4.526,0,0,1,2.133-1.046,9.581,9.581,0,0,1,1.549-.075,1.311,1.311,0,0,1,1.059.638c.289.345.584.685.873,1.029l.623.738.539-.646c.291-.34.576-.68.861-1.024a1.815,1.815,0,0,1,.814-.7,4,4,0,0,1,1.264-.034,4.4,4.4,0,0,1,2.207.7,4.933,4.933,0,0,1,2.158,4.06v2.851a1.1,1.1,0,0,1-1.057,1.108Zm-3.7-2.221h7.586v-1.738c0-.088,0-.176,0-.265-.006-.031-.021-.141-.025-.17a2.331,2.331,0,0,0-.072-.3c-.014-.064-.146-.4-.084-.27-.047-.1-.1-.207-.154-.31-.043-.067-.084-.139-.131-.21l-.025-.038a3.665,3.665,0,0,0-.268-.3c-.043-.043-.291-.246-.211-.193-.088-.062-.178-.122-.268-.176-.072-.042-.139-.08-.215-.118l-.02-.01-.018-.007c-.131-.046-.256-.092-.387-.126-.074-.016-.148-.034-.223-.047q-.161-.012-.322-.012h-.338q-1.1,1.321-2.215,2.641a1.019,1.019,0,0,1-1.494,0q-1.116-1.323-2.234-2.641h-.322c-.088,0-.182,0-.273.009-.055,0-.322.055-.047,0a1.456,1.456,0,0,0-.158.033,3.14,3.14,0,0,0-.391.113l-.094.035-.023.011a3.907,3.907,0,0,0-.35.2c-.059.043-.119.082-.18.128a3.665,3.665,0,0,0-.426.451c.045-.055-.131.2-.158.252-.051.092-.1.185-.145.278,0,.018-.086.252-.1.3a2.721,2.721,0,0,0-.074.332c0,.018-.006.032-.01.044v0a1.332,1.332,0,0,0-.012.177c0,.063,0,.13,0,.192v1.722Zm7.578-2.053Zm0-.026-.006-.029Zm-.148-.6Zm-4.818-.533Zm4.535-.021Zm-.467-.508Zm-1.094-.519Zm-6.232-.023Zm-34.947,6.5h-8.645a1.1,1.1,0,0,1-1.057-1.108v-2.741a4.887,4.887,0,0,1,1.619-3.753,4.557,4.557,0,0,1,2.137-1.046,9.56,9.56,0,0,1,1.549-.075,1.308,1.308,0,0,1,1.059.638c.289.345.58.685.869,1.029q.311.369.625.738.272-.322.541-.646c.287-.34.576-.68.861-1.024a1.785,1.785,0,0,1,.811-.7,4,4,0,0,1,1.264-.034,4.418,4.418,0,0,1,2.211.7,4.924,4.924,0,0,1,2.154,4.06v2.851a1.091,1.091,0,0,1-1.053,1.108Zm-3.7-2.221h7.586v-1.738c0-.088,0-.176-.008-.265,0-.033-.021-.151-.023-.174a2.641,2.641,0,0,0-.07-.292c-.018-.061-.137-.368-.094-.286-.047-.1-.1-.2-.148-.293-.043-.067-.08-.139-.131-.21a.394.394,0,0,0-.025-.037h0c-.084-.1-.172-.205-.264-.3-.045-.045-.3-.258-.207-.187a3.119,3.119,0,0,0-.275-.182c-.068-.042-.139-.08-.211-.118l-.01,0-.031-.013c-.127-.046-.252-.092-.387-.126-.074-.016-.15-.034-.225-.048-.105-.007-.211-.011-.316-.011h-.338q-1.11,1.321-2.215,2.641a1.019,1.019,0,0,1-1.494,0q-1.116-1.323-2.234-2.641h-.322c-.094,0-.186,0-.273.009-.055,0-.322.055-.051,0-.051.008-.1.021-.158.033a3.082,3.082,0,0,0-.387.113c-.029.01-.061.021-.09.033l-.027.013a3.051,3.051,0,0,0-.35.2c-.051.035-.1.069-.154.105a.085.085,0,0,1-.014.012,3.535,3.535,0,0,0-.434.454c0,.008-.141.216-.166.26-.049.095-.1.19-.145.287.031-.066-.08.235-.1.292a2.721,2.721,0,0,0-.074.332.628.628,0,0,1-.016.071c0,.05-.006.1-.006.151s0,.13,0,.192v1.722Zm7.578-2.053Zm-.152-.626Zm-11.152,0,.023-.057C-16724.709-10146.264-16724.719-10146.245-16724.725-10146.227Zm6.334-.533Zm4.063-.528Zm-1.09-.519Zm-.07-.01h0Zm-6.16-.014Zm22,4.067c-.055,0-.107-.006-.16-.01a11.054,11.054,0,0,1-2.127-.263,11.6,11.6,0,0,1-6.965-4.853,12.407,12.407,0,0,1-2.084-6.753,1.027,1.027,0,0,1-.014-.174,1.152,1.152,0,0,1,.012-.165,13.241,13.241,0,0,1,.117-1.665,12.084,12.084,0,0,1,4.027-7.506,11.2,11.2,0,0,1,8.105-2.763,11.36,11.36,0,0,1,7.619,3.782,12.587,12.587,0,0,1,3.123,8.214c0,.033,0,.068,0,.1a1.124,1.124,0,0,1-.006.115,12.754,12.754,0,0,1-.434,3.159,12.193,12.193,0,0,1-5.035,6.985,11.166,11.166,0,0,1-5.727,1.78c-.039,0-.08.007-.121.009a.942.942,0,0,1-.176.016A.967.967,0,0,1-16699.652-10143.763Zm-.9-2.6v-3.55h-2.156c.041.126.084.252.127.378.029.084.061.167.09.251.008.023.047.117.061.153.117.277.24.549.375.816a9.931,9.931,0,0,0,.5.865c.037.059.08.122.121.181.014.018.023.031.029.04.074.1.152.189.232.283.1.113.205.227.314.331.043.041.211.181.225.194S-16700.576-10146.385-16700.549-10146.366Zm2.115-.017c.035-.024.068-.049.1-.074l.041-.034c.092-.084.184-.172.273-.264s.18-.193.264-.3c.047-.055.26-.341.186-.232a9.765,9.765,0,0,0,.9-1.627c.041-.1.088-.21.129-.314-.1.26.008-.018.025-.06.059-.167.121-.335.176-.508l.041-.121h-2.135Zm-2.193-.039Zm-4.436-1.467a10.772,10.772,0,0,0,1.264.817,13.643,13.643,0,0,1-.785-1.791q-.187-.52-.342-1.054h-2.088l.061.088c.023.029.078.1.094.122.051.066.1.13.15.192.105.126.211.252.32.374.23.26.479.512.734.751.117.109.238.215.365.319l.053.044C-16705.18-10147.979-16705.119-10147.935-16705.062-10147.889Zm10.764-1.314a14.739,14.739,0,0,1-.9,2.128c.014-.008.029-.016.043-.024.281-.155.555-.323.824-.508.15-.109.307-.219.453-.332l.121-.095.105-.086c.244-.214.479-.432.705-.667a10.368,10.368,0,0,0,.7-.789c.051-.063.1-.126.146-.193s.059-.078.051-.066c.02-.027.037-.054.057-.08h-2.086C-16694.146-10149.677-16694.219-10149.438-16694.3-10149.2Zm-7.088,1.99Zm-3.838-.8Zm2.8-1.1Zm10.342-.671c-.033.046-.068.1.012-.018a.237.237,0,0,0,.02-.027C-16692.057-10149.827-16692.068-10149.809-16692.082-10149.79Zm-14.807.05Zm-1.91-4.651a11.274,11.274,0,0,0,.516,2.065c.023.064.045.128.068.19h2.789a21.307,21.307,0,0,1-.266-2.569h-3.145v0c0,.047.008.093.014.139C-16708.818-10154.533-16708.8-10154.421-16708.8-10154.392Zm17.971,2.255h.035c.006-.014.01-.024.012-.03.029-.08.059-.16.084-.239.055-.16.109-.319.156-.483.1-.327.18-.659.246-.99.039-.2.072-.4.1-.6a.894.894,0,0,1,.014-.091c0-.045.01-.091.014-.136h-3.162a23.2,23.2,0,0,1-.26,2.569Zm-4.91,0c.037-.2.07-.4.1-.6.018-.1.033-.205.047-.311,0-.012.018-.129.023-.183q.088-.737.125-1.479h-2.99v2.569Zm-4.811,0v-2.569h-3.014c.018.373.047.746.082,1.116.014.105.021.215.039.319,0,.054.008.085.008.1s0,.016,0,.024c.029.206.059.407.092.613l.07.395Zm10.359-2.368c0,.03,0,.06-.006.067s0-.031.01-.088l.006-.044C-16690.182-10154.562-16690.186-10154.534-16690.189-10154.5Zm-18.617.063c-.008-.059-.012-.094-.016-.112C-16708.816-10154.516-16708.812-10154.479-16708.807-10154.441Zm18.646-2.485c-.008-.077-.016-.154-.023-.229,0-.014,0-.036-.01-.069-.025-.173-.055-.345-.084-.513a11.271,11.271,0,0,0-.49-1.761l-.061,0h-2.744a23.585,23.585,0,0,1,.25,2.569Zm-5.785,0h.51c-.01-.25-.023-.5-.043-.747s-.043-.5-.072-.752c0-.021-.045-.369-.012-.121-.012-.105-.029-.206-.043-.312-.033-.213-.066-.426-.105-.638h-2.723v2.569Zm-4.6,0v-2.569h-2.746c-.039.212-.074.424-.105.638-.016.105-.029.206-.041.312.029-.248-.014.1-.018.121-.021.214-.041.429-.059.643-.023.285-.041.57-.055.856Zm-6.57,0h1.432a25.344,25.344,0,0,1,.256-2.569h-2.729c-.027,0-.053,0-.078,0-.023.066-.049.133-.068.2-.109.319-.211.646-.291.974a10.474,10.474,0,0,0-.213,1.1c0,.027-.008.048-.01.062-.008.076-.016.156-.023.236Zm16.939-.21Zm-.01-.067c0,.013,0,.025.006.036a.011.011,0,0,1,0-.007c-.01-.069-.012-.094-.012-.094A.592.592,0,0,0-16690.189-10157.2Zm-1.752-4.513c-.025-.038-.053-.075-.078-.113s-.2-.261-.029-.038c-.18-.239-.365-.47-.566-.692-.219-.243-.441-.479-.676-.7-.117-.108-.24-.218-.361-.323-.029-.025-.164-.134-.123-.1-.035-.027-.07-.055-.1-.082a10.749,10.749,0,0,0-1.273-.836,13.87,13.87,0,0,1,1.115,2.885Zm-4.311,0c-.062-.2-.131-.4-.205-.6-.027-.083-.059-.165-.092-.248.043.11-.041-.094-.055-.13-.066-.151-.135-.307-.205-.453-.139-.281-.287-.562-.445-.827-.092-.147-.186-.294-.281-.433-.039-.051-.189-.252,0,0l-.127-.164a5.829,5.829,0,0,0-.533-.575c-.031-.027-.062-.055-.092-.082s-.053-.039-.072-.052l-.07-.052v3.615Zm-4.3,0v-3.632c-.033.021-.064.044-.1.068l-.092.072a.214.214,0,0,1-.021.02,5.613,5.613,0,0,0-.58.617c-.02.025-.039.051-.061.075.072-.1-.041.047-.068.093q-.126.176-.24.365c-.176.29-.34.588-.486.895-.072.15-.143.3-.205.453-.014.026-.062.146-.066.161-.018.044-.035.089-.051.133q-.126.337-.234.68Zm-4.416,0a15.052,15.052,0,0,1,.91-2.473c.066-.14.135-.278.207-.416-.141.078-.279.159-.418.244-.293.185-.582.382-.859.6-.035.025-.068.052-.1.077l-.127.107c-.123.105-.244.21-.361.323-.252.239-.5.491-.73.756-.109.122-.215.248-.314.374-.051.067-.1.13-.152.193l-.031.04-.123.178Zm11.279-1.9-.062-.048Zm-4.564-1.584Zm-2.461-.033.09-.074Zm20.789,14.861a3.73,3.73,0,0,1-2.367-1.078,6.832,6.832,0,0,1-1.98-4.231,4.8,4.8,0,0,1,1.91-4.312,4.293,4.293,0,0,1,4.613-.265,4.769,4.769,0,0,1,2.34,4.06c0,.02,0,.039,0,.059a6.684,6.684,0,0,1-2.064,4.744,3.666,3.666,0,0,1-2.318,1.027C-16679.832-10150.366-16679.877-10150.367-16679.922-10150.37Zm.209-2.225h0a2.726,2.726,0,0,0,.293-.086c.033-.017.1-.047.119-.061.063-.038.125-.076.188-.118l.1-.066.107-.093a4.081,4.081,0,0,0,.381-.407c.033-.037.063-.074.094-.112l.088-.127a6.309,6.309,0,0,0,.482-.9.4.4,0,0,0,.018-.042c.012-.03.023-.062.033-.093.029-.075.059-.159.084-.239.045-.159.092-.318.125-.482.021-.08.033-.159.051-.239,0-.021.008-.062.012-.1.012-.126.018-.255.021-.38,0-.071-.041-.481-.008-.275-.016-.1-.033-.2-.055-.3s-.059-.218-.1-.327c-.008-.027-.016-.048-.02-.061s-.018-.041-.025-.062c-.051-.1-.1-.2-.156-.289-.025-.045-.189-.28-.107-.176a3.3,3.3,0,0,0-.387-.421l-.133-.1-.031-.023c-.094-.059-.182-.117-.277-.167-.041-.023-.25-.112-.207-.1a1.923,1.923,0,0,0-.209-.067c-.109-.029-.215-.059-.318-.076h-.008a1.083,1.083,0,0,0-.127-.007,2.966,2.966,0,0,0-.336,0,1.06,1.06,0,0,0-.127.007h-.008a2.942,2.942,0,0,0-.549.151l-.064.022c-.066.034-.131.069-.191.1s-.139.084-.207.13c-.025.021-.129.1-.133.1a3.047,3.047,0,0,0-.258.257c-.045.052-.092.1-.137.157-.014.024-.074.112-.09.137a2.907,2.907,0,0,0-.23.44c0,.009-.008.018-.012.024l-.006.018c-.023.084-.049.164-.07.243a2.323,2.323,0,0,0-.055.252c-.006.027-.016.11-.02.152a4.329,4.329,0,0,0-.006.478c.006.049.01.1.014.148s.012.083.016.1a5.782,5.782,0,0,0,.256.961c.016.04.031.079.045.119l.006.016c.033.075.072.155.109.23a4.824,4.824,0,0,0,.244.449c.041.076.088.147.133.219.016.022.082.114.1.135.078.1.156.2.24.289.076.075.148.151.227.223.027.024.123.1.125.1.086.062.176.121.266.173.037.019.143.066.141.068l.07.023c.066.021.133.038.205.055h0A2.129,2.129,0,0,0-16679.713-10152.595Zm-.605-.1-.076-.031Zm-.352-.221Zm-.59-.611Zm-.576-1.009Zm-.322-1.146Zm4.643-.688Zm-.139-.635Zm-.285-.562Zm-.471-.512Zm-.512-.319-.053-.021Zm-.592-.176Zm-39.709,8.2a3.739,3.739,0,0,1-2.367-1.078,6.853,6.853,0,0,1-1.98-4.231,4.8,4.8,0,0,1,1.914-4.312,4.292,4.292,0,0,1,4.613-.265,4.768,4.768,0,0,1,2.336,4.055c0,.021,0,.042,0,.063s0,.042,0,.063a6.666,6.666,0,0,1-2.059,4.682,3.666,3.666,0,0,1-2.322,1.027C-16719.133-10150.366-16719.178-10150.367-16719.223-10150.37Zm-.066-2.225a2.079,2.079,0,0,0,.281,0,2.938,2.938,0,0,0,.289-.085l.123-.062c.063-.038.125-.076.184-.118.037-.024.072-.048.107-.073s.082-.069.1-.086a3.918,3.918,0,0,0,.387-.407c.029-.036.061-.073.09-.11s.078-.108.092-.129a6.729,6.729,0,0,0,.482-.9l.025-.063c.01-.023.018-.047.025-.071.029-.075.055-.159.078-.239a4.569,4.569,0,0,0,.131-.482c.018-.08.033-.159.047-.239.006-.036.018-.144.021-.165.008-.1.012-.21.012-.313,0-.067-.037-.44-.01-.3-.016-.089-.029-.179-.053-.269a3,3,0,0,0-.094-.327c-.01-.025-.016-.045-.021-.059s-.018-.043-.027-.063a2.96,2.96,0,0,0-.156-.289c-.025-.045-.191-.281-.1-.175a3.427,3.427,0,0,0-.393-.422c-.02-.019-.1-.076-.121-.1s-.029-.02-.041-.029c-.09-.059-.182-.117-.273-.167-.055-.03-.373-.164-.113-.06a2.064,2.064,0,0,0-.307-.1,3.016,3.016,0,0,0-.318-.076h-.012a1,1,0,0,0-.119-.007,3.035,3.035,0,0,0-.34,0,1.24,1.24,0,0,0-.133.008h0a2.824,2.824,0,0,0-.545.151l-.064.022-.2.1c-.066.042-.139.084-.2.13-.031.022-.156.122-.129.1a3.186,3.186,0,0,0-.266.261c-.045.052-.092.1-.137.157-.014.024-.074.112-.09.137a3.842,3.842,0,0,0-.23.44h0l-.014.041a2.158,2.158,0,0,0-.07.243,1.677,1.677,0,0,0-.059.252c-.006.034-.018.16-.02.177a3.9,3.9,0,0,0,0,.453c0,.035,0,.071.008.107s.014.115.018.145a5.435,5.435,0,0,0,.26.961c.01.031.021.062.031.093l.02.042a2.46,2.46,0,0,0,.109.23,4.017,4.017,0,0,0,.238.449c.043.076.09.147.135.219.021.03.135.186.088.126a3.866,3.866,0,0,0,.252.3c.072.075.148.151.223.223.027.024.123.1.125.1.088.062.178.121.27.173.033.018.129.062.139.068s.047.017.072.023c.063.021.135.038.2.055Zm-.273-.077Zm-.059-.023-.07-.029Zm-.348-.219Zm2.256-.644.045-.062C-16717.687-10153.593-16717.7-10153.572-16717.713-10153.558Zm-3.42-.977Zm4.291-1.146.012-.131C-16716.832-10155.789-16716.836-10155.748-16716.842-10155.68Zm-4.613,0c-.006-.052-.01-.087-.014-.11C-16721.465-10155.753-16721.461-10155.716-16721.455-10155.68Zm4.643-.688Zm-.143-.635Zm-.281-.562Zm-.471-.512Zm-2.844-.03,0,0Zm.035-.029a.085.085,0,0,1,.014-.012A.085.085,0,0,0-16720.516-10158.137Zm1.705-.436Zm-2.035-3.879a1.136,1.136,0,0,1-.74-1.364c.072-.349.146-.7.236-1.037a23.8,23.8,0,0,1,11.182-14.844,1.04,1.04,0,0,1,1.445.395,1.151,1.151,0,0,1-.379,1.52c-.133.075-.264.151-.395.227a21.506,21.506,0,0,0-1.893,1.26c-.172.126-.34.256-.508.386-.025.021-.26.214-.072.055-.07.059-.143.118-.209.177-.277.234-.555.474-.822.722-.555.521-1.092,1.066-1.6,1.642-.26.3-.516.6-.764.919-.113.143-.227.29-.336.437-.01.013-.018.023-.025.032l-.029.044c-.051.075-.109.146-.16.223a22.719,22.719,0,0,0-2.279,4.059c-.055.118-.1.231-.15.349-.014.029-.131.323-.035.084-.07.177-.137.353-.205.533-.129.356-.256.718-.369,1.079-.234.768-.437,1.545-.6,2.33a1.057,1.057,0,0,1-1.031.813A.938.938,0,0,1-16720.846-10162.451Zm18.379-.078c.014-.037.029-.074.045-.111a1.106,1.106,0,0,1-.047.112Zm22.936-1.068c-.055-.252-.113-.5-.176-.751a22.554,22.554,0,0,0-.709-2.275c-.043-.122-.088-.239-.135-.356-.006-.02-.059-.154-.066-.175-.059-.146-.119-.288-.186-.435-.146-.34-.307-.684-.475-1.02a21.608,21.608,0,0,0-1.133-2.032c-.215-.34-.434-.676-.668-1-.051-.075-.105-.151-.16-.227-.025-.037-.041-.059-.049-.071-.113-.151-.223-.294-.336-.441a22.435,22.435,0,0,0-3.174-3.282c-.033-.025-.332-.269-.139-.113-.072-.059-.139-.113-.215-.168-.143-.113-.285-.227-.432-.336-.295-.214-.588-.424-.891-.63a22.629,22.629,0,0,0-1.951-1.158,1.147,1.147,0,0,1-.383-1.52,1.053,1.053,0,0,1,1.449-.4c.373.2.742.4,1.107.626a23.921,23.921,0,0,1,10.76,15.171,1.139,1.139,0,0,1-.738,1.369,1,1,0,0,1-.268.037A1.074,1.074,0,0,1-16679.531-10163.6Zm-1.049-3.467Zm-2.65-4.8Zm-18.17,7.366-.064.089C-16701.445-10164.438-16701.422-10164.468-16701.4-10164.5Zm3.752-7.027h-8.648a1.093,1.093,0,0,1-1.053-1.107v-2.742a4.874,4.874,0,0,1,1.619-3.753,4.511,4.511,0,0,1,2.137-1.045,9.56,9.56,0,0,1,1.549-.075,1.314,1.314,0,0,1,1.059.638c.289.345.58.685.869,1.028.209.247.416.493.625.739.18-.215.361-.431.541-.646.287-.34.572-.685.861-1.024a1.764,1.764,0,0,1,.811-.7,4,4,0,0,1,1.264-.033,4.385,4.385,0,0,1,2.207.7,4.911,4.911,0,0,1,2.158,4.06v2.851a1.09,1.09,0,0,1-1.053,1.107Zm-3.7-2.221h7.586v-1.737c0-.089,0-.177-.008-.265,0-.022-.012-.082-.018-.126a3.236,3.236,0,0,0-.076-.34c-.02-.066-.158-.424-.082-.257a3.534,3.534,0,0,0-.16-.322c-.043-.072-.084-.139-.131-.21l-.025-.038h0c-.084-.105-.172-.206-.264-.3-.051-.046-.379-.311-.152-.143a2.569,2.569,0,0,0-.33-.223c-.072-.042-.139-.079-.211-.117l-.01,0-.031-.012a3.08,3.08,0,0,0-.387-.126c-.074-.016-.148-.035-.223-.048-.107-.008-.215-.016-.322-.016h-.33q-1.113,1.324-2.219,2.646a1.02,1.02,0,0,1-1.494,0q-1.122-1.324-2.24-2.646h-.316c-.092,0-.186,0-.277.013-.027,0-.119.018-.154.022l-.051.012a2.982,2.982,0,0,0-.391.113c-.031.01-.062.022-.094.035l-.023.011a3.548,3.548,0,0,0-.346.2c-.051.036-.1.069-.152.106a.082.082,0,0,0-.016.012,3.815,3.815,0,0,0-.436.452c.014-.008-.139.216-.164.262-.049.092-.1.185-.143.279.016-.028-.088.246-.1.3-.029.109-.055.218-.074.331,0,.019-.006.034-.01.046h0l-.012.176c0,.063,0,.13,0,.193v1.721Zm7.574-2.053Zm-.152-.625Zm-11.148,0c.008-.021.016-.039.021-.053C-16705.061-10176.457-16705.068-10176.439-16705.074-10176.422Zm6.334-.533Zm2.973-1.047Zm-7.4,0,.055-.011Zm1.172-.023Zm2.426-2.535a3.731,3.731,0,0,1-2.367-1.079,6.853,6.853,0,0,1-1.98-4.231,4.807,4.807,0,0,1,1.91-4.312,4.291,4.291,0,0,1,4.617-.26,4.768,4.768,0,0,1,2.336,4.056c0,.02,0,.039,0,.059v.063a6.663,6.663,0,0,1-2.064,4.681,3.644,3.644,0,0,1-2.318,1.028C-16699.482-10180.562-16699.527-10180.562-16699.572-10180.565Zm-.066-2.225a2.159,2.159,0,0,0,.275,0h0a2.76,2.76,0,0,0,.295-.086c.031-.017.092-.048.115-.062a1.782,1.782,0,0,0,.189-.117l.109-.073c.029-.027.08-.069.1-.086a3.511,3.511,0,0,0,.383-.407c.033-.037.063-.074.094-.112s.074-.107.088-.127a6.177,6.177,0,0,0,.486-.9l.006-.016c.014-.04.029-.079.045-.119.025-.075.055-.155.078-.239a4.613,4.613,0,0,0,.127-.482c.021-.08.037-.16.051-.239,0-.035.016-.132.02-.161.008-.106.014-.213.014-.317,0-.076-.047-.533,0-.231a3.455,3.455,0,0,0-.062-.34,2.608,2.608,0,0,0-.094-.323q-.015-.047-.023-.067c-.008-.019-.018-.038-.025-.059a2.975,2.975,0,0,0-.156-.29c-.025-.044-.191-.281-.1-.174a3.427,3.427,0,0,0-.393-.422c-.041-.033-.25-.193-.033-.029-.041-.033-.088-.067-.129-.1-.094-.059-.182-.117-.273-.168-.055-.029-.379-.159-.113-.059a2.665,2.665,0,0,0-.307-.109c-.1-.023-.2-.052-.3-.068a1.439,1.439,0,0,0-.145-.011,2.818,2.818,0,0,0-.34,0c-.047,0-.1.006-.146.01a2.9,2.9,0,0,0-.537.149l-.029.01-.014.007c-.07.033-.143.071-.215.113s-.137.08-.205.126c-.029.023-.174.139-.117.088a3.087,3.087,0,0,0-.273.269c-.047.055-.1.11-.141.166-.021.031-.072.106-.086.128a3.382,3.382,0,0,0-.23.441.069.069,0,0,0-.008.018c0,.009-.006.018-.01.028-.025.08-.049.159-.07.239a2.323,2.323,0,0,0-.055.252c-.006.027-.016.112-.02.154a4.29,4.29,0,0,0,0,.476c0,.035,0,.071.008.107s.014.114.018.145a5.782,5.782,0,0,0,.256.961c.02.049.039.1.057.147.035.071.068.146.1.218a4.824,4.824,0,0,0,.244.449c.041.075.088.146.133.219.02.027.115.157.1.137.076.1.156.193.242.287.072.075.143.15.223.223.043.037.248.2.021.029a3.289,3.289,0,0,0,.373.247c.031.018.119.058.137.067s.045.018.07.025a1.991,1.991,0,0,0,.205.055Zm-.273-.078Zm-1.57-1.861Zm-.012-.029s0,.006,0,.008l-.035-.087S-16701.516-10184.812-16701.494-10184.759Zm-.311-1.117c-.006-.051-.01-.086-.014-.11C-16701.814-10185.949-16701.811-10185.912-16701.8-10185.876Zm4.5-1.322Zm-.281-.562Zm-1.578-1.008Z" transform="translate(34251 21647)"/>
</svg>
