<svg xmlns="http://www.w3.org/2000/svg" viewBox="17636.996 12187.003 80 80">
  <defs>
    <style>
      .cls-1 {
        fill: #5ca1bf;
      }
    </style>
  </defs>
  <path id="Union_8" data-name="Union 8" class="cls-1" d="M-21883.191-2874.7a9.227,9.227,0,0,1,7.271-10.1V-2892h3.3v7.118a9.23,9.23,0,0,1,7.811,9.686,9.233,9.233,0,0,1-8.961,8.639c-.082,0-.172,0-.254,0A9.231,9.231,0,0,1-21883.191-2874.7Zm3.273-1.1a5.907,5.907,0,0,0,5.914,5.9,5.906,5.906,0,0,0,5.916-5.9v-.008a5.916,5.916,0,0,0-5.916-5.9A5.909,5.909,0,0,0-21879.918-2875.8Zm-25.568,1.025a9.259,9.259,0,0,1-.91-12.464,9.262,9.262,0,0,1,12.334-2.02l5.109-5.074,2.324,2.305-5.039,5.033a9.237,9.237,0,0,1-1.32,12.423,9.238,9.238,0,0,1-6.139,2.324A9.251,9.251,0,0,1-21905.486-2874.775Zm2.244-10.918a5.9,5.9,0,0,0,0,8.354,5.9,5.9,0,0,0,8.352,0,5.9,5.9,0,0,0,0-8.354,5.881,5.881,0,0,0-4.172-1.73A5.893,5.893,0,0,0-21903.242-2885.693Zm47.766,10.71a9.181,9.181,0,0,1-1.211-11.535l-5.094-5.1,2.338-2.334,5.033,5.033a9.187,9.187,0,0,1,11.969.889,9.214,9.214,0,0,1,.008,13.038,9.178,9.178,0,0,1-6.518,2.7A9.206,9.206,0,0,1-21855.477-2874.983Zm2.359-10.7a5.9,5.9,0,0,0-.016,8.354,5.9,5.9,0,0,0,8.357.014l.021-.022a5.907,5.907,0,0,0-.139-8.223,5.9,5.9,0,0,0-4.18-1.729A5.882,5.882,0,0,0-21853.117-2885.684Zm-30.773-10.025a1.655,1.655,0,0,1-1.656-1.65v-18.4a1.651,1.651,0,0,1,1.656-1.643h19.781a1.649,1.649,0,0,1,1.654,1.643v18.4a1.653,1.653,0,0,1-1.654,1.65Zm1.637-3.295h16.5v-15.109h-16.5Zm30.031-5.635h-7.221v-3.294h7.154a9.189,9.189,0,0,1,9.061-7.829h.006a9.216,9.216,0,0,1,9.2,8.557,9.206,9.206,0,0,1-7.9,9.755,9.326,9.326,0,0,1-1.291.09A9.216,9.216,0,0,1-21852.223-2904.639Zm3.086-1.93a5.906,5.906,0,0,0,5.908,5.906v.01a5.922,5.922,0,0,0,5.916-5.908,5.913,5.913,0,0,0-5.91-5.912h-.006A5.905,5.905,0,0,0-21849.137-2906.569Zm-55.646,9.209a9.209,9.209,0,0,1-9.2-8.552,9.213,9.213,0,0,1,7.9-9.759,9.221,9.221,0,0,1,10.3,7.194h7.2v3.293h-7.129a9.2,9.2,0,0,1-9.07,7.824Zm-5.908-9.2a5.911,5.911,0,0,0,5.908,5.917,5.908,5.908,0,0,0,5.916-5.9,5.913,5.913,0,0,0-5.914-5.913v0A5.9,5.9,0,0,0-21910.691-2906.561Zm33.117,0v-3.293h7.158v3.293Zm16.2-14.528,5.035-5.033a9.249,9.249,0,0,1,1.316-12.426,9.266,9.266,0,0,1,12.5.207,9.249,9.249,0,0,1,.926,12.463,9.284,9.284,0,0,1-12.346,2.021l-5.1,5.074Zm8.258-14.679v.01a5.9,5.9,0,0,0,0,8.34,5.912,5.912,0,0,0,8.363,0,5.906,5.906,0,0,0,0-8.35,5.924,5.924,0,0,0-4.187-1.729A5.881,5.881,0,0,0-21853.117-2935.768Zm-40.492,11.566a9.221,9.221,0,0,1-12.6-1.581,9.2,9.2,0,0,1,.961-12.654,9.214,9.214,0,0,1,12.7.335l.023-.031a9.179,9.179,0,0,1,1.215,11.529l5.082,5.1-2.334,2.333Zm-1.281-3.229a5.9,5.9,0,0,0,0-8.346,5.919,5.919,0,0,0-8.377,0,5.919,5.919,0,0,0,0,8.381l.025-.032A5.918,5.918,0,0,0-21894.891-2927.431Zm19.5,6.314v-7.117a9.221,9.221,0,0,1-7.8-9.682,9.221,9.221,0,0,1,8.953-8.639,9.23,9.23,0,0,1,9.426,8.132,9.229,9.229,0,0,1-7.264,10.1v7.2Zm-4.531-16.2v.009a5.915,5.915,0,0,0,5.914,5.9,5.908,5.908,0,0,0,5.916-5.908,5.908,5.908,0,0,0-5.916-5.907A5.909,5.909,0,0,0-21879.918-2937.317Z" transform="translate(39551 15133.561)"/>
</svg>
