<svg xmlns="http://www.w3.org/2000/svg" viewBox="16835 12547 78 80">
  <defs>
    <style>
      .cls-1 {
        fill: #5ca1bf;
      }
    </style>
  </defs>
  <path id="Combined-Shape" class="cls-1" d="M20.952,51.33l-19.5-5.963a2.063,2.063,0,0,1-.385-3.783L74.947,1.219a2.061,2.061,0,0,1,2.988,2.3L59.393,79.387a2.06,2.06,0,0,1-3.553.867L37.1,58.778,23.14,73.819a2.06,2.06,0,0,1-3.565-1.539Zm14.431,3.126L53.342,28.2,25.1,51.03l-1.034,15.73,11.148-12.01A2.067,2.067,0,0,1,35.383,54.456ZM7.346,42.855l15.461,4.729L61.69,16.156a2.061,2.061,0,0,1,2.994,2.77l-25,36.542L56.333,74.549,72.823,7.078Z" transform="translate(16835.002 12546.039)"/>
</svg>
