<svg xmlns="http://www.w3.org/2000/svg" viewBox="17521 11238 56 56">
  <defs>
    <style>
      .cls-1, .cls-2 {
        fill: #fff;
      }

      .cls-1 {
        stroke: #95989a;
        opacity: 0;
      }

      .cls-3 {
        stroke: none;
      }

      .cls-4 {
        fill: none;
      }
    </style>
  </defs>
  <g id="Group_2175" data-name="Group 2175" transform="translate(16622 10016)">
    <g id="Rectangle_4408" data-name="Rectangle 4408" class="cls-1" transform="translate(899 1222)">
      <rect class="cls-3" width="56" height="56"/>
      <rect class="cls-4" x="0.5" y="0.5" width="55" height="55"/>
    </g>
    <path id="Union_5" data-name="Union 5" class="cls-2" d="M-9781,456.776A26.805,26.805,0,0,1-9754.225,430a26.641,26.641,0,0,1,17.29,6.349,1.554,1.554,0,0,1,.153,2.143,1.555,1.555,0,0,1-2.143.152,23.842,23.842,0,0,0-15.3-5.585,23.736,23.736,0,0,0-23.715,23.716,23.8,23.8,0,0,0,23.715,23.791,23.736,23.736,0,0,0,23.716-23.714,23.018,23.018,0,0,0-.918-6.5,1.531,1.531,0,0,1,1.072-1.914,1.529,1.529,0,0,1,1.911,1.072,25.61,25.61,0,0,1,1,7.268,26.806,26.806,0,0,1-26.777,26.775A26.805,26.805,0,0,1-9781,456.776Zm23.791,10.558-12.009-12.011a1.479,1.479,0,0,1,0-2.143,1.479,1.479,0,0,1,2.143,0l10.938,11.018,28.535-28.614a1.629,1.629,0,0,1,2.143,0,1.479,1.479,0,0,1,0,2.143l-29.607,29.607a1.5,1.5,0,0,1-1.07.458A1.516,1.516,0,0,1-9757.209,467.334Z" transform="translate(10680 793)"/>
  </g>
</svg>
