<svg id="Capa_1" enable-background="new 0 0 511.81 511.81" height="512" viewBox="0 0 511.81 511.81" width="512" xmlns="http://www.w3.org/2000/svg"><path d="m406.14 272.659v-142.072l-130.577-130.577h-275.563v495.79h331.994c17.619 10.173 38.05 16 59.816 16 66.168 0 120-53.832 120-120 0-61.319-46.233-112.035-105.67-119.141zm-121.787-221.433 69.574 69.574h-69.574zm-254.353-21.216h224.353v120.79h121.787v122.023c-58.791 7.701-104.33 58.119-104.33 118.977 0 27.896 9.568 53.599 25.595 74h-267.405zm361.81 451.79c-49.626 0-90-40.374-90-90s40.374-90 90-90 90 40.374 90 90-40.374 90-90 90z"/><path d="m74.81 196.467h256.333v30h-256.333z"/><path d="m74.81 136.467h120v30h-120z"/><path d="m74.81 316.467h120v30h-120z"/><path d="m74.81 256.467h180v30h-180z"/><path d="m378.611 391.04-22.603-23.261-21.515 20.906 42.632 43.875 68.668-61.231-19.966-22.391z"/></svg>